<?xml version="1.0" encoding="UTF-8"?>
<svg xmlns="http://www.w3.org/2000/svg" version="1.1" xmlns:xlink="http://www.w3.org/1999/xlink" viewBox="0 0 192.86 192.86">
  <defs>
    <style>
      .cls-1 {
        font-family: Brevia-MediumItalic, Brevia;
        font-style: italic;
        font-weight: 500;
      }

      .cls-1, .cls-2, .cls-3 {
        font-size: 18.08px;
      }

      .cls-1, .cls-2, .cls-4 {
        fill: #ffe266;
      }

      .cls-5 {
        fill: #ff5d24;
        mix-blend-mode: hard-light;
      }

      .cls-5, .cls-6, .cls-7, .cls-4, .cls-8, .cls-9 {
        stroke-width: 0px;
      }

      .cls-2, .cls-3 {
        font-family: Brevia-Black, Brevia;
        font-weight: 800;
      }

      .cls-10 {
        isolation: isolate;
      }

      .cls-6 {
        fill: url(#linear-gradient);
        mix-blend-mode: multiply;
        opacity: .71;
      }

      .cls-7 {
        fill: none;
      }

      .cls-3, .cls-11, .cls-12, .cls-8 {
        fill: #fff;
      }

      .cls-11 {
        font-size: 16.07px;
      }

      .cls-11, .cls-12 {
        font-family: Brevia-Regular, Brevia;
      }

      .cls-13 {
        clip-path: url(#clippath);
      }

      .cls-12 {
        font-size: 7.87px;
      }

      .cls-9 {
        fill: #ff64c4;
      }
    </style>
    <linearGradient id="linear-gradient" x1="95.92" y1="-29.06" x2="96.87" y2="205.71" gradientUnits="userSpaceOnUse">
      <stop offset=".4" stop-color="#fff" stop-opacity=".33"/>
      <stop offset="1" stop-color="#ff5d24"/>
    </linearGradient>
    <clipPath id="clippath">
      <path class="cls-7" d="M92,142.89c-2.13,0-3.86,1.73-3.86,3.86v3.64c0,5.92,4.8,10.72,10.72,10.72,2.13,0,3.86-1.73,3.86-3.86v-3.64c0-5.92-4.8-10.72-10.72-10.72Z"/>
    </clipPath>
  </defs>
  <g class="cls-10">
    <g id="Layer_1" data-name="Layer 1">
      <g>
        <rect class="cls-9" x="0" width="192.86" height="192.86"/>
        <rect class="cls-6" x="0" width="192.86" height="192.86"/>
        <text transform="translate(13.06 30.17)"><tspan><tspan class="cls-11" x="0" y="0">What smells </tspan><tspan class="cls-1" x="105.42" y="0">sweet</tspan><tspan class="cls-11" x="159.17" y="0">,</tspan></tspan><tspan><tspan class="cls-11" x="0" y="20.89">and </tspan><tspan class="cls-2" x="34.78" y="20.89">melts</tspan><tspan class="cls-11" x="87.76" y="20.89" xml:space="preserve"> in your </tspan></tspan><tspan class="cls-11"><tspan x="0" y="41.79">mouth?</tspan></tspan></text>
        <g>
          <path class="cls-8" d="M67.5,167.39c0-2.72,1.56-4.5,3.48-4.5,1.66,0,2.54,1.29,2.71,1.78h.12c-.02-1.26-.07-2.96-.08-3.34-.03-.66.02-.96.77-.96.91,0,1.13.45,1.11.99-.03.49-.17,7.5-.05,10,.02.35.18.87-.2,1.03-.13.05-.45.08-.69.08-.81,0-.92-.71-.77-1.51h-.1s-.77,1.51-2.79,1.51-3.5-1.88-3.5-5.08ZM73.8,168.18v-1.48c-.1-.42-.86-2.35-2.45-2.35-1.08,0-2.03.82-2.03,3.03,0,2.32.92,3.65,2.2,3.65,1.21,0,2.29-1.09,2.29-2.84Z"/>
          <path class="cls-8" d="M77.61,163.79c0-.47-.1-.91.79-.91.94,0,1.08.42,1.08.87,0,1.58-.1,3.24-.1,5.03,0,1.23.5,2.22,1.66,2.22,1.5,0,2.3-1.48,2.59-2.17.02-1.21.03-2.6.03-3.53,0-.55,0-.98-.02-1.13-.05-.66-.03-1.13.55-1.13h.69c.62,0,.62.57.6,1.01-.02.32-.03.82-.03,1.43-.03,2.12-.03,5.48-.03,6.07,0,.44.25.91-.77.91-.94,0-1.08-.64-1.08-1.18,0-.08.02-.25.02-.6h-.12c-.12.37-.86,1.78-2.79,1.78-2.37,0-3.18-1.66-3.18-3.7,0-1.36.1-2.81.1-4.98Z"/>
          <path class="cls-8" d="M87.65,161.27c0-.62-.05-.91.79-.91.94,0,1.08.47,1.08,1.01,0,.45-.05,2.5-.1,3.28h.15c.32-.87,1.43-1.76,2.99-1.76,1.81,0,3.13,1.14,3.13,2.84,0,2.12-2.22,2.71-2.22,2.71.57,3.64,2.85,6.59,5.83,7.5,1.09.33,3.01.62,5.09-.1,1.13-.39,1.95-.96,2.47-1.38-.06.42-.23,1.15-.75,1.87-.66.9-1.51,1.27-2,1.48-2,.85-4.53.5-6.12-.1-5.37-2.03-6.5-9.38-6.54-9.69l.15-.27c1.24-.1,2.32-.72,2.32-1.92,0-.86-.72-1.55-1.73-1.55-1.73,0-2.76,2.05-2.76,3.83,0,.69-.03,2.02.02,3.06.02.47.25,1.13-.55,1.13h-.67c-.62,0-.64-.57-.62-1.01.03-1.11.07-9.7.07-10.02Z"/>
          <path class="cls-8" d="M107.42,163.79c0-.47-.1-.91.79-.91.94,0,1.08.42,1.08.87,0,1.58-.1,3.24-.1,5.03,0,1.23.5,2.22,1.66,2.22,1.5,0,2.3-1.48,2.59-2.17.02-1.21.03-2.6.03-3.53,0-.55,0-.98-.02-1.13-.05-.66-.03-1.13.55-1.13h.69c.62,0,.62.57.6,1.01-.02.32-.03.82-.03,1.43-.03,2.12-.03,5.48-.03,6.07,0,.44.25.91-.77.91-.94,0-1.08-.64-1.08-1.18,0-.08.02-.25.02-.6h-.12c-.12.37-.86,1.78-2.79,1.78-2.37,0-3.18-1.66-3.18-3.7,0-1.36.1-2.81.1-4.98Z"/>
          <path class="cls-8" d="M117.17,161.27c0-.62-.05-.91.79-.91.94,0,1.08.47,1.08,1.01,0,.45-.05,2.5-.1,3.28h.15c.32-.87,1.43-1.76,2.99-1.76,1.82,0,3.13,1.14,3.13,2.84,0,2.12-2.22,2.71-2.22,2.71.24.54,1.34,2.08,1.98,2.97.18.27.39.45.39.45,0,0-.17.61-1.08.61-.6,0-.96-.22-1.24-.61-.5-.67-1.5-2.87-2.08-3.85l.15-.27c1.24-.1,2.32-.72,2.32-1.92,0-.86-.72-1.55-1.73-1.55-1.73,0-2.76,2.05-2.76,3.83,0,.69-.03,2.02.02,3.06.02.47.25,1.13-.55,1.13h-.67c-.62,0-.64-.57-.62-1.01.03-1.11.07-9.7.07-10.02Z"/>
          <path class="cls-8" d="M97.42,167.39c0-2.72,1.56-4.5,3.48-4.5,1.66,0,2.54,1.29,2.71,1.78h.12c-.02-1.26-.07-2.96-.08-3.34-.03-.66.02-.96.77-.96.91,0,1.13.45,1.11.99-.03.49-.17,7.5-.05,10,.02.35.18.87-.2,1.03-.13.05-.45.08-.69.08-.81,0-.92-.71-.77-1.51h-.1s-.77,1.51-2.79,1.51-3.5-1.88-3.5-5.08ZM103.72,168.18v-1.48c-.1-.42-.86-2.35-2.45-2.35-1.08,0-2.03.82-2.03,3.03,0,2.32.92,3.65,2.2,3.65,1.21,0,2.29-1.09,2.29-2.84Z"/>
          <g class="cls-13">
            <path class="cls-4" d="M92,142.89c-2.13,0-3.86,1.73-3.86,3.86v3.64c0,5.92,4.8,10.72,10.72,10.72,2.13,0,3.86-1.73,3.86-3.86v-3.64c0-5.92-4.8-10.72-10.72-10.72Z"/>
            <path class="cls-5" d="M85.23,148.29c1.28-.57,3.18,4.16,7.58,6.23,4.3,2.02,9.33.72,13.49-1.14-.22,4.58-2.43,8.66-5.92,10.17-5.81,2.51-12.53-3.25-14.74-8.3-1.26-2.89-1.45-6.49-.42-6.95Z"/>
            <path class="cls-8" d="M85.23,133.69c1.28-.57,3.18,4.16,7.58,6.23,4.3,2.02,9.33.72,13.49-1.14-.22,4.58-2.43,8.66-5.92,10.17-5.81,2.51-12.53-3.25-14.74-8.3-1.26-2.89-1.45-6.49-.42-6.95Z"/>
          </g>
        </g>
        <text class="cls-3" transform="translate(32.58 113.58)"><tspan x="0" y="0">come find out</tspan></text>
        <text class="cls-12" transform="translate(64.28 123.32)"><tspan x="0" y="0">www.dukduk.ca</tspan></text>
      </g>
    </g>
  </g>
</svg>