<?xml version="1.0" encoding="UTF-8"?>
<svg xmlns="http://www.w3.org/2000/svg" version="1.1" xmlns:xlink="http://www.w3.org/1999/xlink" viewBox="0 0 192.86 192.86">
  <defs>
    <style>
      .cls-1 {
        opacity: .11;
      }

      .cls-1, .cls-2, .cls-3 {
        fill: none;
      }

      .cls-1, .cls-3 {
        stroke: #ffe266;
        stroke-miterlimit: 10;
        stroke-width: .54px;
      }

      .cls-4, .cls-5, .cls-6 {
        font-family: Brevia-Black, Brevia;
        font-weight: 800;
      }

      .cls-7 {
        mix-blend-mode: hard-light;
      }

      .cls-7, .cls-2, .cls-8, .cls-9, .cls-10, .cls-11, .cls-12 {
        stroke-width: 0px;
      }

      .cls-7, .cls-8 {
        fill: #ff5d24;
      }

      .cls-13 {
        isolation: isolate;
      }

      .cls-14 {
        clip-path: url(#clippath-1);
      }

      .cls-5 {
        font-size: 18.08px;
      }

      .cls-5, .cls-15, .cls-6, .cls-16, .cls-11 {
        fill: #fff;
      }

      .cls-9 {
        opacity: .2;
      }

      .cls-9, .cls-10, .cls-12 {
        fill: #ffe266;
      }

      .cls-17 {
        font-family: Brevia-RegularItalic, Brevia;
        font-style: italic;
      }

      .cls-15 {
        font-size: 13.39px;
      }

      .cls-18 {
        clip-path: url(#clippath);
      }

      .cls-6 {
        font-size: 16.07px;
      }

      .cls-16 {
        font-size: 7.87px;
      }

      .cls-16, .cls-19 {
        font-family: Brevia-Regular, Brevia;
      }

      .cls-3, .cls-12 {
        opacity: .39;
      }
    </style>
    <clipPath id="clippath">
      <rect class="cls-2" width="192.86" height="192.86"/>
    </clipPath>
    <clipPath id="clippath-1">
      <path class="cls-2" d="M92.8,150.38c-1.74,0-3.16,1.41-3.16,3.16v2.98c0,4.85,3.93,8.77,8.77,8.77,1.74,0,3.16-1.41,3.16-3.16v-2.98c0-4.85-3.93-8.77-8.77-8.77Z"/>
    </clipPath>
  </defs>
  <g class="cls-13">
    <g id="Layer_1" data-name="Layer 1">
      <g>
        <text class="cls-5" transform="translate(24.28 145.27)"><tspan x="0" y="0">come find out</tspan></text>
        <g class="cls-18">
          <rect class="cls-8" width="192.86" height="192.86"/>
          <path class="cls-12" d="M12.14-15.89C-5.59-15.89-19.97-1.51-19.97,16.23v30.28c0,49.27,39.94,89.21,89.21,89.21,17.73,0,32.11-14.38,32.11-32.11v-30.28C101.35,24.05,61.41-15.89,12.14-15.89Z"/>
          <path class="cls-9" d="M169.32,37.92c-17.73,0-32.11,14.38-32.11,32.11v30.28c0,49.27,39.94,89.21,89.21,89.21,17.73,0,32.11-14.38,32.11-32.11v-30.28c0-49.27-39.94-89.21-89.21-89.21Z"/>
          <path class="cls-3" d="M-.56-5.71c-17.73,0-32.11,14.38-32.11,32.11v30.28c0,49.27,39.94,89.21,89.21,89.21,17.73,0,32.11-14.38,32.11-32.11v-30.28C88.65,34.23,48.71-5.71-.56-5.71Z"/>
          <path class="cls-1" d="M166.8,52.82c-17.73,0-32.11,14.38-32.11,32.11v30.28c0,49.27,39.94,89.21,89.21,89.21,17.73,0,32.11-14.38,32.11-32.11v-30.28c0-49.27-39.94-89.21-89.21-89.21Z"/>
        </g>
        <text class="cls-15" transform="translate(13.61 25.34)"><tspan class="cls-19" x="0" y="0">Why stop to </tspan><tspan class="cls-17" x="86.42" y="0">smell</tspan><tspan class="cls-19" x="121.47" y="0" xml:space="preserve"> a </tspan><tspan class="cls-19"><tspan x="0" y="15.54">rose.</tspan></tspan><tspan class="cls-19"><tspan x="0" y="31.07">When you can put</tspan></tspan><tspan class="cls-19" x="0" y="46.61">a </tspan><tspan class="cls-4" x="12.2" y="46.61">dozen</tspan><tspan class="cls-19" x="52.79" y="46.61" xml:space="preserve"> duks close to </tspan><tspan class="cls-19"><tspan x="0" y="62.14" xml:space="preserve">your nose.  </tspan></tspan><tspan class="cls-19"><tspan x="0" y="77.68"> </tspan></tspan></text>
        <g>
          <path class="cls-11" d="M72.75,170.44c0-2.23,1.28-3.69,2.85-3.69,1.36,0,2.08,1.06,2.21,1.46h.1c-.01-1.03-.05-2.42-.07-2.74-.03-.54.01-.78.63-.78.74,0,.92.37.91.81-.03.4-.14,6.14-.04,8.19.01.29.15.72-.17.84-.11.04-.37.07-.56.07-.66,0-.76-.58-.63-1.24h-.08s-.63,1.24-2.28,1.24-2.86-1.54-2.86-4.15ZM77.91,171.09v-1.21c-.08-.34-.7-1.93-2.01-1.93-.88,0-1.66.67-1.66,2.48,0,1.9.76,2.99,1.8,2.99.99,0,1.87-.89,1.87-2.32Z"/>
          <path class="cls-11" d="M81.02,167.49c0-.38-.08-.74.65-.74.77,0,.88.34.88.72,0,1.29-.08,2.66-.08,4.11,0,1,.41,1.82,1.36,1.82,1.22,0,1.88-1.21,2.12-1.77.01-.99.03-2.13.03-2.89,0-.45,0-.8-.01-.92-.04-.54-.03-.92.45-.92h.56c.51,0,.51.47.5.83-.01.26-.03.67-.03,1.17-.03,1.73-.03,4.49-.03,4.97,0,.36.21.74-.63.74-.77,0-.88-.52-.88-.96,0-.07.01-.21.01-.5h-.1c-.1.3-.7,1.46-2.28,1.46-1.94,0-2.6-1.36-2.6-3.03,0-1.11.08-2.3.08-4.07Z"/>
          <path class="cls-11" d="M89.24,165.43c0-.51-.04-.74.65-.74.77,0,.88.38.88.83,0,.37-.04,2.05-.08,2.68h.12c.26-.72,1.17-1.44,2.45-1.44,1.49,0,2.56.94,2.56,2.32,0,1.73-1.82,2.22-1.82,2.22.47,2.98,2.34,5.4,4.77,6.14.89.27,2.47.5,4.16-.08.92-.32,1.6-.79,2.02-1.13-.05.35-.19.94-.62,1.53-.54.74-1.23,1.04-1.64,1.21-1.64.69-3.71.41-5.01-.08-4.39-1.66-5.32-7.67-5.36-7.93l.12-.22c1.02-.08,1.9-.59,1.9-1.57,0-.7-.59-1.27-1.42-1.27-1.42,0-2.26,1.68-2.26,3.14,0,.56-.03,1.65.01,2.5.01.39.21.92-.45.92h-.55c-.51,0-.52-.47-.51-.83.03-.91.06-7.94.06-8.2Z"/>
          <path class="cls-11" d="M105.42,167.49c0-.38-.08-.74.65-.74.77,0,.88.34.88.72,0,1.29-.08,2.66-.08,4.11,0,1,.41,1.82,1.36,1.82,1.22,0,1.88-1.21,2.12-1.77.01-.99.03-2.13.03-2.89,0-.45,0-.8-.01-.92-.04-.54-.03-.92.45-.92h.56c.51,0,.51.47.5.83-.01.26-.03.67-.03,1.17-.03,1.73-.03,4.49-.03,4.97,0,.36.21.74-.63.74-.77,0-.88-.52-.88-.96,0-.07.01-.21.01-.5h-.1c-.1.3-.7,1.46-2.28,1.46-1.94,0-2.6-1.36-2.6-3.03,0-1.11.08-2.3.08-4.07Z"/>
          <path class="cls-11" d="M113.41,165.43c0-.51-.04-.74.65-.74.77,0,.88.38.88.83,0,.37-.04,2.05-.08,2.68h.12c.26-.72,1.17-1.44,2.45-1.44,1.49,0,2.56.94,2.56,2.32,0,1.73-1.82,2.22-1.82,2.22.19.44,1.1,1.71,1.62,2.43.15.22.32.37.32.37,0,0-.14.5-.88.5-.5,0-.78-.18-1.02-.5-.41-.55-1.22-2.35-1.71-3.15l.12-.22c1.02-.08,1.9-.59,1.9-1.57,0-.7-.59-1.27-1.42-1.27-1.42,0-2.26,1.68-2.26,3.14,0,.56-.03,1.65.01,2.5.01.39.21.92-.45.92h-.55c-.51,0-.52-.47-.51-.83.03-.91.05-7.94.05-8.2Z"/>
          <path class="cls-11" d="M97.24,170.44c0-2.23,1.28-3.69,2.85-3.69,1.36,0,2.08,1.06,2.21,1.46h.1c-.01-1.03-.05-2.42-.07-2.74-.03-.54.01-.78.63-.78.74,0,.92.37.91.81-.03.4-.14,6.14-.04,8.19.01.29.15.72-.17.84-.11.04-.37.07-.56.07-.66,0-.76-.58-.63-1.24h-.08s-.63,1.24-2.28,1.24-2.86-1.54-2.86-4.15ZM102.4,171.09v-1.21c-.08-.34-.7-1.93-2.01-1.93-.88,0-1.66.67-1.66,2.48,0,1.9.76,2.99,1.8,2.99.99,0,1.87-.89,1.87-2.32Z"/>
          <g class="cls-14">
            <path class="cls-10" d="M92.8,150.38c-1.74,0-3.16,1.41-3.16,3.16v2.98c0,4.85,3.93,8.77,8.77,8.77,1.74,0,3.16-1.41,3.16-3.16v-2.98c0-4.85-3.93-8.77-8.77-8.77Z"/>
            <path class="cls-7" d="M87.26,154.81c1.05-.47,2.6,3.41,6.2,5.1,3.52,1.65,7.64.59,11.05-.93-.18,3.75-1.99,7.09-4.84,8.33-4.75,2.06-10.26-2.66-12.07-6.8-1.03-2.37-1.19-5.31-.34-5.69Z"/>
            <path class="cls-11" d="M87.26,142.85c1.05-.47,2.6,3.41,6.2,5.1,3.52,1.65,7.64.59,11.05-.93-.18,3.75-1.99,7.09-4.84,8.33-4.75,2.06-10.26-2.66-12.07-6.8-1.03-2.37-1.19-5.31-.34-5.69Z"/>
          </g>
        </g>
        <text class="cls-6" transform="translate(55.59 116.55)"><tspan x="0" y="0">smell the </tspan><tspan x="-3.13" y="12.32">sweetness</tspan></text>
        <text class="cls-16" transform="translate(64.28 138.85)"><tspan x="0" y="0">www.dukduk.ca</tspan></text>
      </g>
    </g>
  </g>
</svg>