<?xml version="1.0" encoding="UTF-8"?>
<svg xmlns="http://www.w3.org/2000/svg" version="1.1" xmlns:xlink="http://www.w3.org/1999/xlink" viewBox="0 0 192.86 192.86">
  <defs>
    <style>
      .cls-1, .cls-2 {
        font-family: Brevia-Regular, Brevia;
      }

      .cls-1, .cls-3 {
        fill: #ff64c4;
      }

      .cls-2 {
        font-size: 7.87px;
      }

      .cls-2, .cls-4, .cls-5, .cls-6, .cls-7 {
        fill: #ff5d24;
      }

      .cls-8 {
        font-size: 15.54px;
      }

      .cls-4 {
        mix-blend-mode: hard-light;
      }

      .cls-4, .cls-9, .cls-10, .cls-11, .cls-3 {
        stroke-width: 0px;
      }

      .cls-12 {
        isolation: isolate;
      }

      .cls-9 {
        fill: none;
      }

      .cls-10 {
        fill: #ffe266;
      }

      .cls-13 {
        clip-path: url(#clippath);
      }

      .cls-5 {
        font-family: Brevia-Medium, Brevia;
      }

      .cls-5, .cls-6 {
        font-weight: 500;
      }

      .cls-11 {
        fill: #fff;
      }

      .cls-6 {
        font-family: Brevia-MediumItalic, Brevia;
        font-style: italic;
      }

      .cls-7 {
        font-family: Brevia-Black, Brevia;
        font-size: 18.08px;
        font-weight: 800;
      }
    </style>
    <clipPath id="clippath">
      <path class="cls-9" d="M92.56,151.73c-1.86,0-3.37,1.51-3.37,3.37v3.18c0,5.17,4.19,9.36,9.36,9.36,1.86,0,3.37-1.51,3.37-3.37v-3.18c0-5.17-4.19-9.36-9.36-9.36Z"/>
    </clipPath>
  </defs>
  <g class="cls-12">
    <g id="Layer_1" data-name="Layer 1">
      <g>
        <rect class="cls-10" width="192.86" height="192.86"/>
        <g>
          <path class="cls-3" d="M71.16,173.13c0-2.38,1.37-3.93,3.04-3.93,1.45,0,2.22,1.13,2.36,1.56h.1c-.01-1.1-.06-2.58-.07-2.92-.03-.57.01-.84.68-.84.79,0,.98.4.97.87-.03.43-.15,6.55-.04,8.73.01.31.16.76-.18.9-.12.04-.4.07-.6.07-.7,0-.81-.62-.68-1.32h-.09s-.67,1.32-2.44,1.32-3.05-1.64-3.05-4.43ZM76.67,173.82v-1.29c-.09-.37-.75-2.06-2.14-2.06-.94,0-1.78.72-1.78,2.64,0,2.03.81,3.19,1.92,3.19,1.06,0,2-.95,2-2.48Z"/>
          <path class="cls-3" d="M79.99,169.99c0-.41-.09-.79.69-.79.82,0,.94.37.94.76,0,1.38-.09,2.83-.09,4.39,0,1.07.44,1.94,1.45,1.94,1.31,0,2.01-1.29,2.26-1.89.01-1.06.03-2.28.03-3.08,0-.48,0-.85-.01-.98-.04-.57-.03-.98.48-.98h.6c.54,0,.54.5.53.88-.01.28-.03.72-.03,1.25-.03,1.85-.03,4.79-.03,5.3,0,.38.22.79-.68.79-.82,0-.94-.56-.94-1.03,0-.07.01-.22.01-.53h-.1c-.1.32-.75,1.56-2.44,1.56-2.07,0-2.77-1.45-2.77-3.23,0-1.19.09-2.45.09-4.35Z"/>
          <path class="cls-3" d="M88.76,167.79c0-.54-.04-.79.69-.79.82,0,.94.41.94.88,0,.4-.04,2.19-.09,2.86h.13c.28-.76,1.25-1.54,2.61-1.54,1.58,0,2.73,1,2.73,2.48,0,1.85-1.94,2.36-1.94,2.36.5,3.18,2.49,5.76,5.09,6.55.95.29,2.63.54,4.44-.09.99-.34,1.71-.84,2.15-1.2-.05.37-.2,1.01-.66,1.63-.57.79-1.31,1.11-1.75,1.29-1.75.74-3.96.43-5.35-.09-4.69-1.77-5.68-8.19-5.71-8.46l.13-.23c1.09-.09,2.03-.63,2.03-1.67,0-.75-.63-1.35-1.51-1.35-1.51,0-2.41,1.79-2.41,3.35,0,.6-.03,1.76.01,2.67.01.41.22.98-.48.98h-.59c-.54,0-.56-.5-.54-.88.03-.97.06-8.47.06-8.75Z"/>
          <path class="cls-3" d="M106.03,169.99c0-.41-.09-.79.69-.79.82,0,.94.37.94.76,0,1.38-.09,2.83-.09,4.39,0,1.07.44,1.94,1.45,1.94,1.31,0,2.01-1.29,2.26-1.89.01-1.06.03-2.28.03-3.08,0-.48,0-.85-.01-.98-.04-.57-.03-.98.48-.98h.6c.54,0,.54.5.53.88-.01.28-.03.72-.03,1.25-.03,1.85-.03,4.79-.03,5.3,0,.38.22.79-.68.79-.82,0-.94-.56-.94-1.03,0-.07.01-.22.01-.53h-.1c-.1.32-.75,1.56-2.44,1.56-2.07,0-2.77-1.45-2.77-3.23,0-1.19.09-2.45.09-4.35Z"/>
          <path class="cls-3" d="M114.55,167.79c0-.54-.04-.79.69-.79.82,0,.94.41.94.88,0,.4-.04,2.19-.09,2.86h.13c.28-.76,1.25-1.54,2.61-1.54,1.59,0,2.73,1,2.73,2.48,0,1.85-1.94,2.36-1.94,2.36.21.47,1.17,1.82,1.73,2.6.16.23.34.4.34.4,0,0-.15.53-.94.53-.53,0-.84-.19-1.09-.53-.44-.59-1.31-2.51-1.82-3.36l.13-.23c1.09-.09,2.03-.63,2.03-1.67,0-.75-.63-1.35-1.51-1.35-1.51,0-2.41,1.79-2.41,3.35,0,.6-.03,1.76.01,2.67.01.41.22.98-.48.98h-.59c-.54,0-.56-.5-.54-.88.03-.97.06-8.47.06-8.75Z"/>
          <path class="cls-3" d="M97.29,173.13c0-2.38,1.37-3.93,3.04-3.93,1.45,0,2.22,1.13,2.36,1.56h.1c-.01-1.1-.06-2.58-.07-2.92-.03-.57.01-.84.68-.84.79,0,.98.4.97.87-.03.43-.15,6.55-.04,8.73.01.31.16.76-.18.9-.12.04-.4.07-.6.07-.7,0-.81-.62-.68-1.32h-.09s-.67,1.32-2.44,1.32-3.05-1.64-3.05-4.43ZM102.8,173.82v-1.29c-.09-.37-.75-2.06-2.14-2.06-.94,0-1.78.72-1.78,2.64,0,2.03.81,3.19,1.92,3.19,1.06,0,2-.95,2-2.48Z"/>
          <g class="cls-13">
            <path class="cls-10" d="M92.56,151.73c-1.86,0-3.37,1.51-3.37,3.37v3.18c0,5.17,4.19,9.36,9.36,9.36,1.86,0,3.37-1.51,3.37-3.37v-3.18c0-5.17-4.19-9.36-9.36-9.36Z"/>
            <path class="cls-4" d="M86.64,156.45c1.12-.5,2.78,3.63,6.62,5.44,3.75,1.76,8.15.63,11.79-1-.2,4-2.12,7.57-5.17,8.89-5.07,2.19-10.95-2.84-12.87-7.25-1.1-2.53-1.27-5.67-.36-6.07Z"/>
            <path class="cls-11" d="M86.64,142.88c1.12-.5,2.78,3.63,6.62,5.44,3.75,1.76,8.15.63,11.79-1-.2,4-2.12,7.57-5.17,8.89-5.07,2.19-10.95-2.84-12.87-7.25-1.1-2.53-1.27-5.67-.36-6.07Z"/>
          </g>
        </g>
        <text class="cls-8" transform="translate(15.76 27.25)"><tspan class="cls-1" x="0" y="0">Craving </tspan><tspan class="cls-5" x="64.46" y="0">sweet</tspan><tspan class="cls-1" x="111.53" y="0">?</tspan><tspan class="cls-1" x="0" y="17.68">Craving </tspan><tspan class="cls-6" x="64.46" y="17.68">warm</tspan><tspan class="cls-1" x="109.65" y="17.68">? </tspan><tspan class="cls-1" x="0" y="40.71">Grab some </tspan><tspan class="cls-6" x="88.85" y="40.71">toasty</tspan><tspan class="cls-1"><tspan x="0" y="58.39">flavor bombs!</tspan></tspan></text>
        <text class="cls-2" transform="translate(52.07 136.5)"><tspan x="0" y="0">www.dukduk.ca/order</tspan></text>
        <text class="cls-7" transform="translate(46.7 126.69)"><tspan x="0" y="0">order here</tspan></text>
      </g>
    </g>
  </g>
</svg>