<?xml version="1.0" encoding="UTF-8"?>
<svg id="Layer_1" data-name="Layer 1" xmlns="http://www.w3.org/2000/svg" version="1.1" xmlns:xlink="http://www.w3.org/1999/xlink" viewBox="0 0 219.94 65.51">
  <defs>
    <style>
      .cls-1 {
        fill: url(#linear-gradient);
      }

      .cls-1, .cls-2, .cls-3, .cls-4 {
        stroke-width: 0px;
      }

      .cls-2 {
        fill: #ffe97f;
      }

      .cls-3 {
        fill: #527284;
      }

      .cls-5 {
        letter-spacing: -.06em;
      }

      .cls-5, .cls-4, .cls-6 {
        fill: #0d2533;
      }

      .cls-5, .cls-6 {
        font-family: Adelle-RegularItalic, Adelle;
        font-size: 11.39px;
        font-style: italic;
      }

      .cls-6 {
        letter-spacing: -.04em;
      }
    </style>
    <linearGradient id="linear-gradient" x1="176.16" y1="21.36" x2="213.15" y2="59.1" gradientUnits="userSpaceOnUse">
      <stop offset=".18" stop-color="#ffe97f"/>
      <stop offset=".24" stop-color="#6189a3"/>
      <stop offset=".35" stop-color="#5e5944"/>
      <stop offset=".61" stop-color="#fff1af"/>
      <stop offset=".81" stop-color="#343434"/>
      <stop offset=".89" stop-color="#2372ad"/>
    </linearGradient>
  </defs>
  <path class="cls-2" d="M26.13,39.72c-34.84-34.84,34.49-34.84-.34,0,34.84-34.84,34.84,34.49,0-.34,34.84,34.84-34.49,34.84.34,0-34.84,34.84-34.84-34.49,0,.34Z"/>
  <path class="cls-4" d="M82.17,39.72c-34.84-34.84,34.49-34.84-.34,0,34.84-34.84,34.84,34.49,0-.34,34.84,34.84-34.49,34.84.34,0-34.84,34.84-34.84-34.49,0,.34Z"/>
  <path class="cls-3" d="M138.21,39.72c-34.84-34.84,34.49-34.84-.34,0,34.84-34.84,34.84,34.49,0-.34,34.84,34.84-34.49,34.84.34,0-34.84,34.84-34.84-34.49,0,.34Z"/>
  <path class="cls-1" d="M194.16,39.72c-34.84-34.84,34.49-34.84-.34,0,34.84-34.84,34.84,34.49,0-.34,34.84,34.84-34.49,34.84.34,0-34.84,34.84-34.84-34.49,0,.34Z"/>
  <text class="cls-5" transform="translate(9.99 9.81)"><tspan x="0" y="0">#ffe97f</tspan></text>
  <text class="cls-6" transform="translate(62.85 9.81)"><tspan x="0" y="0">#0d2533</tspan></text>
  <text class="cls-6" transform="translate(119.84 9.81)"><tspan x="0" y="0">#527284</tspan></text>
  <text class="cls-5" transform="translate(172.02 9.81)"><tspan x="0" y="0">Gradient</tspan></text>
</svg>