<?xml version="1.0" encoding="UTF-8"?>
<svg id="Layer_1" data-name="Layer 1" xmlns="http://www.w3.org/2000/svg" version="1.1" viewBox="0 0 247.52 196.79">
  <defs>
    <style>
      .cls-1 {
        fill: #ffde55;
      }

      .cls-1, .cls-2 {
        stroke-width: 0px;
      }

      .cls-2 {
        fill: #527284;
      }
    </style>
  </defs>
  <rect class="cls-2" width="247.52" height="196.79"/>
  <g>
    <g>
      <path class="cls-1" d="M142.99,21.66h31.61v31.61c-.04-2.17-.45-13.64-9.85-22.67-8.81-8.47-19.39-8.9-21.76-8.94Z"/>
      <path class="cls-1" d="M126.78,37.97c0-8.95,7.26-16.21,16.21-16.21v-.1h0c-9.02,0-17.18,3.66-23.09,9.56-4.39,4.39-6.86,10.15-6.86,10.15-.36.81-.62,1.5-.78,1.95-.37,1.01-.72,2.13-1.02,3.35-.71,2.88-.91,5.5-.9,7.64h0s32.65,0,32.65,0v-.13c-8.95,0-16.21-7.26-16.21-16.21Z"/>
      <path class="cls-1" d="M142.99,30.15c-5.39,0-9.96,3.53-11.51,8.41,1.59-.91,3.58-1.25,5.14-1.18,2.09.1,3.66.96,4.47,1.49-3.63-.79-7.2,1.06-8.44,4.14-.95,2.36-.43,5.15,1.31,7.23,2.21,2.5,5.44,4.08,9.03,4.08,6.67,0,12.08-5.41,12.08-12.08s-5.41-12.08-12.08-12.08Z"/>
      <path class="cls-1" d="M111.38,56.52c-17.46,0-31.61,14.15-31.61,31.61s14.15,31.61,31.61,31.61h0c34.92,0,63.22-28.31,63.22-63.22h0s-63.22,0-63.22,0ZM112.74,88.94c-.22-4.1-3.58-7.37-7.73-7.37-3.47,0-6.41,2.27-7.41,5.41,1.02-.59,2.31-.81,3.31-.76,1.35.06,2.35.62,2.87.96-2.33-.51-4.63.68-5.43,2.66-.61,1.52-.28,3.31.84,4.65,1.42,1.61,3.5,2.62,5.81,2.62,2.64,0,4.96-1.32,6.36-3.32-2.03,3.82-6.04,6.42-10.67,6.42-6.67,0-12.08-5.41-12.08-12.08s5.41-12.08,12.08-12.08,12.08,5.41,12.08,12.08c0,.27-.02.54-.04.81Z"/>
    </g>
    <g>
      <path class="cls-1" d="M63.1,103.61h17.68v15.19h-17.68v-15.19ZM63.2,124.62h17.48v46.18h-17.48v-46.18Z"/>
      <path class="cls-1" d="M100.13,154.25c.94,4.42,2.08,6.26,5.1,6.26,1.98,0,2.91-.92,2.91-2.3,0-3.22-3.95-4.14-11.34-8.2-6.76-3.68-10.82-7.28-10.82-13.54,0-7.92,6.45-12.9,18.72-12.9,10.82,0,17.89,3.87,19.56,14.65l-14.67,2.3c-.73-4.7-2.29-6.36-4.79-6.36-1.98,0-2.91.92-2.91,2.3,0,2.49,3.33,4.24,10.82,8.01,6.24,3.13,11.96,7.09,11.96,14,0,7.65-5.51,12.8-18.62,12.8s-18.83-4.61-20.6-14.74l14.67-2.3Z"/>
      <path class="cls-1" d="M128.94,147.43c0-11.29,2.29-17.89,8.63-21.29,3.02-1.65,7.39-2.57,11.86-2.57,10.92,0,18.1,4.59,19.76,14.68l-16.95,3.21c-.31-4.86-.42-6.51-2.7-6.51-1.35,0-2.18.64-2.5,2.75-.21,1.28-.42,5.05-.42,9.73s.21,8.44.42,9.73c.31,2.11,1.14,2.75,2.5,2.75,2.39,0,2.5-1.74,2.7-6.88l17.06,3.21c-1.46,9.82-8.01,15.05-19.87,15.05-4.47,0-8.84-.92-11.86-2.57-6.35-3.39-8.63-10-8.63-21.29Z"/>
      <path class="cls-1" d="M174.71,103.61h17.48v22.94c2.29-3.46,6.66-4.42,10.51-4.42,8.53,0,12.27,4.13,12.27,17.95v30.72h-17.47v-32.83c0-5.18-.94-5.86-2.6-5.86-2.18,0-2.7,1.15-2.7,7.2v31.49h-17.48v-67.19Z"/>
      <path class="cls-1" d="M32.93,170.8h17.48v-32.24h7.38v-13.94h-7.38v-2.08c0-4.89,1.98-6.24,5.93-6.24h1.66v-13.31c-1.56-.21-3.74-.31-5.72-.31-12.9,0-19.35,5.62-19.35,18v3.95h-4.89v13.94h4.89v32.24Z"/>
    </g>
  </g>
</svg>