<?xml version="1.0" encoding="UTF-8"?>
<svg id="Layer_1" data-name="Layer 1" xmlns="http://www.w3.org/2000/svg" version="1.1" viewBox="0 0 356.07 169.1">
  <defs>
    <style>
      .cls-1 {
        fill: #ffde55;
      }

      .cls-1, .cls-2 {
        stroke-width: 0px;
      }

      .cls-2 {
        fill: #527284;
      }
    </style>
  </defs>
  <rect class="cls-2" width="356.07" height="169.1"/>
  <g>
    <path class="cls-1" d="M91.84,39.58h32.51v32.51c-.04-2.23-.46-14.03-10.13-23.32-9.06-8.71-19.94-9.15-22.38-9.19Z"/>
    <path class="cls-1" d="M75.17,56.36c0-9.21,7.46-16.67,16.67-16.67v-.1h0c-9.27,0-17.67,3.76-23.75,9.84-4.52,4.52-7.06,10.44-7.06,10.44-.37.84-.63,1.54-.8,2.01-.38,1.04-.74,2.19-1.05,3.44-.73,2.97-.93,5.65-.92,7.86h0s33.58,0,33.58,0v-.14c-9.21,0-16.67-7.46-16.67-16.67Z"/>
    <path class="cls-1" d="M91.84,48.31c-5.55,0-10.24,3.64-11.84,8.65,1.63-.94,3.69-1.29,5.28-1.21,2.15.1,3.76.99,4.6,1.53-3.73-.82-7.4,1.09-8.68,4.26-.98,2.42-.44,5.3,1.35,7.43,2.28,2.57,5.59,4.2,9.29,4.2,6.86,0,12.43-5.56,12.43-12.43s-5.56-12.43-12.43-12.43Z"/>
    <path class="cls-1" d="M59.33,75.43c-17.96,0-32.51,14.56-32.51,32.51s14.56,32.51,32.51,32.51c35.91,0,65.02-29.11,65.02-65.02h0s-65.02,0-65.02,0ZM60.73,108.78c-.22-4.22-3.68-7.58-7.95-7.58-3.57,0-6.59,2.34-7.62,5.57,1.05-.6,2.37-.83,3.4-.78,1.38.07,2.42.63,2.96.99-2.4-.53-4.76.7-5.59,2.74-.63,1.56-.28,3.41.87,4.78,1.46,1.65,3.6,2.7,5.98,2.7,2.71,0,5.1-1.36,6.54-3.42-2.09,3.93-6.22,6.6-10.97,6.6-6.86,0-12.43-5.56-12.43-12.43s5.56-12.43,12.43-12.43,12.43,5.56,12.43,12.43c0,.28-.02.56-.04.83Z"/>
    <g>
      <path class="cls-1" d="M173.06,39.58h18.19v15.62h-18.19v-15.62ZM173.17,61.19h17.97v47.5h-17.97v-47.5Z"/>
      <path class="cls-1" d="M211.15,91.67c.96,4.55,2.14,6.44,5.24,6.44,2.03,0,3-.95,3-2.37,0-3.32-4.07-4.26-11.66-8.43-6.95-3.79-11.13-7.48-11.13-13.93,0-8.15,6.63-13.26,19.26-13.26,11.13,0,18.4,3.98,20.11,15.06l-15.08,2.37c-.75-4.83-2.35-6.54-4.92-6.54-2.03,0-3,.95-3,2.37,0,2.56,3.42,4.36,11.13,8.24,6.42,3.22,12.3,7.29,12.3,14.4,0,7.86-5.67,13.17-19.15,13.17s-19.36-4.74-21.18-15.16l15.08-2.37Z"/>
      <path class="cls-1" d="M240.78,84.66c0-11.61,2.35-18.4,8.88-21.89,3.1-1.7,7.6-2.64,12.2-2.64,11.23,0,18.61,4.72,20.33,15.1l-17.44,3.3c-.32-5-.43-6.7-2.78-6.7-1.39,0-2.25.66-2.57,2.83-.21,1.32-.43,5.19-.43,10s.21,8.68.43,10c.32,2.17,1.18,2.83,2.57,2.83,2.46,0,2.57-1.79,2.78-7.08l17.54,3.3c-1.5,10.1-8.24,15.48-20.43,15.48-4.6,0-9.09-.94-12.2-2.64-6.53-3.49-8.88-10.29-8.88-21.89Z"/>
      <path class="cls-1" d="M287.85,39.58h17.97v23.6c2.35-3.55,6.85-4.54,10.8-4.54,8.77,0,12.62,4.25,12.62,18.46v31.59h-17.97v-33.76c0-5.33-.96-6.02-2.67-6.02-2.25,0-2.78,1.18-2.78,7.4v32.38h-17.97V39.58Z"/>
      <path class="cls-1" d="M142.04,108.69h17.97v-33.16h7.6v-14.34h-7.6v-2.14c0-5.03,2.03-6.42,6.1-6.42h1.71v-13.69c-1.6-.21-3.85-.32-5.88-.32-13.27,0-19.9,5.78-19.9,18.51v4.07h-5.03v14.34h5.03v33.16Z"/>
    </g>
  </g>
</svg>