<?xml version="1.0" encoding="UTF-8"?>
<svg id="Layer_1" data-name="Layer 1" xmlns="http://www.w3.org/2000/svg" version="1.1" viewBox="0 0 277.73 85.4">
  <defs>
    <style>
      .cls-1 {
        fill: #14365b;
        stroke-width: 0px;
      }
    </style>
  </defs>
  <g>
    <path class="cls-1" d="M10.9,11.89H.13l1.68-2.49h9.1v2.49ZM10.84.43l-1.69,2.49H.9V.43h9.94ZM8.28,4.21l-2.58,3.87h-3.01l2.59-3.87h2.99Z"/>
    <path class="cls-1" d="M14.94,11.89h-2.49V.43h2.49v11.46Z"/>
    <path class="cls-1" d="M21.82,12.12c-1.51-.16-2.78-.81-3.8-1.95-1.02-1.14-1.53-2.47-1.53-4.01s.51-2.9,1.53-4.05c1.02-1.15,2.29-1.81,3.8-1.97v2.56c-.82.15-1.5.55-2.03,1.2-.54.65-.8,1.4-.8,2.26s.27,1.61.8,2.26c.53.65,1.21,1.04,2.03,1.2v2.51ZM27.28,2.5l-1.99,1.54c-.55-.71-1.27-1.15-2.15-1.32V.14c1.71.17,3.09.96,4.14,2.36ZM27.28,9.82c-1.06,1.35-2.44,2.12-4.14,2.31v-2.52c.88-.17,1.6-.61,2.15-1.3l1.99,1.52Z"/>
    <path class="cls-1" d="M31.32,11.89h-2.49V.43h2.49v11.46ZM37.2,11.89h-4.56v-2.49h4.56v2.49Z"/>
    <path class="cls-1" d="M41.24,11.89h-2.49V.43h2.49v11.46ZM47.11,2.92h-4.56V.43h4.56v2.49ZM47.11,7.41h-4.56v-2.49h4.56v2.49ZM47.11,11.89h-4.56v-2.49h4.56v2.49Z"/>
    <path class="cls-1" d="M56.37,2.92h-7.71V.43h7.71v2.49ZM53.76,11.89h-2.49v-7.65h2.49v7.65Z"/>
    <path class="cls-1" d="M65.48,8.4c0,1.06-.38,1.96-1.14,2.69-.76.73-1.64,1.1-2.63,1.1s-1.86-.33-2.59-1c-.8-.73-1.2-1.66-1.2-2.81h2.49c0,.39.13.71.38.95.25.24.56.37.92.37.34,0,.64-.13.9-.39.25-.26.38-.56.38-.9,0-.29-.09-.54-.27-.77-.18-.23-.41-.38-.69-.46l1.18-2.25c1.52.69,2.28,1.85,2.28,3.48ZM64.98,3.64h-2.55c-.03-.24-.11-.46-.26-.65-.16-.23-.36-.35-.6-.35s-.46.09-.64.28c-.18.19-.27.41-.27.65,0,.3.14.53.43.69.16.09.44.18.85.27l-1.17,2.27c-.74-.17-1.35-.53-1.83-1.06-.53-.59-.79-1.3-.79-2.13,0-.97.33-1.8,1-2.46.67-.67,1.48-1,2.42-1s1.71.32,2.36.95c.7.67,1.05,1.52,1.05,2.55Z"/>
    <path class="cls-1" d="M82.63,11.89h-2.49v-6.61l-3.12,2.48-5.63-4.56V0l5.67,4.56L82.63.04v11.85ZM73.88,11.89h-2.49v-7.02l2.49,2.03v4.99Z"/>
    <path class="cls-1" d="M86.67,11.89h-2.49V.43h2.49v11.46ZM92.55,2.92h-4.56V.43h4.56v2.49ZM92.55,7.41h-4.56v-2.49h4.56v2.49ZM92.55,11.89h-4.56v-2.49h4.56v2.49Z"/>
    <path class="cls-1" d="M96.59,11.89h-2.49V.43h2.49v11.46ZM104.92,6.16c0,1.59-.56,2.94-1.68,4.06s-2.47,1.68-4.05,1.68h-1.28v-2.49h1.28c.9,0,1.66-.32,2.29-.95.63-.63.95-1.39.95-2.29s-.31-1.66-.95-2.29c-.63-.63-1.39-.95-2.29-.95h-1.28V.43h1.28c1.59,0,2.94.56,4.05,1.68,1.12,1.12,1.68,2.47,1.68,4.05Z"/>
    <path class="cls-1" d="M108.96,11.89h-2.49V.43h2.49v11.46Z"/>
    <path class="cls-1" d="M114.56,12.11c-1.17-.23-2.11-.71-2.81-1.45-.83-.87-1.25-2.03-1.25-3.48V.43h2.49v6.82c0,1.21.52,1.97,1.56,2.28v2.58ZM119.93,7.18c0,1.45-.42,2.61-1.25,3.48-.7.74-1.63,1.22-2.81,1.45v-2.58c1.04-.31,1.56-1.07,1.56-2.28V.43h2.49v6.75Z"/>
    <path class="cls-1" d="M132.73,11.89h-2.49v-6.61l-3.12,2.48-5.63-4.56V0l5.67,4.56L132.73.04v11.85ZM123.97,11.89h-2.49v-7.02l2.49,2.03v4.99Z"/>
  </g>
  <g>
    <path class="cls-1" d="M4.33,33.98l-2.1,4.1H0l3.24-6.27,1.09,2.17ZM9.76,38.08h-2.26l-.75-1.5h-2.69l.99-1.98h.68l-1.94-3.88,1.13-2.18,4.83,9.55Z"/>
    <path class="cls-1" d="M15.32,33.98l-2.1,4.1h-2.23l3.24-6.27,1.09,2.17ZM20.76,38.08h-2.26l-.75-1.5h-2.69l.99-1.98h.68l-1.94-3.88,1.13-2.18,4.83,9.55Z"/>
    <path class="cls-1" d="M27.91,38.08h-1.98v-9.11h1.98v9.11ZM32.88,31.75c0,.76-.27,1.41-.82,1.95-.55.54-1.2.81-1.95.81h-1.15v-1.98h1.15c.21,0,.39-.08.55-.24.16-.16.24-.34.24-.55s-.08-.4-.23-.56c-.16-.16-.34-.24-.55-.24h-1.15v-1.98h1.15c.78,0,1.44.27,1.97.81s.8,1.2.8,1.96ZM32.88,35.32c0,.77-.27,1.42-.82,1.96-.55.54-1.2.81-1.95.81h-1.15v-1.98h1.15c.21,0,.4-.08.55-.23.16-.15.23-.34.23-.56v-.25c.29-.02.62-.13,1-.34.33-.2.59-.39.77-.59.14.21.21.61.21,1.18Z"/>
    <path class="cls-1" d="M36.09,38.08h-1.98v-9.11h1.98v9.11ZM41.06,31.75c0,.76-.27,1.41-.82,1.95-.55.54-1.2.81-1.95.81h-1.15v-1.98h1.15c.21,0,.39-.08.55-.24.16-.16.24-.34.24-.55s-.08-.4-.23-.56c-.16-.16-.34-.24-.55-.24h-1.15v-1.98h1.15c.78,0,1.44.27,1.97.81s.8,1.2.8,1.96ZM41.06,35.32c0,.77-.27,1.42-.82,1.96-.55.54-1.2.81-1.95.81h-1.15v-1.98h1.15c.21,0,.4-.08.55-.23.16-.15.23-.34.23-.56v-.25c.29-.02.62-.13,1-.34.33-.2.59-.39.77-.59.14.21.21.61.21,1.18Z"/>
    <path class="cls-1" d="M49.99,38.27c-1.2-.13-2.21-.65-3.02-1.55-.81-.9-1.22-1.97-1.22-3.19s.41-2.3,1.22-3.22c.81-.92,1.82-1.44,3.02-1.57v2.04c-.65.12-1.19.44-1.62.95s-.64,1.11-.64,1.79.21,1.28.64,1.79.96.83,1.62.95v1.99ZM54.33,30.62l-1.58,1.22c-.44-.56-1.01-.91-1.71-1.05v-2.05c1.36.14,2.46.76,3.29,1.88ZM54.33,36.43c-.84,1.07-1.94,1.68-3.29,1.83v-2c.7-.14,1.27-.48,1.71-1.04l1.58,1.21Z"/>
    <path class="cls-1" d="M59.8,38.27c-1.2-.13-2.21-.65-3.02-1.55-.81-.9-1.22-1.97-1.22-3.19s.41-2.3,1.22-3.22c.81-.92,1.82-1.44,3.02-1.57v2.04c-.65.12-1.19.44-1.62.95s-.64,1.11-.64,1.79.21,1.28.64,1.79.96.83,1.62.95v1.99ZM64.14,30.62l-1.58,1.22c-.44-.56-1.01-.91-1.71-1.05v-2.05c1.36.14,2.46.76,3.29,1.88ZM64.14,36.43c-.84,1.07-1.94,1.68-3.29,1.83v-2c.7-.14,1.27-.48,1.71-1.04l1.58,1.21Z"/>
    <path class="cls-1" d="M71.29,38.08h-1.98v-9.11h1.98v9.11ZM77.91,33.53c0,1.26-.44,2.33-1.33,3.22s-1.96,1.33-3.22,1.33h-1.01v-1.98h1.01c.71,0,1.32-.25,1.82-.75.5-.5.75-1.11.75-1.82s-.25-1.32-.75-1.82c-.5-.5-1.11-.75-1.82-.75h-1.01v-1.98h1.01c1.26,0,2.34.44,3.22,1.33.89.89,1.33,1.96,1.33,3.22Z"/>
    <path class="cls-1" d="M81.12,38.08h-1.98v-9.11h1.98v9.11ZM87.74,33.53c0,1.26-.44,2.33-1.33,3.22s-1.96,1.33-3.22,1.33h-1.01v-1.98h1.01c.71,0,1.32-.25,1.82-.75.5-.5.75-1.11.75-1.82s-.25-1.32-.75-1.82c-.5-.5-1.11-.75-1.82-.75h-1.01v-1.98h1.01c1.26,0,2.34.44,3.22,1.33.89.89,1.33,1.96,1.33,3.22Z"/>
    <path class="cls-1" d="M95.38,38.08h-1.98v-9.11h1.98v9.11ZM100.05,30.95h-3.62v-1.98h3.62v1.98ZM100.05,34.52h-3.62v-1.98h3.62v1.98ZM100.05,38.08h-3.62v-1.98h3.62v1.98Z"/>
    <path class="cls-1" d="M103.26,38.08h-1.98v-9.11h1.98v9.11ZM107.93,30.95h-3.62v-1.98h3.62v1.98ZM107.93,34.52h-3.62v-1.98h3.62v1.98ZM107.93,38.08h-3.62v-1.98h3.62v1.98Z"/>
    <path class="cls-1" d="M114.61,38.08h-1.98v-9.11h1.98v9.11ZM119.11,30.95h-3.45v-1.98h3.45v1.98ZM119.11,34.52h-3.45v-1.98h3.45v1.98Z"/>
    <path class="cls-1" d="M122.32,38.08h-1.98v-9.11h1.98v9.11ZM126.82,30.95h-3.45v-1.98h3.45v1.98ZM126.82,34.52h-3.45v-1.98h3.45v1.98Z"/>
    <path class="cls-1" d="M9.11,51.23c-.39.82-.96,1.48-1.73,1.98-.79.51-1.66.76-2.6.76-1.32,0-2.45-.47-3.38-1.4-.93-.93-1.4-2.06-1.4-3.38s.47-2.45,1.4-3.38c.93-.93,2.06-1.4,3.38-1.4s2.54.5,3.49,1.5l-1.45,1.36c-.54-.57-1.21-.86-2.01-.88-.78,0-1.45.26-2,.8s-.83,1.21-.83,1.99.28,1.44.84,1.99,1.22.82,2,.81c.74,0,1.37-.26,1.89-.76h2.4ZM9.57,49.19c0,.35-.05.68-.14.99h-4.65v-1.98h4.65c.09.32.14.65.14.99Z"/>
    <path class="cls-1" d="M19.91,51.23c-.39.82-.96,1.48-1.73,1.98-.79.51-1.66.76-2.6.76-1.32,0-2.45-.47-3.38-1.4-.93-.93-1.4-2.06-1.4-3.38s.47-2.45,1.4-3.38c.93-.93,2.06-1.4,3.38-1.4s2.54.5,3.49,1.5l-1.45,1.36c-.54-.57-1.21-.86-2.01-.88-.78,0-1.45.26-2,.8s-.83,1.21-.83,1.99.28,1.44.84,1.99,1.22.82,2,.81c.74,0,1.37-.26,1.89-.76h2.4ZM20.37,49.19c0,.35-.05.68-.14.99h-4.65v-1.98h4.65c.09.32.14.65.14.99Z"/>
    <path class="cls-1" d="M27.05,53.74h-1.98v-9.11h1.98v9.11ZM30.34,50.18h-2.55v-1.98h2.55v1.98ZM33.06,53.74h-1.98v-9.11h1.98v9.11Z"/>
    <path class="cls-1" d="M36.27,53.74h-1.98v-9.11h1.98v9.11ZM39.57,50.18h-2.55v-1.98h2.55v1.98ZM42.29,53.74h-1.98v-9.11h1.98v9.11Z"/>
    <path class="cls-1" d="M50.19,53.92c-.73-.06-1.36-.38-1.88-.95-.57-.62-.85-1.37-.85-2.28h1.91c.05.34.13.6.22.76.12.21.32.38.6.52v1.94ZM53.98,50.55c0,.96-.29,1.76-.87,2.39-.52.57-1.15.9-1.91.98v-1.94c.27-.13.47-.28.58-.46.14-.23.22-.55.22-.98v-5.92h1.98v5.92Z"/>
    <path class="cls-1" d="M57.94,53.92c-.73-.06-1.36-.38-1.88-.95-.57-.62-.85-1.37-.85-2.28h1.91c.05.34.13.6.22.76.12.21.32.38.6.52v1.94ZM61.72,50.55c0,.96-.29,1.76-.87,2.39-.52.57-1.15.9-1.91.98v-1.94c.27-.13.47-.28.58-.46.14-.23.22-.55.22-.98v-5.92h1.98v5.92Z"/>
    <path class="cls-1" d="M69.36,53.74h-1.98v-9.11h1.98v9.11ZM75.47,53.74h-2.47l-3.34-4.53,1.24-1.7,4.57,6.23ZM75.48,44.63l-2.69,3.68-1.25-1.67,1.48-2h2.46Z"/>
    <path class="cls-1" d="M78.69,53.74h-1.98v-9.11h1.98v9.11ZM84.8,53.74h-2.47l-3.34-4.53,1.24-1.7,4.57,6.23ZM84.81,44.63l-2.69,3.68-1.25-1.67,1.48-2h2.46Z"/>
    <path class="cls-1" d="M91.48,53.74h-1.98v-9.11h1.98v9.11ZM96.15,53.74h-3.62v-1.98h3.62v1.98Z"/>
    <path class="cls-1" d="M99.36,53.74h-1.98v-9.11h1.98v9.11ZM104.03,53.74h-3.62v-1.98h3.62v1.98Z"/>
    <path class="cls-1" d="M118.15,53.74h-1.98v-5.25l-2.48,1.97-4.48-3.62v-2.55l4.51,3.62,4.43-3.59v9.42ZM111.19,53.74h-1.98v-5.58l1.98,1.62v3.96Z"/>
    <path class="cls-1" d="M128.32,53.74h-1.98v-5.25l-2.48,1.97-4.48-3.62v-2.55l4.51,3.62,4.43-3.59v9.42ZM121.36,53.74h-1.98v-5.58l1.98,1.62v3.96Z"/>
    <path class="cls-1" d="M8.01,69.74L0,62.64v-2.68l6.03,5.37v-5.05h1.98v9.46ZM1.98,69.4H0v-5.41l1.98,1.77v3.65Z"/>
    <path class="cls-1" d="M17.25,69.74l-8.01-7.1v-2.68l6.03,5.37v-5.05h1.98v9.46ZM11.22,69.4h-1.98v-5.41l1.98,1.77v3.65Z"/>
    <path class="cls-1" d="M31.49,64.32h-2.04c-.12-.65-.44-1.2-.95-1.63s-1.1-.65-1.78-.65-1.29.22-1.81.65c-.52.43-.84.98-.96,1.63h-1.99c.13-1.2.65-2.21,1.56-3.03.91-.82,1.98-1.23,3.2-1.23s2.29.41,3.2,1.23c.91.82,1.43,1.83,1.56,3.03ZM31.48,65.37c-.13,1.2-.65,2.21-1.56,3.03-.91.82-1.97,1.23-3.2,1.23s-2.29-.41-3.2-1.23c-.91-.82-1.43-1.83-1.56-3.03h2c.13.65.45,1.19.97,1.62s1.11.66,1.79.66,1.26-.22,1.76-.65c.5-.43.82-.98.95-1.63h2.04Z"/>
    <path class="cls-1" d="M42.21,64.32h-2.04c-.12-.65-.44-1.2-.95-1.63s-1.1-.65-1.78-.65-1.29.22-1.81.65c-.52.43-.84.98-.96,1.63h-1.99c.13-1.2.65-2.21,1.56-3.03.91-.82,1.98-1.23,3.2-1.23s2.29.41,3.2,1.23c.91.82,1.43,1.83,1.56,3.03ZM42.2,65.37c-.13,1.2-.65,2.21-1.56,3.03-.91.82-1.97,1.23-3.2,1.23s-2.29-.41-3.2-1.23c-.91-.82-1.43-1.83-1.56-3.03h2c.13.65.45,1.19.97,1.62s1.11.66,1.79.66,1.26-.22,1.76-.65c.5-.43.82-.98.95-1.63h2.04Z"/>
    <path class="cls-1" d="M49.55,69.4h-1.98v-9.11h1.98v9.11ZM54.51,63.07c0,.77-.27,1.42-.82,1.96-.55.54-1.2.81-1.95.81h-1.15v-1.98h1.15c.21,0,.39-.08.55-.24.16-.16.24-.34.24-.55s-.08-.4-.23-.56c-.16-.16-.34-.24-.55-.24h-1.15v-1.98h1.15c.78,0,1.44.27,1.97.81s.8,1.2.8,1.97Z"/>
    <path class="cls-1" d="M57.73,69.4h-1.98v-9.11h1.98v9.11ZM62.69,63.07c0,.77-.27,1.42-.82,1.96-.55.54-1.2.81-1.95.81h-1.15v-1.98h1.15c.21,0,.39-.08.55-.24.16-.16.24-.34.24-.55s-.08-.4-.23-.56c-.16-.16-.34-.24-.55-.24h-1.15v-1.98h1.15c.78,0,1.44.27,1.97.81s.8,1.2.8,1.97Z"/>
    <path class="cls-1" d="M76.72,64.73c0,.49-.11,1.04-.32,1.64h-2.2c.36-.52.54-1.07.54-1.64,0-.74-.25-1.37-.76-1.9-.5-.53-1.09-.79-1.77-.79s-1.29.2-1.79.6c-.52.42-.83.98-.92,1.67h-1.99c.1-1.23.59-2.25,1.49-3.05s1.95-1.21,3.17-1.21,2.3.46,3.2,1.38c.9.92,1.35,2.02,1.35,3.29ZM76.72,69.4h-4.55c-1.17,0-2.19-.38-3.08-1.16-.88-.77-1.4-1.73-1.55-2.88h2.02c.15.6.47,1.09.96,1.47.49.38,1.05.58,1.7.58h4.5v1.98Z"/>
    <path class="cls-1" d="M87.16,64.73c0,.49-.11,1.04-.32,1.64h-2.2c.36-.52.54-1.07.54-1.64,0-.74-.25-1.37-.76-1.9-.5-.53-1.09-.79-1.77-.79s-1.29.2-1.79.6c-.52.42-.83.98-.92,1.67h-1.99c.1-1.23.59-2.25,1.49-3.05s1.95-1.21,3.17-1.21,2.3.46,3.2,1.38c.9.92,1.35,2.02,1.35,3.29ZM87.16,69.4h-4.55c-1.17,0-2.19-.38-3.08-1.16-.88-.77-1.4-1.73-1.55-2.88h2.02c.15.6.47,1.09.96,1.47.49.38,1.05.58,1.7.58h4.5v1.98Z"/>
    <path class="cls-1" d="M93.84,69.4h-1.98v-9.11h1.98v9.11ZM98.77,63.07c0,.77-.27,1.42-.8,1.96-.54.54-1.18.81-1.93.81h-1.15v-1.98h1.14c.2,0,.38-.08.53-.24s.23-.34.23-.55-.08-.4-.23-.56c-.15-.16-.33-.24-.53-.24h-1.14v-1.98h1.15c.78,0,1.43.27,1.95.81s.78,1.2.78,1.97ZM98.73,69.4h-2.13l-.99-2.84c.86,0,1.52-.14,1.97-.43l1.15,3.27Z"/>
    <path class="cls-1" d="M101.94,69.4h-1.98v-9.11h1.98v9.11ZM106.87,63.07c0,.77-.27,1.42-.8,1.96-.54.54-1.18.81-1.93.81h-1.15v-1.98h1.14c.2,0,.38-.08.53-.24.15-.16.23-.34.23-.55s-.08-.4-.23-.56c-.15-.16-.33-.24-.53-.24h-1.14v-1.98h1.15c.78,0,1.43.27,1.95.81s.78,1.2.78,1.97ZM106.83,69.4h-2.13l-.99-2.84c.86,0,1.51-.14,1.97-.43l1.15,3.27Z"/>
    <path class="cls-1" d="M117.53,66.62c0,.84-.3,1.55-.91,2.14s-1.3.87-2.09.87-1.48-.27-2.06-.8c-.64-.58-.96-1.32-.96-2.23h1.98c0,.31.1.56.3.76.2.19.45.29.74.29s.51-.1.71-.31.3-.44.3-.72c0-.23-.07-.43-.22-.62s-.33-.3-.55-.36l.93-1.79c1.21.55,1.81,1.47,1.81,2.77ZM117.14,62.84h-2.03c-.02-.19-.09-.37-.21-.52-.13-.18-.29-.28-.48-.28s-.37.07-.51.22c-.14.15-.21.32-.21.52,0,.24.11.42.34.55.13.07.35.14.67.22l-.93,1.81c-.58-.14-1.07-.42-1.46-.84-.42-.47-.63-1.04-.63-1.7,0-.77.27-1.43.8-1.96.53-.53,1.17-.8,1.92-.8s1.36.25,1.88.75c.55.53.83,1.21.83,2.03Z"/>
    <path class="cls-1" d="M124.78,66.62c0,.84-.3,1.55-.91,2.14-.6.58-1.3.87-2.09.87s-1.48-.27-2.06-.8c-.64-.58-.96-1.32-.96-2.23h1.98c0,.31.1.56.3.76.2.19.45.29.73.29s.51-.1.71-.31.3-.44.3-.72c0-.23-.07-.43-.22-.62-.14-.18-.33-.3-.55-.36l.93-1.79c1.21.55,1.81,1.47,1.81,2.77ZM124.38,62.84h-2.03c-.02-.19-.09-.37-.21-.52-.13-.18-.29-.28-.48-.28s-.37.07-.51.22c-.14.15-.21.32-.21.52,0,.24.11.42.34.55.13.07.35.14.67.22l-.93,1.81c-.58-.14-1.07-.42-1.46-.84-.42-.47-.63-1.04-.63-1.7,0-.77.27-1.43.8-1.96s1.17-.8,1.93-.8,1.36.25,1.88.75c.55.53.83,1.21.83,2.03Z"/>
    <path class="cls-1" d="M5.02,83.02l-1.16,2.38-3.86-9.46h2.14l2.88,7.08ZM9.87,82.94l-1.01,2.46-2.48-5.17-.75,1.54-1.01-2.44,1.78-3.71,3.49,7.32ZM12.76,75.94l-2.36,5.71-1.15-2.39,1.37-3.32h2.14Z"/>
    <path class="cls-1" d="M19.01,83.02l-1.16,2.38-3.86-9.46h2.14l2.88,7.08ZM23.86,82.94l-1.01,2.46-2.48-5.17-.75,1.54-1.01-2.44,1.78-3.71,3.49,7.32ZM26.75,75.94l-2.36,5.71-1.15-2.39,1.37-3.32h2.14Z"/>
    <path class="cls-1" d="M35.53,82.85l-1.62,2.21h-2.47l2.87-3.87,1.22,1.66ZM40.88,85.05h-2.45s-6.66-9.1-6.66-9.1h2.48l6.63,9.1ZM40.67,75.94l-2.61,3.47-1.23-1.65,1.34-1.82h2.5Z"/>
    <path class="cls-1" d="M46.2,82.85l-1.62,2.21h-2.47l2.87-3.87,1.22,1.66ZM51.54,85.05h-2.45s-6.66-9.1-6.66-9.1h2.48l6.63,9.1ZM51.33,75.94l-2.61,3.47-1.23-1.65,1.34-1.82h2.5Z"/>
    <path class="cls-1" d="M59.97,77.78l-1.24,1.67-2.5-3.51h2.46l1.28,1.83ZM65.07,75.94l-3.71,5.12v4h-1.98v-4.68l3.19-4.43h2.51Z"/>
    <path class="cls-1" d="M70.04,77.78l-1.24,1.67-2.5-3.51h2.46l1.28,1.83ZM75.14,75.94l-3.71,5.12v4h-1.98v-4.68l3.19-4.43h2.51Z"/>
    <path class="cls-1" d="M88.4,85.06h-8.57l1.33-1.98h7.23v1.98ZM88.36,75.94l-1.34,1.98h-6.56v-1.98h7.91ZM86.32,78.95l-2.05,3.08h-2.39l2.06-3.08h2.38Z"/>
    <path class="cls-1" d="M98.2,85.06h-8.57l1.33-1.98h7.23v1.98ZM98.16,75.94l-1.34,1.98h-6.56v-1.98h7.91ZM96.12,78.95l-2.05,3.08h-2.39l2.06-3.08h2.38Z"/>
  </g>
  <g>
    <g>
      <path class="cls-1" d="M151.78,11.89v-1.23h2.74V2.18h-2.74V.95h6.84v1.23h-2.74v8.48h2.74v1.23h-6.84Z"/>
      <path class="cls-1" d="M161.65,11.89V3.69h1.37v1.37h.41c.2-.47.51-.83.94-1.1.43-.27.92-.4,1.46-.4.82,0,1.47.25,1.94.75.47.5.71,1.19.71,2.05v5.54h-1.37v-5.27c0-.57-.14-1.01-.42-1.32-.28-.31-.68-.46-1.2-.46-.41,0-.83.12-1.25.37-.42.25-.84.6-1.24,1.07v5.61h-1.37Z"/>
      <path class="cls-1" d="M174.84,12.03c-.31,0-.64-.03-.98-.1-.34-.07-.66-.16-.96-.28v2.98h-1.37V3.69h1.37v1.37h.41c.23-.47.56-.83.99-1.1.43-.27.9-.4,1.4-.4.82,0,1.47.28,1.95.84.48.56.72,1.32.72,2.28v2.23c0,.97-.32,1.73-.95,2.29-.63.56-1.49.84-2.58.84ZM174.82,10.83c.77,0,1.32-.15,1.66-.46.34-.31.51-.81.51-1.49v-2.22c0-.63-.13-1.09-.39-1.37s-.68-.43-1.25-.43c-.46,0-.88.11-1.27.34-.39.23-.79.59-1.19,1.09v4.02c.28.17.58.3.88.39.31.09.65.13,1.05.13Z"/>
      <path class="cls-1" d="M184.06,12.03c-.79,0-1.43-.26-1.92-.77-.49-.51-.73-1.19-.73-2.03V3.69h1.37v5.27c0,.6.13,1.05.4,1.34.26.29.67.44,1.22.44.43,0,.85-.12,1.25-.35s.82-.59,1.24-1.09V3.69h1.37v8.21h-1.37v-1.37h-.41c-.19.45-.51.81-.95,1.09s-.93.42-1.46.42Z"/>
      <path class="cls-1" d="M196.05,12.02c-.9,0-1.61-.22-2.11-.67-.5-.45-.75-1.13-.75-2.05v-4.38h-2.32v-1.23h2.32V.95h1.37v2.74h3.56v1.23h-3.56v4.25c0,.53.13.92.4,1.18.26.26.66.38,1.18.38.35,0,.67-.02.97-.08.3-.05.59-.12.86-.2l.27,1.25c-.31.09-.64.17-.99.23-.35.06-.75.09-1.2.09Z"/>
      <path class="cls-1" d="M213.79,9.16l-1.94-6v8.74h-1.23V.95h1.85l2.02,6.58,2.01-6.58h1.78v10.94h-1.23V3.14l-1.94,6.02h-1.31Z"/>
      <path class="cls-1" d="M224.32,12.03c-1.1,0-1.95-.27-2.54-.8-.59-.53-.88-1.3-.88-2.3v-2.22c0-1.01.3-1.79.89-2.34.59-.55,1.44-.82,2.54-.82s1.94.27,2.52.82c.59.55.88,1.33.88,2.34v2.22c0,1-.29,1.77-.88,2.3-.59.53-1.43.8-2.54.8ZM224.32,10.8c.69,0,1.21-.15,1.55-.46.34-.31.51-.78.51-1.41v-2.22c0-.66-.17-1.14-.51-1.46s-.85-.47-1.55-.47-1.21.16-1.54.47c-.34.31-.51.8-.51,1.46v2.22c0,.63.17,1.1.51,1.41.34.31.85.46,1.54.46Z"/>
      <path class="cls-1" d="M230.78,11.89V3.69h1.37v1.37h.41c.2-.47.52-.83.94-1.1.43-.27.92-.4,1.46-.4.82,0,1.47.25,1.94.75.47.5.71,1.19.71,2.05v5.54h-1.37v-5.27c0-.57-.14-1.01-.42-1.32-.28-.31-.68-.46-1.2-.46-.41,0-.83.12-1.25.37-.42.25-.84.6-1.24,1.07v5.61h-1.37Z"/>
      <path class="cls-1" d="M244.07,12.03c-1.1,0-1.95-.27-2.54-.8-.59-.53-.88-1.3-.88-2.3v-2.22c0-1.01.3-1.79.89-2.34.59-.55,1.44-.82,2.54-.82s1.94.27,2.52.82c.59.55.88,1.33.88,2.34v2.22c0,1-.29,1.77-.88,2.3-.59.53-1.43.8-2.54.8ZM244.07,10.8c.69,0,1.21-.15,1.55-.46.34-.31.51-.78.51-1.41v-2.22c0-.66-.17-1.14-.51-1.46-.34-.31-.85-.47-1.55-.47s-1.21.16-1.54.47-.51.8-.51,1.46v2.22c0,.63.17,1.1.51,1.41.34.31.85.46,1.54.46Z"/>
    </g>
    <g>
      <path class="cls-1" d="M156.44,36.72l-.75-2.5h-2.99l-.75,2.5h-1.11l2.81-8.7h1.14l2.81,8.7h-1.15ZM155.4,33.24l-1.2-3.99-1.21,3.99h2.4Z"/>
      <path class="cls-1" d="M161.14,36.83c-.55,0-1.04-.15-1.47-.44-.43-.29-.65-.77-.65-1.42,0-.57.19-1.02.56-1.35s.81-.49,1.31-.49h2.26v-.94c0-.35-.12-.62-.35-.83-.23-.2-.58-.3-1.05-.3s-.84.07-1.07.21c-.23.14-.42.46-.56.94l-.96-.26c.12-.62.4-1.08.83-1.4s1.01-.47,1.73-.47,1.32.16,1.79.48.72.82.72,1.5v2.92c0,.39.11.64.33.74.22.1.54.11.98.04v.99c-.45.06-.87.03-1.27-.09-.39-.13-.61-.47-.65-1.03h-.22c-.2.33-.51.62-.91.85-.41.23-.86.35-1.36.35ZM161.28,35.9c.38,0,.73-.07,1.04-.2.32-.13.59-.37.83-.71v-1.05h-1.96c-.31,0-.57.07-.78.21-.21.14-.31.39-.31.75,0,.31.09.56.27.73.18.18.48.26.91.26Z"/>
      <path class="cls-1" d="M174.09,36.72v-8.7h2.7c.91,0,1.58.17,2.01.5.43.33.65.85.65,1.54v.49c0,.37-.11.68-.31.93-.21.25-.5.41-.87.47v.32c.47.04.84.22,1.12.53.28.31.41.71.41,1.21v.49c0,.75-.24,1.31-.72,1.67-.48.36-1.21.54-2.21.54h-2.77ZM175.18,31.72h1.72c.52,0,.89-.1,1.13-.29s.35-.5.35-.92v-.3c0-.42-.12-.73-.35-.92-.24-.19-.61-.29-1.13-.29h-1.72v2.72ZM175.18,35.74h1.94c.55,0,.95-.11,1.21-.32.25-.21.38-.56.38-1.04v-.35c0-.48-.13-.83-.38-1.04-.25-.21-.66-.32-1.21-.32h-1.94v3.07Z"/>
      <path class="cls-1" d="M184.57,36.83c-.44,0-.88-.07-1.35-.2-.46-.13-.89-.32-1.28-.57v-8.05h1.09v3.26h.33c.19-.38.45-.67.78-.88.33-.21.71-.32,1.12-.32.67,0,1.2.22,1.57.65.37.43.55,1.04.55,1.83v1.77c0,.79-.25,1.4-.74,1.84-.49.44-1.18.65-2.07.65ZM184.56,35.87c.59,0,1.02-.13,1.31-.39.28-.26.42-.65.42-1.17v-1.74c0-.49-.11-.86-.33-1.1s-.54-.36-.98-.36c-.36,0-.69.09-1.01.28-.32.19-.63.47-.95.86v3.2c.23.14.47.24.72.31s.52.1.81.1Z"/>
      <path class="cls-1" d="M199.04,36.83c-1.02,0-1.78-.26-2.28-.78-.51-.52-.76-1.3-.76-2.34v-2.63c0-1.06.25-1.85.76-2.38.51-.53,1.27-.79,2.29-.79s1.74.23,2.22.7c.48.47.75,1.22.81,2.25l-1.09.11c-.07-.78-.25-1.33-.53-1.63s-.76-.45-1.43-.45c-.72,0-1.22.17-1.52.49-.29.33-.44.89-.44,1.69v2.63c0,.78.15,1.34.44,1.66.29.32.8.48,1.52.48.67,0,1.15-.15,1.43-.44.28-.29.46-.82.53-1.59l1.09.11c-.06,1.02-.33,1.75-.81,2.21-.48.46-1.23.69-2.23.69Z"/>
      <path class="cls-1" d="M206.93,36.83c-.95,0-1.67-.21-2.15-.63-.48-.42-.72-1.03-.72-1.84v-1.76c0-.83.24-1.45.72-1.88s1.19-.64,2.14-.64c.84,0,1.49.19,1.94.57s.71.94.76,1.67l-1.07.06c-.03-.45-.18-.78-.45-1-.27-.22-.67-.33-1.2-.33-.59,0-1.04.12-1.33.38-.29.25-.43.64-.43,1.16v1.76c0,.5.15.87.44,1.12s.74.37,1.34.37c.52,0,.92-.09,1.18-.28.27-.18.41-.46.43-.83l1.07.06c-.05.67-.3,1.17-.75,1.51-.45.34-1.1.51-1.94.51Z"/>
      <path class="cls-1" d="M218.81,36.72v-8.7h2.4c1.01,0,1.81.29,2.39.86s.86,1.34.86,2.3v2.41c0,.95-.29,1.71-.87,2.27s-1.38.85-2.39.85h-2.39ZM219.89,35.74h1.3c.73,0,1.28-.2,1.64-.59.36-.39.54-.91.54-1.55v-2.41c0-.63-.18-1.15-.54-1.57-.36-.41-.9-.62-1.64-.62h-1.3v6.74Z"/>
      <path class="cls-1" d="M230.92,35.63c-.19.38-.45.67-.78.88-.33.21-.71.32-1.12.32-.67,0-1.2-.22-1.57-.65-.37-.43-.55-1.04-.55-1.83v-1.77c0-.79.25-1.4.74-1.84.49-.44,1.18-.65,2.07-.65.25,0,.51.03.78.08.27.05.52.13.76.22v-2.37h1.09v8.7h-1.09v-1.09h-.33ZM229.29,35.79c.35,0,.69-.09,1.01-.28.32-.19.63-.47.95-.86v-3.2c-.22-.14-.46-.24-.72-.31-.25-.07-.53-.1-.82-.1-.59,0-1.02.13-1.3.39-.28.26-.42.65-.42,1.17v1.75c0,.49.11.85.33,1.09.22.24.54.36.98.36Z"/>
      <path class="cls-1" d="M242.12,36.72v-8.7h5.65v.98h-4.57v2.5h4.02v.98h-4.02v3.26h4.57v.98h-5.65Z"/>
      <path class="cls-1" d="M255.67,35.28c-.2.54-.49.94-.89,1.18-.4.24-1.01.36-1.84.36s-1.53-.21-2.01-.63c-.48-.42-.72-1.03-.72-1.85v-1.75c0-.84.25-1.47.76-1.89s1.16-.62,1.97-.62,1.47.21,1.97.64.74,1.08.74,1.95v1h-4.35v.69c0,.54.14.94.41,1.18s.68.36,1.22.36.9-.07,1.14-.22c.24-.14.42-.38.54-.71l1.05.3ZM251.3,32.6v.26h3.26v-.16c0-.59-.13-1.01-.41-1.28-.27-.27-.68-.4-1.22-.4s-.95.13-1.22.39c-.27.26-.41.66-.41,1.2Z"/>
      <path class="cls-1" d="M264.48,36.72v-8.7h5.65v.98h-4.57v3.37h3.81v.98h-3.81v3.37h-1.09Z"/>
      <path class="cls-1" d="M273.72,36.72v-5.55h-1.85v-.98h1.85v-.43c0-.59.23-1.04.69-1.37.46-.32,1.03-.48,1.71-.48.33,0,.63.03.9.09.26.06.5.12.71.2l-.22.91c-.16-.05-.35-.1-.58-.15-.23-.05-.5-.07-.81-.07-.4,0-.72.07-.96.2-.24.13-.36.35-.36.66v.45h2.72v.98h-2.72v5.55h-1.09Z"/>
      <path class="cls-1" d="M154.43,49.87c-1.02,0-1.79-.27-2.34-.81-.54-.54-.82-1.31-.82-2.31v-2.63c0-1.01.26-1.8.79-2.34.53-.55,1.28-.82,2.26-.82.89,0,1.57.22,2.04.67.47.45.73,1.13.78,2.06l-1.09.11c-.06-.67-.22-1.15-.49-1.44-.27-.28-.68-.42-1.25-.42-.7,0-1.21.17-1.51.51s-.45.9-.45,1.68v2.63c0,.78.16,1.33.48,1.65.32.33.85.49,1.59.49.67,0,1.14-.19,1.42-.56.28-.37.42-1,.42-1.89h-2.07v-.98h3.15v1.17c0,1.04-.25,1.83-.76,2.39-.51.56-1.23.84-2.17.84Z"/>
      <path class="cls-1" d="M165.57,50.29c0,.59-.22,1.03-.65,1.32-.43.29-.96.44-1.58.44h-2.04c-.65,0-1.19-.13-1.62-.39-.42-.26-.64-.66-.64-1.21,0-.35.09-.62.28-.83.19-.21.46-.32.81-.35v-.23c-.25-.04-.46-.15-.62-.31s-.24-.42-.24-.77c0-.31.1-.59.29-.84s.53-.39.99-.43v-.21c-.36-.12-.6-.29-.72-.53-.12-.24-.18-.46-.18-.68v-.29c0-.5.21-.92.64-1.24s1.03-.49,1.8-.49h3.21v.98l-1.69-.25v.2c.29.08.51.23.66.46.15.22.22.45.22.67v.28c0,.5-.19.9-.58,1.21-.38.31-1.01.46-1.87.46h-1.32c-.2,0-.34.05-.45.15s-.15.26-.15.49.07.39.21.51c.14.11.35.17.64.17h2.47c.61,0,1.12.13,1.52.4s.6.71.6,1.32ZM161.27,51.17h2.21c.33,0,.59-.06.79-.18.2-.12.3-.33.3-.64s-.09-.49-.28-.62-.42-.18-.71-.18h-3.46v.73c0,.29.1.52.29.67.2.15.48.22.85.22ZM162.09,46.44c.44,0,.78-.08,1.01-.24s.35-.41.35-.75v-.35c0-.34-.12-.59-.35-.75s-.57-.24-1.01-.24-.78.08-1.01.24-.35.41-.35.75v.35c0,.34.12.59.35.75s.57.24,1.01.24Z"/>
      <path class="cls-1" d="M173.85,49.77v-8.7h1.09v3.48h3.26v-3.48h1.09v8.7h-1.09v-4.24h-3.26v4.24h-1.09Z"/>
      <path class="cls-1" d="M181.46,49.77v-8.7h1.09v3.26h.33c.16-.37.41-.66.75-.88s.73-.32,1.16-.32c.65,0,1.17.2,1.54.6.38.4.57.94.57,1.62v4.42h-1.09v-4.19c0-.46-.11-.81-.33-1.05-.22-.24-.54-.36-.95-.36-.33,0-.66.1-1,.29-.34.2-.67.48-.98.85v4.46h-1.09Z"/>
      <path class="cls-1" d="M198.7,49.87c-.95,0-1.66-.24-2.14-.71-.47-.47-.74-1.2-.79-2.2l1.09-.12c.05.81.2,1.36.46,1.63s.72.41,1.39.41c.62,0,1.09-.16,1.39-.48.3-.32.46-.81.46-1.46v-4.9h-2.17v-.98h3.26v5.87c0,.95-.25,1.68-.76,2.18s-1.23.76-2.19.76Z"/>
      <path class="cls-1" d="M205.3,52.03c-.28,0-.55-.02-.83-.05-.28-.03-.57-.1-.88-.19l.22-1.04c.27.09.52.16.76.19.23.03.47.05.7.05.47,0,.85-.1,1.14-.3.29-.2.43-.53.43-1v-5.47h-3.04v-.98h4.13v6.59c0,.75-.25,1.3-.76,1.66-.5.36-1.13.54-1.88.54ZM207.36,42.04c-.28,0-.5-.04-.67-.13-.17-.09-.25-.25-.25-.49v-.08c0-.25.08-.42.25-.51.17-.09.39-.14.67-.14s.5.04.67.14.26.26.26.51v.08c0,.24-.09.4-.26.49-.17.09-.4.13-.66.13Z"/>
      <path class="cls-1" d="M219.89,45.63v4.13h-1.09v-8.7h1.09v3.59h.37l3.36-3.59h1.26l-3.73,4,3.7,4.7h-1.3l-3.25-4.13h-.4Z"/>
      <path class="cls-1" d="M228.53,46.81v2.96h-1.09v-8.7h1.09v4.82h.55l2.09-2.64h1.33l-2.56,3.04,2.52,3.49h-1.24l-2.14-2.96h-.55Z"/>
      <path class="cls-1" d="M241.71,49.77v-8.7h1.09v7.72h3.81v.98h-4.89Z"/>
      <path class="cls-1" d="M248.54,49.77v-.98h2.17v-6.74h-2.17v-.98h3.26v7.72h2.18v.98h-5.44Z"/>
      <path class="cls-1" d="M265.48,47.59l-1.54-4.77v6.95h-.98v-8.7h1.47l1.61,5.23,1.6-5.23h1.41v8.7h-.98v-6.96l-1.54,4.79h-1.04Z"/>
      <path class="cls-1" d="M272.41,45.09v4.68h-1v-6.53h1v.87h.22c.14-.3.32-.54.54-.72.22-.17.46-.26.71-.26.28,0,.52.08.71.26.19.17.32.41.4.72h.24c.14-.3.32-.54.56-.72.24-.17.49-.26.76-.26.36,0,.65.15.86.44.21.29.31.69.31,1.19v5h-1v-4.83c0-.33-.04-.57-.13-.74-.09-.17-.21-.25-.38-.25-.14,0-.31.1-.52.3-.21.2-.42.48-.63.84v4.68h-1v-4.83c0-.33-.04-.57-.13-.74-.09-.17-.22-.25-.39-.25-.14,0-.31.1-.51.29-.19.2-.4.48-.62.85Z"/>
      <path class="cls-1" d="M155.38,62.81l-2.9-7.33v7.33h-.98v-8.7h1.49l2.97,7.49v-7.49h.98v8.7h-1.56Z"/>
      <path class="cls-1" d="M159.59,62.81v-6.53h1.09v1.09h.33c.16-.37.41-.66.75-.88.34-.21.73-.32,1.16-.32.65,0,1.17.2,1.54.6.38.4.57.94.57,1.63v4.4h-1.09v-4.19c0-.46-.11-.81-.33-1.05s-.54-.36-.95-.36c-.33,0-.66.1-1,.29-.34.2-.67.48-.98.85v4.46h-1.09Z"/>
      <path class="cls-1" d="M176.57,62.92c-.96,0-1.69-.27-2.19-.8-.5-.53-.75-1.31-.75-2.32v-2.63c0-1.03.25-1.81.76-2.35s1.23-.81,2.19-.81,1.67.27,2.17.81c.5.54.75,1.32.75,2.35v2.63c0,1.02-.25,1.79-.75,2.32-.5.53-1.23.8-2.19.8ZM176.57,61.94c.67,0,1.14-.16,1.42-.49s.42-.88.42-1.65v-2.63c0-.79-.14-1.35-.42-1.69-.28-.33-.76-.5-1.42-.5s-1.14.17-1.42.5c-.28.33-.42.9-.42,1.69v2.63c0,.78.14,1.33.42,1.65.28.33.76.49,1.42.49Z"/>
      <path class="cls-1" d="M184.66,62.92c-.88,0-1.55-.21-2.02-.64-.47-.42-.7-1.04-.7-1.83v-1.76c0-.8.24-1.42.71-1.86.47-.43,1.15-.65,2.02-.65s1.54.22,2.01.65c.47.44.7,1.05.7,1.86v1.76c0,.8-.23,1.41-.7,1.83-.47.42-1.14.64-2.02.64ZM184.66,61.94c.55,0,.96-.12,1.23-.37.27-.25.4-.62.4-1.12v-1.76c0-.52-.13-.91-.4-1.16-.27-.25-.68-.38-1.23-.38s-.96.12-1.23.38c-.27.25-.4.64-.4,1.16v1.76c0,.5.13.87.4,1.12.27.25.68.37,1.23.37Z"/>
      <path class="cls-1" d="M196.93,62.81v-8.7h3.06c.91,0,1.58.19,2.03.57s.67.96.67,1.72v1.07c0,.77-.23,1.34-.68,1.72-.45.38-1.13.57-2.04.57h-1.96v3.04h-1.09ZM198.01,58.81h1.96c.59,0,1.01-.1,1.26-.31.25-.21.38-.56.38-1.05v-1c0-.49-.13-.84-.38-1.05s-.67-.31-1.26-.31h-1.96v3.72Z"/>
      <path class="cls-1" d="M207.65,62.92c-.25,0-.51-.03-.78-.08-.27-.05-.53-.13-.77-.22v2.37h-1.09v-8.7h1.09v1.09h.33c.18-.37.44-.66.79-.88.34-.21.72-.32,1.12-.32.65,0,1.17.22,1.55.67.38.45.57,1.05.57,1.81v1.77c0,.77-.25,1.38-.76,1.82-.5.45-1.19.67-2.05.67ZM207.64,61.96c.61,0,1.05-.12,1.32-.37.27-.25.41-.64.41-1.19v-1.76c0-.5-.1-.86-.31-1.09-.21-.23-.54-.34-.99-.34-.36,0-.7.09-1.01.27-.31.18-.63.47-.95.87v3.2c.22.14.46.24.7.31.24.07.52.1.83.1Z"/>
      <path class="cls-1" d="M229.05,64.89c-1.07.23-1.9.18-2.47-.16-.58-.34-.88-.94-.9-1.81-.93-.02-1.63-.3-2.11-.83s-.72-1.29-.72-2.29v-2.63c0-1.04.25-1.82.75-2.36.5-.54,1.23-.8,2.2-.8s1.69.27,2.19.8c.49.54.74,1.32.74,2.36v2.63c0,.83-.17,1.5-.49,2.01-.33.51-.82.84-1.46,1,.01.51.19.86.53,1.04s.87.2,1.59.06l.16.98ZM225.79,61.83c.67,0,1.14-.16,1.42-.47s.42-.83.42-1.57v-2.63c0-.75-.14-1.28-.42-1.6-.28-.32-.76-.48-1.42-.48s-1.14.16-1.43.48c-.28.32-.42.85-.42,1.6v2.63c0,.73.14,1.25.42,1.57.28.31.76.47,1.43.47Z"/>
      <path class="cls-1" d="M235.75,64.99v-3.26h-.33c-.2.39-.46.69-.78.89-.33.2-.7.3-1.12.3-.69,0-1.21-.21-1.58-.64-.36-.43-.54-1.04-.54-1.84v-1.77c0-.8.27-1.42.8-1.85s1.2-.64,2-.64c.48,0,.94.06,1.39.17.45.12.86.28,1.24.5v8.13h-1.09ZM233.79,61.89c.35,0,.69-.09,1.01-.28.32-.18.63-.47.95-.86v-3.2c-.25-.14-.5-.24-.75-.31-.25-.07-.51-.1-.79-.1-.48,0-.89.13-1.22.38-.34.25-.51.65-.51,1.17v1.64c0,.53.11.92.32,1.17.21.25.54.38.98.38Z"/>
      <path class="cls-1" d="M246.75,62.81h-1.09v-8.7h3.27c.91,0,1.58.19,2.03.57s.67.96.67,1.72v.67c0,.7-.18,1.24-.53,1.63s-.89.62-1.6.7l2.23,3.4h-1.24l-2.21-3.37h-1.54v3.37ZM246.75,58.48h2.17c.59,0,1.01-.11,1.26-.32.25-.21.38-.57.38-1.08v-.67c0-.48-.12-.82-.38-1.02-.25-.2-.67-.3-1.26-.3h-2.17v3.39Z"/>
      <path class="cls-1" d="M254.3,62.81v-6.53h1.09v1.09h.33c.15-.41.38-.72.7-.91.31-.19.69-.29,1.13-.29.49,0,.89.16,1.22.48.33.32.49.78.49,1.36v.98h-1.03v-.59c0-.41-.09-.72-.28-.91-.18-.2-.47-.29-.84-.29-.34,0-.65.08-.93.25-.28.17-.54.43-.78.78v4.57h-1.09Z"/>
      <path class="cls-1" d="M154.36,75.92c-.65,0-1.26-.1-1.83-.32-.57-.21-1.07-.59-1.52-1.15l.78-.74c.3.41.67.72,1.09.92.42.2.93.3,1.51.3.54,0,.97-.12,1.3-.38s.49-.59.49-1.02-.14-.73-.42-.95c-.28-.22-.84-.46-1.67-.7-1.06-.3-1.78-.63-2.16-.99-.38-.36-.58-.86-.58-1.51,0-.75.25-1.32.76-1.71.5-.38,1.11-.58,1.83-.58.61,0,1.19.11,1.73.32.55.21,1.03.59,1.45,1.14l-.75.75c-.29-.41-.65-.72-1.09-.92-.43-.2-.88-.3-1.33-.3s-.82.09-1.1.28c-.28.19-.41.5-.41.93,0,.38.15.69.45.91.3.22.89.46,1.78.71,1,.29,1.68.61,2.05.95.37.34.55.84.55,1.5,0,.83-.3,1.47-.89,1.9s-1.27.65-2.02.65Z"/>
      <path class="cls-1" d="M161.67,75.97c-.55,0-1.08-.08-1.6-.25-.51-.16-.99-.42-1.42-.76l.49-.86c.35.29.75.51,1.19.66.44.15.89.22,1.34.22.38,0,.74-.06,1.08-.17.34-.12.52-.36.52-.74,0-.31-.14-.53-.42-.66s-.8-.24-1.55-.33c-.8-.09-1.4-.28-1.81-.56-.41-.28-.62-.72-.62-1.33,0-.65.25-1.15.74-1.48.49-.33,1.07-.5,1.72-.5.51,0,1.01.09,1.48.26.48.17.92.42,1.32.74l-.49.86c-.33-.27-.7-.48-1.09-.64-.39-.16-.8-.24-1.23-.24-.35,0-.67.07-.95.2-.29.13-.43.37-.43.72,0,.3.13.51.4.65.26.13.77.25,1.53.34.83.09,1.45.29,1.86.6.41.31.62.74.62,1.29,0,.68-.28,1.18-.83,1.5s-1.17.47-1.85.47Z"/>
      <path class="cls-1" d="M177.14,75.86l-1.28-5.19-1.28,5.19h-1.09l-1.17-8.7h1.08l.78,7.1,1.14-4.93h1.14l1.14,4.93.78-7.1h1.02l-1.17,8.7h-1.09Z"/>
      <path class="cls-1" d="M184.66,75.86l-.96-4.25-.91,4.25h-1.24l-1.23-6.52h1.04l.83,5.73.85-4.64h1.28l.92,4.47.79-5.56h1.04l-1.23,6.52h-1.2Z"/>
      <path class="cls-1" d="M200.3,75.86l-2.32-3.57-2.33,3.57h-1.27l3.03-4.44-2.76-4.26h1.25l2.2,3.39,2.22-3.39h1.26l-2.92,4.25,2.88,4.45h-1.25Z"/>
      <path class="cls-1" d="M207.2,75.86l-1.69-2.49-1.61,2.49h-1.21l2.28-3.27-2.21-3.25h1.22l1.62,2.39,1.64-2.39h1.21l-2.31,3.2,2.26,3.33h-1.22Z"/>
      <path class="cls-1" d="M220.39,75.86h-1.09v-3.26l-3.11-5.44h1.22l2.5,4.46,2.38-4.46h1.2l-3.1,5.44v3.26Z"/>
      <path class="cls-1" d="M225.77,78.1c-.17,0-.34-.01-.51-.03-.17-.02-.34-.05-.51-.09l.19-.97c.19.04.36.08.53.1.16.02.31.03.45.03.33,0,.63-.09.89-.28s.46-.49.59-.9l.03-.1h-.4l-2.32-6.52h1.19l1.84,5.61,1.83-5.61h1.14l-2.39,6.74c-.25.7-.58,1.22-1.01,1.54-.42.32-.93.48-1.53.48Z"/>
      <path class="cls-1" d="M244.9,75.86h-5.87v-.98l4.57-6.74h-4.57v-.98h5.87v.98l-4.58,6.74h4.58v.98Z"/>
      <path class="cls-1" d="M252.08,75.86h-5v-.98l3.66-4.57h-3.66v-.98h5v.98l-3.66,4.57h3.66v.98Z"/>
    </g>
  </g>
</svg>