<?xml version="1.0" encoding="UTF-8"?>
<svg id="Layer_1" data-name="Layer 1" xmlns="http://www.w3.org/2000/svg" version="1.1" viewBox="0 0 219.76 65.45">
  <defs>
    <style>
      .cls-1 {
        fill: #000;
      }

      .cls-1, .cls-2, .cls-3, .cls-4, .cls-5 {
        stroke-width: 0px;
      }

      .cls-6 {
        letter-spacing: -.08em;
      }

      .cls-2 {
        fill: #f7002f;
      }

      .cls-7 {
        letter-spacing: 0em;
      }

      .cls-3 {
        fill: #ffff6a;
      }

      .cls-8 {
        font-family: Adelle-RegularItalic, Adelle;
        font-size: 11.38px;
        font-style: italic;
      }

      .cls-8, .cls-4 {
        fill: #3f3f3f;
      }

      .cls-9 {
        letter-spacing: -.08em;
      }

      .cls-5 {
        fill: #ff632c;
      }
    </style>
  </defs>
  <path class="cls-3" d="M26.11,39.69c-34.81-34.81,34.46-34.81-.35,0,34.81-34.81,34.81,34.46,0-.34,34.81,34.81-34.46,34.81.35,0-34.81,34.81-34.81-34.46,0,.34"/>
  <path class="cls-5" d="M82.1,39.69c-34.81-34.81,34.46-34.81-.35,0,34.81-34.81,34.81,34.46,0-.34,34.81,34.81-34.46,34.81.35,0-34.81,34.81-34.81-34.46,0,.34"/>
  <path class="cls-2" d="M138.09,39.69c-34.81-34.81,34.46-34.81-.35,0,34.81-34.81,34.81,34.46,0-.34,34.81,34.81-34.46,34.81.35,0-34.81,34.81-34.81-34.46,0,.34"/>
  <path class="cls-1" d="M193.99,39.69c-34.81-34.81,34.46-34.81-.35,0,34.81-34.81,34.81,34.46,0-.34,34.81,34.81-34.46,34.81.35,0-34.81,34.81-34.81-34.46,0,.34"/>
  <path class="cls-4" d="M13.35,9.81l.46-1.58h-1.38l-.46,1.58h-.82l.44-1.58h-1.3l.27-.75h1.26l.49-1.68h-1.31l.28-.76h1.25l.4-1.4h.83l-.41,1.4h1.37l.4-1.4h.82l-.41,1.4h1.32l-.27.76h-1.26l-.49,1.68h1.3l-.26.75h-1.25l-.46,1.58h-.82ZM12.65,7.47h1.39l.48-1.68h-1.37l-.5,1.68ZM21.48,4.74h-2.66l-1.07,7.48h-1.01l1.05-7.36c.01-.07,0-.11-.08-.11h-.8l.11-.79h.89l.13-.87c.19-1.3.89-1.83,1.97-1.83.81,0,1.43.33,1.71.56l-.44.68c-.16-.11-.61-.42-1.18-.42-.67,0-.93.39-1.05,1.13l-.1.64c-.01.08-.01.11.08.11h2.68l.14-1.04c.17-1.29.89-1.83,1.99-1.83.79,0,1.41.32,1.68.55l-.44.69c-.16-.11-.63-.42-1.18-.42-.67,0-.94.39-1.05,1.13l-.11.81c-.01.08-.01.11.08.11h1.83l-.11.79h-1.92l-1.06,7.48h-1.01l1.05-7.36c.01-.07,0-.11-.08-.11ZM28.97,4.74h-2.66l-1.07,7.48h-1.01l1.05-7.36c.01-.07,0-.11-.08-.11h-.8l.11-.79h.89l.13-.87c.19-1.3.89-1.83,1.97-1.83.81,0,1.43.33,1.71.56l-.44.68c-.16-.11-.61-.42-1.18-.42-.67,0-.93.39-1.05,1.13l-.1.64c-.01.08-.01.11.08.11h2.68l.14-1.04c.17-1.29.89-1.83,1.99-1.83.79,0,1.41.32,1.68.55l-.44.69c-.16-.11-.63-.42-1.18-.42-.67,0-.94.39-1.05,1.13l-.11.81c-.01.08-.01.11.08.11h1.83l-.11.79h-1.92l-1.06,7.48h-1.01l1.05-7.36c.01-.07,0-.11-.08-.11ZM35.32,3.28c-1.48,0-2.09,1.63-2.23,2.65.44-.34,1.13-.72,1.96-.72,1.16,0,1.78.72,1.78,1.86,0,1.75-1.01,2.87-2.71,2.87s-2.16-1.23-2.16-2.81c0-1.67.75-4.7,3.38-4.7.67,0,1.37.2,1.87.72l-.58.66c-.4-.38-.81-.52-1.3-.52ZM33,7.32c0,.82.18,1.81,1.22,1.81s1.55-.8,1.55-1.95c0-.76-.31-1.16-1.01-1.16s-1.38.42-1.72.72c-.01.18-.03.36-.03.58ZM40.96,8.77c-.65.65-1.31,1.17-2.17,1.17-1.08,0-1.71-.69-1.71-2.17,0-1.75.73-3.93,2.86-3.93.66,0,1.24.31,1.62.64l.18-.52h.96c-.11.46-.23.92-.3,1.4l-.5,3.59c-.02.18-.01.21.16.23l.56.08-.09.56h-1.66l.14-1.02h-.03ZM39.97,4.68c-1.42,0-1.86,1.81-1.86,2.99,0,1.02.39,1.38.98,1.38.68,0,1.43-.73,1.97-1.31l.34-2.45c-.3-.3-.85-.61-1.43-.61Z"/>
  <path class="cls-4" d="M68.06,9.81l.46-1.58h-1.38l-.46,1.58h-.82l.44-1.58h-1.3l.27-.75h1.26l.49-1.68h-1.31l.28-.76h1.25l.4-1.4h.83l-.41,1.4h1.37l.4-1.4h.82l-.41,1.4h1.32l-.27.76h-1.26l-.49,1.68h1.3l-.26.75h-1.25l-.46,1.58h-.82ZM67.35,7.47h1.39l.48-1.68h-1.37l-.5,1.68ZM75.96,4.74h-2.66l-1.07,7.48h-1.01l1.05-7.36c.01-.07,0-.11-.08-.11h-.8l.11-.79h.89l.13-.87c.19-1.3.89-1.83,1.97-1.83.81,0,1.43.33,1.71.56l-.44.68c-.16-.11-.61-.42-1.18-.42-.67,0-.93.39-1.05,1.13l-.1.64c-.01.08-.01.11.08.11h2.68l.14-1.04c.17-1.29.89-1.83,1.99-1.83.79,0,1.41.32,1.68.55l-.44.69c-.16-.11-.63-.42-1.18-.42-.67,0-.94.39-1.05,1.13l-.11.81c-.01.08-.01.11.08.11h1.83l-.11.79h-1.92l-1.06,7.48h-1.01l1.05-7.36c.01-.07,0-.11-.08-.11ZM82.07,3.28c-1.48,0-2.09,1.63-2.23,2.65.44-.34,1.13-.72,1.96-.72,1.16,0,1.78.72,1.78,1.86,0,1.75-1.01,2.87-2.71,2.87s-2.16-1.23-2.16-2.81c0-1.67.75-4.7,3.38-4.7.67,0,1.37.2,1.87.72l-.58.66c-.4-.38-.81-.52-1.3-.52ZM79.75,7.32c0,.82.18,1.81,1.22,1.81s1.55-.8,1.55-1.95c0-.76-.31-1.16-1.01-1.16s-1.38.42-1.72.72c-.01.18-.03.36-.03.58ZM87.81,8.39c0,1.41-.98,2.36-2.7,2.36-1.08,0-1.96-.47-2.33-1l.67-.64c.35.42.88.77,1.7.77s1.62-.34,1.62-1.47c0-.79-.5-1.17-1.38-1.17-.25,0-.48.02-.79.07l.1-.79.66-.07c1.12-.11,1.71-.71,1.71-1.56,0-.55-.3-.92-1.06-.92-.9,0-1.29.22-1.4,1.18l-.97-.11c.15-1.59,1.38-1.89,2.47-1.89,1.43,0,2,.66,2,1.64s-.57,1.65-1.54,1.98v.05c.69.17,1.23.65,1.23,1.57ZM90.03,7.12c1.15-1.02,1.7-1.49,1.7-2.27,0-.57-.31-.88-1.22-.88-.82,0-1.18.24-1.3,1.18l-.96-.11c.19-1.63,1.34-1.89,2.37-1.89,1.57,0,2.11.63,2.11,1.58,0,1.34-1.06,2.09-2.21,3.07l-1.43,1.22h2.33c.11,0,.15-.01.18-.13l.32-.97h.73l-.26,1.87h-4.69l.1-.71,2.23-1.98ZM95.05,9.94c-1.66,0-2.34-.96-2.34-2.38,0-2.63,1.56-3.72,3.37-3.72.83,0,1.4.23,1.64.35l-.22,1.51-.72-.03-.03-.75c0-.08-.03-.14-.14-.17-.16-.06-.4-.09-.71-.09-1.06,0-2.14.75-2.14,2.78,0,1.16.51,1.68,1.43,1.68.61,0,1.26-.19,1.66-.41l.25.73c-.47.28-1.33.5-2.06.5Z"/>
  <text class="cls-8" transform="translate(120.68 9.81)"><tspan class="cls-9" x="0" y="0">#f</tspan><tspan class="cls-6" x="9.49" y="0">7002</tspan><tspan x="29.65" y="0">f</tspan></text>
  <text class="cls-8" transform="translate(173.31 9.81)"><tspan class="cls-9" x="0" y="0">#</tspan><tspan class="cls-6" x="6" y="0">00000</tspan><tspan class="cls-7" x="32.9" y="0">0</tspan></text>
</svg>