<?xml version="1.0" encoding="UTF-8"?>
<svg id="Layer_1" data-name="Layer 1" xmlns="http://www.w3.org/2000/svg" version="1.1" viewBox="0 0 266.82 85">
  <defs>
    <style>
      .cls-1 {
        fill: #3f3f3f;
      }

      .cls-1, .cls-2 {
        stroke-width: 0px;
      }

      .cls-2 {
        fill: #3f3f3f;
      }
    </style>
  </defs>
  <g>
    <path class="cls-1" d="M4.49.09c2.28,0,4.06.36,4.06,2.56,0,2.36-2.03,3.07-2.96,4.09-.06.06-.08.13-.08.21,0,.2.18.38.39.38h.03c.09,0,.17-.03.24-.06.35-.12.68-.27,1.04-.3h.09c.95,0,1.67.93,1.67,1.97,0,.98-.57,1.74-1.13,2.19-.87.72-2.06,1.02-3.5,1.02h-.03C1.86,12.14.02,11.12.02,8.28.02,6.21,3.4,5.47,3.4,4.72c0-.2-.2-.26-.42-.26-.26,0-.56.06-.77.08-.06,0-.11.01-.17.01-.87,0-1.55-.59-1.8-1.25-.09-.24-.12-.47-.12-.69,0-.53.2-1.02.47-1.37C1.32.29,2.57.12,4.09.09h.41Z"/>
    <path class="cls-1" d="M14.1,6.54c0,.96-.03,1.91-.1,2.87-.03.5-.09.99-.3,1.44-.3.63-.99,1.22-1.88,1.22-.08,0-.15,0-.23-.02-.81-.09-1.41-.63-1.74-1.23-.41-.75-.48-1.8-.48-2.89,0-.57.02-1.16.03-1.71.05-1.74,0-3.65,1.02-4.57.38-.35.89-.51,1.4-.51.54,0,1.07.2,1.46.57.62.6.75,1.53.78,2.65.03.72.04,1.46.04,2.18Z"/>
    <path class="cls-1" d="M20.07,5.29c-.41,0-.81.27-.81.72s.38.75.84.75c.03,0,.05-.02.08-.02.21-.01.41-.06.62-.1.53-.12.95-.21,1.32-.21.48,0,.89.14,1.41.54.56.42.81,1.01.81,1.64,0,1.59-1.65,3.44-4.3,3.44-1.61,0-2.86-.66-3.74-1.46-.95-.86-1.8-2.24-1.8-3.95,0-.36.04-.72.12-1.11.35-1.61,1.29-2.81,2.51-3.56.83-.51,1.95-.89,3.2-.89.36,0,.72.04,1.1.1,1.1.2,2.04.83,2.33,1.83.04.18.08.41.08.63,0,.47-.11.96-.3,1.28-.39.6-1.08.9-1.76.9-.41,0-.8-.1-1.11-.33-.17-.15-.38-.21-.59-.21Z"/>
    <path class="cls-1" d="M28.95,2.37c.23.48.24,1.04.24,1.56,0,1.4-.11,2.8-.3,4.18.18-.05.36-.06.54-.06,1.11,0,2.12.74,2.12,1.85,0,.44-.18.87-.47,1.22-.56.66-1.46,1.01-2.58,1.01-1.37,0-2.6-.3-3.25-1.1-.57-.71-.6-1.71-.6-2.92,0-1.32.04-2.65.09-3.97.06-1.62.66-2.98,2.31-2.98.9,0,1.59.56,1.89,1.2Z"/>
    <path class="cls-1" d="M38.68,3.08c0,.81-.66,1.61-1.55,1.61-.06,0-.14,0-.21-.02-.17-.01-.35-.06-.53-.06-.2,0-.36.04-.42.23-.02.05-.03.09-.03.12,0,.17.18.21.36.21.06,0,.1,0,.17-.01.15-.02.3-.03.45-.03.17,0,.32.01.48.03.54.06.9.29,1.1.69.1.23.15.47.15.69,0,.6-.35,1.17-.8,1.38-.2.09-.39.12-.6.12-.29,0-.57-.06-.84-.12-.06-.02-.12-.02-.18-.02-.2,0-.35.08-.35.27,0,.29.23.38.48.38.1,0,.21-.02.32-.03.14-.01.29-.03.41-.03.89,0,1.5.51,1.5,1.43,0,.03-.02.08-.02.1-.08,1.47-1.46,2.04-3.01,2.04-.36,0-.74-.03-1.11-.09-.6-.09-1.22-.29-1.68-.69-1.07-.93-1.2-3.01-1.2-4.96v-.87c.02-1.52.23-2.8,1.14-3.52.65-.51,1.71-.74,2.83-.74.38,0,.77.01,1.14.08.42.06.84.17,1.2.39.45.29.75.8.78,1.32,0,.03.01.06.01.09Z"/>
    <path class="cls-1" d="M47.02,3.47c0,.92-.47,1.79-1.2,1.79-.1,0-.21-.03-.33-.06-.06-.02-.12-.03-.17-.03-.21,0-.3.18-.3.45,0,.04.02.09.02.13.06.75.14,1.52.14,2.3,0,.54-.03,1.07-.14,1.62-.21,1.11-.86,2.39-2.07,2.39-.12,0-.26-.02-.39-.05-1.02-.21-1.62-1.16-1.85-2.18-.08-.32-.09-.63-.09-.9,0-1.17.5-2.03.5-3.26v-.27c-.03-.44-.24-.54-.5-.54-.18,0-.39.05-.59.05-.07,0-.15,0-.21-.02-.54-.14-.86-.65-.86-1.31v-.18c.08-.95.51-1.58,1.37-1.89.72-.26,1.86-.41,2.98-.41,1.2,0,2.36.18,2.89.57.56.42.81,1.11.81,1.79Z"/>
    <path class="cls-1" d="M54.61,5.02c-.23.12-.5.18-.77.18-.21,0-.41-.03-.62-.09-.11-.03-.21-.06-.32-.08-.03,0-.06-.02-.09-.02-.23,0-.39.14-.39.36,0,.24.2.29.41.29.12,0,.26-.02.36-.02,1.44,0,2.37,1.67,2.37,2.87v.08c-.06,1.74-1.53,2.95-3.01,3.34-.44.12-.9.17-1.35.17-.96,0-1.91-.24-2.77-.68-.78-.39-1.64-1.05-1.74-2.07-.03-.3-.03-.59.01-.84.08-.59.33-1.05.72-1.31.36-.21,1.08-.29,1.43-.08.24.15.42.39.69.51.08.03.14.04.21.04.18,0,.33-.09.33-.29,0-.03-.02-.04-.02-.08-.14-.66-2.49-.24-2.83-2.65-.07-.51-.03-.96.08-1.35.3-1.04,1.13-1.7,2.04-2.09.63-.27,1.32-.39,2.01-.39s1.43.1,2.07.33c.6.21,1.13.51,1.47.9.32.38.5.89.5,1.38,0,.35-.09.71-.27,1.01-.14.23-.32.42-.56.56Z"/>
    <path class="cls-1" d="M65.99,7.89c-.11,0-.18.32-.18.51s.02.39.02.59c0,.45-.03.9-.09,1.32-.1.74-.45,1.28-1.01,1.53-.24.1-.48.17-.72.17-.68,0-1.26-.42-1.58-.96-.3-.51-.36-1.16-.39-1.92-.04-.98-.12-2.16-.12-3.35,0-2.21.24-4.39,1.32-5.19.44-.32.99-.5,1.53-.5.42,0,.83.09,1.2.3.38.21.71.51.93.9.29.5.39,1.1.47,1.67.15,1.11.26,1.62.35,1.62.11,0,.2-.62.35-1.73.08-.57.18-1.17.47-1.67.23-.39.56-.68.93-.89s.8-.3,1.22-.3c.54,0,1.08.17,1.52.48,1.08.8,1.32,2.98,1.32,5.19,0,1.19-.08,2.38-.12,3.35-.03.77-.08,1.52-.38,2.03-.32.54-.92.96-1.59.96-.24,0-.48-.06-.72-.17-.56-.26-.9-.9-1.01-1.64-.06-.42-.07-.87-.07-1.32v-.59c0-.2-.08-.51-.18-.51-.21,0,.11,2.28-1.82,2.28-1.26,0-1.43-2.18-1.64-2.18Z"/>
    <path class="cls-1" d="M80.96,3.08c0,.81-.66,1.61-1.55,1.61-.06,0-.14,0-.21-.02-.17-.01-.35-.06-.53-.06-.2,0-.36.04-.42.23-.02.05-.03.09-.03.12,0,.17.18.21.36.21.06,0,.1,0,.17-.01.15-.02.3-.03.45-.03.17,0,.32.01.48.03.54.06.9.29,1.1.69.1.23.15.47.15.69,0,.6-.35,1.17-.8,1.38-.2.09-.39.12-.6.12-.29,0-.57-.06-.84-.12-.06-.02-.12-.02-.18-.02-.2,0-.35.08-.35.27,0,.29.23.38.48.38.1,0,.21-.02.32-.03.14-.01.29-.03.41-.03.89,0,1.5.51,1.5,1.43,0,.03-.02.08-.02.1-.08,1.47-1.46,2.04-3.01,2.04-.36,0-.74-.03-1.11-.09-.6-.09-1.22-.29-1.68-.69-1.07-.93-1.2-3.01-1.2-4.96v-.87c.02-1.52.23-2.8,1.14-3.52.65-.51,1.71-.74,2.83-.74.38,0,.77.01,1.14.08.42.06.84.17,1.2.39.45.29.75.8.78,1.32,0,.03.01.06.01.09Z"/>
    <path class="cls-1" d="M91.74,6.55c0,1.44-.62,2.89-1.65,3.89-1.07,1.04-2.37,1.61-3.85,1.61h-.42c-.69,0-1.23.04-1.8.04-.27,0-.56-.01-.87-.04-.81-.09-1.38-.56-1.65-1.19-.18-.41-.23-1.82-.23-3.19,0-.5,0-.99.02-1.41v-1.43c0-1.32.04-2.59.6-3.14.53-.53,1.5-.65,2.46-.65,4.01,0,7.24,1.47,7.39,5.29v.21ZM85.94,4.64c-.15,0-.27.04-.35.12-.11.12-.14.36-.14.59,0,.29.04.57.09.66.08.15.27.21.5.21.21,0,.44-.06.6-.18.18-.14.32-.44.32-.66,0-.45-.6-.74-1.02-.74Z"/>
    <path class="cls-1" d="M96.84,6.54c0,.96-.03,1.91-.1,2.87-.03.5-.09.99-.3,1.44-.3.63-.99,1.22-1.88,1.22-.08,0-.15,0-.23-.02-.81-.09-1.41-.63-1.74-1.23-.41-.75-.48-1.8-.48-2.89,0-.57.02-1.16.03-1.71.05-1.74,0-3.65,1.02-4.57.38-.35.89-.51,1.4-.51.54,0,1.07.2,1.46.57.62.6.75,1.53.78,2.65.03.72.04,1.46.04,2.18Z"/>
    <path class="cls-1" d="M101.95,3.5c0,.12,0,.26-.02.38-.08.84-.32,1.68-.32,2.59,0,.25.03.51.08.78.04.23.12.44.29.54.08.04.14.08.2.08.27,0,.42-.39.45-.65.03-.23.04-.47.04-.69,0-1.1-.27-2.18-.29-3.25v-.09c0-.36.03-.72.18-1.05.15-.35.42-.63.75-.81.33-.2.69-.27,1.05-.27.68,0,1.34.32,1.74.81.48.59.59,1.37.59,2.28,0,.21,0,.44-.02.66-.08,2.16-.09,4.49-1.14,5.83-.69.87-1.86,1.41-3.32,1.41h-.14c-1.85-.04-3.35-.92-4.12-2.16-.6-.98-.75-2.15-.75-3.5,0-.38.02-.75.03-1.16.03-.62.05-1.23.18-1.83.2-.92.69-1.7,1.47-2.07.32-.15.65-.23.95-.23.74,0,1.4.39,1.76.98.26.42.35.93.35,1.43Z"/>
    <path class="cls-1" d="M111.06,8.28c-.09,0-.14.14-.15.3-.03.24,0,.56,0,.69,0,.41-.03.83-.09,1.2-.1.66-.44,1.16-.99,1.38-.24.11-.48.15-.72.15-.68,0-1.28-.38-1.59-.87-.3-.47-.36-1.05-.39-1.74-.04-.89-.1-1.95-.1-3.02,0-2,.24-3.98,1.29-4.7.42-.29.93-.44,1.46-.44.41,0,.81.09,1.17.27.36.18.69.47.9.81.27.45.38.98.45,1.5.15,1.01.24,1.47.33,1.47s.18-.56.33-1.56c.08-.53.18-1.05.45-1.5.21-.35.54-.63.9-.81.36-.18.77-.27,1.17-.27.53,0,1.05.15,1.47.44,1.05.72,1.29,2.71,1.29,4.7,0,1.07-.08,2.13-.12,3.02-.03.69-.09,1.28-.39,1.74-.32.5-.9.86-1.58.86-.24,0-.48-.03-.72-.14-.56-.23-.9-.72-1.01-1.38-.06-.38-.08-.8-.08-1.2v-.53c0-.18-.03-.47-.14-.47-.23,0,.08,2.06-1.67,2.06-1.14,0-1.29-1.97-1.49-1.97Z"/>
  </g>
  <g>
    <path class="cls-1" d="M8,35.69c0,.86-.16,2.17-1.49,2.17-1.17,0-1.39-.72-1.67-2.01-.24.02-.48.05-.73.05-.29,0-.59-.02-.86-.06-.2,1.4-.35,2.02-1.68,2.02C.12,37.86.01,36.31.01,35.5v-.38c0-5.36,1.76-6.76,3.63-6.76,2.39,0,4.35,1.11,4.35,6.74,0,.12.01.33.01.6ZM3.98,31.6c-.25,0-.49.38-.6,1.18,0,.18.25.25.53.25.33,0,.72-.12.72-.24-.12-.79-.38-1.19-.65-1.19Z"/>
    <path class="cls-1" d="M16.13,35.89c0,.78-.17,1.97-1.51,1.97-1.17,0-1.39-.65-1.67-1.82-.21.02-.44.04-.67.04-.26,0-.54-.01-.8-.05-.2,1.27-.35,1.83-1.68,1.83-1.45,0-1.55-1.4-1.55-2.14v-.35c0-4.85,1.72-6.13,3.57-6.13,2.35,0,4.29,1.02,4.29,6.11,0,.11.02.31.02.54ZM12.17,32.2c-.23,0-.45.35-.55,1.06,0,.17.23.23.48.23.31,0,.65-.1.65-.2-.11-.72-.33-1.09-.57-1.09Z"/>
  </g>
  <g>
    <path class="cls-2" d="M27.47,37.91c-.39.08-1.03.12-1.73.12-.45,0-.93-.01-1.4-.04-1.04-.05-1.97-.2-2.28-.51-.31-.3-.36-1.22-.36-2.23,0-.41.01-.82.01-1.23v-2.96c0-.88.04-1.8.39-2.09.5-.42,2.16-.68,3.6-.68.63,0,1.22.05,1.65.17,1.06.29,1.86,1.05,1.96,1.96.01.1.01.18.01.27,0,.75-.29,1.53-.66,1.76.55.36,1.09,1.23,1.09,2.23,0,1.61-.68,2.9-2.28,3.24ZM25.46,31.3c.22,0,.47-.14.47-.39s-.23-.42-.41-.42c-.22,0-.45.17-.45.41v.08c.05.24.21.32.39.32ZM25.52,35.4c.21,0,.45-.16.45-.39,0-.05-.01-.08-.02-.14-.07-.19-.23-.27-.39-.27-.29,0-.43.16-.43.43,0,.23.22.38.39.38Z"/>
    <path class="cls-2" d="M35.26,37.86c-.59.12-1.78.13-2.84.07-.94-.05-1.79-.18-2.08-.47-.27-.27-.32-1.11-.32-2.03,0-.37.01-.75.01-1.12v-2.69c0-.8.04-1.64.36-1.9.67-.55,3.51-.8,4.77-.47.97.25,1.68.94,1.78,1.78.08.75-.2,1.61-.59,1.84.5.33.99,1.12.99,2.03,0,1.47-.62,2.64-2.08,2.95ZM33.42,31.85c.2,0,.42-.13.42-.36,0-.04-.01-.07-.02-.13-.06-.17-.19-.25-.33-.25-.2,0-.41.16-.41.37v.08c.04.2.19.29.35.29ZM33.48,35.57c.19,0,.42-.13.42-.35,0-.05-.01-.08-.02-.13-.07-.18-.22-.25-.36-.25-.19,0-.41.14-.41.37,0,.02.01.05.01.07.04.21.19.29.36.29Z"/>
    <path class="cls-2" d="M47.3,32.25c-.36,0-.71.26-.71.69s.32.72.73.72c.02,0,.04-.01.06-.01.19-.01.37-.05.55-.08.47-.1.82-.17,1.16-.17.78,0,1.29.25,1.6.63.25.3.36.68.36,1.1,0,1.27-1.45,2.74-3.78,2.74-1.41,0-2.51-.57-3.29-1.28-.84-.75-1.59-1.96-1.59-3.46,0-.31.04-.63.11-.98.3-1.41,1.13-2.46,2.21-3.12.72-.44,1.71-.78,2.81-.78,1.66,0,3.07.73,3.07,2.44,0,.44-.08.93-.26,1.23-.33.57-.94.86-1.54.86-.35,0-.7-.1-.98-.31-.14-.14-.33-.21-.51-.21Z"/>
    <path class="cls-2" d="M55.37,32.49c-.32,0-.65.22-.65.57s.3.6.67.6c.02,0,.04-.01.06-.01.17-.01.32-.05.49-.08.42-.1.75-.17,1.05-.17.38,0,.71.11,1.12.43.44.33.65.8.65,1.3,0,1.27-1.31,2.74-3.42,2.74-1.28,0-2.27-.53-2.97-1.16-.75-.68-1.43-1.78-1.43-3.14,0-.29.04-.57.1-.88.27-1.28,1.03-2.23,2-2.83.66-.41,1.55-.71,2.54-.71.29,0,.57.04.87.08.87.16,1.62.66,1.85,1.46.04.14.06.32.06.5,0,.37-.08.76-.24,1.02-.31.48-.86.72-1.4.72-.32,0-.63-.08-.88-.26-.13-.12-.3-.17-.47-.17Z"/>
  </g>
  <path class="cls-1" d="M73.56,33.04c0,1.27-.55,2.53-1.47,3.42-.93.91-2.08,1.41-3.37,1.41-.48,0-.91,0-1.34-.01-.47-.01-.91-.04-1.39-.07-.71-.07-1.21-.41-1.45-.96-.16-.36-.19-1.61-.2-2.81-.01-1.62-.16-4.55.54-5.24.47-.47,1.34-.56,2.17-.56,3.54,0,6.5,1.27,6.49,4.64,0,.06.01.13.01.19ZM68.46,31.36c-.13,0-.25.04-.31.11-.08.11-.11.3-.11.5,0,.25.04.51.07.59.06.13.24.18.43.18.18,0,.38-.05.54-.16.16-.11.27-.37.27-.57,0-.58-.53-.65-.9-.65Z"/>
  <path class="cls-1" d="M82.14,33.49c0,1.15-.49,2.29-1.31,3.09-.85.82-1.89,1.28-3.06,1.28h-.33c-.55,0-.98.04-1.43.04-.21,0-.44-.01-.69-.04-.65-.07-1.1-.44-1.31-.94-.14-.32-.18-1.45-.18-2.53,0-.39,0-.79.01-1.12v-1.14c0-1.05.04-2.06.48-2.5.42-.42,1.19-.51,1.96-.51,3.19,0,5.76,1.17,5.88,4.21v.17ZM77.53,31.97c-.12,0-.21.04-.27.1-.08.1-.11.29-.11.47,0,.23.04.45.07.53.06.12.21.17.39.17.17,0,.35-.05.48-.14.14-.11.25-.35.25-.53,0-.36-.48-.59-.81-.59Z"/>
  <g>
    <path class="cls-1" d="M94.4,30.04c0,.74-.57,1.46-1.35,1.46-.06,0-.12,0-.18-.01-.14-.02-.31-.06-.47-.06-.1,0-.19.02-.27.07-.07.05-.12.13-.12.24,0,.14.16.19.31.19.07,0,.13,0,.2-.01.11-.01.21-.02.33-.02.14,0,.29.01.43.02.48.05.78.23.96.55.1.18.14.37.14.55,0,1.08-.82,1.1-1.97,1.1-.08,0-.18,0-.25.01-.12.02-.2.08-.2.23,0,.26.2.33.42.33.1,0,.18-.01.27-.02.12-.02.25-.04.36-.04.78,0,1.31.48,1.31,1.3,0,.02-.01.06-.01.1-.06,1.34-1.28,1.85-2.64,1.85-.32,0-.65-.04-.97-.08-.54-.08-1.08-.25-1.48-.61-.93-.82-1.06-2.63-1.06-4.35,0-.26.01-.51.01-.76.02-1.34.19-2.45,1-3.09.56-.45,1.51-.65,2.47-.65.33,0,.67.02,1,.07.37.06.75.13,1.06.35.39.26.66.73.68,1.21v.08Z"/>
    <path class="cls-1" d="M100.3,30.73c0,.65-.53,1.28-1.23,1.28-.05,0-.11,0-.17-.01-.13-.01-.27-.05-.42-.05-.16,0-.29.04-.33.18-.01.04-.02.07-.02.1,0,.13.14.17.29.17.05,0,.08,0,.13-.01.12-.01.24-.02.36-.02.13,0,.25.01.38.02.43.05.72.23.87.55.08.18.12.37.12.55,0,.48-.27.93-.63,1.1-.16.07-.31.1-.48.1-.23,0-.45-.05-.67-.1-.05-.01-.1-.01-.14-.01-.16,0-.27.06-.27.22,0,.23.18.3.38.3.08,0,.17-.01.25-.02.11-.01.23-.02.32-.02.7,0,1.19.41,1.19,1.14,0,.02-.01.06-.01.08-.06,1.17-1.16,1.62-2.39,1.62-.29,0-.59-.02-.88-.07-.48-.07-.97-.23-1.34-.55-.85-.74-.96-2.39-.96-3.94v-.69c.01-1.21.18-2.22.91-2.8.51-.41,1.36-.58,2.25-.58.3,0,.61.01.91.06.33.05.67.13.96.31.36.23.6.63.62,1.05,0,.02.01.05.01.07Z"/>
    <path class="cls-1" d="M110.49,33.87h-.11c-.73,0-1.42-.41-1.31.78.04.43.07.86.07,1.31,0,1-.49,1.9-1.48,1.9-1.6,0-2.27-.69-2.27-2.11,0-.93-.01-2.04-.01-2.96,0-.24.01-.48.01-.72.07-2.39.78-3.67,3.18-3.74h.3c1.33,0,2.64.2,2.75,1.43v.07c0,.75-.62,1.28-1.39,1.28-.05,0-.1-.01-.14-.01-.36-.04-.86-.16-.86.3,0,.3.72.16,1.02.16.78,0,1.36.36,1.36,1.12,0,.04-.01.08-.01.12-.07.61-.47,1.03-1.1,1.08Z"/>
    <path class="cls-1" d="M116.5,34.67h-.1c-.25,0-.45-.06-.67-.1-.19-.04-.37,0-.44.14-.08.16-.07.33-.07.55l.04.56c.01.17.02.33.02.5,0,.63-.23,1.08-.66,1.34-.2.13-.44.19-.68.19-.65,0-1.33-.29-1.64-.78-.59-.94-.43-2.43-.43-3.81,0-.21.01-.44.01-.66.02-.81.06-1.49.35-2.08.41-.86,1.33-1.27,2.53-1.3h.26c.92,0,1.78.13,2.19.66.16.2.29.44.31.76v.07c0,.51-.31.93-.67,1.12-.18.1-.38.14-.59.14h-.13c-.14-.02-.29-.06-.44-.06-.18,0-.33.11-.33.29,0,.11.11.17.2.17.07,0,.14-.01.22-.01.08-.01.16-.02.24-.02h.25c.74,0,1.23.39,1.23,1.12v.12c-.06.57-.41,1.02-1,1.08Z"/>
  </g>
  <g>
    <path class="cls-1" d="M7.03,47.28c-.07,0-.16,0-.23-.01-.35-.05-.68-.21-1.03-.25-.06-.01-.12-.01-.18-.01-.74,0-1.39.6-1.58,1.2-.06.19-.08.38-.08.57,0,.65.32,1.21.72,1.48.12.08.41.18.65.18.19,0,.36-.06.39-.24v-.08c0-.3-.35-.3-.56-.36-.3-.1-.49-.42-.49-.79,0-.13.02-.27.07-.41.17-.45.56-.78,1.03-.92.25-.07.51-.1.78-.1.14,0,.3,0,.44.01,1.51.08,2.34.86,2.34,2.53,0,.41-.06.82-.2,1.22-.42,1.16-1.47,1.92-2.64,2.27-.55.15-1.08.23-1.59.23-2.04,0-3.72-1.15-4.41-2.57-.31-.65-.44-1.35-.44-2.07,0-.42.05-.85.13-1.27.47-2.41,2.09-3.94,4.81-3.94h.21c1.24.04,2.5.31,3.02,1.08.18.25.25.54.25.82,0,.45-.21.91-.56,1.16-.24.18-.55.26-.86.26Z"/>
    <path class="cls-1" d="M15.91,48.19c-.07,0-.13,0-.2-.01-.31-.05-.61-.22-.92-.25-.06-.01-.12-.01-.18-.01-.67,0-1.24.51-1.41,1.04-.06.17-.08.33-.08.5,0,.56.29,1.05.65,1.29.11.07.37.16.59.16.17,0,.32-.05.35-.2,0-.02.01-.05.01-.07,0-.25-.3-.25-.5-.31-.27-.07-.45-.36-.45-.68,0-.12.02-.23.07-.35.16-.38.51-.67.93-.79.23-.06.45-.08.69-.08.13,0,.27.01.41.01.67,0,1.19.17,1.55.53.37.36.56.91.56,1.65,0,.36-.05.72-.18,1.05-.38.99-1.33,1.66-2.39,1.96-.49.14-.98.2-1.45.2-1.85,0-3.36-1.04-3.98-2.33-.29-.58-.41-1.23-.41-1.89,0-.38.05-.76.12-1.15.43-2.19,1.9-3.58,4.36-3.58h.19c1.12.04,2.26.31,2.74,1.08.16.25.23.54.23.82,0,.45-.19.91-.5,1.16-.21.18-.5.26-.79.26Z"/>
    <path class="cls-1" d="M26.77,46.88c.06,0,.13-.01.19-.01.13,0,.27,0,.41.01.06-1.03.23-1.96.78-2.5.3-.3.71-.45,1.11-.45.43,0,.85.17,1.16.5.49.53.6,1.35.62,2.32.02.63.04,1.28.04,1.91,0,.85-.02,1.7-.08,2.53-.02.43-.07.87-.24,1.27-.24.56-.79,1.06-1.49,1.06-.06,0-.12,0-.18-.01-.65-.07-1.12-.56-1.39-1.09-.27-.56-.36-1.31-.38-2.12h-.02c-.17,0-.35-.01-.51-.02-.01.3-.02.61-.05.91-.02.43-.07.87-.24,1.27-.24.56-.79,1.06-1.49,1.06-.06,0-.12,0-.18-.01-.65-.07-1.13-.56-1.4-1.09-.32-.66-.38-1.58-.38-2.53,0-.5.01-1.02.02-1.5.04-1.53,0-3.2.81-4,.3-.3.71-.45,1.11-.45.43,0,.86.17,1.17.5.49.53.6,1.35.62,2.32v.13Z"/>
    <path class="cls-1" d="M35.08,47.5c.18,0,.36,0,.55.01.06-.93.21-1.78.76-2.27.31-.27.7-.41,1.11-.41.43,0,.86.16,1.16.45.49.48.6,1.22.62,2.1.02.55.04,1.11.04,1.66,0,.79-.02,1.57-.08,2.35-.02.39-.07.79-.24,1.15-.24.51-.79.97-1.49.97-.06,0-.12,0-.18-.01-.65-.07-1.12-.5-1.39-.98-.27-.51-.36-1.2-.38-1.92-.16,0-.32,0-.49-.01-.01.27-.02.54-.05.81-.02.39-.07.79-.24,1.15-.23.51-.78.97-1.49.97-.06,0-.12,0-.18-.01-.63-.07-1.12-.5-1.39-.98-.32-.6-.38-1.43-.38-2.29,0-.45.01-.92.02-1.36.04-1.39.01-2.9.81-3.63.31-.27.71-.41,1.11-.41.43,0,.86.16,1.16.45.49.48.6,1.22.62,2.1v.11Z"/>
  </g>
  <g>
    <path class="cls-1" d="M44.89,49.58c0-.97.39-1.86,1.31-2.31.27-.13.54-.19.79-.19.6,0,1.1.33,1.41.85.29.47.29,1,.29,1.59,0,.35.13.61.38.61.37,0,.39-.47.39-.76v-.1c0-1.16-.17-2.34-.17-3.49,0-.33.07-.67.19-.97.12-.3.33-.55.6-.72.26-.17.55-.24.84-.24.54,0,1.06.27,1.39.72.38.53.47,1.18.47,2,0,.19,0,.38-.01.58-.07,1.9-.07,3.93-.96,5.11-.57.76-1.55,1.24-2.77,1.24h-.12c-1.55-.04-2.81-.81-3.45-1.9-.37-.6-.57-1.34-.57-2.03Z"/>
    <path class="cls-1" d="M53.03,49.95c0-.87.36-1.7,1.19-2.09.25-.12.49-.18.72-.18.54,0,.99.31,1.28.78.25.42.26.91.26,1.43,0,.32.12.56.35.56.33,0,.36-.43.36-.71v-.08c0-1.05-.17-2.11-.17-3.15,0-.3.07-.61.19-.88.12-.27.33-.5.6-.64.26-.16.55-.22.84-.22.54,0,1.06.25,1.39.65.38.48.47,1.09.47,1.82,0,.17,0,.35-.01.53-.06,1.72-.07,3.57-.91,4.64-.55.69-1.48,1.12-2.64,1.12h-.11c-1.47-.04-2.66-.73-3.27-1.72-.33-.55-.53-1.21-.53-1.84Z"/>
  </g>
  <g>
    <path class="cls-1" d="M68.7,53.5c-.07,0-.13,0-.2-.01-.7-.07-1.24-.55-1.53-1.08-.36-.66-.43-1.58-.43-2.53,0-.5.02-1,.04-1.49.04-1.52,0-3.21.9-4.01.33-.3.78-.44,1.22-.44.48,0,.96.17,1.29.5.31.3.47,1.09.56,1.55.04-.02.07-.06.11-.1.7-.79,1.43-1.86,2.27-1.91h.11c.88,0,1.73.72,1.84,1.59.01.07.01.14.01.21,0,.67-.39,1.33-.91,2.03l-.69.92c.76,1.02,1.48,2.08,1.59,2.69.02.12.02.25.02.38,0,.49-.16,1.02-.56,1.41-.37.36-.82.5-1.25.5-.31,0-.6-.07-.85-.19-.78-.39-1.16-1.18-1.74-1.73,0,.99-.82,1.71-1.78,1.71Z"/>
    <path class="cls-1" d="M77,53.63c-.06,0-.13,0-.19-.01-.65-.07-1.12-.5-1.39-.98-.32-.6-.38-1.43-.38-2.29,0-.45.01-.92.02-1.36.04-1.39,0-3.01.81-3.74.3-.27.71-.41,1.11-.41.43,0,.85.16,1.16.45.27.27.44.99.53,1.41l.08-.08c.63-.72,1.31-1.68,2.07-1.73h.1c.8,0,1.55.66,1.65,1.45.01.06.02.13.02.19,0,.61-.36,1.19-.82,1.84l-.62.82c.69.92,1.33,1.89,1.42,2.45.02.11.04.23.04.35,0,.45-.16.92-.51,1.28-.33.32-.74.45-1.14.45-.27,0-.55-.07-.78-.18-.71-.35-1.04-1.06-1.56-1.56,0,.91-.75,1.66-1.61,1.66Z"/>
    <path class="cls-1" d="M91.11,45c.18.42.19.91.19,1.37,0,1.23-.08,2.45-.24,3.67.14-.04.29-.05.43-.05.88,0,1.68.63,1.68,1.61,0,.38-.14.78-.37,1.08-.44.57-1.16.88-2.06.88-1.09,0-2.07-.27-2.58-.97-.45-.62-.48-1.49-.48-2.54,0-1.16.04-2.33.07-3.49.01-.38.02-.76.12-1.14.2-.78.84-1.48,1.72-1.48.72,0,1.27.48,1.51,1.05Z"/>
    <path class="cls-1" d="M96.84,45.81c.18.38.19.82.19,1.24,0,1.11-.08,2.22-.24,3.32.14-.04.29-.05.43-.05.88,0,1.68.58,1.68,1.47,0,.35-.14.69-.37.97-.44.53-1.16.8-2.06.8-1.09,0-2.07-.24-2.58-.87-.45-.56-.48-1.36-.48-2.32,0-1.05.04-2.1.07-3.15.05-1.29.53-2.37,1.84-2.37.72,0,1.27.44,1.51.96Z"/>
  </g>
  <g>
    <path class="cls-1" d="M107.72,50.2c-.08,0-.14.25-.14.41s.01.31.01.47c0,.36-.02.72-.07,1.05-.08.58-.36,1.02-.8,1.22-.19.08-.38.13-.57.13-.54,0-1-.33-1.25-.76-.24-.41-.29-.92-.31-1.53-.04-.78-.1-1.72-.1-2.66,0-1.76.19-3.49,1.05-4.12.35-.25.79-.39,1.22-.39.33,0,.66.07.96.24.3.17.56.41.74.72.23.39.31.87.37,1.33.12.88.2,1.29.27,1.29.08,0,.16-.49.27-1.38.06-.45.14-.93.37-1.33.18-.31.44-.54.74-.7.3-.17.63-.24.97-.24.43,0,.86.13,1.21.38.86.63,1.05,2.37,1.05,4.12,0,.94-.06,1.89-.1,2.67-.02.61-.06,1.21-.3,1.61-.25.43-.73.76-1.27.76-.19,0-.38-.05-.57-.13-.44-.2-.72-.72-.8-1.3-.05-.33-.06-.69-.06-1.05v-.46c0-.16-.06-.41-.14-.41-.17,0,.08,1.82-1.45,1.82-1,0-1.14-1.73-1.3-1.73Z"/>
    <path class="cls-1" d="M117.18,50.51c-.07,0-.11.11-.12.24-.02.19,0,.44,0,.55,0,.32-.02.66-.07.96-.08.53-.35.92-.79,1.1-.19.08-.38.12-.57.12-.54,0-1.02-.3-1.27-.69-.24-.37-.29-.84-.31-1.39-.04-.7-.08-1.55-.08-2.4,0-1.59.19-3.17,1.03-3.74.33-.23.74-.35,1.16-.35.32,0,.65.07.93.22s.55.37.72.65c.21.36.3.78.36,1.2.12.8.19,1.17.26,1.17s.14-.44.26-1.24c.06-.42.14-.84.36-1.19.17-.28.43-.5.72-.65s.61-.21.93-.21c.42,0,.84.12,1.17.35.84.57,1.03,2.15,1.03,3.74,0,.85-.06,1.7-.1,2.4-.02.55-.07,1.02-.31,1.39-.25.39-.72.68-1.25.68-.19,0-.38-.02-.57-.11-.44-.18-.72-.57-.8-1.1-.05-.3-.06-.63-.06-.96v-.42c0-.14-.02-.37-.11-.37-.18,0,.06,1.64-1.33,1.64-.91,0-1.03-1.57-1.18-1.57Z"/>
  </g>
  <g>
    <path class="cls-1" d="M2.99,68c-.13.69-.54,1.19-1.29,1.19-.9,0-1.42-.61-1.57-1.47-.11-.69-.12-1.47-.12-2.26v-1.16c0-2.03.04-4.54,1.86-4.54.55,0,.88.14,1.23.47.84.76.81,2.39,1.55,3.18.01.01.02.02.04.02.13,0,.13-.37.13-.53v-.13c0-.43.01-.84.01-1.27,0-.69.1-1.18.47-1.55.24-.24.55-.36.87-.36.45,0,.99.25,1.27.62.37.49.45,1.05.45,1.82v.14c0,.67,0,1.36-.02,2.02-.02.84-.05,1.62-.16,2.42-.17,1.29-.49,2.62-1.91,2.62-1.16,0-1.58-.47-1.95-1.7-.12-.39-.33-1.29-.6-1.58-.02-.04-.06-.05-.08-.05-.07,0-.12.16-.12.33,0,.14.01.28.01.42,0,.46-.01.92-.08,1.33Z"/>
    <path class="cls-1" d="M11.22,66.92c0,.42-.01.84-.08,1.21-.13.63-.54,1.08-1.29,1.08-.9,0-1.42-.55-1.57-1.33-.11-.62-.12-1.34-.12-2.04v-1.05c0-1.84.08-4.11,1.85-4.11.54,0,.86.13,1.19.42.81.69.73,2.16,1.45,2.88.01.01.02.02.04.02.08,0,.12-.35.12-.48v-.12c0-.38.01-.75.01-1.15,0-.62.1-1.07.47-1.41.24-.21.56-.32.87-.32.45,0,.98.23,1.25.56.36.44.45.96.45,1.65v.12c0,.61.01,1.24-.01,1.84-.02.75-.06,1.47-.16,2.2-.17,1.17-.49,2.37-1.85,2.37-1.11,0-1.52-.42-1.88-1.54-.12-.36-.32-1.16-.57-1.42-.02-.02-.05-.05-.07-.05-.07,0-.12.13-.12.3v.3s.01.08.01.08Z"/>
    <path class="cls-1" d="M25.94,59.53c1.22,0,2.44.44,3.35,1.24.97.84,1.57,2.08,1.62,3.36,0,.06.01.13.01.19,0,1.27-.55,2.53-1.47,3.42-.93.91-2.23,1.41-3.54,1.41h-.1c-1.21-.02-2.4-.48-3.3-1.28-.9-.8-1.47-1.96-1.57-3.15-.01-.11-.01-.23-.01-.33,0-1.19.48-2.39,1.3-3.26.9-.96,2.17-1.53,3.49-1.58.07,0,.13-.01.2-.01ZM25.83,62.63c-.16,0-.32.06-.47.18-.14.12-.21.3-.21.48,0,.16.06.31.18.43.13.13.33.22.54.22.14,0,.3-.04.43-.13.17-.12.27-.29.27-.5,0-.37-.36-.67-.74-.67Z"/>
    <path class="cls-1" d="M35.7,60.5c1.1,0,2.2.39,3.02,1.11.87.76,1.43,1.89,1.48,3.05v.17c0,1.15-.49,2.29-1.31,3.09-.85.82-2.02,1.28-3.2,1.28h-.1c-1.09-.02-2.16-.43-2.97-1.16s-1.34-1.77-1.42-2.86c-.01-.11-.01-.2-.01-.31,0-1.09.43-2.15,1.17-2.94.81-.86,1.98-1.39,3.17-1.43h.18ZM35.59,63.3c-.14,0-.29.05-.42.16s-.2.28-.2.43c0,.14.06.29.17.39.12.12.3.2.49.2.13,0,.26-.04.38-.12.14-.11.25-.28.25-.47,0-.33-.32-.6-.67-.6Z"/>
  </g>
  <g>
    <path class="cls-1" d="M53.64,63.5c-.3,1.42-1.58,2.68-3.31,2.68-.22,0-.42-.01-.63-.06.07.24.1.48.1.73,0,.5-.13,1-.38,1.41-.3.49-.8.93-1.51.93-.57,0-.97-.31-1.27-.71-.45-.61-.62-1.48-.62-2.52,0-.38.02-.78.02-1.16,0-.44-.02-.88-.02-1.33,0-1.43.35-2.77,1.28-3.32,1-.59,2.8-.9,4.15-.5,1.22.35,2.27,1.54,2.27,3.17,0,.23-.02.45-.07.68ZM49.87,62.87c.1,0,.18-.02.25-.08s.11-.17.11-.25c0-.1-.05-.18-.12-.24-.07-.06-.14-.08-.21-.08-.19,0-.37.18-.37.36,0,.08.05.17.14.24.06.05.13.06.2.06Z"/>
    <path class="cls-1" d="M61.23,64.04c-.27,1.29-1.45,2.42-3.01,2.42-.19,0-.38-.02-.57-.06.07.21.1.43.1.66,0,.45-.13.91-.38,1.28-.3.44-.8.85-1.51.85-.57,0-.97-.29-1.27-.65-.45-.55-.62-1.33-.62-2.27,0-.35.02-.71.02-1.05,0-.39-.02-.8-.02-1.21,0-1.3.33-2.52,1.22-3.01.81-.45,1.76-.57,2.89-.57,1.84,0,3.21,1.15,3.21,2.99,0,.2-.01.42-.06.62ZM57.81,63.46c.08,0,.17-.02.23-.08.06-.06.1-.13.1-.22s-.02-.17-.1-.23c-.06-.06-.13-.07-.2-.07-.18,0-.35.16-.35.32,0,.08.04.16.13.21.06.04.12.06.19.06Z"/>
  </g>
  <g>
    <path class="cls-1" d="M72.78,59.55c1.22,0,2.44.43,3.35,1.23.97.84,1.56,2.07,1.62,3.34,0,.06.01.13.01.19,0,.9-.27,1.78-.75,2.53.27.33.49.7.61,1.05.05.13.07.27.07.42,0,.32-.13.66-.44.9-.2.16-.43.23-.67.23-.53,0-1.11-.35-1.61-.81-.69.32-1.45.5-2.21.5h-.1c-1.21-.02-2.4-.49-3.3-1.29s-1.47-1.94-1.56-3.13c-.01-.11-.01-.24-.01-.35,0-1.2.48-2.37,1.3-3.24.9-.96,2.17-1.53,3.49-1.58h.2ZM72.66,62.63c-.16,0-.32.05-.47.17-.14.12-.21.3-.21.48,0,.16.06.31.18.43.13.13.33.21.54.21.14,0,.3-.04.43-.13.17-.12.27-.29.27-.5,0-.37-.36-.66-.74-.66Z"/>
    <path class="cls-1" d="M82.52,60.45c1.1,0,2.2.39,3.02,1.11.87.76,1.43,1.89,1.48,3.05v.17c0,.81-.24,1.62-.67,2.31.24.31.44.63.55.96.04.12.06.24.06.37,0,.3-.11.61-.39.82-.19.14-.39.2-.61.2-.48,0-1-.31-1.46-.74-.62.3-1.3.45-2,.45h-.1c-1.09-.02-2.16-.43-2.97-1.16-.81-.73-1.34-1.77-1.42-2.86-.01-.11-.01-.2-.01-.31,0-1.09.43-2.15,1.17-2.94.81-.86,1.98-1.39,3.17-1.43h.18ZM82.42,63.25c-.14,0-.29.05-.42.16-.13.11-.2.28-.2.43,0,.14.06.29.17.39.12.12.3.2.49.2.13,0,.26-.04.38-.12.14-.11.25-.27.25-.47,0-.33-.32-.6-.67-.6Z"/>
    <path class="cls-1" d="M99.9,61.11c.31.44.45.97.45,1.51,0,.24-.02.49-.08.72-.14.54-.48,1.1-.91,1.46.44.57.94,1.4,1,2.25,0,.05.01.11.01.16,0,.98-.62,1.78-1.43,1.96-.13.02-.25.04-.37.04-.73,0-1.31-.49-1.64-.94-.39-.57-.54-1.28-.55-1.97,0-.25-.02-.49-.18-.59-.04-.02-.07-.04-.11-.04-.12,0-.17.16-.17.3,0,.33.06.67.06,1,0,.06-.01.13-.01.19-.05.85-.48,1.57-1.15,1.86-.25.11-.49.16-.72.16-.71,0-1.3-.45-1.61-.94-.36-.59-.44-1.3-.45-1.98v-.27c0-.8.06-1.61.08-2.41.01-.6.01-1.25.18-1.83.19-.63.61-1.22,1.17-1.56.61-.37,1.49-.51,2.41-.51.29,0,.57.01.86.04,1.35.12,2.51.53,3.14,1.43ZM96.08,62.88c.2,0,.42-.14.42-.36,0-.05-.01-.08-.02-.13-.06-.17-.2-.25-.35-.25-.2,0-.41.14-.41.37v.08c.05.2.2.29.36.29Z"/>
    <path class="cls-1" d="M107.72,61.93c.27.39.42.87.42,1.36,0,.22-.02.43-.08.65-.13.49-.42.94-.81,1.27.41.53.86,1.27.91,2.03v.14c0,.88-.55,1.61-1.29,1.77-.12.02-.23.04-.33.04-.67,0-1.19-.43-1.48-.85-.36-.51-.49-1.16-.5-1.79,0-.23-.01-.43-.16-.53-.04-.02-.07-.04-.1-.04-.11,0-.16.16-.16.27,0,.31.06.61.06.91,0,.06-.01.11-.01.17-.04.77-.44,1.41-1.04,1.69-.23.09-.44.14-.66.14-.63,0-1.18-.41-1.46-.85-.32-.53-.39-1.17-.41-1.79v-.26c0-.73.05-1.45.07-2.17.01-.54.01-1.09.17-1.6.17-.57.54-1.1,1.05-1.41.55-.33,1.35-.47,2.19-.47.25,0,.51.01.78.04,1.22.11,2.27.48,2.84,1.29ZM104.26,63.54c.18,0,.38-.12.38-.32,0-.04-.01-.07-.02-.12-.06-.16-.18-.23-.31-.23-.18,0-.37.13-.37.33v.07c.04.19.18.26.32.26Z"/>
    <path class="cls-1" d="M120.19,63.12c-.2.11-.43.17-.67.17-.18,0-.37-.04-.55-.08-.1-.02-.18-.06-.27-.07-.02,0-.05-.01-.07-.01-.19,0-.35.12-.35.31,0,.21.17.25.36.25,1.49,0,2.4,1.22,2.4,2.51v.06c-.05,1.53-1.34,2.59-2.64,2.93-.38.1-.79.14-1.18.14-.84,0-1.69-.21-2.44-.6-.68-.35-1.45-.92-1.53-1.82,0-.05-.01-.11-.01-.16,0-.84.66-1.46,1.35-1.62.12-.02.24-.05.35-.05.18,0,.36.04.5.12.11.06.2.16.32.22.06.04.13.04.19.04.16,0,.29-.08.29-.25,0-.02-.01-.05-.01-.07-.12-.58-2.22-.81-2.49-2.31-.04-.18-.05-.35-.05-.5,0-1.3.96-2.12,1.9-2.51.56-.23,1.16-.35,1.77-.35s1.25.11,1.85.31c.48.16.94.38,1.27.76.29.33.44.78.44,1.22,0,.31-.08.61-.24.87-.12.2-.29.37-.49.49Z"/>
    <path class="cls-1" d="M127.59,63.56c-.18.1-.39.14-.61.14-.17,0-.32-.02-.49-.07-.08-.02-.17-.05-.25-.06-.02,0-.05-.01-.07-.01-.18,0-.31.11-.31.29,0,.19.16.23.32.23.1,0,.2-.01.29-.01,1.15,0,1.89,1.33,1.89,2.28v.06c-.05,1.39-1.22,2.34-2.39,2.65-.35.1-.72.13-1.08.13-.76,0-1.52-.19-2.2-.54-.62-.31-1.3-.84-1.39-1.65-.02-.24-.02-.47.01-.67.06-.47.26-.84.57-1.04.29-.17.86-.23,1.13-.06.19.12.33.31.55.41.06.02.11.04.17.04.14,0,.26-.07.26-.23,0-.02-.01-.04-.01-.06-.11-.53-1.98-.19-2.25-2.1-.06-.41-.02-.76.06-1.08.24-.82.9-1.35,1.62-1.66.5-.21,1.05-.31,1.6-.31s1.14.08,1.65.26c.48.17.9.41,1.17.72.25.3.39.71.39,1.1,0,.27-.07.56-.21.8-.11.18-.25.33-.44.44Z"/>
  </g>
  <g>
    <path class="cls-1" d="M6.63,76.64c.08-.59.37-1.02.81-1.22.19-.08.38-.12.57-.12.54,0,1.04.32,1.29.75.24.41.29.93.31,1.54.14,2.45-.02,5.84-1.31,6.79-.38.29-.81.41-1.23.41-.66,0-1.28-.33-1.61-.9-.6-1.03-.6-1.52-.63-1.52-.02,0-.08.44-.66,1.43-.18.31-.44.55-.74.72-.3.17-.62.24-.93.24-.41,0-.8-.13-1.15-.38-1.1-.8-1.35-3.35-1.35-5.47,0-.47.01-.91.04-1.31.02-.61.07-1.14.32-1.54.26-.43.76-.75,1.33-.75.19,0,.39.04.6.12.45.2.76.63.85,1.22.02.19.23,2.12.44,2.12.17,0,.02-1.91,1.24-1.91,1.61,0,1.22,1.97,1.39,1.97.2,0,.41-1.98.43-2.17Z"/>
    <path class="cls-1" d="M16.22,77.33c.08-.53.36-.92.8-1.1.19-.08.38-.11.57-.11.54,0,1,.29,1.25.68.24.37.29.84.31,1.39.01.36.04.78.04,1.2,0,1.92-.25,4.22-1.3,4.95-.37.25-.79.37-1.18.37-.63,0-1.22-.3-1.54-.81-.57-.93-.6-1.4-.62-1.4s-.07.43-.63,1.33c-.17.27-.43.5-.72.65-.29.14-.59.21-.88.21-.39,0-.78-.12-1.11-.35-1.05-.73-1.3-3.02-1.3-4.95,0-.42.01-.84.02-1.2.02-.55.07-1.02.31-1.39.25-.39.73-.68,1.27-.68.19,0,.38.02.57.11.44.18.72.57.8,1.1.02.17.22,1.91.42,1.91.16,0,.02-1.73,1.18-1.73,1.53,0,1.16,1.79,1.31,1.79.2,0,.41-1.8.43-1.97Z"/>
    <path class="cls-1" d="M30.59,79.97c.76,1.02,1.46,2.08,1.57,2.69.02.12.04.25.04.38,0,.5-.17,1.02-.56,1.41-.37.36-.82.5-1.23.5-.27,0-.54-.08-.76-.2-.35-.19-.69-.45-.88-.82l-.53-1.02-.53,1.02c-.19.37-.54.63-.88.82-.23.12-.49.2-.76.2-.41,0-.86-.14-1.23-.5-.39-.39-.56-.91-.56-1.41,0-.13.01-.26.04-.38.11-.61.8-1.67,1.57-2.69l-.68-.91c-.51-.71-.91-1.35-.91-2.02,0-.07.01-.14.02-.21.11-.87.93-1.59,1.79-1.59h.1c.74.05,1.42.92,2.04,1.71.62-.79,1.3-1.66,2.04-1.71h.1c.86,0,1.68.72,1.79,1.59.01.07.02.14.02.21,0,.67-.39,1.31-.91,2.02l-.68.91Z"/>
    <path class="cls-1" d="M38.22,80.47c.68.92,1.31,1.89,1.41,2.45.02.11.04.23.04.35,0,.45-.16.92-.51,1.28-.33.32-.74.45-1.11.45-.24,0-.49-.07-.69-.18-.31-.18-.63-.42-.81-.75l-.47-.92-.48.92c-.17.33-.49.57-.8.75-.2.11-.45.18-.71.18-.37,0-.78-.13-1.11-.45-.36-.36-.51-.82-.51-1.28,0-.12.01-.24.04-.35.1-.56.73-1.53,1.42-2.45l-.62-.82c-.47-.65-.82-1.23-.82-1.84,0-.06.01-.13.02-.19.1-.79.85-1.45,1.62-1.45h.08c.68.05,1.29.84,1.86,1.55.56-.72,1.18-1.5,1.85-1.55h.1c.78,0,1.53.66,1.62,1.45.01.06.02.13.02.19,0,.61-.36,1.19-.82,1.84l-.62.82Z"/>
    <path class="cls-1" d="M50.89,80.7c.01.36.04.55.04.87,0,.24-.01.54-.05,1-.04.43-.08.87-.27,1.27-.26.56-.87,1.06-1.65,1.06-.06,0-.12,0-.19-.01-.7-.07-1.24-.56-1.53-1.09-.29-.53-.42-1.53-.42-2.59,0-.23,0-.47.01-.71-.41-.41-.81-.92-1.18-1.41-.53-.72-.96-1.36-.96-2.04,0-.06,0-.13.01-.2.12-.91,1-1.59,1.94-1.59.85,0,1.58.85,2.28,1.65.71-.8,1.51-1.65,2.28-1.65.93,0,1.82.68,1.94,1.59.01.07.01.14.01.21,0,.67-.39,1.33-.91,2.03l-1.35,1.6Z"/>
    <path class="cls-1" d="M59.03,81.09c.01.32.02.5.02.79,0,.21-.01.49-.05.91-.02.39-.07.79-.24,1.15-.24.5-.79.97-1.49.97-.06,0-.12,0-.18-.01-.65-.07-1.12-.5-1.39-.98-.26-.48-.37-1.39-.37-2.35,0-.21,0-.42.01-.63-.37-.37-.73-.84-1.06-1.28-.48-.65-.87-1.25-.87-1.86,0-.06,0-.11.01-.17.11-.82.91-1.45,1.76-1.45.78,0,1.42.78,2.05,1.49.63-.72,1.36-1.49,2.07-1.49.85,0,1.65.62,1.76,1.45.01.06.01.13.01.19,0,.61-.36,1.19-.82,1.84l-1.22,1.45Z"/>
    <path class="cls-1" d="M69.71,75.29c1.82,0,3.23.29,3.23,2.03,0,1.88-1.61,2.44-2.35,3.25-.05.05-.06.11-.06.17,0,.16.14.3.31.3h.02c.07,0,.13-.02.19-.05.27-.1.54-.21.82-.24h.07c.75,0,1.33.74,1.33,1.57,0,.78-.45,1.39-.9,1.75-.69.57-1.64.81-2.78.81h-.02c-1.95,0-3.42-.81-3.42-3.07,0-1.65,2.69-2.23,2.69-2.83,0-.16-.16-.2-.33-.2-.2,0-.44.05-.61.06-.05,0-.08.01-.13.01-.69,0-1.23-.47-1.43-.99-.07-.19-.1-.37-.1-.55,0-.42.16-.81.37-1.09.59-.77,1.58-.9,2.78-.92h.32Z"/>
    <path class="cls-1" d="M76.95,76.19c1.74,0,3.11.26,3.11,1.84,0,1.7-1.6,2.2-2.34,2.94-.05.05-.07.11-.07.16,0,.14.14.26.31.26h.02c.06,0,.13-.01.19-.04.27-.08.54-.2.81-.21h.08c.74,0,1.3.67,1.3,1.41s-.43,1.24-.86,1.58c-.67.51-1.58.74-2.68.74h-.01c-1.88,0-3.29-.73-3.29-2.77,0-1.49,2.43-2.03,2.43-2.57,0-.14-.13-.19-.3-.19-.18,0-.39.05-.55.06h-.12c-.62,0-1.11-.41-1.29-.88-.06-.17-.1-.33-.1-.5,0-.38.16-.73.36-.98.56-.69,1.52-.82,2.68-.84h.31Z"/>
  </g>
  <g>
    <path class="cls-1" d="M151,3.54c.09-.13.19-.22.3-.29s.23-.1.36-.1c.22,0,.4.08.54.23.14.15.21.41.21.77v1.28c0,.36-.07.62-.21.77s-.32.23-.54.23c-.2,0-.36-.06-.49-.17-.12-.11-.21-.32-.27-.63-.03-.21-.1-.36-.21-.48-.2-.22-.48-.4-.84-.53-.36-.13-.72-.2-1.08-.2-.45,0-.86.1-1.24.29-.38.2-.71.51-1,.95s-.43.96-.43,1.57v.98c0,.72.26,1.33.79,1.81.53.48,1.26.73,2.19.73.56,0,1.03-.08,1.42-.23.22-.09.46-.26.72-.52.16-.16.28-.26.37-.3.09-.05.19-.07.3-.07.2,0,.38.08.53.23s.23.33.23.54-.1.43-.31.66c-.3.34-.68.61-1.15.81-.63.26-1.33.4-2.09.4-.89,0-1.69-.18-2.41-.55-.58-.29-1.07-.76-1.47-1.39s-.61-1.32-.61-2.07v-1.02c0-.78.18-1.51.55-2.19.36-.68.87-1.2,1.52-1.57.65-.37,1.33-.55,2.06-.55.43,0,.84.05,1.22.15.38.1.73.25,1.06.46Z"/>
    <path class="cls-1" d="M161.86,8.85c0,.58-.16,1.14-.48,1.68-.32.54-.8.97-1.43,1.29-.63.32-1.3.48-1.99.48s-1.34-.16-1.97-.47c-.63-.32-1.1-.75-1.43-1.29-.33-.54-.49-1.11-.49-1.7s.17-1.19.5-1.77.81-1.04,1.44-1.37c.62-.33,1.28-.5,1.96-.5s1.34.17,1.98.51c.63.34,1.11.8,1.43,1.37.32.58.48,1.17.48,1.77ZM160.35,8.85c0-.48-.17-.93-.52-1.34-.48-.55-1.1-.82-1.87-.82-.68,0-1.25.22-1.7.65s-.68.94-.68,1.51c0,.47.23.91.69,1.32.46.41,1.02.61,1.7.61s1.24-.2,1.7-.61.69-.85.69-1.32Z"/>
    <path class="cls-1" d="M170.45,5.39v5.16c.32,0,.55.07.71.21.15.14.23.32.23.54s-.08.4-.23.54c-.15.14-.41.21-.77.21h-1.43v-.34c-.43.2-.84.34-1.23.44-.39.1-.76.15-1.12.15-.49,0-.92-.1-1.28-.31-.36-.21-.65-.5-.86-.86-.15-.26-.23-.59-.23-.99v-3.24h-.26c-.36,0-.62-.07-.77-.21-.15-.14-.23-.32-.23-.55s.08-.4.23-.54c.15-.14.41-.21.77-.21h1.76v4.48c0,.32.08.55.23.7s.39.22.71.22.63-.06.98-.18.78-.34,1.3-.65v-3.07h-.54c-.36,0-.62-.07-.77-.21-.15-.14-.23-.32-.23-.55s.08-.4.23-.54c.15-.14.41-.21.77-.21h2.05Z"/>
    <path class="cls-1" d="M176.25,5.39v.94c.63-.46,1.13-.76,1.49-.91.36-.15.71-.23,1.02-.23.49,0,.96.18,1.42.54.31.24.47.49.47.75,0,.22-.07.4-.22.55s-.33.22-.54.22c-.19,0-.38-.09-.59-.28-.21-.19-.39-.28-.55-.28-.21,0-.52.13-.94.4-.42.26-.94.66-1.57,1.19v2.27h2.14c.36,0,.62.07.77.21.15.14.23.32.23.55s-.08.4-.23.54c-.15.14-.41.21-.77.21h-4.54c-.36,0-.62-.07-.77-.21-.15-.14-.23-.32-.23-.55s.08-.4.23-.54c.15-.14.41-.21.77-.21h.9v-3.66h-.54c-.36,0-.62-.07-.77-.21-.15-.14-.23-.32-.23-.55s.08-.4.23-.54c.15-.14.41-.21.77-.21h2.05Z"/>
    <path class="cls-1" d="M186.61,5.39v5.16h1.81c.36,0,.62.07.77.21.15.14.23.32.23.55s-.08.4-.23.54c-.15.14-.41.21-.77.21h-5.12c-.36,0-.62-.07-.77-.21-.15-.14-.23-.32-.23-.55s.08-.4.23-.54c.15-.14.41-.21.77-.21h1.81v-3.66h-1.21c-.36,0-.61-.07-.77-.21-.16-.14-.24-.32-.24-.55s.08-.4.23-.54c.15-.14.41-.21.77-.21h2.72ZM186.41,2.53v1.59h-1.79v-1.59h1.79Z"/>
    <path class="cls-1" d="M198.95,9.48h-6.17c.16.39.43.71.83.95s.94.36,1.62.36c.56,0,1.3-.12,2.22-.36.38-.1.65-.15.79-.15.2,0,.37.07.51.21.14.14.21.32.21.54,0,.2-.07.36-.22.5-.2.18-.67.35-1.43.52-.76.16-1.49.25-2.19.25-1.2,0-2.17-.34-2.89-1.02-.72-.68-1.08-1.52-1.08-2.51,0-1.06.39-1.92,1.17-2.58s1.68-1,2.7-1c.61,0,1.17.11,1.68.32.51.22.89.45,1.14.7.35.36.64.81.87,1.34.16.37.23.8.23,1.29v.64ZM197.29,7.98c-.23-.43-.53-.75-.9-.97-.37-.21-.82-.32-1.33-.32s-.95.11-1.32.32-.67.53-.91.97h4.46Z"/>
    <path class="cls-1" d="M204.17,5.39v.94c.63-.46,1.13-.76,1.49-.91.36-.15.71-.23,1.02-.23.49,0,.96.18,1.42.54.31.24.47.49.47.75,0,.22-.07.4-.22.55s-.33.22-.54.22c-.19,0-.38-.09-.59-.28-.21-.19-.39-.28-.55-.28-.21,0-.53.13-.94.4-.42.26-.94.66-1.57,1.19v2.27h2.14c.36,0,.62.07.77.21.15.14.23.32.23.55s-.08.4-.23.54c-.15.14-.41.21-.77.21h-4.54c-.36,0-.62-.07-.77-.21-.15-.14-.23-.32-.23-.55s.08-.4.23-.54c.15-.14.41-.21.77-.21h.9v-3.66h-.54c-.36,0-.62-.07-.77-.21-.15-.14-.23-.32-.23-.55s.08-.4.23-.54c.15-.14.41-.21.77-.21h2.05Z"/>
    <path class="cls-1" d="M221.21,6v4.55h.54c.36,0,.62.07.77.21.15.14.23.32.23.55s-.08.4-.23.54c-.15.14-.41.21-.77.21h-1.97c-.36,0-.62-.07-.77-.21-.15-.14-.23-.32-.23-.55s.08-.39.23-.54c.15-.14.39-.21.71-.21v-5.89h-.24c-.36,0-.62-.07-.77-.21-.15-.14-.23-.32-.23-.55s.08-.41.23-.55.41-.21.77-.21h1.74s3.85,6.04,3.85,6.04v-4.53h-.54c-.36,0-.62-.07-.77-.21-.15-.14-.23-.32-.23-.55s.08-.41.23-.55.41-.21.77-.21h1.97c.36,0,.62.08.77.21s.23.32.23.54-.08.4-.23.54c-.15.14-.38.21-.7.21v7.39h-1.49l-3.87-6.06Z"/>
    <path class="cls-1" d="M236.18,9.48h-6.17c.16.39.43.71.83.95.4.24.94.36,1.62.36.56,0,1.3-.12,2.22-.36.38-.1.65-.15.79-.15.2,0,.37.07.51.21.14.14.21.32.21.54,0,.2-.07.36-.22.5-.2.18-.67.35-1.43.52-.76.16-1.49.25-2.19.25-1.2,0-2.17-.34-2.89-1.02-.72-.68-1.08-1.52-1.08-2.51,0-1.06.39-1.92,1.17-2.58.78-.66,1.68-1,2.7-1,.61,0,1.17.11,1.68.32s.89.45,1.14.7c.35.36.64.81.87,1.34.16.37.24.8.24,1.29v.64ZM234.51,7.98c-.23-.43-.53-.75-.9-.97s-.81-.32-1.33-.32-.95.11-1.32.32c-.37.21-.68.53-.91.97h4.46Z"/>
    <path class="cls-1" d="M241.72,9.28l-1.04,2.77h-1.42l-1.26-5.16c-.27-.01-.48-.09-.62-.23-.14-.14-.21-.31-.21-.52,0-.22.08-.4.23-.54.15-.14.41-.21.77-.21h1.4c.36,0,.62.07.77.21.15.14.23.32.23.55s-.09.42-.26.57c-.13.12-.39.18-.78.18l.57,2.39.93-2.44h1.34l.94,2.44.59-2.39c-.37,0-.62-.04-.73-.11-.24-.15-.35-.37-.35-.65,0-.22.08-.4.23-.54.15-.14.41-.21.77-.21h1.42c.36,0,.62.07.77.21.15.14.23.32.23.55,0,.2-.07.37-.2.51-.13.14-.33.22-.6.24l-1.23,5.16h-1.39l-1.1-2.77Z"/>
  </g>
  <path class="cls-1" d="M149.18,33.81h-2.91l-.29.73h.29c.29,0,.49.06.62.17.12.11.18.26.18.44s-.06.32-.18.43c-.12.11-.33.17-.62.17h-1.61c-.29,0-.49-.06-.62-.17-.12-.11-.18-.26-.18-.44s.06-.32.19-.44c.13-.11.34-.17.64-.16l1.88-4.68h-.78c-.29,0-.49-.06-.62-.17-.12-.11-.18-.26-.18-.43s.06-.32.18-.43c.12-.11.33-.17.62-.17h2.58s2.38,5.88,2.38,5.88c.28,0,.46.03.55.09.18.13.27.3.27.51,0,.18-.06.32-.18.43-.12.11-.33.17-.61.17h-1.61c-.29,0-.49-.06-.62-.17-.12-.11-.18-.26-.18-.44s.06-.32.18-.43c.12-.11.33-.17.62-.17h.29l-.29-.73ZM148.68,32.61l-.96-2.37-.97,2.37h1.93Z"/>
  <path class="cls-1" d="M156.2,35.73v-.28c-.3.16-.63.28-.99.36-.36.08-.69.12-.99.12-.64,0-1.16-.17-1.56-.51-.4-.34-.6-.72-.6-1.13,0-.5.26-.97.77-1.4.51-.43,1.22-.65,2.12-.65.36,0,.78.04,1.25.12v-.29c0-.18-.08-.32-.23-.44-.15-.11-.45-.17-.88-.17-.35,0-.81.07-1.38.21-.21.05-.37.08-.49.08-.16,0-.29-.06-.41-.17-.11-.11-.17-.26-.17-.44,0-.1.02-.19.06-.26.04-.07.09-.13.16-.18s.22-.1.44-.16c.3-.08.6-.15.91-.2.31-.05.58-.07.83-.07.74,0,1.32.16,1.73.48.41.32.62.76.62,1.32v2.46h.21c.29,0,.49.06.62.17.12.11.18.26.18.44s-.06.32-.18.43c-.12.11-.33.17-.62.17h-1.4ZM156.2,33.59c-.48-.09-.92-.14-1.32-.14-.49,0-.9.12-1.25.36-.22.15-.33.31-.33.46,0,.11.05.2.16.27.19.13.46.19.8.19.29,0,.61-.06.98-.17.36-.11.69-.27.97-.46v-.51Z"/>
  <path class="cls-1" d="M166.55,34.54v-4.68h-.19c-.29,0-.49-.06-.62-.17-.12-.11-.18-.26-.18-.43s.06-.32.18-.43c.12-.11.33-.17.62-.17h3c.72,0,1.29.2,1.73.6.44.4.65.87.65,1.42,0,.26-.05.51-.15.74-.1.23-.25.44-.46.64.38.23.66.49.85.79s.28.64.28,1.02c0,.3-.07.59-.2.85-.1.2-.23.36-.37.47-.2.16-.44.3-.73.4-.29.1-.65.15-1.08.15h-3.51c-.29,0-.49-.06-.62-.17-.12-.11-.18-.26-.18-.44s.06-.32.19-.43c.12-.11.33-.17.61-.17h.19ZM167.75,31.6h1.31c.47,0,.86-.12,1.17-.36.21-.16.32-.36.32-.6,0-.21-.1-.39-.3-.55s-.51-.24-.95-.24h-1.56v1.74ZM167.75,34.54h2.07c.49,0,.83-.07,1.03-.22.15-.11.23-.26.23-.47,0-.24-.15-.48-.45-.71-.3-.23-.73-.35-1.29-.35h-1.58v1.75Z"/>
  <path class="cls-1" d="M174.89,28.16v2.68c.29-.19.59-.33.89-.43.3-.1.61-.14.91-.14.83,0,1.53.29,2.11.86.58.57.86,1.26.86,2.07s-.27,1.42-.82,1.94c-.55.52-1.27.78-2.17.78-.32,0-.63-.04-.92-.12-.3-.08-.58-.2-.86-.36v.29h-1.4c-.29,0-.49-.06-.62-.17-.12-.11-.18-.26-.18-.44s.06-.32.19-.43c.12-.11.33-.17.61-.17h.21v-5.18h-.21c-.29,0-.49-.06-.62-.17-.12-.11-.18-.26-.18-.43s.06-.32.18-.43c.12-.11.33-.17.62-.17h1.4ZM178.47,33.24c0-.49-.17-.91-.52-1.25-.35-.34-.77-.51-1.27-.51s-.92.17-1.27.51c-.35.34-.52.75-.52,1.24,0,.44.16.8.47,1.08.31.28.75.42,1.32.42s1.01-.14,1.32-.42c.31-.28.47-.64.47-1.07Z"/>
  <path class="cls-1" d="M191.66,28.96c.07-.1.15-.18.24-.23.09-.05.18-.08.28-.08.18,0,.32.06.43.18.11.12.17.32.17.61v1.02c0,.29-.06.49-.17.62-.11.12-.25.18-.43.18-.16,0-.29-.04-.38-.13-.1-.09-.17-.26-.22-.5-.03-.16-.08-.29-.16-.38-.16-.18-.38-.32-.67-.42-.29-.1-.57-.16-.86-.16-.36,0-.69.08-.99.23-.3.16-.56.41-.79.76s-.34.77-.34,1.25v.78c0,.58.21,1.06.63,1.44.42.38,1,.58,1.74.58.44,0,.82-.06,1.13-.18.18-.07.37-.21.57-.41.12-.12.22-.21.29-.24.07-.04.15-.06.24-.06.16,0,.3.06.42.18.12.12.18.26.18.43s-.08.34-.25.52c-.24.27-.54.49-.92.64-.5.21-1.06.31-1.66.31-.71,0-1.35-.15-1.91-.44-.46-.23-.85-.6-1.17-1.11-.32-.5-.48-1.05-.48-1.65v-.81c0-.62.14-1.2.43-1.74s.69-.95,1.21-1.25c.51-.29,1.06-.44,1.63-.44.35,0,.67.04.97.12s.58.2.84.36Z"/>
  <path class="cls-1" d="M199.06,30.65c.14-.14.29-.2.44-.2.17,0,.31.06.42.18.11.12.17.33.17.61v.77c0,.29-.06.49-.17.61-.11.12-.26.18-.44.18-.16,0-.3-.05-.41-.14-.08-.07-.15-.21-.19-.43s-.16-.38-.34-.48c-.31-.19-.72-.28-1.21-.28-.56,0-1.02.17-1.36.5-.34.33-.51.75-.51,1.25,0,.47.16.84.49,1.11s.87.41,1.63.41c.5,0,.9-.05,1.22-.15.19-.06.36-.17.53-.32.17-.15.32-.22.46-.22.16,0,.3.06.42.18.12.12.18.26.18.43,0,.26-.18.52-.54.75-.54.35-1.32.53-2.36.53-.93,0-1.65-.19-2.17-.58-.7-.52-1.05-1.23-1.05-2.12,0-.85.28-1.56.85-2.12.57-.56,1.31-.84,2.22-.84.33,0,.64.03.92.09.28.06.55.16.79.28Z"/>
  <path class="cls-1" d="M208.39,34.54v-4.68c-.25,0-.44-.06-.56-.17-.12-.11-.18-.25-.18-.43s.06-.32.18-.43c.12-.11.33-.17.62-.17h2.5c.39,0,.77.08,1.14.22.37.14.67.33.9.55.17.17.35.4.53.69.18.29.32.58.42.87.09.29.14.64.14,1.06v.57c0,.51-.08.95-.26,1.34-.17.39-.4.71-.67.96s-.54.43-.79.55c-.39.18-.89.27-1.51.27h-2.4c-.29,0-.49-.06-.62-.17-.12-.11-.18-.26-.18-.44s.06-.32.18-.43c.12-.11.31-.17.56-.16ZM209.58,34.54h1.27c.47,0,.83-.07,1.07-.2.32-.18.55-.41.71-.68.16-.28.24-.63.24-1.07v-.57c0-.38-.07-.71-.22-.99-.23-.44-.48-.75-.76-.91-.28-.17-.63-.25-1.06-.25h-1.26v4.68Z"/>
  <path class="cls-1" d="M221.46,28.16v6.37h.2c.28,0,.49.06.61.17.12.11.19.26.19.44s-.06.32-.18.43c-.12.11-.33.17-.62.17h-1.4v-.29c-.27.16-.56.28-.86.36-.3.08-.61.12-.92.12-.9,0-1.62-.26-2.17-.78-.55-.52-.82-1.17-.82-1.94s.29-1.5.86-2.07c.58-.57,1.28-.86,2.11-.86.31,0,.62.05.92.14.3.1.59.24.89.43v-1.49h-.2c-.29,0-.49-.06-.62-.17-.12-.11-.18-.25-.18-.43s.06-.32.18-.43c.12-.11.33-.17.62-.17h1.4ZM220.26,33.24c0-.49-.17-.91-.52-1.25s-.77-.51-1.27-.51-.92.17-1.27.51c-.35.34-.52.75-.52,1.24,0,.44.16.8.47,1.08s.75.42,1.32.42,1-.14,1.32-.42.47-.64.47-1.07Z"/>
  <path class="cls-1" d="M231.82,32.78v1.76h3.05v-.65c0-.29.06-.49.17-.62.11-.12.26-.18.43-.18s.32.06.43.18c.11.12.17.33.17.62v1.84h-5.63c-.29,0-.49-.06-.62-.17-.12-.11-.18-.26-.18-.44s.06-.32.19-.43c.12-.11.33-.17.61-.17h.19v-4.68h-.19c-.29,0-.49-.06-.62-.17-.12-.11-.18-.26-.18-.43s.06-.32.18-.43c.12-.11.33-.17.62-.17h5.37v1.83c0,.28-.05.49-.16.61-.11.12-.25.18-.43.18s-.32-.06-.43-.18c-.11-.12-.17-.32-.17-.61v-.62h-2.79v1.73h1.05c0-.31.03-.51.09-.6.12-.19.29-.29.51-.29.17,0,.32.06.43.18.11.12.17.33.17.62v1.38c0,.26-.03.44-.09.53-.12.18-.29.27-.5.27-.22,0-.39-.1-.51-.29-.06-.09-.09-.29-.09-.61h-1.05Z"/>
  <path class="cls-1" d="M243.7,33.69h-4.91c.12.31.34.56.66.75.32.19.75.29,1.29.29.44,0,1.03-.1,1.77-.29.3-.08.51-.12.63-.12.16,0,.29.06.4.17.11.11.16.25.16.43,0,.16-.06.29-.17.4-.16.14-.54.28-1.14.41-.6.13-1.18.2-1.74.2-.96,0-1.72-.27-2.3-.81-.57-.54-.86-1.21-.86-2,0-.84.31-1.52.93-2.05.62-.53,1.34-.79,2.14-.79.49,0,.93.08,1.34.26s.71.36.91.55c.28.29.51.64.69,1.07.12.3.19.64.19,1.03v.51ZM242.38,32.49c-.18-.34-.42-.6-.72-.77s-.65-.25-1.06-.25-.75.08-1.05.25c-.3.17-.54.43-.72.77h3.55Z"/>
  <path class="cls-1" d="M253.27,32.79v1.75h1.23c.29,0,.49.06.62.17.12.11.18.26.18.44s-.06.32-.18.43c-.12.11-.33.17-.62.17h-2.61c-.29,0-.49-.06-.62-.17-.12-.11-.18-.26-.18-.44s.06-.32.19-.43c.12-.11.33-.17.61-.17h.19v-4.68h-.19c-.29,0-.49-.06-.62-.17-.12-.11-.18-.26-.18-.43s.06-.32.18-.43c.12-.11.33-.17.62-.17h5.63v1.83c0,.28-.06.49-.17.61-.11.12-.26.18-.43.18s-.32-.06-.43-.18c-.11-.12-.17-.32-.17-.61v-.63h-3.05v1.73h1.05c0-.31.03-.51.09-.6.12-.19.29-.29.51-.29.18,0,.32.06.43.18.11.12.17.33.17.62v1.38c0,.29-.06.49-.17.62-.11.12-.26.18-.44.18-.22,0-.39-.1-.51-.29-.06-.09-.09-.29-.09-.61h-1.05Z"/>
  <path class="cls-1" d="M261.25,31.63v2.91h1.7c.29,0,.49.06.62.17.12.11.18.26.18.44s-.06.32-.18.43c-.12.11-.33.17-.62.17h-3.61c-.29,0-.49-.06-.62-.17-.12-.11-.18-.26-.18-.44s.06-.32.18-.43c.12-.11.33-.17.62-.17h.71v-2.91h-.57c-.29,0-.49-.06-.62-.17-.12-.11-.18-.26-.18-.44s.06-.32.18-.43c.12-.11.33-.17.62-.17h.57v-.46c0-.52.2-.95.59-1.3.39-.34.96-.52,1.7-.52.33,0,.71.03,1.15.09s.71.15.83.25c.12.11.18.25.18.42,0,.18-.05.33-.16.45-.11.12-.24.17-.4.17-.07,0-.18-.01-.33-.04-.49-.1-.93-.15-1.31-.15s-.67.06-.82.18c-.15.12-.22.27-.22.44v.46h1.84c.29,0,.49.06.62.17.12.11.18.26.18.44s-.06.32-.18.43c-.12.11-.33.17-.62.17h-1.84Z"/>
  <path class="cls-1" d="M150.71,46.58v1.61c-.54.29-1,.49-1.38.6-.38.11-.79.16-1.23.16-.61,0-1.18-.09-1.7-.27-.41-.14-.73-.32-.97-.53s-.45-.53-.65-.95c-.2-.42-.3-.89-.3-1.4v-.86c0-.8.24-1.51.73-2.14.65-.85,1.54-1.27,2.67-1.27.33,0,.64.03.93.1.29.07.57.17.84.3.16-.14.32-.22.47-.22.18,0,.32.06.43.18.11.12.16.32.16.61v.78c0,.29-.06.49-.17.62-.11.12-.25.18-.43.18-.14,0-.26-.04-.36-.13-.08-.06-.14-.19-.2-.39-.05-.2-.11-.34-.18-.41-.1-.11-.29-.21-.56-.3-.27-.09-.57-.13-.9-.13-.47,0-.89.1-1.24.29-.25.14-.48.4-.69.75-.21.36-.31.75-.31,1.17v.86c0,.64.19,1.13.56,1.46.37.33.96.5,1.77.5.55,0,1.05-.1,1.5-.31v-.86h-1.22c-.29,0-.49-.06-.62-.17-.12-.11-.18-.26-.18-.43s.06-.32.18-.44c.12-.11.33-.17.62-.17h2.12c.29,0,.49.06.62.17.12.11.18.25.18.43,0,.14-.04.26-.13.37-.08.11-.21.18-.38.23Z"/>
  <path class="cls-1" d="M156.66,43.83v-.36h1.4c.29,0,.49.06.62.17.12.11.18.26.18.44s-.06.32-.18.43c-.12.11-.33.17-.62.17h-.21v4.35c0,.42-.09.79-.26,1.1-.18.31-.45.58-.81.81-.37.23-.78.34-1.24.34h-1.35c-.29,0-.49-.06-.62-.17-.12-.11-.18-.25-.18-.43s.06-.32.18-.43c.12-.11.33-.17.62-.17h1.32c.37,0,.65-.1.85-.3.2-.2.3-.45.3-.75v-.58c-.26.17-.53.3-.81.38s-.56.13-.84.13c-.81,0-1.49-.27-2.04-.81-.55-.54-.82-1.21-.82-2.01s.27-1.47.82-2.02c.55-.54,1.23-.81,2.04-.81.3,0,.59.04.87.13s.54.22.78.4ZM156.65,46.12c0-.44-.16-.82-.49-1.14-.32-.32-.71-.48-1.17-.48s-.84.16-1.17.48-.49.7-.49,1.14.16.83.49,1.15c.33.32.71.48,1.17.48s.85-.16,1.17-.48c.33-.32.49-.7.49-1.15Z"/>
  <path class="cls-1" d="M170.04,45.84h-2.56v1.73h.19c.29,0,.49.06.62.17.12.11.18.26.18.43s-.06.32-.18.43c-.12.11-.33.17-.62.17h-1.46c-.29,0-.49-.05-.62-.17-.12-.11-.18-.26-.18-.43,0-.22.09-.39.29-.51.09-.06.29-.09.6-.09v-4.68c-.21-.02-.37-.08-.48-.19s-.16-.25-.16-.41c0-.18.06-.32.18-.43.12-.11.33-.17.62-.17h1.22c.29,0,.49.06.62.17.12.11.18.25.18.43s-.06.32-.18.43c-.12.11-.33.17-.62.17h-.19v1.75h2.56v-1.75h-.19c-.29,0-.49-.06-.62-.17-.12-.11-.18-.26-.18-.43s.06-.32.18-.43c.12-.11.33-.17.62-.17h1.22c.29,0,.49.06.62.17.12.11.18.25.18.43,0,.16-.05.3-.16.41-.11.11-.27.17-.48.19v4.68c.31,0,.51.03.6.09.19.12.29.29.29.51,0,.17-.06.32-.18.43-.12.11-.33.17-.62.17h-1.46c-.29,0-.49-.05-.62-.17-.12-.11-.18-.26-.18-.43s.06-.32.19-.43c.12-.11.33-.17.61-.17h.19v-1.73Z"/>
  <path class="cls-1" d="M174.67,41.2v2.55c.25-.15.5-.26.76-.33s.51-.11.77-.11c.41,0,.78.07,1.1.21.32.14.59.36.8.66.21.3.32.68.32,1.14v2.25c.3,0,.5.03.59.09.19.12.28.29.28.51,0,.17-.06.32-.18.43s-.33.17-.61.17h-1.37c-.28,0-.49-.05-.61-.17-.12-.11-.18-.26-.18-.43,0-.22.09-.39.28-.51.1-.06.3-.09.6-.09v-2.17c0-.31-.07-.52-.21-.65-.18-.17-.45-.25-.81-.25-.26,0-.5.05-.7.15-.2.1-.48.33-.83.67v2.24c.31,0,.51.03.6.09.19.12.29.29.29.51,0,.17-.06.32-.18.43-.12.11-.33.17-.62.17h-1.36c-.29,0-.49-.05-.62-.17-.12-.11-.18-.26-.18-.43,0-.22.1-.39.29-.51.09-.06.29-.09.59-.09v-5.18h-.2c-.29,0-.49-.06-.62-.17-.12-.11-.18-.26-.18-.43s.06-.32.18-.43c.12-.11.33-.17.62-.17h1.4Z"/>
  <path class="cls-1" d="M192.01,42.9v3.62c0,.46-.08.82-.23,1.08-.23.42-.57.75-1.01.99-.44.24-.91.36-1.39.36-.63,0-1.48-.26-2.56-.79v-1.97c0-.29.06-.49.17-.62.11-.12.26-.18.44-.18s.32.06.43.18c.11.12.17.33.17.62v1.17c.55.26,1.02.39,1.41.39.21,0,.42-.05.64-.14s.39-.21.5-.34c.11-.13.19-.26.22-.39.02-.07.03-.24.03-.5v-3.48h-1.45c-.29,0-.49-.06-.62-.17-.12-.11-.18-.26-.18-.43s.06-.32.18-.43c.12-.11.33-.17.62-.17h3.35c.29,0,.49.06.62.17.12.11.18.25.18.43s-.06.32-.18.43c-.12.11-.33.17-.62.17h-.7Z"/>
  <path class="cls-1" d="M197.41,44.67h-2.44c-.29,0-.49-.06-.62-.17-.12-.11-.18-.26-.18-.43s.06-.32.18-.43c.12-.11.33-.17.62-.17h3.64v5.55c0,.42-.09.79-.27,1.1-.18.31-.45.58-.81.81-.37.23-.78.34-1.24.34h-1.35c-.29,0-.49-.06-.62-.17-.12-.11-.18-.25-.18-.43s.06-.32.18-.43c.12-.11.33-.17.62-.17h1.32c.37,0,.65-.1.85-.3s.3-.45.3-.75v-4.35ZM197.9,41.2v1.27h-1.43v-1.27h1.43Z"/>
  <path class="cls-1" d="M209.79,46.25v1.32h.43c.29,0,.49.06.62.17.12.11.18.26.18.43s-.06.32-.18.43c-.12.11-.33.17-.62.17h-1.82c-.29,0-.49-.05-.62-.17-.12-.11-.18-.26-.18-.43s.06-.32.19-.43c.12-.11.33-.17.61-.17h.19v-4.68h-.19c-.29,0-.49-.06-.62-.17-.12-.11-.18-.26-.18-.43s.06-.32.18-.43c.12-.11.33-.17.62-.17h1.82c.29,0,.49.06.62.17.12.11.18.25.18.43s-.06.32-.18.43c-.12.11-.33.17-.62.17h-.43v1.77l2.12-1.83c-.12-.09-.21-.17-.26-.25-.05-.08-.07-.17-.07-.29,0-.18.06-.33.18-.44.12-.11.33-.17.62-.17h1.22c.29,0,.49.06.62.17.12.11.18.25.18.43s-.06.32-.18.43c-.12.11-.31.17-.57.17l-2.15,1.88c.4.23.78.58,1.13,1.05.35.47.66,1.05.94,1.75h.32c.28,0,.49.06.61.17.12.11.18.26.18.43s-.06.32-.18.43c-.12.11-.33.17-.61.17h-1.09c-.25-.59-.52-1.16-.82-1.7-.24-.44-.47-.76-.69-.96-.22-.2-.47-.36-.77-.48l-.73.62Z"/>
  <path class="cls-1" d="M217.7,46.78v1.99h-1.4c-.29,0-.49-.05-.62-.17-.12-.11-.18-.26-.18-.43s.06-.32.19-.43c.12-.11.33-.17.61-.17h.2v-5.18h-.2c-.29,0-.49-.06-.62-.17-.12-.11-.18-.26-.18-.43s.06-.32.18-.43c.12-.11.33-.17.62-.17h1.4v4.03l.93-.75c-.1-.17-.15-.3-.15-.41,0-.18.06-.32.18-.44.12-.11.33-.17.61-.17h1.37c.29,0,.49.06.62.17.12.11.18.26.18.44s-.06.32-.18.43c-.12.11-.33.17-.62.17h-.33l-1.45,1.18,1.96,1.73h.35c.29,0,.49.06.62.17.12.11.18.26.18.43s-.06.32-.18.43c-.12.11-.33.17-.62.17h-1.38c-.29,0-.49-.05-.62-.17-.12-.11-.18-.26-.18-.43,0-.15.07-.3.2-.45l-1.27-1.12-.22.18Z"/>
  <path class="cls-1" d="M231.57,42.9v4.68h2.58v-1.13c0-.29.06-.49.17-.62.11-.12.25-.18.43-.18s.32.06.43.18c.11.12.17.33.17.62v2.33h-5.67c-.29,0-.49-.05-.62-.17-.12-.11-.18-.26-.18-.43s.06-.32.18-.43c.12-.11.33-.17.62-.17h.69v-4.68h-.69c-.29,0-.49-.06-.62-.17-.12-.11-.18-.26-.18-.43s.06-.32.18-.43c.12-.11.33-.17.62-.17h2.59c.29,0,.49.06.62.17.12.11.18.25.18.43s-.06.32-.18.43c-.12.11-.33.17-.62.17h-.7Z"/>
  <path class="cls-1" d="M239.6,41.2v6.37h1.44c.29,0,.49.06.62.17.12.11.18.26.18.43s-.06.32-.18.43c-.12.11-.33.17-.62.17h-4.07c-.29,0-.49-.05-.62-.17-.12-.11-.18-.26-.18-.43s.06-.32.18-.43c.12-.11.33-.17.62-.17h1.44v-5.18h-.96c-.28,0-.49-.06-.61-.17-.12-.11-.19-.26-.19-.43s.06-.32.18-.43c.12-.11.33-.17.62-.17h2.16Z"/>
  <path class="cls-1" d="M251,44.01v3.57h.43c.29,0,.49.06.62.17.12.11.18.26.18.43s-.06.32-.18.43c-.12.11-.33.17-.62.17h-1.57c-.29,0-.49-.05-.62-.17-.12-.11-.18-.26-.18-.43s.06-.32.18-.43c.12-.11.31-.17.56-.17v-4.68c-.21-.02-.37-.08-.48-.19-.11-.11-.16-.25-.16-.41,0-.18.06-.32.18-.43.12-.11.33-.17.62-.17h1.31s1.63,3.61,1.63,3.61l1.6-3.61h1.33c.29,0,.49.06.62.17.12.11.18.25.18.43,0,.16-.05.3-.16.41-.11.11-.27.17-.47.19v4.68c.25,0,.44.06.56.17.12.11.18.26.18.43s-.06.32-.18.43c-.12.11-.33.17-.62.17h-1.58c-.28,0-.49-.05-.61-.17-.12-.11-.18-.26-.18-.43s.06-.32.18-.43c.12-.11.33-.17.61-.17h.44v-3.57l-1.37,3.08h-1.04l-1.39-3.08Z"/>
  <path class="cls-1" d="M259.15,43.47v.34c.19-.19.37-.32.53-.39.16-.07.34-.11.55-.11.17,0,.35.04.52.13.17.09.34.21.5.39.21-.17.42-.3.63-.38.21-.08.43-.12.65-.12.44,0,.8.12,1.08.36.37.31.55.72.55,1.23v2.68c.25,0,.43.06.55.17.12.11.18.26.18.43s-.06.32-.18.43c-.12.11-.33.17-.61.17h-1.14v-3.78c0-.18-.03-.31-.1-.38s-.17-.1-.3-.1-.25.04-.37.1c-.14.1-.32.28-.53.55v2.41c.25,0,.43.06.55.17.12.11.18.26.18.43s-.06.32-.18.43c-.12.11-.33.17-.61.17h-1.14v-3.78c0-.18-.03-.3-.1-.38-.07-.07-.17-.11-.31-.11s-.28.04-.41.13c-.14.09-.3.26-.49.52v2.41c.25,0,.43.06.56.17.12.11.18.26.18.43s-.06.32-.18.43c-.12.11-.33.17-.62.17h-1.08c-.29,0-.49-.05-.62-.17-.12-.11-.18-.26-.18-.43s.06-.32.18-.43c.12-.11.31-.17.56-.17v-2.91c-.25,0-.44-.06-.56-.17-.12-.11-.18-.26-.18-.43s.06-.32.18-.43c.12-.11.33-.17.62-.17h1.14Z"/>
  <path class="cls-1" d="M146.17,57v3.62h.43c.29,0,.49.05.62.17.12.11.18.26.18.43s-.06.32-.18.43c-.12.11-.33.17-.62.17h-1.57c-.29,0-.49-.05-.62-.17-.12-.11-.18-.26-.18-.43s.06-.31.18-.43c.12-.11.31-.17.56-.17v-4.68h-.19c-.29,0-.49-.06-.62-.17-.12-.11-.18-.25-.18-.43s.06-.32.18-.43c.12-.11.33-.17.62-.17h1.38s3.06,4.8,3.06,4.8v-3.6h-.43c-.29,0-.49-.06-.62-.17-.12-.11-.18-.25-.18-.43s.06-.32.18-.43c.12-.11.33-.17.62-.17h1.57c.29,0,.49.06.62.17.12.11.18.25.18.43s-.06.32-.18.43c-.12.11-.31.17-.55.17v5.88h-1.18l-3.08-4.81Z"/>
  <path class="cls-1" d="M154.11,56.51v.4c.22-.19.46-.33.72-.42.26-.09.55-.14.86-.14.71,0,1.27.22,1.68.66.33.35.49.81.49,1.38v2.22c.25,0,.44.05.56.17.12.11.18.26.18.43s-.06.32-.18.43c-.12.11-.33.17-.62.17h-1.08c-.29,0-.49-.05-.62-.17-.12-.11-.18-.26-.18-.43s.06-.32.18-.43c.12-.11.31-.17.56-.17v-2.26c0-.26-.07-.45-.21-.57-.18-.16-.46-.23-.82-.23-.28,0-.52.05-.73.16-.21.11-.47.33-.79.68v2.22c.31,0,.51.03.6.09.19.12.29.29.29.51,0,.17-.06.32-.18.43-.12.11-.33.17-.62.17h-1.36c-.29,0-.49-.05-.62-.17-.12-.11-.18-.26-.18-.43,0-.22.09-.39.28-.51.09-.06.29-.09.6-.09v-2.91c-.25,0-.44-.06-.56-.17-.12-.11-.18-.26-.18-.43s.06-.32.18-.43c.12-.11.33-.17.62-.17h1.14Z"/>
  <path class="cls-1" d="M172.06,58.28c0,1.06-.34,1.95-1.01,2.65-.68.71-1.46,1.06-2.34,1.06-.8,0-1.52-.29-2.16-.88-.79-.73-1.19-1.67-1.19-2.83s.4-2.1,1.19-2.84c.64-.59,1.36-.88,2.16-.88.89,0,1.67.35,2.34,1.06.67.71,1.01,1.59,1.01,2.66ZM170.87,58.28c0-.73-.22-1.33-.66-1.81s-.94-.71-1.5-.71-1.05.24-1.49.72c-.44.48-.66,1.08-.66,1.8s.22,1.32.66,1.8c.44.48.94.71,1.49.71s1.06-.24,1.5-.71.66-1.08.66-1.8Z"/>
  <path class="cls-1" d="M179.46,59.26c0,.46-.13.9-.38,1.33-.25.43-.63.77-1.14,1.03-.5.25-1.03.38-1.58.38s-1.07-.13-1.56-.38-.88-.59-1.14-1.02c-.26-.43-.39-.88-.39-1.35s.13-.95.4-1.41c.26-.46.64-.82,1.14-1.09.5-.27,1.01-.4,1.55-.4s1.07.14,1.57.41c.5.27.88.63,1.14,1.09s.38.93.38,1.41ZM178.27,59.27c0-.38-.14-.74-.41-1.06-.38-.44-.87-.65-1.49-.65-.54,0-.99.17-1.35.52-.36.35-.54.75-.54,1.2,0,.37.18.72.55,1.05.37.32.81.49,1.35.49s.99-.16,1.35-.49c.37-.33.55-.68.55-1.05Z"/>
  <path class="cls-1" d="M189.77,59.38v1.23h1.21c.29,0,.49.05.62.17.12.11.18.26.18.43s-.06.32-.18.43c-.12.11-.33.17-.62.17h-2.59c-.29,0-.49-.05-.62-.17-.12-.11-.18-.26-.18-.43s.06-.32.19-.43c.12-.11.33-.17.61-.17h.19v-4.68h-.19c-.29,0-.49-.06-.62-.17-.12-.11-.18-.25-.18-.43s.06-.32.18-.43c.12-.11.33-.17.62-.17h2.75c.81,0,1.45.23,1.92.67s.71.98.71,1.61c0,.35-.08.68-.24.99-.12.23-.32.46-.6.69-.28.23-.57.4-.86.51-.29.12-.68.17-1.16.17h-1.13ZM189.77,58.19h1.11c.52,0,.93-.12,1.24-.35.3-.24.46-.52.46-.85,0-.28-.12-.52-.37-.73-.25-.21-.6-.32-1.06-.32h-1.38v2.25Z"/>
  <path class="cls-1" d="M196.62,61.15v1.96h.72c.29,0,.49.06.62.17.12.11.18.25.18.43s-.06.32-.18.43c-.12.11-.33.17-.62.17h-2.12c-.29,0-.49-.06-.62-.17-.12-.11-.18-.25-.18-.43s.06-.32.19-.43c.12-.11.33-.17.61-.17h.2v-5.4h-.2c-.29,0-.49-.06-.62-.17-.12-.11-.18-.26-.18-.43s.06-.32.18-.43c.12-.11.33-.17.62-.17h1.4v.41c.28-.19.57-.33.87-.43.3-.09.61-.14.92-.14.82,0,1.51.28,2.09.83.58.55.86,1.19.86,1.91,0,.79-.34,1.44-1.02,1.96-.57.43-1.21.64-1.92.64-.31,0-.61-.04-.91-.13-.3-.09-.6-.22-.89-.4ZM200.17,59.1c0-.17-.07-.38-.2-.64-.13-.26-.34-.47-.61-.65-.27-.17-.6-.26-.97-.26-.59,0-1.07.22-1.42.67-.24.31-.36.6-.36.89,0,.32.17.63.51.93.34.3.76.45,1.26.45s.93-.15,1.27-.45.51-.62.51-.95Z"/>
  <path class="cls-1" d="M215.12,61.98l-.04.05c.41,0,.8.08,1.16.25.15.07.27.11.37.11.14,0,.31-.07.51-.2.2-.13.36-.2.48-.2.17,0,.31.06.42.17.11.12.17.26.17.43,0,.21-.11.39-.32.54-.42.3-.85.46-1.28.46-.22,0-.44-.04-.66-.13-.36-.14-.64-.21-.85-.21-.34,0-.85.09-1.55.26-.14.03-.26.05-.34.05-.15,0-.29-.06-.4-.18-.11-.12-.17-.27-.17-.45,0-.16.08-.31.23-.46l.76-.74c-.63-.27-1.14-.72-1.54-1.33-.4-.61-.6-1.32-.6-2.12,0-1.16.4-2.1,1.2-2.84.64-.59,1.36-.88,2.15-.88s1.52.29,2.16.88c.8.73,1.2,1.68,1.2,2.84,0,1-.3,1.84-.9,2.54-.6.69-1.33,1.08-2.17,1.16ZM216.99,58.28c0-.73-.22-1.33-.66-1.81-.44-.48-.94-.71-1.5-.71s-1.05.24-1.49.72-.66,1.08-.66,1.8.22,1.32.66,1.8.94.71,1.49.71,1.06-.24,1.5-.71c.44-.47.66-1.08.66-1.8Z"/>
  <path class="cls-1" d="M225.5,57.71v5.4h.21c.28,0,.49.06.61.17.12.11.18.25.18.43s-.06.32-.18.43c-.12.11-.32.17-.61.17h-2.12c-.29,0-.49-.06-.62-.17-.12-.11-.18-.25-.18-.43s.06-.32.18-.43c.12-.11.33-.17.62-.17h.71v-1.96c-.29.18-.59.31-.89.4-.3.09-.61.13-.91.13-.71,0-1.35-.21-1.92-.64-.68-.51-1.02-1.17-1.02-1.96,0-.72.29-1.35.86-1.91.58-.55,1.27-.83,2.09-.83.32,0,.62.05.92.14.3.09.59.24.87.43v-.41h1.41c.28,0,.49.06.61.17.12.11.18.26.18.43s-.06.32-.18.43c-.12.11-.32.17-.61.17h-.21ZM224.31,59.1c0-.17-.07-.38-.2-.64-.13-.26-.34-.47-.61-.65-.28-.17-.6-.26-.96-.26-.6,0-1.07.22-1.42.67-.24.31-.36.6-.36.89,0,.32.17.63.51.93.34.3.76.45,1.26.45s.93-.15,1.27-.45.51-.62.51-.95Z"/>
  <path class="cls-1" d="M234.88,59.11v1.51h.43c.29,0,.49.05.62.17.12.11.18.26.18.43s-.06.32-.18.43c-.12.11-.33.17-.62.17h-1.82c-.29,0-.49-.05-.62-.17-.12-.11-.18-.26-.18-.43s.06-.32.19-.43c.12-.11.33-.17.61-.17h.19v-4.68h-.19c-.29,0-.49-.06-.62-.17-.12-.11-.18-.25-.18-.43s.06-.32.18-.43c.12-.11.33-.17.62-.17h2.71c.84,0,1.5.21,1.96.63s.7.93.7,1.53c0,.37-.11.71-.33,1.02-.22.3-.55.58-.99.81.25.22.52.51.81.85.18.22.42.57.72,1.04.3,0,.5.03.6.09.17.12.26.29.26.51,0,.17-.06.32-.18.43-.12.11-.32.17-.61.17h-.68c-.97-1.5-1.77-2.4-2.41-2.7h-1.19ZM234.88,57.91h.93c.35,0,.66-.05.93-.16.37-.14.61-.29.74-.44.13-.16.19-.31.19-.46,0-.23-.12-.43-.36-.63s-.59-.29-1.06-.29h-1.37v1.98Z"/>
  <path class="cls-1" d="M243.51,56.51v.75c.5-.36.9-.6,1.19-.72.29-.12.56-.18.81-.18.39,0,.77.14,1.13.43.25.19.37.39.37.6,0,.17-.06.32-.18.43-.12.12-.26.18-.43.18-.15,0-.3-.07-.47-.22-.16-.15-.31-.22-.44-.22-.17,0-.42.11-.75.32-.33.21-.75.53-1.25.95v1.8h1.7c.29,0,.49.05.62.17.12.11.18.26.18.43s-.06.32-.18.43c-.12.11-.33.17-.62.17h-3.61c-.29,0-.49-.05-.62-.17-.12-.11-.18-.26-.18-.43s.06-.32.18-.43c.12-.11.33-.17.62-.17h.71v-2.91h-.43c-.29,0-.49-.06-.62-.17-.12-.11-.18-.26-.18-.43s.06-.32.18-.43c.12-.11.33-.17.62-.17h1.63Z"/>
  <path class="cls-1" d="M255.4,61.51c-.1.12-.19.2-.25.24-.06.03-.14.05-.24.05-.18,0-.33-.06-.44-.18-.11-.12-.17-.33-.17-.61v-.81c0-.29.05-.49.17-.62.11-.12.26-.18.44-.18.14,0,.26.04.35.11.09.07.17.2.22.37.05.17.1.29.16.35.11.12.31.24.6.37.29.12.6.19.95.19.53,0,.97-.12,1.31-.37.22-.15.33-.34.33-.56,0-.15-.05-.29-.16-.42-.11-.13-.28-.24-.51-.32-.16-.06-.5-.14-1.04-.24-.65-.12-1.15-.27-1.48-.44-.33-.17-.6-.41-.79-.72-.19-.31-.29-.65-.29-1.01,0-.57.24-1.07.72-1.5s1.1-.65,1.87-.65c.31,0,.59.04.85.1.26.07.5.17.71.31.16-.15.31-.23.47-.23.17,0,.32.06.43.18.11.12.17.33.17.61v.9c0,.29-.06.49-.17.62-.11.12-.25.18-.43.18-.15,0-.28-.04-.39-.13-.09-.07-.15-.2-.19-.4-.04-.2-.1-.34-.16-.43-.11-.15-.28-.27-.51-.37-.23-.1-.49-.15-.78-.15-.43,0-.77.1-1.02.3s-.38.41-.38.63c0,.15.05.29.15.43.1.14.25.25.45.32.13.05.5.14,1.12.26.61.12,1.08.25,1.41.4.33.14.6.37.82.68s.33.67.33,1.1c0,.59-.21,1.06-.62,1.42-.55.47-1.26.7-2.11.7-.33,0-.65-.04-.97-.12-.31-.08-.62-.2-.91-.36Z"/>
  <path class="cls-1" d="M265.37,57.91c-.19-.12-.4-.21-.61-.27-.21-.06-.44-.09-.67-.09-.46,0-.83.08-1.1.23-.12.07-.18.14-.18.22,0,.09.08.18.25.26.12.06.4.12.83.18.79.11,1.35.22,1.66.33.41.14.72.36.95.64.22.28.33.58.33.9,0,.43-.19.79-.57,1.07-.54.42-1.24.62-2.11.62-.35,0-.67-.03-.96-.09s-.56-.15-.81-.27c-.06.05-.12.09-.19.12-.07.03-.13.04-.2.04-.19,0-.34-.06-.45-.18-.11-.12-.17-.33-.17-.62v-.4c0-.29.05-.49.17-.62.11-.12.26-.18.43-.18.14,0,.26.04.36.12.1.08.17.22.23.41.18.16.4.27.66.35s.55.12.89.12c.55,0,.97-.09,1.28-.26.14-.09.22-.18.22-.27,0-.16-.1-.28-.31-.39-.21-.1-.63-.19-1.28-.26-.96-.1-1.6-.3-1.93-.58-.32-.28-.48-.63-.48-1.05s.18-.78.54-1.07c.49-.39,1.13-.58,1.93-.58.28,0,.54.03.8.08s.5.13.73.24c.07-.05.14-.1.21-.12s.12-.04.18-.04c.16,0,.3.06.41.18.11.12.16.33.16.62v.29c0,.26-.03.44-.09.53-.12.18-.29.27-.51.27-.14,0-.27-.04-.38-.13-.11-.09-.18-.21-.21-.36Z"/>
  <path class="cls-1" d="M147.65,71.46l-1.11,3.4h-1.34l-.71-5.88c-.18-.02-.32-.09-.41-.19-.09-.1-.14-.23-.14-.39,0-.19.06-.34.18-.45.12-.11.33-.17.62-.17h1.59c.29,0,.49.06.62.17.12.11.18.25.18.43s-.06.32-.18.43c-.12.11-.33.17-.62.17h-.62l.4,3.34.94-2.78h1.24l.93,2.78.4-3.34h-.62c-.29,0-.49-.06-.62-.17-.12-.11-.18-.26-.18-.43s.06-.32.18-.44c.12-.11.33-.17.62-.17h1.59c.29,0,.49.06.62.17.12.11.18.25.18.43,0,.15-.05.28-.15.39-.1.11-.24.18-.42.21l-.69,5.88h-1.32l-1.15-3.4Z"/>
  <path class="cls-1" d="M155.06,72.65l-.83,2.21h-1.13l-1-4.1c-.22-.01-.38-.07-.49-.18s-.17-.25-.17-.42.06-.32.18-.43c.12-.11.33-.17.62-.17h1.11c.29,0,.49.06.62.17.12.11.18.26.18.43s-.07.33-.21.46c-.11.09-.31.14-.62.14l.46,1.9.74-1.94h1.06l.75,1.94.47-1.9c-.3,0-.49-.03-.58-.09-.19-.12-.28-.29-.28-.51,0-.17.06-.32.18-.43.12-.11.33-.17.62-.17h1.13c.29,0,.49.06.62.17.12.11.18.26.18.43,0,.16-.05.29-.16.41-.11.11-.27.17-.48.19l-.98,4.1h-1.11l-.88-2.21Z"/>
  <path class="cls-1" d="M169.23,71.25l2,2.41c.24,0,.42.06.53.17.12.11.18.25.18.43s-.06.32-.18.43c-.12.11-.33.17-.62.17h-1.35c-.28,0-.49-.06-.61-.17-.12-.11-.18-.26-.18-.43,0-.17.06-.31.17-.42.11-.11.28-.17.51-.18l-1.2-1.48-1.21,1.48c.22,0,.39.07.5.18.11.11.17.25.17.42s-.06.32-.18.43c-.12.11-.33.17-.62.17h-1.34c-.29,0-.49-.06-.62-.17-.12-.11-.18-.26-.18-.43s.06-.31.18-.43c.12-.11.3-.17.53-.17l1.98-2.42-1.89-2.26c-.23,0-.41-.07-.52-.18-.12-.11-.17-.25-.17-.42,0-.18.06-.32.18-.44.12-.11.33-.17.62-.17h1.1c.29,0,.49.06.62.17.12.11.18.25.18.43,0,.13-.04.25-.12.36-.05.07-.16.15-.34.24l1.11,1.34,1.09-1.34c-.17-.09-.29-.17-.34-.24-.08-.11-.12-.23-.12-.36,0-.18.06-.32.18-.43.12-.11.33-.17.62-.17h1.1c.29,0,.49.06.62.17.12.11.18.25.18.43s-.06.31-.18.43c-.12.11-.29.17-.52.17l-1.87,2.27Z"/>
  <path class="cls-1" d="M176.51,72.1l1.81,1.56c.22.01.38.07.49.18.11.11.16.25.16.42s-.06.32-.18.43c-.12.11-.33.17-.62.17h-1.36c-.29,0-.49-.06-.62-.17-.12-.11-.18-.26-.18-.44,0-.14.04-.26.13-.37.09-.11.21-.18.36-.22l-.89-.77-.91.77c.18.05.31.12.39.22.08.1.12.22.12.37,0,.18-.06.33-.18.44-.12.11-.33.17-.61.17h-1.35c-.29,0-.49-.06-.62-.17-.12-.11-.18-.26-.18-.43,0-.16.05-.3.16-.41.11-.11.27-.17.49-.18l1.77-1.56-1.57-1.34c-.21-.02-.36-.08-.47-.19-.11-.11-.16-.25-.16-.41,0-.17.06-.32.18-.43.12-.11.33-.17.62-.17h1.12c.29,0,.49.06.62.17.12.11.18.25.18.42,0,.23-.11.42-.33.56l.72.6.71-.61c-.21-.15-.32-.33-.32-.53,0-.19.06-.34.18-.45.12-.11.33-.17.62-.17h1.11c.29,0,.49.06.62.17.12.11.18.26.18.43,0,.16-.05.29-.16.41-.11.11-.27.17-.48.19l-1.58,1.35Z"/>
  <path class="cls-1" d="M189.6,71.88v1.77h.81c.29,0,.49.05.62.17.12.11.18.26.18.43s-.06.32-.18.43c-.12.11-.33.17-.62.17h-2.81c-.28,0-.49-.06-.61-.17-.12-.11-.18-.26-.18-.43s.06-.32.18-.43c.12-.11.33-.17.61-.17h.81v-1.77l-1.98-2.91c-.26,0-.46-.06-.58-.17-.12-.11-.18-.26-.18-.43s.06-.32.18-.44c.12-.11.33-.17.62-.17h1.08c.29,0,.49.06.62.17.12.11.18.25.18.43,0,.27-.16.47-.47.6l1.13,1.67,1.11-1.67c-.18-.07-.3-.15-.37-.25-.07-.1-.11-.22-.11-.35,0-.18.06-.32.18-.43.12-.11.33-.17.62-.17h1.13c.29,0,.49.06.62.17.12.11.18.25.18.43s-.06.32-.19.43c-.12.11-.33.17-.61.17l-1.96,2.91Z"/>
  <path class="cls-1" d="M195.74,74.81l-2.07-4.06c-.2-.02-.34-.09-.44-.2-.1-.11-.15-.24-.15-.4,0-.18.06-.32.18-.43.12-.11.33-.17.62-.17h1.09c.29,0,.49.06.62.17.12.11.18.26.18.43s-.06.32-.18.43c-.12.11-.32.17-.58.17l1.41,2.75,1.4-2.75c-.26,0-.45-.06-.57-.17-.12-.11-.18-.26-.18-.44s.06-.32.18-.43c.12-.11.33-.17.62-.17h1.13c.28,0,.49.06.61.17.12.11.18.26.18.43,0,.16-.05.29-.16.41-.11.11-.26.17-.47.19l-2.74,5.4c.3,0,.5.03.59.09.19.12.28.29.28.51,0,.17-.06.32-.18.43-.12.11-.33.17-.62.17h-2.61c-.29,0-.49-.05-.62-.17-.12-.11-.18-.25-.18-.43s.06-.32.18-.43c.12-.11.33-.17.62-.17h1.19l.68-1.34Z"/>
  <path class="cls-1" d="M208.62,73.66h2.71v-.89c0-.29.06-.49.17-.62.11-.12.26-.18.44-.18s.32.06.43.18c.11.12.17.33.17.62v2.08h-5.44v-1.2l3.65-4.68h-2.21v.86c0,.29-.05.49-.16.62-.11.12-.25.18-.43.18s-.32-.06-.43-.18c-.11-.12-.17-.33-.17-.62v-2.06h4.95v1.17l-3.67,4.71Z"/>
  <path class="cls-1" d="M216.32,73.66h2.1c.01-.22.07-.39.18-.5.11-.11.25-.17.41-.17.18,0,.32.06.43.18.11.12.17.33.17.62v1.06h-5.21v-.99l3.15-3.11h-1.83v.12c0,.28-.05.49-.17.61-.11.12-.26.18-.43.18s-.32-.06-.43-.18c-.11-.12-.17-.33-.17-.61v-1.31h4.96v.98l-3.16,3.12Z"/>
</svg>