<?xml version="1.0" encoding="UTF-8"?>
<svg id="Layer_1" data-name="Layer 1" xmlns="http://www.w3.org/2000/svg" version="1.1" viewBox="0 0 276.65 87.86">
  <defs>
    <style>
      .cls-1 {
        fill: #3f3f3f;
        stroke-width: 0px;
      }
    </style>
  </defs>
  <g>
    <path class="cls-1" d="M4.06,4.58h2.14l4.03,10.74h-2.41l-.86-2.48h-3.76l-.86,2.48H.03L4.06,4.58ZM6.38,10.98l-1.31-3.85-1.29,3.85h2.6Z"/>
    <path class="cls-1" d="M11.61,4.58h2.06v5.62l3.02-2.74h2.44l-2.86,2.71,3.08,5.14h-2.27l-2.32-3.97-1.1.99v2.98h-2.06V4.58Z"/>
    <path class="cls-1" d="M21.22,9.1h-1.23v-1.64h1.23v-2.09h2.1v2.09h1.8v1.64h-1.8v3.62c0,.41.08.69.26.83.17.15.39.22.66.22.14,0,.28,0,.43-.02.15-.02.29-.04.43-.08l.3,1.55c-.29.09-.57.15-.85.19s-.54.05-.79.05c-.86,0-1.5-.21-1.92-.62-.42-.41-.62-1.1-.62-2.08v-3.67Z"/>
    <path class="cls-1" d="M26.72,4.58h2.17v1.89h-2.17v-1.89ZM26.75,7.47h2.11v7.85h-2.11v-7.85Z"/>
    <path class="cls-1" d="M30.23,7.47h2.44l1.76,5.46,1.76-5.46h2.33l-3.1,7.85h-2.1l-3.08-7.85Z"/>
    <path class="cls-1" d="M48.63,9.44h4.12v4.54c-.55.51-1.21.91-1.97,1.19-.76.28-1.55.42-2.36.42-.85,0-1.6-.14-2.23-.41-.64-.27-1.17-.65-1.59-1.14-.42-.49-.74-1.08-.95-1.78-.21-.7-.32-1.47-.32-2.31s.12-1.65.35-2.35c.23-.69.56-1.28.98-1.77s.94-.87,1.56-1.13c.61-.26,1.29-.39,2.04-.39.69,0,1.29.09,1.78.26.5.17.92.41,1.26.71s.62.65.83,1.05c.21.4.35.83.44,1.29l-2.23.29c-.06-.27-.13-.51-.22-.71-.09-.21-.21-.38-.37-.53-.16-.15-.36-.26-.6-.33-.24-.08-.54-.11-.9-.11-.87,0-1.52.33-1.96.98-.43.65-.65,1.57-.65,2.75s.22,2.11.65,2.76,1.15.97,2.13.97c.47,0,.88-.05,1.23-.14.35-.1.68-.24,1-.44v-1.79h-2.04v-1.86Z"/>
    <path class="cls-1" d="M54.74,7.47h2.05v1.1c.26-.41.58-.72.95-.92.37-.21.76-.31,1.17-.31.2,0,.37,0,.5.02.13.02.25.03.35.05l-.26,1.91c-.24-.06-.54-.09-.89-.09-.23,0-.45.03-.66.08s-.4.16-.57.31c-.18.16-.31.34-.4.54-.09.2-.13.41-.13.62v4.54h-2.11v-7.85Z"/>
    <path class="cls-1" d="M64.66,15.56c-1.26,0-2.24-.36-2.93-1.08-.69-.72-1.04-1.75-1.04-3.1,0-.64.09-1.22.28-1.74.19-.52.45-.95.8-1.31.35-.36.76-.63,1.26-.82s1.04-.29,1.64-.29,1.16.1,1.65.29c.49.19.91.46,1.26.82.35.36.61.79.79,1.31.18.52.27,1.1.27,1.74s-.09,1.24-.28,1.75c-.19.52-.45.96-.8,1.32-.35.36-.76.64-1.26.83-.49.19-1.04.29-1.64.29ZM64.66,13.87c.6,0,1.05-.22,1.35-.65.3-.43.44-1.05.44-1.85s-.15-1.41-.44-1.83c-.3-.42-.74-.63-1.35-.63s-1.05.21-1.35.63c-.3.42-.44,1.03-.44,1.83s.15,1.43.44,1.86c.29.43.74.64,1.35.64Z"/>
    <path class="cls-1" d="M71.01,9.1h-1.23v-1.64h1.23v-2.09h2.1v2.09h1.8v1.64h-1.8v3.62c0,.41.08.69.26.83.17.15.39.22.66.22.14,0,.28,0,.43-.02.15-.02.29-.04.43-.08l.3,1.55c-.29.09-.57.15-.85.19s-.54.05-.79.05c-.86,0-1.5-.21-1.92-.62-.42-.41-.62-1.1-.62-2.08v-3.67Z"/>
    <path class="cls-1" d="M83.56,12.86c-.14.88-.49,1.55-1.06,2.01-.57.46-1.39.68-2.47.68-1.3,0-2.28-.36-2.94-1.08-.66-.72-.98-1.74-.98-3.07,0-.66.1-1.25.29-1.77.19-.52.46-.95.8-1.32.35-.36.76-.63,1.24-.82.48-.19,1.01-.28,1.59-.28,1.2,0,2.11.35,2.71,1.04.61.69.91,1.62.91,2.8v.84h-5.44c.02.63.18,1.13.48,1.48s.75.53,1.35.53c.83,0,1.32-.35,1.47-1.05h2.04ZM81.62,10.52c0-.54-.13-.96-.4-1.26s-.68-.45-1.24-.45c-.28,0-.53.05-.74.14-.21.09-.39.21-.53.37-.15.16-.26.34-.34.54s-.13.43-.14.67h3.38Z"/>
    <path class="cls-1" d="M87.05,12.82c.07.46.26.76.56.9.3.14.66.21,1.08.21.5,0,.86-.06,1.07-.19.22-.13.32-.33.32-.61,0-.2-.07-.38-.2-.53s-.39-.26-.77-.32l-1.08-.18c-.95-.15-1.66-.41-2.13-.77-.47-.37-.7-.92-.7-1.66,0-.38.08-.72.25-1.02s.4-.56.7-.77.66-.37,1.08-.49.87-.17,1.38-.17c.62,0,1.14.06,1.56.19.42.13.76.29,1.03.5s.47.46.6.75c.14.29.23.6.29.93l-1.88.24c-.09-.36-.25-.63-.47-.8s-.59-.26-1.09-.26c-.28,0-.51.02-.7.07s-.33.1-.44.17c-.11.07-.18.15-.23.24s-.07.18-.07.26c0,.25.08.43.23.55.16.12.46.21.91.29l.99.17c.55.09,1.01.21,1.37.35.36.14.65.31.86.52.22.21.37.45.45.73.08.28.13.61.13.98,0,.74-.28,1.34-.84,1.78-.56.45-1.43.67-2.6.67-.47,0-.92-.04-1.35-.13-.43-.09-.81-.23-1.14-.44-.34-.21-.61-.49-.83-.84-.22-.35-.34-.79-.37-1.32h2.02Z"/>
    <path class="cls-1" d="M93.91,4.58h2.06v5.62l3.02-2.74h2.44l-2.86,2.71,3.08,5.14h-2.27l-2.32-3.97-1.1.99v2.98h-2.06V4.58Z"/>
  </g>
  <g>
    <path class="cls-1" d="M3.2,32.38h1.7l3.2,8.54h-1.91l-.68-1.97h-2.99l-.68,1.97H0l3.2-8.54ZM5.04,37.48l-1.04-3.06-1.03,3.06h2.07Z"/>
    <path class="cls-1" d="M12.91,40.13c-.25.28-.52.51-.83.68-.31.17-.7.26-1.19.26-.28,0-.54-.04-.79-.11s-.47-.18-.66-.33c-.19-.15-.34-.34-.45-.58-.11-.23-.17-.52-.17-.84,0-.43.1-.78.29-1.05s.44-.48.75-.63c.31-.15.66-.26,1.05-.32.39-.06.78-.1,1.18-.12l.8-.04v-.31c0-.38-.11-.65-.32-.79-.21-.14-.46-.22-.75-.22-.66,0-1.04.25-1.14.75l-1.53-.14c.11-.65.4-1.13.86-1.42.46-.29,1.08-.44,1.86-.44.48,0,.88.06,1.22.17.33.12.6.28.81.5.2.21.35.48.44.78.09.31.14.65.14,1.03v3.95h-1.58v-.79ZM12.88,38.13l-.74.04c-.35.02-.63.05-.85.11s-.38.13-.5.21c-.12.08-.19.18-.23.29-.04.11-.06.24-.06.37,0,.21.07.37.22.49s.34.18.6.18c.43,0,.78-.1,1.05-.3.15-.11.27-.25.37-.42s.14-.38.14-.64v-.32Z"/>
    <path class="cls-1" d="M19.67,32.38h3.07c.63,0,1.15.06,1.56.18.41.12.74.28.97.49.24.21.4.45.5.73.09.28.14.58.14.91s-.07.65-.22.94-.41.55-.81.75c.26.14.46.28.63.42.16.15.29.3.38.47s.16.34.19.51.05.35.05.53c0,.36-.05.7-.16,1.02-.11.32-.29.59-.54.83-.25.23-.58.41-.99.55-.41.14-.91.2-1.51.2h-3.28v-8.54ZM22.94,35.77c.47,0,.79-.09.97-.26s.26-.43.26-.75c0-.35-.11-.6-.34-.75s-.61-.22-1.15-.22h-1.29v1.98h1.55ZM22.88,39.52c.29,0,.54-.03.73-.08s.35-.14.47-.25c.12-.11.2-.23.25-.38.05-.14.07-.31.07-.49,0-.37-.1-.65-.3-.84s-.55-.29-1.05-.29h-1.67v2.32h1.49Z"/>
    <path class="cls-1" d="M27.51,32.38h1.67v3.05c.47-.63,1.11-.94,1.91-.94.87,0,1.52.29,1.95.88.43.59.65,1.4.65,2.43,0,.49-.06.94-.19,1.35-.12.41-.3.76-.54,1.05-.24.29-.52.52-.85.68-.33.16-.71.24-1.14.24-.33,0-.66-.06-.97-.19-.31-.13-.6-.36-.87-.69v.69h-1.63v-8.54ZM29.17,37.85c0,.41.03.73.1.97.07.24.18.44.33.59.16.14.32.24.48.28.16.04.33.07.5.07.18,0,.36-.04.53-.11.17-.07.31-.19.44-.34s.22-.36.29-.6c.07-.25.11-.55.11-.9s-.03-.67-.1-.92c-.07-.25-.16-.45-.28-.6-.12-.16-.26-.27-.42-.33-.16-.07-.34-.1-.52-.1-.21,0-.39.03-.54.08-.15.06-.3.14-.44.26-.16.15-.28.34-.35.57-.08.23-.11.53-.11.88v.19Z"/>
    <path class="cls-1" d="M45.52,37.96c-.04.45-.15.88-.32,1.26-.17.39-.41.72-.71,1-.3.28-.67.5-1.1.66-.43.16-.94.24-1.51.24-.65,0-1.21-.11-1.7-.32-.49-.22-.9-.52-1.23-.91-.33-.39-.58-.86-.75-1.42-.17-.55-.25-1.17-.25-1.84s.09-1.31.27-1.86c.18-.55.45-1.02.79-1.41s.76-.69,1.24-.9c.49-.21,1.04-.31,1.65-.31.54,0,1.01.07,1.42.2.4.14.74.33,1.02.59.27.25.5.56.66.92.17.36.29.76.37,1.21l-1.77.23c-.09-.5-.26-.9-.51-1.18-.25-.29-.65-.43-1.19-.43-.69,0-1.21.26-1.56.77s-.53,1.24-.53,2.18.19,1.68.57,2.19c.38.51.89.77,1.52.77.55,0,.95-.14,1.21-.42.26-.28.42-.69.48-1.21h1.91Z"/>
    <path class="cls-1" d="M52.47,38.66c-.06.75-.32,1.34-.77,1.79-.45.44-1.13.66-2.03.66-.53,0-.98-.08-1.36-.24-.38-.16-.7-.38-.94-.67-.24-.29-.42-.63-.54-1.04-.12-.41-.18-.86-.18-1.35s.07-.95.21-1.36c.14-.41.34-.76.6-1.05.26-.29.59-.52.97-.68.38-.16.82-.24,1.32-.24.42,0,.79.05,1.11.16.31.11.58.26.8.45.21.19.38.42.5.69s.2.56.24.88l-1.69.23c-.04-.32-.13-.58-.27-.77s-.39-.29-.74-.29c-.25,0-.47.05-.63.16-.17.11-.3.25-.4.44-.1.18-.17.39-.21.63-.04.24-.06.48-.06.74s.02.51.06.75c.04.24.11.45.2.63.1.18.23.33.39.44s.38.16.63.16c.33,0,.59-.1.78-.29s.29-.47.32-.82h1.7Z"/>
    <path class="cls-1" d="M57.42,32.38h3.19c1.31,0,2.33.35,3.05,1.06.73.71,1.09,1.76,1.09,3.16,0,.71-.1,1.33-.3,1.87s-.5.98-.88,1.35c-.38.37-.85.64-1.4.83-.55.18-1.17.27-1.87.27h-2.89v-8.54ZM60.35,39.4c.46,0,.86-.07,1.18-.2.33-.13.59-.32.79-.57s.35-.54.45-.88.14-.72.14-1.14-.04-.79-.13-1.13c-.08-.34-.22-.62-.4-.85-.18-.23-.42-.41-.71-.54s-.65-.19-1.07-.19h-1.41v5.5h1.15Z"/>
    <path class="cls-1" d="M70.67,40.09c-.48.68-1.12,1.02-1.94,1.02-.88,0-1.53-.29-1.96-.88-.43-.59-.65-1.41-.65-2.45,0-.49.06-.93.19-1.33s.3-.75.53-1.04c.23-.29.51-.52.85-.68.33-.16.71-.24,1.14-.24.31,0,.62.06.93.17.31.11.6.33.87.65v-2.92h1.67v8.54h-1.63v-.82ZM70.63,37.73c0-.4-.03-.72-.1-.96-.07-.24-.18-.43-.33-.59-.14-.14-.3-.24-.47-.28s-.34-.07-.51-.07c-.18,0-.36.04-.52.11-.16.07-.31.18-.43.33s-.22.35-.29.6c-.07.25-.11.54-.11.88,0,.38.03.69.1.94s.16.45.28.61c.12.16.26.27.42.33.16.07.33.1.51.1.4,0,.73-.12.98-.35.16-.16.28-.35.35-.58s.11-.52.11-.88v-.21Z"/>
    <path class="cls-1" d="M78.01,32.38h5.82v1.52h-4.04v1.86h3.8v1.53h-3.8v2.1h4.29l-.18,1.52h-5.89v-8.54Z"/>
    <path class="cls-1" d="M90.93,38.97c-.11.7-.39,1.23-.84,1.6-.45.36-1.11.54-1.97.54-1.04,0-1.82-.29-2.34-.86s-.78-1.39-.78-2.44c0-.53.08-.99.23-1.4.15-.41.36-.76.64-1.05.28-.29.6-.5.99-.65.38-.15.81-.22,1.27-.22.96,0,1.68.27,2.16.82.48.55.72,1.29.72,2.22v.67h-4.33c.02.5.14.9.38,1.18.24.28.6.42,1.08.42.66,0,1.05-.28,1.17-.84h1.63ZM89.39,37.1c0-.43-.11-.77-.32-1-.21-.24-.54-.36-.99-.36-.22,0-.42.04-.59.11-.17.07-.31.17-.42.29s-.21.27-.27.43c-.06.16-.1.34-.11.53h2.69Z"/>
    <path class="cls-1" d="M95.53,32.38h5.61v1.53h-3.83v2.01h3.6v1.53h-3.6v3.47h-1.78v-8.54Z"/>
    <path class="cls-1" d="M103.03,35.98h-.98v-1.3h.98v-.2c0-.38.06-.71.17-.99.11-.28.27-.51.46-.68.2-.17.42-.3.69-.39.26-.08.55-.13.86-.13.2,0,.41.01.63.04s.44.07.68.14l-.23,1.22c-.25-.06-.5-.1-.73-.1-.22,0-.41.06-.59.19s-.26.34-.26.66v.24h1.45v1.3h-1.45v4.94h-1.67v-4.94Z"/>
    <path class="cls-1" d="M114.36,36.24h3.28v3.61c-.44.41-.96.72-1.57.94-.61.22-1.23.33-1.88.33-.68,0-1.27-.11-1.78-.32-.51-.22-.93-.52-1.26-.91-.33-.39-.59-.86-.75-1.42-.17-.55-.25-1.17-.25-1.84s.09-1.31.27-1.86c.18-.55.44-1.02.78-1.41s.75-.69,1.24-.9c.49-.21,1.03-.31,1.63-.31.55,0,1.02.07,1.42.2.39.14.73.32,1,.56.27.24.49.52.66.84.16.32.28.66.35,1.03l-1.77.23c-.05-.21-.11-.4-.17-.57-.07-.16-.17-.3-.29-.42-.13-.12-.29-.2-.48-.26-.19-.06-.43-.09-.72-.09-.69,0-1.21.26-1.55.78s-.51,1.25-.51,2.19.17,1.68.52,2.19.91.77,1.69.77c.37,0,.7-.04.97-.11s.54-.19.79-.35v-1.42h-1.63v-1.48Z"/>
    <path class="cls-1" d="M120.96,41.31c.03.16.08.29.14.38.06.1.14.17.24.23.1.06.22.09.36.11.14.02.31.03.51.03.31,0,.55-.06.73-.17.17-.12.3-.27.39-.46.08-.19.14-.41.16-.66.02-.25.03-.5.03-.77v-.19c-.21.3-.47.53-.79.69-.32.16-.69.23-1.09.23-.88,0-1.53-.28-1.97-.85-.43-.57-.65-1.33-.65-2.28,0-.45.06-.87.19-1.26.12-.38.3-.71.53-.99.23-.27.52-.49.85-.65s.72-.23,1.14-.23c.33,0,.66.06.97.19.31.13.6.36.87.71v-.71h1.63v5.37c0,.53-.05.99-.16,1.4-.11.41-.28.76-.51,1.05-.23.29-.54.5-.92.65-.38.15-.84.22-1.38.22-.5,0-.93-.04-1.29-.13-.35-.08-.65-.21-.88-.38-.23-.17-.41-.39-.53-.65-.12-.26-.21-.56-.25-.9h1.7ZM123.52,37.58c0-.37-.04-.68-.13-.91-.08-.23-.19-.41-.33-.53-.14-.12-.29-.21-.45-.25-.17-.04-.33-.06-.5-.06-.18,0-.36.03-.52.1-.16.06-.31.17-.43.31-.12.14-.22.33-.29.55s-.11.49-.11.8c0,.66.13,1.13.38,1.4s.56.41.94.41c.21,0,.4-.03.58-.09.18-.06.33-.16.46-.29.13-.13.23-.3.3-.51.07-.21.11-.47.11-.77v-.17Z"/>
    <path class="cls-1" d="M.75,48.03h1.78v3.3h3.38v-3.3h1.78v8.54h-1.78v-3.59h-3.38v3.59H.75v-8.54Z"/>
    <path class="cls-1" d="M9.55,48.03h1.67v3.08c.25-.33.53-.58.86-.74.33-.16.67-.24,1.03-.24.71,0,1.24.19,1.58.56s.51.95.51,1.75v4.12h-1.67v-3.9c0-.44-.08-.74-.25-.9-.17-.16-.39-.24-.67-.24-.22,0-.4.03-.56.1-.16.06-.3.16-.44.27-.11.11-.21.25-.28.4-.08.16-.11.33-.11.51v3.75h-1.67v-8.54Z"/>
    <path class="cls-1" d="M21.65,53.63c.02.26.06.48.12.69s.14.37.26.51c.12.14.26.25.44.32.18.07.4.11.68.11.49,0,.85-.15,1.08-.45.22-.3.33-.72.33-1.27v-5.5h1.78v5.61c0,.52-.08.97-.23,1.37s-.36.72-.64.99c-.27.26-.61.46-1,.59-.39.13-.83.2-1.3.2-1.05,0-1.85-.25-2.4-.77s-.85-1.31-.9-2.39h1.78Z"/>
    <path class="cls-1" d="M26.68,57.32c.25.06.49.1.71.1s.39-.05.52-.15c.13-.1.2-.31.2-.64v-6.3h1.67v6.26c0,.77-.17,1.32-.52,1.67-.35.35-.86.52-1.54.52-.2,0-.4-.02-.62-.05-.21-.03-.43-.08-.66-.16l.24-1.26ZM28.08,48.03h1.72v1.51h-1.72v-1.51Z"/>
    <path class="cls-1" d="M35.51,48.03h1.79v3.42l3.14-3.42h1.95l-2.83,3.2,3.14,5.33h-1.98l-2.4-4.17-1.02,1.04v3.13h-1.79v-8.54Z"/>
    <path class="cls-1" d="M43.68,48.03h1.64v4.47l2.4-2.18h1.94l-2.27,2.15,2.45,4.09h-1.81l-1.84-3.16-.87.79v2.37h-1.64v-8.54Z"/>
    <path class="cls-1" d="M53.86,48.03h1.78v7.01h4.04l-.19,1.53h-5.63v-8.54Z"/>
    <path class="cls-1" d="M60.96,48.03h1.67v8.54h-1.67v-8.54Z"/>
    <path class="cls-1" d="M67.88,48.03h2.14l2.13,6.37,2.19-6.37h2.08v8.54h-1.64v-5.69l-1.95,5.69h-1.39l-1.96-5.68v5.68h-1.6v-8.54Z"/>
    <path class="cls-1" d="M78.27,50.33h1.63v.84c.23-.35.5-.61.81-.78.31-.17.64-.25.98-.25.45,0,.83.09,1.11.27.29.18.49.45.61.8.29-.38.59-.66.91-.82s.67-.25,1.05-.25c.65,0,1.13.18,1.45.53.32.35.48.93.48,1.73v4.17h-1.67v-3.95c0-.22-.02-.4-.06-.54-.04-.14-.09-.25-.16-.33s-.15-.14-.25-.17c-.1-.03-.2-.05-.3-.05-.17,0-.32.03-.46.08-.14.06-.28.15-.41.29-.11.11-.2.24-.27.38-.07.14-.1.29-.1.45v3.83h-1.67v-3.95c0-.22-.02-.4-.06-.54-.04-.14-.09-.25-.16-.33s-.15-.14-.25-.17c-.1-.03-.2-.05-.3-.05-.17,0-.32.03-.46.08-.14.06-.28.15-.41.29-.11.11-.2.25-.27.4-.07.16-.1.33-.1.51v3.75h-1.67v-6.24Z"/>
    <path class="cls-1" d="M92,48.03h1.6l3.51,5.6v-5.6h1.73v8.54h-1.59l-3.53-5.55v5.55h-1.73v-8.54Z"/>
    <path class="cls-1" d="M100.71,50.33h1.63v.86c.25-.37.54-.63.88-.8s.69-.25,1.06-.25c.71,0,1.24.19,1.58.56s.51.95.51,1.75v4.12h-1.67v-3.9c0-.44-.08-.74-.25-.9-.17-.16-.39-.24-.67-.24-.22,0-.4.03-.56.1-.16.06-.3.16-.44.27-.11.11-.21.25-.28.4-.08.16-.11.33-.11.51v3.75h-1.67v-6.24Z"/>
    <path class="cls-1" d="M114.86,56.78c-.64,0-1.21-.1-1.71-.31s-.93-.51-1.28-.9-.62-.86-.81-1.41c-.19-.55-.28-1.17-.28-1.87s.09-1.31.28-1.86c.19-.55.46-1.02.81-1.41.35-.39.78-.69,1.29-.9.5-.21,1.07-.31,1.7-.31s1.21.1,1.71.31c.5.21.93.51,1.27.9s.61.86.79,1.41c.18.55.27,1.17.27,1.86s-.09,1.31-.27,1.87c-.18.55-.44,1.02-.79,1.41s-.77.69-1.27.9-1.08.31-1.72.31ZM114.85,55.25c.75,0,1.31-.25,1.67-.77.37-.51.55-1.24.55-2.19s-.18-1.67-.55-2.18c-.37-.51-.92-.77-1.67-.77s-1.31.26-1.67.77-.55,1.24-.55,2.18.18,1.68.55,2.19.92.77,1.67.77Z"/>
    <path class="cls-1" d="M123.43,56.76c-1,0-1.78-.29-2.33-.86-.55-.57-.83-1.39-.83-2.46,0-.51.07-.97.22-1.38.15-.41.36-.76.63-1.04.27-.28.61-.5,1-.65s.83-.23,1.3-.23.92.08,1.31.23.72.37,1,.65c.27.28.48.63.63,1.04.14.41.22.87.22,1.38s-.07.98-.22,1.39c-.15.41-.36.76-.63,1.05s-.61.51-1,.66c-.39.15-.83.23-1.3.23ZM123.43,55.42c.48,0,.83-.17,1.07-.51.24-.34.35-.83.35-1.47s-.12-1.12-.35-1.46c-.23-.33-.59-.5-1.07-.5s-.83.17-1.07.5c-.24.33-.35.82-.35,1.46s.12,1.14.35,1.48c.23.34.59.51,1.08.51Z"/>
    <path class="cls-1" d="M.75,63.68h3.05c.65,0,1.19.07,1.62.22.43.15.77.34,1.02.59.25.24.43.53.53.85.1.32.15.66.15,1.01,0,.38-.05.73-.15,1.08-.1.34-.27.64-.53.9-.25.26-.59.46-1,.62-.42.15-.95.23-1.58.23h-1.34v3.05H.75v-8.54ZM3.79,67.68c.31,0,.57-.03.77-.1.2-.06.36-.15.48-.26.12-.11.2-.25.25-.41.04-.16.07-.34.07-.53s-.02-.37-.07-.53-.13-.28-.25-.38c-.12-.1-.28-.18-.48-.24-.2-.06-.46-.08-.77-.08h-1.27v2.53h1.28Z"/>
    <path class="cls-1" d="M8.39,65.97h1.63v.83c.48-.68,1.13-1.02,1.96-1.02s1.52.29,1.95.88c.43.59.65,1.4.65,2.43,0,.49-.06.94-.19,1.35-.12.41-.3.76-.54,1.05-.24.29-.52.52-.85.68-.33.16-.71.24-1.14.24-.31,0-.62-.06-.93-.17-.31-.11-.6-.33-.87-.67v2.96h-1.67v-8.56ZM10.05,69.14c0,.41.03.73.1.97.07.24.18.44.33.59.16.14.32.24.48.28.16.04.33.07.5.07.18,0,.36-.04.53-.11.17-.07.31-.19.44-.34s.22-.36.29-.6c.07-.25.11-.55.11-.9s-.03-.67-.1-.92c-.07-.25-.16-.45-.28-.6-.12-.16-.26-.27-.42-.33-.16-.07-.34-.1-.52-.1-.21,0-.39.03-.54.08-.15.06-.3.14-.44.26-.16.15-.28.34-.35.57-.08.23-.11.53-.11.88v.19Z"/>
    <path class="cls-1" d="M24.32,72.06c-.54.25-1.16.37-1.84.37-.64,0-1.21-.1-1.71-.31s-.93-.51-1.28-.9-.62-.86-.81-1.41c-.19-.55-.28-1.17-.28-1.87s.09-1.31.28-1.86c.19-.55.46-1.02.81-1.41.35-.39.78-.69,1.29-.9.5-.21,1.07-.31,1.7-.31s1.21.1,1.71.31c.5.21.93.51,1.27.9s.61.86.79,1.41c.18.55.27,1.17.27,1.86s-.09,1.33-.27,1.87c-.18.55-.45,1.01-.81,1.39l1.04,1.28-1.08.91-1.09-1.34ZM22.28,69.53l1.08-.91.97,1.22c.24-.45.36-1.08.36-1.89,0-.94-.18-1.67-.54-2.18-.36-.51-.92-.77-1.67-.77s-1.31.26-1.68.77-.56,1.24-.56,2.18.19,1.68.56,2.21.93.78,1.68.78c.15,0,.3,0,.44-.03s.28-.05.41-.1l-1.04-1.28Z"/>
    <path class="cls-1" d="M32.41,71.44c-.22.32-.49.56-.84.72-.34.16-.69.25-1.05.25-.88,0-1.54-.29-1.97-.88-.43-.59-.65-1.41-.65-2.45,0-.49.06-.93.19-1.33s.3-.75.53-1.04c.23-.29.52-.52.85-.68.34-.16.72-.24,1.14-.24.33,0,.66.06.97.19.31.13.6.36.87.71v-.71h1.63v8.56h-1.67v-3.1ZM32.42,69.02c0-.4-.03-.72-.1-.96s-.18-.43-.33-.59c-.14-.14-.3-.24-.47-.28-.17-.04-.34-.07-.51-.07-.18,0-.36.04-.52.11-.16.07-.31.18-.43.33-.12.15-.22.35-.29.6-.07.25-.11.54-.11.88,0,.38.03.69.1.94.07.25.16.45.28.61s.26.27.42.33c.16.07.33.1.51.1.4,0,.73-.12.98-.35.16-.16.28-.35.35-.58.08-.23.11-.52.11-.88v-.21Z"/>
    <path class="cls-1" d="M38.84,63.68h3.02c.67,0,1.22.08,1.66.23.43.16.77.36,1.02.61.25.25.42.53.51.84.1.31.14.61.14.9,0,.55-.1,1.01-.3,1.39-.2.38-.53.69-1,.94l1.73,3.62h-1.92l-1.43-3.2h-1.67v3.2h-1.76v-8.54ZM41.99,67.53c.28,0,.51-.03.69-.09.18-.06.33-.14.44-.25s.18-.24.22-.39.06-.32.06-.5c0-.15-.02-.3-.07-.44s-.13-.26-.25-.37c-.12-.11-.27-.19-.48-.25-.2-.06-.46-.09-.77-.09h-1.23v2.38h1.39Z"/>
    <path class="cls-1" d="M46.76,65.97h1.63v.87c.21-.33.46-.57.75-.74.29-.16.61-.25.93-.25.16,0,.29,0,.39.02.1.01.2.03.27.04l-.2,1.52c-.19-.05-.43-.07-.71-.07-.18,0-.36.02-.53.07s-.32.13-.45.25c-.14.13-.25.27-.32.43-.07.16-.1.32-.1.49v3.61h-1.67v-6.24Z"/>
    <path class="cls-1" d="M56.31,69.43c.04.53.21.91.51,1.15.3.24.74.36,1.32.36.28,0,.51-.03.71-.09.19-.06.35-.14.47-.24s.21-.22.26-.35c.05-.14.08-.28.08-.44,0-.22-.08-.43-.25-.63-.17-.19-.47-.34-.92-.42l-1.11-.2c-.44-.08-.82-.18-1.16-.31-.33-.13-.62-.29-.84-.5s-.4-.45-.52-.75-.18-.65-.18-1.05.08-.77.25-1.08c.16-.31.39-.57.68-.78.29-.21.64-.36,1.05-.47.41-.11.85-.16,1.34-.16.62,0,1.14.07,1.55.21.41.14.75.33,1,.57.26.24.44.51.57.82.12.31.21.63.25.97l-1.69.22c-.09-.47-.26-.81-.51-1.02-.25-.21-.63-.31-1.14-.31-.3,0-.55.03-.75.08s-.35.12-.47.2c-.12.08-.2.18-.25.29-.05.11-.07.23-.07.35,0,.32.09.56.27.72.18.16.48.28.91.37l1.17.23c.92.18,1.6.48,2.03.89.43.41.65,1,.65,1.78,0,.38-.07.72-.21,1.03s-.35.59-.62.82c-.27.24-.62.42-1.03.55-.41.13-.9.2-1.46.2-1.16,0-2.05-.25-2.67-.75-.62-.5-.95-1.25-1-2.25h1.81Z"/>
    <path class="cls-1" d="M64.25,70.23c.06.37.2.61.44.72.24.11.53.17.86.17.4,0,.68-.05.85-.15.17-.1.26-.26.26-.48,0-.16-.05-.3-.16-.42s-.31-.2-.62-.25l-.86-.14c-.76-.12-1.32-.32-1.69-.62s-.56-.73-.56-1.32c0-.3.07-.57.2-.81.13-.24.32-.44.56-.61s.52-.3.85-.39c.33-.09.7-.14,1.09-.14.49,0,.91.05,1.24.15.33.1.61.23.82.4.21.17.37.37.48.6.11.23.19.48.23.74l-1.49.19c-.07-.29-.2-.5-.38-.63-.18-.14-.47-.2-.87-.2-.22,0-.41.02-.56.05-.15.04-.26.08-.35.14-.08.06-.14.12-.18.19-.04.07-.05.14-.05.2,0,.2.06.34.19.44.12.09.36.17.72.23l.79.13c.44.07.8.16,1.09.27.29.11.52.25.69.41.17.16.29.36.36.58.07.22.1.48.1.78,0,.59-.22,1.06-.67,1.42s-1.14.53-2.07.53c-.38,0-.73-.03-1.07-.1-.34-.07-.64-.19-.91-.35-.27-.17-.49-.39-.66-.67-.17-.28-.27-.63-.29-1.05h1.6Z"/>
    <path class="cls-1" d="M71.98,63.68h2.01l1.38,5.93,1.4-5.88h1.89l1.46,5.88,1.29-5.93h1.91l-2.32,8.54h-1.73l-1.59-6.31-1.54,6.31h-1.69l-2.46-8.54Z"/>
    <path class="cls-1" d="M83.74,65.97h1.82l.87,4.14,1.2-4.09h1.46l1.14,4.09.87-4.14h1.75l-1.82,6.24h-1.63l-1.11-4.11-1.12,4.11h-1.6l-1.82-6.24Z"/>
    <path class="cls-1" d="M99.11,67.72l-2.77-4.04h2.03l1.76,2.73,1.79-2.73h1.91l-2.73,4.09,3.06,4.45h-2.03l-2.07-3.11-1.98,3.11h-1.95l2.98-4.5Z"/>
    <path class="cls-1" d="M107.19,69.01l-2.04-3.04h1.97l1.06,1.78,1.2-1.78h1.75l-2.02,2.94,2.18,3.3h-1.94l-1.27-2.03-1.33,2.03h-1.82l2.26-3.2Z"/>
    <path class="cls-1" d="M117.59,68.74l-2.95-5.06h1.98l1.84,3.46,1.9-3.46h1.89l-2.88,5.06v3.48h-1.78v-3.48Z"/>
    <path class="cls-1" d="M123.04,73.1c.23.06.47.1.71.1.22,0,.4-.05.54-.16.14-.11.25-.3.35-.57l.19-.53-2.59-5.97h1.94l1.46,4.1,1.36-4.1h1.83l-2.52,6.42c-.14.36-.28.67-.41.94s-.27.49-.44.67c-.16.18-.36.31-.59.4-.23.09-.51.13-.84.13-.21,0-.41-.01-.62-.04-.2-.03-.42-.08-.64-.15l.27-1.24Z"/>
    <path class="cls-1" d="M.16,86.56l4.27-5.7H.24v-1.53h6.31v1.32l-4.26,5.69h4.45l-.18,1.53H.16v-1.3Z"/>
    <path class="cls-1" d="M7.76,86.73l3.04-3.8h-2.98v-1.3h5.1v1.14l-3.02,3.8h3.17l-.16,1.3h-5.15v-1.14Z"/>
  </g>
  <g>
    <path class="cls-1" d="M171.1,12.54c-.51.36-1.15.6-1.91.72-1.15.2-2.48.06-3.97-.41-.25-.09-.56-.21-.94-.36-.38-.15-.9-.38-1.57-.69-1.36-.6-2.63-1.08-3.81-1.43-1.27-.38-2.45-.61-3.54-.69-1.88-.16-3.54.12-4.98.85-.51.25-.93.56-1.28.94s-.59.77-.74,1.18c-.19.53-.19,1,0,1.41.02.06.03.11.02.18-.01.06-.05.1-.1.12-.11.06-.22.01-.33-.15-.14-.26-.21-.54-.19-.86.02-.31.07-.59.16-.85.35-.97,1.08-1.75,2.21-2.34.81-.41,1.64-.69,2.51-.84.86-.15,1.73-.19,2.62-.14,1.3.09,2.58.34,3.84.74,1.33.41,2.58.9,3.77,1.45,1.14.5,1.93.83,2.39,1,1.47.49,2.75.64,3.84.44.98-.15,1.78-.58,2.41-1.31.3-.56.67-1.07,1.13-1.53.44-.44.91-.75,1.41-.93.21-.07.43-.1.66-.08.23.01.45.09.68.22.12.07.22.16.3.27.07.1.13.19.16.28,0,0,0-.02.02-.03.01-.02.03-.04.05-.07.02-.03.04-.06.07-.09.28-.38.48-.51.62-.37.07.06.1.13.07.23-.03.1-.12.27-.28.5-.3.45-.56.88-.78,1.28-.29.55-.51,1.04-.65,1.47-.06.17-.11.38-.16.61-.04.23-.04.45,0,.66.04.25.2.41.46.48.24.06.48,0,.73-.15.52-.29,1.12-1,1.81-2.12.07-.1.13-.2.19-.29.2-.49.45-1.06.73-1.7.27-.6.44-.91.51-.94.08-.02.12.02.11.13,0,.1-.03.23-.08.39-.06.23-.16.52-.29.87-.11.3-.24.63-.39.99-.07.2-.14.38-.2.54h.03c.35-.5.67-.93.96-1.29.49-.6.92-1.03,1.27-1.29.29-.22.53-.31.72-.27.22.06.33.28.32.66,0,.31-.09.73-.26,1.28-.1.35-.25.74-.44,1.18-.04.11-.08.2-.11.29l.61-.81c.36-.5.69-.92.96-1.26.44-.59.79-.99,1.03-1.2.27-.25.48-.35.64-.31.17.03.26.15.28.34.01.16-.02.41-.1.75-.1.4-.27.96-.51,1.68-.29.82-.46,1.4-.52,1.75-.06.31-.03.52.07.63.07.07.24.04.49-.09.3-.15.7-.49,1.19-1.02.3-.31.62-.69.97-1.14.05-.06.1-.12.15-.18.31-.69.73-1.3,1.28-1.84.44-.44.91-.75,1.41-.93.21-.07.43-.1.66-.08.23.01.45.09.68.22.12.07.22.16.3.27.07.1.13.19.16.28,0,0,0-.02.02-.03.01-.02.03-.04.05-.07.02-.03.04-.06.07-.09.28-.38.48-.51.62-.37.07.06.1.13.07.23-.03.1-.12.27-.28.5-.3.45-.56.88-.78,1.28-.29.55-.51,1.04-.65,1.47-.06.17-.11.38-.16.61-.04.23-.04.45,0,.66.04.25.2.41.46.48.24.06.48,0,.73-.15.52-.29,1.12-1,1.81-2.12.1-.17.2-.32.28-.44.21-.72.52-1.57.93-2.56.51-1.22,1-2.34,1.49-3.35.64-1.33,1.23-2.44,1.78-3.35.52-.87.98-1.51,1.39-1.93.38-.41.71-.58.97-.52.14.04.25.13.31.25.06.13.1.27.12.42,0,.37-.06.82-.21,1.34-.15.52-.32.99-.51,1.39-.49,1.06-1.18,2.16-2.06,3.29-.58.73-1.19,1.43-1.83,2.09-.38.39-.76.74-1.14,1.05-.15.33-.32.77-.51,1.3-.19.53-.33,1.09-.44,1.68-.13.81-.06,1.32.21,1.52.23.18.58.12,1.05-.17.52-.32,1.12-.92,1.8-1.79.3-.38.52-.65.67-.81.04-.11.08-.22.12-.33.13-.36.27-.69.43-.98.23-.49.44-.79.63-.9.13-.05.19-.03.17.06-.02.09-.09.26-.2.51,0,.01-.01.03-.02.05-.2.41-.35.8-.47,1.15-.23.65-.37,1.2-.41,1.64-.03.27-.03.5,0,.69.05.28.17.45.35.51.14.05.3.05.48,0,.21-.07.45-.22.71-.46.19-.16.39-.37.61-.62.02-.02.04-.05.06-.08.1-.12.2-.25.31-.39.17-.2.32-.38.44-.53.04-.04.07-.08.1-.12.05-.06.1-.1.14-.15.19-.38.37-.74.54-1.06.23-.47.4-.77.49-.9.18-.23.29-.31.33-.23.04.07.02.23-.06.46-.16.48-.5,1.27-1.03,2.37h0s.06-.07.06-.07c.03-.04.06-.09.09-.14.42-.59.8-1.08,1.15-1.47.42-.5.78-.85,1.08-1.06.3-.21.57-.27.8-.19.26.1.36.35.31.75-.04.35-.21.88-.5,1.58-.29.69-.5,1.25-.62,1.69-.13.47-.17.8-.11.99.06.16.21.18.47.05.1-.06.2-.13.31-.22.11-.09.24-.22.4-.38l.07-.07c.14-.14.29-.3.44-.49s.38-.46.67-.84c.02-.02.05-.06.1-.12.06-.07.12-.15.2-.24.05-.13.14-.35.28-.68.33-.74.85-1.37,1.56-1.89.62-.41,1.17-.57,1.65-.48.49.09.79.35.92.8.06.27.04.55-.08.83-.11.28-.31.52-.6.72-.19.14-.46.25-.79.34-.34.08-.76.12-1.27.12-.19-.01-.35-.04-.5-.09-.15-.05-.22-.11-.22-.18s.14-.1.41-.08c.68.02,1.22-.06,1.62-.24.33-.14.57-.31.72-.5.14-.19.22-.37.24-.56.02-.19,0-.33-.04-.41-.15-.28-.44-.38-.85-.31-.42.07-.88.35-1.39.85-.56.59-.94,1.23-1.12,1.92-.1.46-.12.88-.05,1.25.09.42.3.72.63.91.43.21.94.18,1.51-.1.48-.24.91-.55,1.28-.93.19-.2.46-.54.81-1.01.21-.28.47-.63.77-1.04.73-.95,1.69-1.52,2.88-1.71,1.16-.2,2.49-.06,3.98.41.24.09.55.21.93.36.38.15.9.38,1.58.69,1.36.6,2.63,1.08,3.81,1.43,1.27.38,2.44.61,3.53.69,1.88.16,3.54-.13,4.99-.86.51-.24.93-.55,1.28-.93.35-.38.59-.77.74-1.18.19-.53.19-1,0-1.41-.02-.07-.03-.13-.02-.19.01-.06.04-.09.09-.11.12-.06.23,0,.34.14.14.27.2.55.18.86-.02.31-.07.59-.16.85-.34.97-1.07,1.75-2.2,2.34-.81.41-1.64.69-2.5.84-.86.15-1.73.19-2.62.14-1.3-.1-2.58-.35-3.84-.74-1.33-.41-2.59-.9-3.78-1.45-1.13-.51-1.92-.84-2.38-1-1.47-.49-2.75-.64-3.84-.45-1.09.17-1.96.69-2.61,1.57-.22.3-.42.6-.62.88-.2.28-.39.53-.57.74-.48.57-1,1.01-1.57,1.31-.67.39-1.28.52-1.82.4-.68-.2-1.1-.62-1.26-1.28l.03-1.04s-.03.04-.04.06c-.49.68-1.06,1.31-1.7,1.88-.44.35-.83.44-1.17.27-.35-.17-.44-.6-.27-1.32.12-.46.34-1.08.66-1.85.22-.5.36-.9.44-1.21.12-.47.12-.7.02-.7-.12-.04-.39.17-.81.61-.51.53-1.19,1.39-2.02,2.58-.08.11-.17.24-.28.38-.1.14-.19.27-.28.38-.05.07-.1.15-.17.24l-.33.44c-.14.2-.28.31-.41.35-.13.03-.2-.04-.2-.23,0-.06.1-.32.31-.78.07-.15.15-.32.22-.49-.17.22-.35.42-.52.58-.24.22-.49.38-.75.5-.34.16-.65.21-.92.16-.4-.09-.65-.37-.76-.84-.06-.33-.04-.74.06-1.24,0,0,0,0,0,0-.52.77-1.02,1.36-1.51,1.8-.7.62-1.3.86-1.81.71-.62-.2-.87-.82-.75-1.84-.47.81-1,1.38-1.58,1.7-.36.18-.71.24-1.05.19-.51-.11-.81-.36-.9-.75-.06-.23-.07-.48-.04-.74.02-.23.06-.44.12-.65-.01.01-.02.02-.03.04-.02.03-.05.06-.07.1-.42.57-.82,1-1.19,1.3-.56.44-1.03.59-1.42.44-.2-.08-.34-.21-.44-.38s-.16-.36-.18-.57c-.03-.32-.02-.63.04-.92,0,0,0-.02,0-.03-.17.23-.35.45-.52.65-.48.55-.93.92-1.34,1.11-.25.12-.48.16-.71.11-.27-.05-.42-.25-.47-.59-.02-.23.01-.51.09-.82.09-.41.26-.97.51-1.66.28-.8.45-1.36.53-1.69.05-.2.06-.32.03-.36,0,0,0,0,0,0,0,0,0,0-.01,0l-.02.02s-.01.01-.02.02-.02.02-.04.03c-.02.01-.03.03-.05.05-.16.15-.33.34-.52.57-.19.23-.33.41-.44.55-.06.07-.09.12-.09.13-.22.28-.49.64-.81,1.07-.28.38-.52.69-.7.94-.17.22-.31.4-.42.54-.12.16-.22.27-.3.34-.08.07-.14.11-.18.12-.04,0-.08,0-.12-.01-.09-.02-.14-.07-.15-.17-.01-.09.02-.25.09-.46l.33-.83c.13-.33.24-.64.33-.91.01-.02.02-.05.03-.07.17-.47.28-.85.33-1.13.06-.38.05-.57-.05-.58-.07-.04-.25.07-.52.31-.17.17-.38.4-.62.69-.48.57-1.06,1.37-1.74,2.41l-.09.13c-.2.31-.35.53-.45.67-.1.14-.18.22-.24.25-.06.02-.12.02-.19-.03-.05-.03-.05-.16,0-.38-.33.42-.69.73-1.07.94-.36.18-.71.24-1.05.19-.51-.11-.81-.36-.9-.75-.06-.23-.07-.48-.04-.74.02-.23.06-.44.12-.65-.01.01-.02.02-.03.04-.02.03-.05.06-.07.1-.42.57-.82,1-1.19,1.3-.56.44-1.03.59-1.42.44-.2-.08-.34-.21-.44-.38s-.16-.36-.18-.57c-.03-.32-.02-.63.04-.92.02-.09.04-.17.06-.25ZM173.2,13.36c.37-.43.92-1.17,1.64-2.22.17-.25.32-.47.43-.64.11-.17.17-.27.17-.28-.06-.32-.18-.53-.36-.63-.25-.16-.57-.17-.96-.01-.39.15-.78.43-1.19.83-.49.49-.88,1.1-1.15,1.83-.28.86-.31,1.44-.09,1.75.1.13.22.19.36.17.14-.02.29-.08.45-.18.13-.09.25-.19.37-.3.12-.11.22-.2.3-.28l.04-.04ZM187.97,13.36c.37-.43.92-1.17,1.64-2.22.17-.25.32-.47.43-.64.11-.17.17-.27.17-.28-.06-.32-.18-.53-.36-.63-.25-.16-.57-.17-.96-.01-.39.15-.78.43-1.19.83-.49.49-.88,1.1-1.15,1.83-.28.86-.31,1.44-.09,1.75.1.13.22.19.36.17.14-.02.29-.08.45-.18.13-.09.25-.19.37-.3.12-.11.22-.2.3-.28l.04-.04ZM198.23,4.01c.23-.43.44-.85.6-1.26.06-.14.14-.38.25-.73.11-.35.2-.69.25-1.03.03-.31,0-.5-.09-.56-.07-.04-.21.05-.42.27-.28.28-.62.75-1.02,1.4-.39.61-.81,1.36-1.26,2.25-.17.33-.5,1.01-.99,2.06-.2.45-.41.91-.62,1.38-.21.47-.39.87-.54,1.22.43-.4,1.01-1.05,1.74-1.94.86-1.08,1.56-2.1,2.09-3.05ZM198.34,8.48c-.12-.09-.14-.25-.05-.48.14-.28.28-.4.43-.34s.19.24.11.53c-.05.14-.12.23-.21.29-.09.06-.19.06-.28,0Z"/>
    <g>
      <path class="cls-1" d="M152.81,41.01s-.07-.01-.1-.04c0,0,0-.03,0-.06,0-.11.08-.39.24-.84.16-.45.39-1.01.68-1.68.29-.67.59-1.31.9-1.92l.09-.19s-.32-.07-.91-.17c-.59-.1-.94-.15-1.04-.15-.01,0-.03,0-.04,0-.01,0-.04.04-.09.12l-.12.17c-.81,1.25-1.52,2.25-2.15,3.03-.5.62-.9,1.04-1.21,1.24-.31.2-.62.31-.95.31-.35,0-.64-.2-.87-.6-.15-.31-.22-.65-.22-1.03,0-.43.07-.81.21-1.15.27-.63.73-1.19,1.37-1.65.5-.37,1.09-.63,1.75-.79.36-.08.74-.12,1.12-.12s.67.03.9.08l.26-.41c1.27-2.04,2.21-3.41,2.81-4.09.42-.48.77-.72,1.04-.72.19,0,.36.08.5.25.17.19.25.43.25.74,0,.34-.12.81-.37,1.41-.23.57-.59,1.31-1.08,2.23-.38.7-.56,1.06-.56,1.08,0,.01.09.03.26.06.17.02.38.04.64.06.28,0,.42.04.42.1,0,.03-.03.06-.1.1-.1.07-.29.11-.56.11-.22,0-.5-.03-.85-.08l-.22.47c-.26.55-.54,1.14-.82,1.79-.28.65-.51,1.19-.68,1.64-.19.5-.36.74-.51.74ZM148.19,40.48c.11,0,.22-.03.35-.09.53-.23,1.26-1.04,2.21-2.42.16-.23.46-.67.9-1.32.33-.5.5-.74.51-.74l-.58-.02c-.82,0-1.55.16-2.19.49-.69.34-1.21.83-1.56,1.49-.24.47-.35.92-.35,1.35,0,.49.11.85.33,1.08.11.12.25.19.4.19ZM154.76,35.95v-.03s.65-1.19.65-1.19c.43-.81.65-1.25.69-1.32.45-.92.68-1.63.68-2.11,0-.16-.02-.29-.07-.39-.05-.1-.11-.15-.2-.15-.32,0-.89.6-1.71,1.79-.34.51-.73,1.12-1.19,1.82-.5.77-.76,1.18-.78,1.24,0,0,0,0,.03,0l.33.04.47.08,1.11.22Z"/>
      <path class="cls-1" d="M159.72,40.42c-.06,0-.11,0-.17-.01-.38-.08-.61-.27-.67-.56-.03-.11-.04-.23-.04-.35,0-.22.04-.47.12-.74.02-.05.04-.07.04-.07.04-.02.07-.04.1-.08,0,0-.03.03-.06.07-.05.06-.1.13-.17.24-.31.43-.61.75-.9.97-.31.25-.6.38-.84.38-.08,0-.15-.01-.22-.04-.32-.13-.48-.45-.48-.97,0-.15.02-.31.05-.49s.08-.34.14-.49c.24-.58.58-1.1,1.04-1.56.33-.33.69-.56,1.06-.69.13-.04.27-.06.42-.06.02,0,.08,0,.18,0,.1,0,.23.06.4.16.09.06.16.12.22.2.06.08.1.15.12.22h-.01s0,0,0,0c0,0,.04-.06.11-.15.15-.21.28-.32.38-.32.03,0,.06.01.1.04.03.03.05.06.05.11,0,.02,0,.05-.02.1-.01.05-.08.16-.2.34-.23.34-.42.66-.58.96-.32.61-.53,1.13-.6,1.56-.01.09-.02.17-.02.26s0,.16.02.24c.03.19.15.31.35.36.05,0,.09.01.15.01.47,0,1.06-.57,1.76-1.72.26-.43.43-.65.51-.65.02,0,.03.01.03.04,0,.07-.04.22-.13.44-.45,1.05-.98,1.75-1.59,2.08-.21.11-.41.16-.62.16ZM157.18,39.84h.1c.15-.02.41-.21.77-.57.21-.21.63-.77,1.26-1.69.3-.44.45-.67.45-.69-.06-.38-.27-.56-.6-.56-.38,0-.81.23-1.28.7-.37.37-.66.83-.86,1.38-.12.36-.17.66-.17.89,0,.18.03.32.1.41.07.09.14.14.23.14Z"/>
      <path class="cls-1" d="M167.85,41.57c-.19,0-.39-.02-.58-.05-.55-.12-.97-.31-1.27-.57-.38-.35-.58-.75-.58-1.19,0-.51.24-.97.71-1.38.38-.32.92-.54,1.61-.64.04,0,.07,0,.09-.01.02,0,.04-.03.04-.07l.47-1.1c1.41-3.36,2.22-5.04,2.44-5.04.04,0,.06.03.06.08,0,.06-.03.19-.1.38-.06.19-.25.65-.57,1.37l-.34.78c-.26.62-.45,1.05-.56,1.31l-.22.51s.04-.05.12-.1c.17-.11.39-.24.65-.4.92-.53,1.64-1.06,2.17-1.59.66-.69,1.01-1.31,1.06-1.88v-.07c0-.31-.15-.59-.44-.85-.25-.22-.62-.37-1.1-.43-.08,0-.16,0-.24,0-.58,0-1.25.17-2.01.52-.6.28-1.17.63-1.71,1.05s-.96.87-1.29,1.34c-.09.13-.16.2-.21.2-.02,0-.04-.02-.04-.06,0-.05.03-.13.08-.25.11-.24.35-.54.71-.9.73-.74,1.48-1.3,2.27-1.69.77-.38,1.5-.56,2.19-.56.64,0,1.19.18,1.65.53.38.32.58.7.58,1.15,0,.48-.22,1-.64,1.57-.38.5-.91,1-1.59,1.5-.25.19-.54.37-.84.55-.07.04-.14.08-.2.12-.07.04-.12.08-.17.1-.05.03-.08.04-.09.04l.06-.02s.09-.03.15-.04c.06-.01.14-.02.22-.02.74,0,1.32.16,1.73.49.39.31.59.72.59,1.22,0,.17-.03.34-.08.53-.15.56-.44,1.09-.86,1.58-.46.54-1.02.98-1.67,1.34-.46.25-.93.44-1.42.54-.28.06-.55.09-.82.09ZM167.75,41.14c.39,0,.66-.02.8-.06.56-.12,1.08-.34,1.58-.64.62-.38,1.13-.83,1.53-1.36.36-.47.56-.95.61-1.45,0-.03,0-.06,0-.1,0-.06,0-.15-.02-.26-.01-.11-.05-.22-.1-.34-.12-.25-.34-.45-.65-.58-.31-.13-.68-.2-1.1-.2-.27,0-.56.03-.88.08-.18.03-.31.04-.4.04-.12,0-.19-.02-.22-.07h0c0,.06-.08.28-.25.66-.06.16-.13.32-.19.47-.06.15-.11.27-.14.37h0s0,.02.01.02c0,0,.04,0,.09,0,.32.05.68.14,1.08.28.33.12.57.23.7.32l.16.16h-.24c-.07,0-.3-.05-.69-.14-.35-.09-.6-.15-.77-.18-.13-.02-.24-.03-.32-.03h-.22s-.22.5-.22.5c-.27.6-.47,1.01-.6,1.22-.11.19-.21.28-.28.28-.1,0-.15-.05-.15-.15,0-.09.04-.22.12-.4.19-.4.33-.69.41-.88l.1-.22c.12-.26.19-.4.22-.42,0,0-.03.02-.07.04-.03.02-.08.04-.15.05-.45.08-.81.23-1.08.44-.38.31-.58.68-.58,1.09,0,.37.15.68.44.95.26.24.63.39,1.11.47.04,0,.1,0,.19,0h.14Z"/>
      <path class="cls-1" d="M175.04,40.41h-.08c-.22-.03-.4-.11-.52-.25-.18-.2-.3-.42-.35-.67-.07-.24-.11-.52-.11-.85,0-.71.17-1.6.5-2.66.13-.44.29-.89.49-1.38.76-1.95,1.46-3.4,2.09-4.35.37-.57.72-.92,1.06-1.06.07-.03.15-.04.22-.04.08,0,.17.02.25.06.21.13.32.37.32.7s-.08.72-.24,1.16c-.25.73-.67,1.53-1.25,2.4-.25.38-.58.81-.97,1.31-.54.69-1.04,1.28-1.51,1.76l-.37.39-.06.24c-.1.48-.15.92-.15,1.31,0,.33.03.61.1.85.04.17.1.31.17.42.11.19.24.28.4.28h.04c.17,0,.37-.14.58-.42.07-.09.14-.18.2-.29.06-.1.11-.18.13-.24-.1-.03-.21-.09-.33-.19-.18-.15-.3-.39-.38-.72-.03-.17-.05-.33-.05-.5,0-.61.18-1.04.54-1.31.13-.09.26-.13.38-.13.09,0,.18.03.26.08.19.15.32.42.37.82,0,.11.01.21.01.31,0,.37-.09.83-.28,1.38h.03c.12,0,.27-.03.45-.09s.35-.15.51-.27c.14-.12.29-.25.44-.4.19-.19.3-.28.35-.28.04,0,.06.02.06.06,0,.06-.04.14-.11.26-.15.25-.34.46-.56.63-.43.29-.83.44-1.21.44h-.12s-.04.07-.04.07c-.09.19-.19.36-.3.5-.32.44-.66.66-1.01.66ZM174.72,36.39c.24-.26.55-.62.92-1.07,1.06-1.31,1.86-2.49,2.39-3.54.38-.75.58-1.35.58-1.78,0-.21-.05-.37-.14-.49-.02-.04-.06-.06-.1-.06-.06,0-.15.05-.26.14-.19.15-.41.42-.67.81-.33.5-.68,1.12-1.04,1.87-.25.5-.49,1.05-.73,1.62-.45,1.05-.76,1.88-.94,2.49ZM176.15,38.8c.2-.52.3-.99.3-1.42,0-.34-.05-.57-.16-.69-.04-.05-.08-.07-.12-.07-.03,0-.07,0-.1.03-.29.18-.43.53-.43,1.07,0,.16.02.32.05.48.1.35.25.56.47.61Z"/>
      <path class="cls-1" d="M183.25,41.1c-.18,0-.35-.02-.52-.05-.52-.11-.95-.32-1.28-.65-.63-.64-.94-1.56-.94-2.75,0-.37.03-.75.1-1.15.14-.83.42-1.64.83-2.43.39-.76.9-1.43,1.53-2,.48-.43,1.02-.76,1.62-.99.41-.14.78-.22,1.13-.22h.12c.55.04.98.22,1.3.55.32.32.48.72.48,1.19,0,.09,0,.19-.02.29-.06.48-.32.97-.76,1.47-.38.4-.84.65-1.38.76-.18.04-.36.06-.53.06-.28,0-.55-.05-.81-.15-.38-.14-.65-.38-.83-.72-.04-.07-.06-.13-.06-.17,0-.05.02-.07.05-.07.04,0,.09.04.15.11.39.43.89.64,1.48.64.22,0,.44-.03.67-.1.53-.17.96-.51,1.3-1.02.25-.4.37-.78.37-1.12,0-.39-.13-.71-.38-.95-.2-.19-.45-.31-.75-.38-.12-.02-.24-.03-.37-.03-.32,0-.67.07-1.05.22-.57.23-1.09.56-1.55,1-.58.56-1.06,1.23-1.43,2-.37.77-.61,1.56-.71,2.36-.04.29-.06.57-.06.85,0,.54.08,1.04.23,1.5.2.59.53,1.02,1.01,1.29.34.2.73.31,1.17.31.39,0,.82-.12,1.27-.35.67-.34,1.39-.99,2.17-1.97.33-.41.54-.64.64-.69.03-.02.06-.03.08-.03.02,0,.03.01.03.04,0,.1-.1.3-.31.62-.37.55-.77,1.03-1.19,1.42-.39.38-.8.68-1.23.9-.52.28-1.04.42-1.56.42Z"/>
      <path class="cls-1" d="M188.71,40.42c-.1,0-.2-.01-.3-.03-.25-.06-.46-.18-.62-.35-.26-.28-.39-.66-.39-1.14,0-.37.09-.75.26-1.15.25-.56.64-1.03,1.17-1.42.38-.25.73-.37,1.04-.37.07,0,.13,0,.19.01.37.06.6.26.69.59.01.06.02.12.02.19,0,.15-.04.32-.11.51-.07.15-.17.31-.31.49-.19.2-.33.31-.43.31-.04,0-.06-.02-.06-.05,0-.06.05-.16.15-.3.28-.37.42-.69.42-.96,0-.09-.02-.17-.06-.24-.09-.17-.24-.25-.44-.25-.38,0-.79.22-1.24.66-.42.44-.7.92-.83,1.44-.05.2-.07.4-.07.58,0,.51.17.86.51,1.04.13.07.28.1.44.1.21,0,.44-.06.68-.18.54-.26,1.14-.8,1.81-1.6.3-.36.48-.54.55-.54.02,0,.03.01.03.03,0,.11-.16.38-.48.82-.5.67-1.01,1.16-1.54,1.47-.38.23-.74.34-1.06.34Z"/>
      <path class="cls-1" d="M196.35,41.3c-.14,0-.29-.01-.43-.03-.36-.07-.65-.2-.86-.4-.32-.29-.48-.68-.48-1.17s.18-1,.53-1.52c.35-.52.85-.91,1.51-1.17.21-.08.44-.13.68-.17.07,0,.12-.02.12-.05.02-.07.05-.14.09-.21,1.52-3.31,2.33-4.96,2.44-4.96.03,0,.05.03.05.08,0,.28-.45,1.39-1.35,3.33l-.11.25-.65,1.42-.04.11s0,0,.02,0l.26.03c.22.01.43.04.61.07.33.06.5.12.5.17,0,.01,0,.03-.03.03,0,.03-.27.04-.82.04h-.72s-.49,1.1-.49,1.1c-.31.7-.54,1.21-.7,1.51-.15.31-.26.46-.32.46-.04,0-.06-.03-.06-.1,0-.24.3-1.05.89-2.42.16-.35.25-.54.28-.57v-.02s0,.01,0,.01c0,0-.03.03-.07.05-.04.03-.09.05-.15.07-.56.18-1.03.45-1.38.81-.31.31-.52.65-.64,1.01-.07.2-.1.4-.1.59,0,.44.17.78.51,1,.22.15.53.23.92.23.8-.03,1.61-.34,2.42-.94.87-.64,1.63-1.46,2.3-2.46.53-.79.93-1.6,1.19-2.42.18-.57.27-1.13.27-1.67,0-.4-.07-.78-.2-1.12-.37-.91-1-1.36-1.88-1.36-.69,0-1.46.26-2.33.78-.72.43-1.49,1.04-2.29,1.83-.27.26-.45.4-.54.4-.02,0-.03,0-.03-.03s.01-.05.03-.09c.26-.4.71-.87,1.33-1.4.39-.34.78-.64,1.18-.9.98-.63,1.86-.94,2.65-.94.44,0,.83.09,1.17.28.48.26.84.7,1.1,1.31.17.39.25.82.25,1.3,0,.26-.03.54-.08.83-.28,1.33-.85,2.58-1.71,3.75-.75,1.03-1.6,1.85-2.54,2.47-.47.31-.94.53-1.41.66-.31.09-.61.14-.91.14Z"/>
      <path class="cls-1" d="M206.82,40.3c-.09,0-.18-.01-.27-.03-.32-.13-.53-.41-.62-.81-.04-.23-.06-.46-.06-.71v-.16l-.12.09c-.25.21-.49.38-.72.51-.38.22-.7.33-.97.33-.21,0-.38-.07-.51-.2-.11-.12-.17-.28-.17-.49v-.09c.04-.39.19-.76.43-1.1.25-.37.58-.66.97-.9.24-.14.5-.24.78-.3.17-.04.34-.06.5-.06.08,0,.17,0,.25.01.25-.75.5-1.42.75-2.04l.03-.1c.47-1.1.95-2.03,1.42-2.81.52-.82,1-1.39,1.46-1.7.22-.15.43-.22.62-.22.09,0,.17.02.25.05.27.12.4.37.4.74,0,.49-.18,1.13-.54,1.93-.34.76-.81,1.58-1.42,2.45-.73,1.06-1.55,2.05-2.47,2.98l-.52.53v.28c-.03.13-.03.25-.03.37,0,.18.02.33.05.47.09.41.27.61.54.61.16,0,.36-.07.6-.21.24-.14.51-.36.8-.67.21-.2.43-.44.65-.72.35-.45.56-.67.64-.67.03,0,.04.02.05.06,0,.06-.05.17-.16.35-.51.89-1.1,1.53-1.74,1.93-.31.19-.6.29-.87.29ZM204.06,39.19c.08,0,.19-.02.31-.06.31-.12.59-.27.87-.48.27-.2.5-.39.68-.57.06-.5.16-.96.3-1.4-.04,0-.09,0-.15,0-.31,0-.62.09-.94.26-.41.24-.75.54-1,.9-.26.38-.39.7-.39.97,0,.12.03.22.08.28.05.07.12.1.23.1ZM206.4,37.6l.54-.54c-.1-.13-.22-.23-.36-.3-.05.14-.11.42-.18.84ZM207.09,36.89c.2-.21.44-.47.7-.78.95-1.15,1.73-2.31,2.33-3.46.52-1.02.78-1.79.78-2.31,0-.31-.1-.47-.29-.47-.18,0-.44.16-.79.49-.43.41-.9,1.08-1.42,2.01-.26.5-.56,1.14-.9,1.93-.56,1.32-.84,2.05-.84,2.18h0s.07.06.18.14c.11.09.19.18.24.26Z"/>
      <path class="cls-1" d="M214.52,41.29c-.15,0-.3-.01-.44-.04-.39-.08-.69-.24-.9-.47-.29-.31-.43-.72-.43-1.2,0-.37.08-.76.24-1.18.14-.39.36-.79.64-1.19.44-.64,1-1.22,1.69-1.73.06-.04.11-.06.12-.08.02-.01.03-.03.05-.03h.02s.01,0,.01,0c-.27,0-.51-.11-.72-.33-.21-.22-.36-.48-.45-.8-.05-.17-.07-.33-.07-.5,0-.18.03-.36.08-.53.21-.64.58-1.2,1.1-1.68.72-.64,1.49-1.03,2.29-1.17.14-.02.27-.03.4-.03.29,0,.55.06.78.17.28.15.47.4.57.74.02.09.03.19.03.29,0,.33-.12.69-.35,1.08-.31.52-.72.9-1.23,1.14-.09.04-.18.06-.26.06s-.14-.01-.17-.04c0,0,0-.01,0-.02,0-.02.04-.06.12-.1.54-.31.93-.65,1.18-1.04.22-.34.33-.65.33-.94,0-.06,0-.13-.01-.19-.06-.39-.32-.64-.76-.73-.08-.02-.17-.03-.27-.03-.24,0-.52.05-.85.16-.68.25-1.25.62-1.69,1.12-.57.66-.86,1.3-.86,1.92,0,.46.19.78.57.97.15.07.33.11.53.12h.21s.28-.13.28-.13c.34-.17.59-.26.74-.26.07,0,.13.02.17.07s.06.09.06.14c0,.09-.06.18-.19.27-.17.12-.43.22-.77.29-.22.05-.53.23-.92.54-.39.31-.74.67-1.06,1.08-.36.44-.62.85-.8,1.24-.21.51-.31.95-.31,1.32,0,.52.16.89.47,1.12.12.09.28.15.45.19.14.03.29.05.44.05.67,0,1.39-.34,2.16-1.03.41-.37.86-.85,1.33-1.44.26-.32.47-.55.63-.69.1-.09.17-.13.22-.13.03,0,.05.02.05.06,0,.1-.19.42-.56.94-.76,1.05-1.55,1.79-2.36,2.24-.52.29-1.02.43-1.5.43Z"/>
      <path class="cls-1" d="M220.23,40.42c-.1,0-.2-.01-.3-.03-.25-.06-.46-.18-.62-.35-.26-.28-.39-.66-.39-1.14,0-.37.09-.75.26-1.15.25-.56.64-1.03,1.17-1.42.38-.25.73-.37,1.04-.37.07,0,.13,0,.19.01.37.06.6.26.69.59.02.07.03.15.03.22,0,.13-.04.29-.11.47-.07.18-.22.34-.42.49-.31.22-.81.33-1.47.33-.14,0-.26-.02-.38-.06-.18-.06-.27-.11-.27-.15,0-.04.07-.06.2-.06h.27c.44,0,.81-.06,1.08-.18.25-.11.43-.23.54-.39.12-.15.17-.31.17-.49,0-.1-.01-.17-.03-.22-.09-.17-.24-.25-.44-.25-.38,0-.79.22-1.24.66-.42.44-.7.92-.83,1.44-.05.2-.07.4-.07.58,0,.51.17.86.51,1.04.13.07.28.1.44.1.21,0,.44-.06.68-.18.54-.26,1.14-.8,1.81-1.6.3-.36.48-.54.55-.54.02,0,.03.01.03.03,0,.11-.16.38-.48.82-.5.67-1.01,1.16-1.54,1.47-.38.23-.74.34-1.06.34Z"/>
      <path class="cls-1" d="M227.55,41.26c-.12,0-.25,0-.38-.03-.5-.1-.89-.3-1.17-.61-.39-.45-.59-1-.59-1.63,0-.44.09-.87.26-1.28.18-.41.43-.77.76-1.07.55-.49,1.13-.74,1.74-.74.33,0,.66.07.99.22.25.12.38.23.38.33,0,.06-.04.1-.13.1,0,0-.04,0-.11,0-.06,0-.21-.05-.44-.13-.21-.07-.42-.1-.62-.1-.28,0-.56.07-.83.2-.39.19-.73.49-.99.88-.27.39-.44.81-.53,1.27-.02.14-.03.27-.03.4,0,.19.03.4.09.64.06.24.21.47.44.7.33.31.69.47,1.08.47.53,0,1.06-.25,1.59-.74.42-.39.81-.94,1.17-1.63.21-.42.48-1.05.82-1.91.22-.56.33-.88.33-.93,0-.03-.08-.04-.24-.04-.43.01-.82.07-1.19.17h-.06s-.06-.01-.06-.05c0-.05.03-.1.1-.16.13-.12.34-.2.62-.26.15-.03.3-.04.45-.04.12,0,.24,0,.35.03.09.02.13.06.13.12v-.02s.01-.07.04-.15c.03-.11.07-.23.12-.36.48-1.29,1-2.29,1.56-3l.03-.02s.07-.08.09-.1c.02-.02.05-.03.09-.03l-.15-.06c-.11-.04-.23-.09-.37-.15-.56-.24-1.04-.41-1.44-.51-.33-.08-.63-.12-.9-.12-.39,0-.77.09-1.13.26-.78.39-1.17.98-1.17,1.78,0,.33.09.65.28.94.23.35.55.57.97.65.07.01.15.02.24.02.22,0,.46-.05.72-.15.04,0,.07-.01.09-.01.04,0,.06.01.06.03v.04s-.03.08-.09.15-.12.12-.19.16c-.25.12-.5.18-.75.18-.18,0-.36-.03-.53-.1-.38-.14-.68-.39-.91-.74-.21-.33-.31-.71-.31-1.14,0-.3.06-.62.19-.96.23-.54.59-.93,1.08-1.16.47-.23.94-.35,1.42-.35.75,0,1.83.33,3.24.99l.06.02s-.01,0-.02-.01c-.03,0-.06-.02-.07-.04-.01-.02-.02-.04-.02-.07h0c.07-.08.14-.12.21-.13.07,0,.12.02.15.05.01.01.02.03.02.06,0,.03-.02.07-.05.12l-.04.08h.02c.51.21,1.05.31,1.62.31.97,0,1.98-.3,3.04-.9.38-.21.6-.32.69-.32.02,0,.03,0,.03.03,0,.01-.01.04-.03.08-.05.06-.23.21-.56.46-.3.23-.62.42-.97.57-.68.31-1.41.47-2.19.47-.19,0-.37,0-.55-.03-.43-.05-.89-.16-1.37-.33-.22.25-.47.62-.76,1.12-.26.45-.48.91-.67,1.36-.12.28-.21.53-.29.74-.08.21-.12.32-.13.33.05.02.23.07.55.14.28.07.52.1.72.1.16,0,.32,0,.47-.03h.18c.12,0,.19.01.19.06v.04s-.12.08-.35.16c-.18.06-.36.1-.56.1h-.22c-.12,0-.37-.05-.73-.14-.11-.03-.21-.08-.3-.15-.02-.02-.03-.03-.05-.03h0s-.03.05-.06.15c-.02.1-.07.27-.15.51-.33,1.04-.68,1.89-1.03,2.56-.49.92-1.04,1.57-1.65,1.95-.43.28-.88.42-1.35.42Z"/>
      <path class="cls-1" d="M234.27,44.62c-.09,0-.17-.02-.24-.05-.26-.1-.44-.35-.53-.76-.06-.29-.08-.55-.08-.78,0-.54.1-1.25.31-2.15.14-.64.21-.99.21-1.05s.02-.13.05-.2c.01-.03.03-.1.06-.22.03-.12.06-.26.1-.42.32-1.45.82-3.01,1.5-4.67.77-1.93,1.41-3.29,1.94-4.07.35-.53.66-.84.95-.93.07-.02.15-.03.22-.03.12,0,.23.03.33.09.25.15.38.43.38.85,0,.59-.23,1.37-.7,2.35-.22.49-.5,1-.83,1.56-.75,1.21-1.38,2.14-1.9,2.78-.47.6-.87,1.01-1.19,1.24l-.17.12c-.02.15-.1.47-.22.94.02,0,.05-.01.08-.01.1,0,.24.05.4.14.06.03.12.09.21.17s.16.19.24.31c.1-.06.23-.15.39-.3.16-.14.34-.31.52-.51.24-.25.46-.51.65-.78.26-.34.43-.51.49-.51.03,0,.04.03.04.09,0,.07-.04.17-.13.31-.2.33-.49.7-.87,1.12-.25.28-.5.52-.74.72l-.22.17c.16.41.24.87.24,1.38,0,.17-.01.34-.04.51-.05.5-.15.97-.31,1.4-.19.5-.43.85-.71,1.06-.14.1-.3.15-.46.15ZM234.3,44.31c.11,0,.22-.06.34-.17.18-.18.33-.44.45-.79.15-.4.25-.85.31-1.34.01-.17.02-.33.02-.49,0-.22-.01-.44-.04-.66s-.07-.41-.12-.58c-.08.06-.2.11-.35.16-.11.03-.21.05-.31.05-.08,0-.17-.01-.25-.03l-.15-.02s0,.05-.01.08c-.05.18-.11.47-.19.86-.09.45-.16.89-.19,1.32,0,.07,0,.15,0,.24,0,.15,0,.32.03.52.02.2.06.37.11.52.08.22.2.33.37.33ZM234.56,40.15c.16,0,.35-.05.56-.16-.03-.06-.09-.14-.17-.23s-.18-.15-.29-.19c-.04-.01-.08-.02-.12-.02-.14,0-.21.12-.21.35,0,.07.01.13.04.18.03.05.09.08.18.08ZM234.78,37.91l.34-.36c.2-.22.37-.41.51-.58.6-.78,1.15-1.56,1.63-2.33.84-1.33,1.4-2.46,1.69-3.38.12-.41.17-.74.17-1.01,0-.31-.06-.5-.17-.6-.04-.04-.09-.06-.15-.06-.06,0-.14.03-.23.08-.16.09-.33.26-.53.51-.25.35-.58.93-.97,1.74-.71,1.52-1.34,3.05-1.87,4.58-.21.63-.36,1.09-.44,1.4Z"/>
      <path class="cls-1" d="M240.78,42.85c-.15,0-.31-.02-.46-.07-.59-.3-.88-.74-.88-1.32,0-.26.07-.54.21-.82.21-.44.59-.81,1.13-1.11.33-.16.68-.28,1.04-.34.22-.04.41-.06.58-.06.21,0,.38.03.51.08l.15.06-.15.09s-.11.04-.23.06c-.12.03-.26.05-.41.06-.57.06-1.05.21-1.44.45-.63.43-.95.91-.96,1.47v.08c0,.1.01.2.03.31.02.1.08.21.18.32.21.24.44.35.7.35.38,0,.82-.25,1.33-.74.69-.66,1.51-1.8,2.49-3.41l.3-.49c.15-.24.25-.39.28-.46l-.08.1c-.31.26-.63.48-.96.67-.57.31-1.09.47-1.56.47-.57,0-1.01-.23-1.32-.68-.23-.36-.35-.81-.35-1.34v-.22c.06-.81.37-1.66.92-2.55.47-.75,1.05-1.41,1.74-1.97.44-.37.9-.66,1.39-.87.49-.22.97-.32,1.43-.32.52,0,.92.17,1.18.52.21.28.31.61.31.98,0,.64-.26,1.24-.78,1.79-.36.38-.84.64-1.46.79-.23.05-.46.07-.71.07-.39,0-.74-.06-1.04-.17-.23-.08-.38-.2-.46-.34-.02-.04-.03-.07-.03-.1,0-.03.02-.05.06-.05.06,0,.15.03.27.08.38.17.77.25,1.16.25.34,0,.67-.07.99-.2.4-.17.75-.41,1.03-.72.21-.23.37-.49.47-.79.06-.17.08-.34.08-.52,0-.19-.03-.37-.09-.56-.18-.46-.51-.69-1-.69-.76,0-1.63.41-2.6,1.22-.94.8-1.64,1.73-2.11,2.81-.17.38-.29.81-.34,1.29,0,.09-.01.18-.01.27,0,.18.02.38.07.6.05.22.16.45.33.68.19.24.46.36.8.36.46,0,1-.19,1.63-.57.49-.3,1.02-.71,1.6-1.25.26-.26.44-.39.56-.39.06,0,.09.03.11.1,0,.02.01.05.01.07,0,0,0,.02,0,.03s-.02.05-.04.09-.07.11-.14.18c-.26.36-.66.98-1.19,1.85-.65,1.09-1.23,1.98-1.74,2.65-.7.92-1.33,1.5-1.9,1.72-.22.09-.44.14-.66.14Z"/>
      <path class="cls-1" d="M246.88,45.87h-.01c-.31-.02-.5-.22-.56-.58,0-.09-.01-.18-.01-.27,0-.14.01-.28.03-.4.08-.51.3-1.08.64-1.71.3-.56.68-1.08,1.14-1.59.46-.5,1.03-1,1.71-1.5.16-.46.31-.88.45-1.26.22-.57.36-.92.41-1.03l.12-.26h.01s0,0,0,0c0,0-.01.03-.04.07-.03.04-.07.1-.12.18-.05.07-.1.15-.16.24-.21.3-.41.56-.6.8-.25.31-.49.55-.69.74-.26.21-.51.31-.76.31-.05,0-.1,0-.15-.01-.17-.03-.3-.1-.4-.21-.1-.11-.16-.23-.19-.36-.03-.13-.05-.27-.05-.41,0-.34.07-.66.22-.97.2-.44.49-.81.85-1.11.4-.31.82-.47,1.27-.47h.02c.4.02.71.17.92.44l.2-.27c.11-.14.19-.24.26-.3.06-.06.12-.09.17-.09.06,0,.1.04.13.13,0,0,0,0,.01,0,0,0,0,0,0,.01,0,.02,0,.06-.02.1-.02.06-.15.36-.39.9-.16.38-.35.85-.57,1.4-.25.64-.38,1.02-.41,1.12.36-.23.64-.41.85-.53l.2-.13c.59-.35,1-.6,1.24-.75.42-.27.7-.4.83-.4.03,0,.05,0,.06.01h0c0,.06-.1.17-.31.34-.26.2-.74.51-1.42.94-.43.26-.79.48-1.08.67-.17.11-.35.22-.53.33-.11.32-.22.65-.33,1-.41,1.31-.82,2.37-1.22,3.15-.6,1.16-1.17,1.74-1.71,1.74ZM246.87,45.5c.14,0,.31-.09.49-.26.27-.27.55-.69.85-1.24.22-.41.44-.87.65-1.39.09-.25.21-.57.35-.97.3-.86.46-1.29.49-1.29-.02,0-.25.2-.69.59-.52.47-.97.98-1.35,1.53-.66.97-.99,1.85-.99,2.63,0,.13.02.23.05.3s.08.11.15.11ZM248.47,39.24c.16,0,.34-.07.52-.22.3-.24.73-.78,1.31-1.61l.43-.63-.03-.05c-.19-.22-.41-.33-.67-.33-.31,0-.63.12-.96.35-.41.29-.71.71-.9,1.26-.04.11-.06.24-.08.41v.18c0,.11,0,.21.02.31.04.17.13.28.28.33.03,0,.06,0,.09,0Z"/>
      <path class="cls-1" d="M262.61,42.09s-.03,0-.03-.01-.01-.02-.01-.03c0-.1.08-.4.25-.89.17-.49.4-1.11.71-1.88.3-.76.62-1.54.96-2.31l.03-.06c.15-.38.25-.56.31-.56h-.15c-.1-.02-.23-.03-.38-.04-.15,0-.31-.02-.47-.03-.17-.01-.3-.03-.41-.04-.94-.1-1.45-.15-1.54-.15,0,0-.02,0-.02,0,0,0-.03.08-.1.23-.06.15-.14.33-.23.55-.24.58-.46,1.09-.65,1.53-.58,1.28-1.12,2.17-1.63,2.66-.35.35-.69.58-1.03.69-.18.06-.35.08-.51.08-.33,0-.62-.12-.86-.35-.38-.37-.56-.9-.56-1.6,0-.58.18-1.21.53-1.9.48-.9,1.16-1.53,2.04-1.9.6-.25,1.29-.38,2.07-.4h.63s.11-.26.11-.26c.39-.95.79-1.8,1.18-2.55.39-.75.72-1.29.99-1.62.03-.03.05-.05.07-.06h.02s-.02,0-.05,0c-.22.08-.66.12-1.31.12-.19,0-.39,0-.61-.01h-.56c-.66,0-1.22.03-1.69.11-.66.12-1.17.34-1.54.65-.34.3-.51.66-.51,1.08,0,.49.21.93.64,1.33.09.07.13.13.13.17s-.04.06-.12.06c-.12,0-.27-.07-.43-.21-.16-.14-.29-.31-.4-.5-.15-.3-.22-.59-.22-.87,0-.32.09-.63.27-.91.32-.5.9-.87,1.72-1.1.23-.06.45-.11.67-.14.37-.05,1.06-.08,2.07-.08.54,0,.93,0,1.19-.01.25,0,.45-.02.58-.05s.27-.06.41-.11c.14-.05.25-.07.33-.07.12,0,.19.04.19.12,0,.06-.04.13-.11.23-.34.41-.62.77-.82,1.09-.2.32-.44.76-.72,1.33-.13.28-.28.6-.44.95s-.3.65-.41.91-.17.4-.17.41l.49.05,1.05.12c.34.04.81.06,1.4.06.42-.98.89-2.05,1.43-3.22.27-.59.47-1,.6-1.21.11-.17.19-.26.25-.26.01,0,.03,0,.04.01.01,0,.02.02.02.05s-.01.09-.04.17c-.05.16-.27.72-.68,1.67-.46,1.06-.88,2-1.26,2.83.03-.03.07-.05.1-.06.14-.02.28-.05.4-.1.12-.05.29-.13.49-.25.19-.11.31-.16.38-.16.04,0,.06.01.06.04,0,.05-.06.13-.18.25-.33.33-.7.52-1.1.57-.14.01-.23.03-.26.04,0,.02-.04.11-.11.26l-.17.4c-.26.57-.46,1.04-.61,1.41-.79,1.96-1.3,3.14-1.51,3.54-.06.1-.12.15-.16.15ZM257.7,41.46c.27,0,.54-.1.82-.3.44-.31.89-.86,1.33-1.63.3-.51.73-1.46,1.3-2.85l.25-.6h-.47c-.81,0-1.51.15-2.13.47-.57.29-1.04.72-1.42,1.28-.45.73-.68,1.43-.68,2.11,0,.47.1.85.29,1.13.17.26.41.39.72.39Z"/>
      <path class="cls-1" d="M265.94,40.58s0-.01,0-.03v-.02c-.06,0-.12-.03-.17-.08,0,0,0,.01.01.01.01,0,.03-.06.05-.17.03-.18.11-.44.24-.78.28-.65.56-1.38.84-2.19.37-1.09.67-1.92.91-2.51.23-.58.52-1.2.85-1.84.4-.79.79-1.47,1.17-2.04.41-.62.77-1.09,1.09-1.4.26-.25.48-.38.65-.38.21,0,.31.22.31.66-.01.49-.15,1.05-.42,1.69-.23.54-.52,1.1-.89,1.69-.78,1.22-1.72,2.31-2.83,3.27-.05.04-.08.06-.1.06-.03,0-.05-.03-.05-.08s0-.09.01-.11.01-.04.02-.04h0v.04c-.05.15-.15.47-.31.95-.24.71-.47,1.35-.7,1.9l-.06.16c-.05.12-.08.2-.1.24v-.03h0s.03-.06.08-.15.21-.3.47-.65c.53-.71.96-1.27,1.31-1.67.52-.62.9-.93,1.13-.93.04,0,.07,0,.1.02.12.05.19.17.19.35,0,.2-.1.54-.3,1.02l-.04.1c-.06.12-.12.26-.19.4-.2.46-.36.83-.47,1.13-.11.31-.16.53-.16.67,0,.11.03.16.08.16.08,0,.23-.08.43-.24.29-.22.69-.58,1.21-1.09l.51-.51c.31-.3.51-.44.59-.44.02,0,.03,0,.03.03,0,.12-.22.41-.66.88-.47.5-.93.93-1.38,1.31-.07.06-.16.12-.28.19-.19.11-.34.16-.47.16-.21,0-.34-.09-.4-.26-.02-.05-.03-.11-.03-.19,0-.31.22-.96.67-1.94.21-.44.36-.78.43-1.03.06-.18.08-.29.08-.34,0-.02,0-.03-.01-.03-.19,0-.88.8-2.09,2.41l-.72.97c-.25.32-.42.53-.52.63-.05.06-.08.08-.1.08ZM267.66,36.24c.03-.06.27-.33.72-.82.86-.91,1.56-1.81,2.09-2.69.55-.92.88-1.77,1.01-2.55.04-.23.06-.4.06-.51s-.02-.17-.07-.17c-.03,0-.07.02-.12.06-.32.23-.72.73-1.2,1.49-.46.72-.91,1.55-1.36,2.48s-.82,1.84-1.12,2.72Z"/>
      <path class="cls-1" d="M148.87,61.39c-.13,0-.27-.01-.42-.04-.54-.1-.94-.33-1.2-.69-.26-.36-.39-.75-.39-1.19,0-.91.48-1.58,1.44-2.01.06-.02.12-.03.15-.03s.06.02.06.05c0,0,0,.03-.01.06s-.1.12-.28.26c-.27.19-.48.41-.64.65-.19.27-.28.6-.28.97,0,.47.13.84.39,1.11.29.31.69.46,1.19.46.38,0,.71-.1,1-.31.38-.25.75-.65,1.14-1.17.46-.63,1.03-1.7,1.7-3.19l.28-.6c.35-.77.56-1.24.63-1.4.31-.69.66-1.38,1.06-2.07.39-.69.75-1.23,1.06-1.61.04-.06.09-.12.15-.18.03-.03.06-.04.09-.04-.06,0-.16.02-.32.05-.15.03-.6.04-1.32.04-.36,0-.79,0-1.29-.01h-.1c-1.25,0-2.23.2-2.94.59-.29.16-.55.39-.79.7-.24.31-.4.67-.49,1.07-.03.17-.05.32-.05.47,0,.48.16.84.49,1.1.28.21.6.31.98.31.89,0,1.66-.46,2.33-1.37.13-.19.23-.28.29-.28.04,0,.06.03.06.1,0,.06-.02.15-.06.26-.2.5-.59.92-1.15,1.25-.51.29-1.02.44-1.53.44-.11,0-.21,0-.32-.02-.39-.07-.7-.22-.94-.44-.39-.38-.58-.86-.58-1.43,0-.4.1-.81.3-1.21.21-.44.56-.83,1.03-1.17.34-.25.8-.45,1.39-.58.58-.13,1.45-.19,2.61-.19h.24c.6,0,1.05,0,1.35,0,.3,0,.52-.02.67-.04s.31-.07.48-.12c.15-.05.26-.08.35-.08.1,0,.15.04.15.1,0,.09-.09.22-.27.41-.42.4-.85,1-1.31,1.79-.45.79-1.03,1.96-1.74,3.5-.71,1.56-1.34,2.79-1.88,3.66-.4.63-.78,1.11-1.16,1.45-.5.44-1.02.66-1.58.66Z"/>
      <path class="cls-1" d="M151.37,64.14c-.09,0-.18-.02-.26-.05-.26-.14-.4-.38-.4-.71s.13-.74.38-1.23c.25-.47.59-.95,1.02-1.44.4-.46.87-.89,1.4-1.28l.31-.23.12-.31c.33-.83.69-1.61,1.08-2.33.51-.96.87-1.44,1.07-1.44.03,0,.04.01.04.04,0,.01,0,.05-.02.11-.02.06-.12.25-.31.58-.32.58-.62,1.17-.9,1.76l-.15.35c-.16.35-.29.66-.38.93.49-.31,1.05-.71,1.69-1.21l.09-.06c.39-.31.75-.57,1.06-.79.31-.22.49-.33.53-.33.05,0,.08.01.08.04,0,.04-.07.13-.21.26-.14.13-.45.39-.93.77-.35.29-.63.51-.84.66h0c-.52.44-1.08.82-1.67,1.16l-.28.81c-.44,1.32-.79,2.23-1.06,2.72-.25.43-.51.75-.79.96-.24.17-.47.26-.67.26ZM151.38,63.8c.08,0,.18-.04.3-.11.12-.08.22-.17.31-.27.31-.34.59-.78.81-1.33.26-.64.48-1.23.65-1.76.08-.25.15-.44.2-.58-.48.38-.94.8-1.36,1.28-.21.24-.4.5-.57.76-.42.64-.63,1.17-.63,1.58,0,.19.05.32.15.39.05.02.09.03.14.03ZM156.15,54.5s-.09-.03-.12-.08c-.01-.02-.02-.05-.02-.08,0-.04.01-.09.04-.16.03-.07.07-.14.14-.21s.12-.11.18-.11c.12,0,.17.05.17.15,0,.06-.02.13-.06.22-.06.12-.14.2-.24.24-.03.02-.06.03-.09.03Z"/>
      <path class="cls-1" d="M162.66,59.48h-.04c-.45,0-.83-.17-1.12-.51-.26-.29-.4-.62-.4-.99,0-.4.14-.79.42-1.17.23-.3.54-.55.93-.75.38-.18.65-.27.82-.27.07,0,.11.02.11.07,0,.07-.16.19-.47.36-.49.26-.85.55-1.08.88-.2.27-.3.55-.31.84,0,.32.12.61.35.86.21.23.45.34.72.34.24,0,.48-.07.74-.22.45-.26.88-.73,1.3-1.41.18-.3.35-.63.5-1,.15-.37.26-.61.32-.73.04-.07.06-.11.06-.12,0,0,0,0-.01,0-.05.05-.15.09-.31.14-.3.07-.51.11-.65.11-.06,0-.1,0-.1-.03s.03-.05.1-.08c.08-.05.29-.13.63-.24.24-.09.36-.14.38-.15s.1-.2.25-.57c.75-1.91,1.63-3.4,2.63-4.46-.19.02-.46.04-.78.04-.16,0-.41,0-.75-.01-.34,0-.71-.03-1.09-.07-.42-.05-.8-.08-1.13-.08-.2,0-.38,0-.55.03-.81.08-1.35.41-1.65.97-.12.22-.17.46-.17.72,0,.44.14.87.41,1.27.25.38.58.66,1,.84.02.02.03.03.03.05,0,0,0,.02-.02.04-.01.01-.04.03-.09.04-.05.01-.09.02-.13.02-.16,0-.34-.08-.56-.23s-.4-.34-.55-.55c-.33-.47-.49-.94-.49-1.41,0-.65.28-1.19.83-1.62.25-.2.57-.35.94-.44.29-.07.58-.11.89-.11.34,0,.78.03,1.32.09.5.05,1.03.08,1.6.08s1-.02,1.22-.07c.11-.02.2-.03.27-.03.11,0,.17.03.19.08,0,.09-.09.23-.27.41-1.01,1.04-1.91,2.52-2.67,4.44l-.1.22h0v.03s0,.01.02.01c.04,0,.14-.03.31-.1.82-.45,1.57-1,2.24-1.65,1.03-.97,1.84-2.11,2.43-3.4.1-.22.18-.33.23-.33.03,0,.05.03.08.1,0,.03.01.07.01.11,0,.21-.1.52-.31.94-.29.59-.69,1.19-1.18,1.81-.47.57-1.05,1.12-1.73,1.66s-1.37.96-2.06,1.26c0,0-.01,0-.02.01,0,0-.01,0-.02,0,0,0,0,0,0,.01h0s0,.02.01.04.02.07.03.15c.02.08.03.16.05.26.15.88.34,1.56.55,2.03.2.44.45.75.74.9.23.12.5.19.81.19h.12c.4,0,.77-.13,1.11-.35.42-.27.91-.8,1.45-1.57.26-.37.42-.58.48-.62.04-.03.06-.04.08-.04s.03.01.03.04c0,.04-.03.12-.1.25-.89,1.77-1.96,2.65-3.21,2.65h-.1c-.8-.04-1.4-.47-1.8-1.31-.25-.53-.44-1.23-.56-2.09l-.02-.14c-.25.65-.51,1.21-.78,1.69-.7,1.22-1.49,1.84-2.37,1.86Z"/>
      <path class="cls-1" d="M173.64,58.92c-.1,0-.19-.01-.28-.04-.33-.12-.49-.36-.49-.72,0-.11.02-.24.06-.38.04-.14.06-.23.06-.27s-.03-.07-.08-.1c-.08-.05-.12-.1-.12-.15,0-.05.04-.1.12-.17.33-.15.64-.36.91-.63.27-.27.45-.53.54-.8.04-.12.06-.22.06-.32,0-.08-.02-.14-.06-.17,0,0-.02-.01-.04-.01l-.06.02c-.17.06-.44.31-.8.74-.28.33-.68.87-1.21,1.62-.23.33-.4.58-.52.73-.14.18-.25.27-.31.27-.04,0-.08-.02-.12-.06,0,0,0-.03,0-.05,0-.16.16-.62.49-1.4.33-.77.8-1.78,1.4-3.02.88-1.83,1.53-3.09,1.95-3.76.21-.34.42-.66.65-.95.52-.68.94-1.02,1.26-1.02.06,0,.12.02.17.06.11.07.17.22.17.43,0,.33-.11.74-.32,1.23-.32.76-.82,1.58-1.49,2.46-.6.78-1.29,1.56-2.08,2.34l-.51.51-.57,1.28c-.19.39-.31.66-.38.83-.04.08-.07.12-.08.12,0,0,0,0,0,0,0-.05.12-.25.35-.58.06-.09.12-.17.18-.25l.24-.33c.22-.29.39-.5.51-.65.28-.33.51-.56.7-.69.15-.1.28-.15.4-.15.1,0,.19.04.26.11.12.11.18.25.18.42,0,.21-.08.45-.23.72-.24.4-.63.76-1.17,1.1-.02.01-.03.02-.05.03-.06.03-.09.05-.09.06,0,0,.02.02.05.02.03.05.04.11.04.19,0,.08-.02.19-.06.33-.02.12-.03.23-.03.32s.01.17.03.24c.06.15.18.23.35.23.26,0,.56-.11.89-.33.29-.19.56-.44.83-.76.15-.18.28-.37.4-.59.06-.11.13-.21.2-.3s.12-.14.14-.14c.01,0,.02.01.02.03,0,.03-.01.08-.03.15-.03.09-.06.18-.1.27-.13.3-.31.59-.53.85-.36.41-.74.73-1.15.94-.23.12-.45.17-.65.17ZM173.32,54.57c.17-.19.34-.38.53-.58.74-.81,1.37-1.6,1.88-2.36.77-1.14,1.21-2.08,1.31-2.8v-.07c0-.09-.02-.14-.08-.14-.01,0-.05,0-.11.03s-.18.13-.37.35c-.34.38-.74.97-1.2,1.76-.23.4-.54,1-.94,1.8s-.72,1.47-.97,2l.03-.08-.08.1Z"/>
      <path class="cls-1" d="M179,60.22c-.07,0-.14,0-.21-.03-.18-.06-.31-.16-.41-.29-.1-.14-.14-.28-.14-.44,0-.17.04-.33.14-.49s.23-.28.43-.38c.18-.08.38-.12.62-.12.18,0,.37.02.58.06l.22.03s.07-.12.16-.35.19-.52.31-.86c.12-.34.23-.7.34-1.06.03-.08.04-.14.04-.17s0-.06-.02-.07c-.02-.01-.05-.03-.11-.05-.24-.09-.44-.25-.59-.49s-.27-.49-.34-.76c-.06-.22-.08-.43-.08-.63,0-.1.01-.25.04-.44.03-.19.12-.34.29-.44.04-.02.07-.03.09-.03.07,0,.1.08.1.24,0,.06,0,.13-.01.22-.01.13-.02.26-.02.38,0,.17.01.34.04.49.09.55.32.92.68,1.12.04.02.07.04.08.06s.02.02.03.02c0,0,.01-.05.01-.16.19-.69.43-1.4.72-2.13.3-.8.58-1.43.83-1.9.25-.44.51-.81.77-1.11.54-.58,1.04-.87,1.48-.87.4,0,.68.22.85.65.07.19.1.41.1.67,0,.52-.13,1.12-.39,1.81-.26.64-.58,1.22-.97,1.73-.44.57-.92,1.02-1.44,1.34-.49.3-.98.45-1.46.45h-.26c-.12.43-.26.85-.4,1.27-.16.44-.29.78-.4,1.01l-.08.19s.28.11.81.28.92.29,1.19.35c.25.05.5.08.74.08.45,0,.87-.09,1.25-.28.24-.12.41-.17.5-.17.05,0,.07.01.07.03,0,.04-.05.12-.16.22-.39.4-.9.6-1.53.6-.55,0-1.31-.16-2.31-.49-.49-.16-.73-.24-.74-.26,0,0-.06.09-.17.25-.19.29-.41.52-.63.68-.23.16-.44.25-.65.25ZM178.98,59.84c.06,0,.13-.01.2-.03.15-.06.34-.22.57-.45.19-.19.28-.32.28-.39,0,0,0-.02,0-.02-.09-.05-.24-.07-.46-.07-.62,0-.92.19-.92.58,0,.12.04.23.12.31.06.05.13.08.22.08ZM181.63,55.84l.27-.02c.49-.04.98-.25,1.47-.64.47-.37.9-.83,1.27-1.4.32-.49.58-1.01.76-1.57.14-.44.21-.86.22-1.29,0-.26-.03-.47-.08-.63-.09-.27-.23-.41-.42-.41-.28,0-.62.2-1,.6-.55.56-1.07,1.44-1.55,2.61-.23.57-.49,1.29-.76,2.16-.11.35-.17.54-.17.58Z"/>
      <path class="cls-1" d="M186.38,59.13c-.08,0-.16-.01-.23-.03-.39-.13-.58-.47-.58-1.03,0-.69.31-1.77.92-3.24.38-.92.75-1.75,1.12-2.51.48-1,.92-1.83,1.33-2.51.39-.65.74-1.13,1.04-1.44.25-.26.47-.4.65-.4h.08c.11.04.19.1.24.19.06.12.08.23.08.35,0,.27-.05.6-.16.99-.31,1.07-.95,2.24-1.93,3.49-.79,1-1.53,1.78-2.23,2.35-.12.25-.24.58-.38.98-.14.4-.25.82-.33,1.26-.03.2-.05.37-.05.52,0,.31.07.52.21.62.06.05.14.08.24.08.15,0,.33-.07.55-.2.39-.24.84-.69,1.35-1.34.33-.43.54-.67.62-.74.05-.03.08-.05.1-.05.02,0,.03.01.03.03,0,.09-.13.33-.4.72-.39.57-.77,1.02-1.13,1.35-.42.38-.8.57-1.13.57ZM186.97,54.7c.32-.3.76-.78,1.31-1.45.95-1.19,1.63-2.27,2.02-3.23.04-.1.11-.28.19-.55.12-.4.19-.71.19-.93,0-.14-.03-.23-.08-.26h-.03c-.06,0-.16.06-.28.2-.21.21-.46.56-.76,1.05-.29.46-.61,1.02-.94,1.69-.13.25-.38.76-.74,1.54-.44.99-.73,1.63-.87,1.94Z"/>
      <path class="cls-1" d="M193.4,59.93c-.38,0-.73-.12-1.04-.38-.4-.33-.63-.77-.7-1.31v-.22c0-.64.2-1.07.6-1.31.04-.02.07-.03.11-.03.05,0,.09.02.11.06v.03s0,.05-.02.07c-.28.32-.42.7-.42,1.14,0,.38.11.71.32.99.29.38.65.57,1.06.57h.07c.47-.03.9-.24,1.3-.62.38-.36.77-.96,1.19-1.81.34-.68.73-1.56,1.17-2.64l.44-1.1c.42-1.02.85-1.9,1.29-2.62.27-.44.47-.69.6-.74.04,0,.07-.01.1-.01.11,0,.17.07.17.22,0,.11-.03.26-.08.44-.09.31-.16.66-.21,1.04-.05.38-.1.93-.15,1.65l-.1,1.02c-.02.27-.03.45-.03.52h0c.47-.81.9-1.45,1.28-1.9.34-.4.8-.84,1.38-1.31.39-.33.71-.6.93-.8.23-.21.46-.43.71-.68.17-.16.31-.28.4-.37s.17-.12.22-.12c.04,0,.08.02.11.05.03.03.05.07.05.11,0,.03-.01.07-.03.12-.02.05-.1.15-.24.3-1.15,1.29-2.09,2.8-2.81,4.54-.47,1.13-.7,2.09-.7,2.86,0,.52.11.89.33,1.09.13.12.28.19.46.19.37,0,.79-.24,1.26-.73.19-.21.39-.47.59-.77.38-.6.6-.93.67-.99l.17-.14-.02.22c-.06.35-.22.72-.47,1.1-.25.38-.53.72-.86,1.02-.48.44-.92.65-1.33.65-.16,0-.31-.03-.43-.08-.5-.22-.75-.75-.75-1.58,0-.68.16-1.48.49-2.42.36-1.04.91-2.14,1.65-3.3l.19-.27c-.19.16-.46.4-.79.71-.34.31-.59.56-.76.75-.38.44-.77.99-1.16,1.64s-.71,1.3-.98,1.94c-.08.21-.15.35-.2.42s-.12.11-.19.11c-.12,0-.18-.05-.18-.15,0-.06.02-.13.06-.22.11-.26.19-.46.24-.59.05-.13.09-.27.12-.41.09-.32.16-.66.21-1.02.05-.36.1-.86.14-1.49l.03-.35c.02-.24.05-.53.08-.88.04-.35.09-.71.15-1.07l-.08.12c-.34.54-.88,1.74-1.64,3.61-.42,1.03-.76,1.84-1.04,2.42-.41.84-.82,1.47-1.25,1.87-.09.08-.18.16-.27.24-.49.41-.98.61-1.48.61Z"/>
      <path class="cls-1" d="M208.97,58.94s-.1,0-.15-.01c-.2-.04-.32-.19-.35-.44v-.1c0-.32.15-.91.45-1.76.29-.82.43-1.32.43-1.48,0-.03,0-.05-.01-.06l-.07.07c-.09.07-.24.23-.43.46-.25.31-.39.48-.41.52-.02.03-.4.54-1.12,1.5-.27.37-.45.59-.53.66-.07.06-.13.09-.17.09-.02,0-.04,0-.06-.01-.07-.01-.11-.07-.11-.16,0-.07.02-.17.07-.31.32-.8.49-1.25.52-1.36.19-.5.28-.88.28-1.12,0-.12-.03-.17-.09-.17-.06,0-.19.08-.36.24-.44.42-1.03,1.19-1.77,2.32l-.07.1c-.15.23-.26.4-.33.5-.1.13-.17.19-.23.19-.08,0-.12-.04-.12-.12,0-.29.37-1.25,1.1-2.9.21-.47.34-.71.41-.71.04,0,.06.03.06.08,0,.07-.02.18-.06.31-.08.3-.25.76-.51,1.4-.09.23-.16.42-.22.58-.06.16-.09.23-.1.24,0,0-.01,0-.01-.01v-.05c.06-.11.12-.23.2-.35.26-.38.5-.7.72-.97.64-.78,1.12-1.17,1.43-1.17h.06c.16.05.24.21.24.48,0,.25-.06.57-.19.98-.08.26-.19.55-.33.88-.04.1-.08.19-.1.27-.04.12-.07.18-.08.18h0s0,0,0-.01c0-.03.04-.1.12-.22l.45-.6c.27-.38.51-.69.72-.94.33-.44.59-.74.76-.9.18-.16.32-.24.44-.24h.05c.14.03.21.14.21.31,0,.12-.03.29-.08.51-.08.3-.21.72-.38,1.26-.27.77-.41,1.28-.41,1.53,0,.12.03.21.08.26.02.02.05.03.08.03.37,0,1-.57,1.9-1.72.25-.3.4-.45.45-.45.01,0,.02.01.02.03,0,.07-.1.26-.3.57-.23.35-.45.65-.67.9-.36.41-.7.69-1.01.83-.13.06-.26.1-.39.1Z"/>
      <path class="cls-1" d="M220.35,59.84s-.08-.02-.12-.07c-.02-.02-.03-.06-.03-.1,0-.06.03-.18.1-.36.1-.31.2-.67.28-1.08s.16-.81.21-1.2c.03-.25.04-.79.04-1.63v-1.81s-.01-.56-.01-.56c0-.34,0-.63.03-.88.02-.35.07-.7.15-1.05-.33.74-.64,1.46-.92,2.18-.31.79-.57,1.41-.75,1.87-.19.45-.35.82-.5,1.1-.8,1.56-1.69,2.59-2.66,3.09-.37.19-.72.28-1.06.28-.27,0-.54-.06-.79-.19-.25-.14-.43-.33-.55-.57s-.17-.49-.17-.75.07-.5.2-.74c.12-.21.29-.36.51-.46.06-.02.12-.03.17-.03.08,0,.13.02.15.06v.02s-.02.06-.08.1c-.37.26-.55.6-.55,1v.05c0,.26.07.5.22.71.15.21.37.34.65.4.08.01.16.02.24.02.38,0,.76-.13,1.15-.4.6-.39,1.18-1.05,1.74-1.96.35-.56.68-1.23,1-2.01l.72-1.79c.87-2.19,1.45-3.29,1.74-3.29.12,0,.17.06.17.18,0,.11-.04.3-.11.58-.14.49-.23,1.04-.27,1.66-.02.33-.03.76-.03,1.3,0,.47,0,1.01.02,1.64v.56c0,.49-.02.98-.06,1.47,1.01-2.52,1.92-4.34,2.74-5.47.65-.89,1.44-1.63,2.35-2.2.14-.09.3-.18.49-.27.36-.18.6-.26.72-.26.02,0,.04,0,.06.02.01.01.02.03.02.06,0,.02-.03.06-.09.1-.06.05-.29.21-.7.48-.56.35-1.05.73-1.48,1.12-.43.4-.84.87-1.23,1.43-.4.57-.81,1.3-1.24,2.17-.58,1.21-1.29,2.86-2.11,4.96-.12.35-.25.53-.36.53Z"/>
      <path class="cls-1" d="M226.23,59.09c-.09,0-.17-.02-.26-.06-.18-.08-.26-.26-.26-.53,0-.34.19-.96.56-1.85.27-.62.4-1.06.4-1.32,0-.08-.02-.12-.06-.12h-.02c-.1,0-.29.15-.59.46-.38.4-.89,1.04-1.51,1.94-.36.5-.63.86-.79,1.08-.13.18-.25.27-.35.27-.07,0-.1-.06-.1-.18,0-.08.26-.66.79-1.74.52-1.08.84-1.7.96-1.85.1-.13.17-.19.22-.19.03,0,.05.03.05.1,0,.19-.28.88-.83,2.04l-.03.08c-.11.23-.18.36-.22.38,0-.08.1-.25.3-.51l.07-.1c.99-1.38,1.69-2.06,2.11-2.06.06,0,.11,0,.16.03.16.06.24.2.24.42,0,.26-.13.71-.39,1.33-.38.89-.57,1.51-.57,1.85,0,.06,0,.12.02.16.02.06.07.1.14.1.06,0,.13-.02.22-.06.12-.07.3-.22.54-.45.14-.14.27-.28.39-.42l.58-.72c.31-.38.5-.58.58-.58.03,0,.05.03.05.06,0,.11-.12.32-.36.63l-.11.15c-.37.51-.8.98-1.28,1.41-.23.18-.43.26-.62.26Z"/>
      <path class="cls-1" d="M233.48,59.59c-.19,0-.36-.02-.54-.06-.52-.15-.9-.48-1.13-.98-.2-.44-.31-.97-.31-1.6,0-.78.16-1.64.49-2.56.35-.98.87-1.91,1.56-2.8.36-.45.73-.83,1.1-1.15.38-.32.65-.48.83-.48h.2l-.1.12-.13.12c-1.32,1.09-2.29,2.41-2.92,3.95-.42,1.02-.62,1.97-.62,2.83,0,.67.13,1.2.4,1.61s.65.61,1.15.61c.36,0,.79-.12,1.29-.37.53-.27,1.03-.64,1.52-1.11.48-.47.93-1.01,1.33-1.61.77-1.17,1.27-2.34,1.51-3.51.06-.32.09-.63.09-.92,0-.39-.06-.74-.17-1.06-.27-.64-.65-.98-1.14-1.01h-.11c-.53,0-1.05.25-1.58.76-.35.34-.64.77-.88,1.28-.23.51-.35,1.08-.35,1.69,0,.8.16,1.31.47,1.54.16.12.36.19.6.19.1,0,.2,0,.31-.03.17-.03.3-.04.4-.04.12,0,.18.02.18.06,0,.05-.1.11-.29.2-.28.12-.53.19-.76.19-.09,0-.23-.03-.42-.08-.19-.05-.37-.2-.54-.46-.26-.39-.39-.9-.39-1.52,0-.49.09-1,.27-1.53.25-.75.69-1.4,1.31-1.95.58-.45,1.12-.68,1.63-.68.12,0,.24.01.35.03.64.15,1.1.6,1.36,1.33.11.31.16.66.16,1.05,0,.28-.03.57-.08.89-.13.73-.36,1.44-.68,2.14-.32.7-.7,1.35-1.14,1.97-.54.75-1.14,1.39-1.79,1.91-.51.41-1.02.7-1.54.89-.32.11-.62.17-.92.17Z"/>
      <path class="cls-1" d="M240.49,58.87c-.07,0-.14,0-.21-.03-.27-.08-.44-.27-.51-.56-.02-.07-.03-.16-.03-.25,0-.11.01-.22.03-.34.06-.3.16-.6.3-.89.12-.28.27-.49.42-.63.05-.04.1-.12.13-.22.09-.3.27-.54.53-.72.21-.17.44-.25.67-.25.05,0,.1,0,.15.01.3.07.5.26.58.56.04.13.06.27.06.43,0,.21-.04.44-.11.7-.08.26-.19.54-.35.85h.01c.38-.06.85-.33,1.4-.78.16-.14.27-.21.33-.21.03,0,.05.02.05.06,0,.1-.11.25-.33.43s-.47.36-.75.52-.52.26-.73.31c-.06.01-.11.02-.14.03-.03,0-.05.02-.07.03-.02.02-.04.04-.06.07-.27.37-.58.62-.92.77-.17.07-.32.11-.47.11ZM240.49,58.5c.11,0,.25-.04.42-.12.08-.04.16-.08.22-.13.08-.06.22-.19.42-.39-.57-.15-.9-.53-.99-1.13v-.02s-.07.14-.07.14c-.22.47-.33.86-.33,1.17,0,.19.05.33.15.42.05.05.11.07.19.07ZM241.71,57.55s.09-.07.16-.2c.28-.51.42-.96.42-1.35,0-.35-.09-.58-.26-.68-.05-.03-.11-.05-.17-.05-.09,0-.2.03-.33.09-.3.16-.49.4-.58.73-.04.13-.06.27-.06.4,0,.22.05.43.16.62.12.22.3.36.55.42.04,0,.07.01.1.01h.01Z"/>
      <path class="cls-1" d="M248.44,60.23c-.1,0-.2,0-.31-.03-.38-.06-.69-.22-.92-.46-.26-.27-.4-.58-.4-.92,0-.2.05-.46.15-.78s.22-.64.38-.96c.12-.24.2-.36.24-.36,0,0,.02.02.02.05,0,.15-.05.42-.16.81-.16.54-.24.95-.24,1.22,0,.02,0,.1.01.24,0,.14.11.3.32.47.25.23.53.34.82.34.36,0,.72-.14,1.07-.42.45-.36.87-.92,1.26-1.69l.21-.44c.1-.22.31-.75.64-1.57.39-.97.8-1.85,1.24-2.65.42-.76.83-1.37,1.22-1.83s.72-.69.98-.69c.1,0,.15.02.15.06,0,.01-.01.05-.04.09-.03.05-.14.17-.35.38-.85.84-1.62,2.03-2.31,3.58-.09.2-.14.31-.14.32v-.04s-.01,0-.01-.01.02-.03.06-.06c.42-.38,1.06-.67,1.94-.88.31-.08.54-.12.69-.12.06,0,.09,0,.09.03,0,.06-.29.2-.88.42-.67.26-1.19.53-1.54.81-.33.26-.49.5-.49.74,0,.1.03.2.1.3.15.2.38.31.68.31.47,0,.99-.19,1.56-.58.4-.27.77-.63,1.1-1.06.48-.65.8-1.31.97-1.97.09-.37.14-.72.14-1.06,0-.4-.07-.77-.2-1.11-.23-.58-.64-1-1.25-1.24-.31-.12-.64-.18-.97-.18h-.17c-.67.05-1.31.27-1.93.65-.82.52-1.44,1.2-1.85,2.02-.21.43-.31.86-.31,1.29,0,.3.06.6.18.88.03.06.04.09.04.12s-.01.04-.03.04c-.02,0-.05-.02-.09-.05s-.09-.08-.15-.14c-.05-.06-.09-.11-.12-.16-.12-.28-.19-.57-.19-.88,0-.34.08-.69.24-1.06.3-.69.78-1.32,1.44-1.88.58-.5,1.22-.85,1.92-1.07.34-.1.67-.15,1.01-.15.11,0,.21,0,.32.01.87.11,1.52.46,1.96,1.03.4.53.6,1.17.6,1.9,0,.59-.14,1.22-.41,1.87-.21.49-.5.98-.88,1.47-.52.63-1.1,1.1-1.74,1.38-.42.19-.81.28-1.17.28-.55,0-.92-.22-1.11-.65v-.02c-.69,1.77-1.38,2.95-2.1,3.56-.39.32-.81.48-1.26.48Z"/>
      <path class="cls-1" d="M255.31,62.39s-.06-.01-.1-.03-.06-.05-.06-.1c0-.08.05-.26.16-.56.37-.99.75-1.98,1.15-2.98.35-.88.67-1.66.97-2.33.5-1.15.81-1.73.92-1.73.03,0,.05.04.05.13,0,.12-.24.75-.72,1.89l-.53,1.31c0-.06,0-.11,0-.14,0-.06.05-.15.12-.26.49-.88.96-1.59,1.43-2.13.34-.4.66-.6.97-.6.38.02.57.26.58.74,0,.3-.06.56-.15.78l-.03.11c.12,0,.33-.05.62-.14.18-.05.34-.1.48-.16.17-.07.29-.1.37-.1.06,0,.1.02.1.06,0,.02-.01.05-.04.08-.21.21-.65.39-1.3.52l-.36.07-.16.26c-.24.38-.48.69-.74.93-.3.27-.56.4-.77.4-.11,0-.2-.05-.27-.14-.03-.06-.05-.13-.05-.2,0-.12.04-.25.12-.39.16-.27.41-.53.74-.76.28-.19.56-.31.85-.37.05-.08.09-.19.13-.32.08-.26.12-.48.12-.65,0-.31-.08-.47-.24-.47-.07,0-.15.03-.25.1-.37.27-.78.76-1.22,1.47-.31.49-.64,1.06-.99,1.73-.38.75-.77,1.62-1.19,2.61-.19.44-.28.67-.29.7-.09.21-.16.36-.21.47-.06.13-.13.19-.19.19ZM258.3,58.11s.1-.03.2-.09c.09-.06.19-.13.28-.21.09-.08.16-.15.2-.19,0-.01.02-.02.03-.03.24-.25.41-.49.52-.72-.07,0-.18.06-.31.15-.38.24-.66.51-.85.8-.07.11-.1.19-.1.24,0,.03.01.05.04.05Z"/>
      <path class="cls-1" d="M268.73,59.82c-.09,0-.19,0-.29-.02-.37-.05-.83-.26-1.39-.64-.21-.15-.34-.25-.4-.3-.04-.04-.06-.06-.08-.06,0,0-.02,0-.04.03-.06.06-.14.11-.24.15-.45.19-.86.28-1.23.28h-.16c-.61-.07-1.06-.35-1.36-.85-.25-.44-.38-1-.38-1.67s.15-1.42.44-2.26c.41-1.17,1.09-2.33,2.04-3.48.38-.46.73-.84,1.05-1.12.29-.26.5-.39.64-.39h.04s.06.05.06.08v.04s-.15.2-.43.48c-1.12,1.14-2.01,2.39-2.65,3.75-.51,1.12-.77,2.12-.77,3.01,0,.67.17,1.2.51,1.59l.1.11.13-.09c.33-.21.72-.32,1.19-.32.31,0,.6.06.9.17l.17.07.15-.1c.63-.42,1.21-.99,1.74-1.71.72-.98,1.26-2.02,1.62-3.13.25-.76.38-1.46.38-2.08,0-.77-.22-1.29-.66-1.58-.15-.08-.3-.12-.47-.12-.12,0-.25.03-.38.08-.44.18-.85.55-1.21,1.1-.45.69-.7,1.41-.73,2.17v.07c0,.43.12.79.38,1.08.14.15.34.25.6.28.06,0,.13.01.19.01h.34c.14.02.21.05.21.08v.03s-.06.06-.16.1c-.17.07-.37.1-.6.1-.21,0-.41-.04-.6-.13s-.34-.23-.47-.42c-.19-.31-.29-.7-.29-1.17,0-.7.19-1.41.57-2.13.32-.59.77-1.05,1.33-1.36.32-.17.65-.25.98-.25.43,0,.76.16.98.47.26.37.39.87.39,1.5,0,.54-.08,1.13-.25,1.78-.2.81-.52,1.62-.94,2.44-.38.72-.83,1.38-1.36,1.98-.36.4-.75.75-1.17,1.04l-.15.1.37.25c.59.39,1.09.58,1.51.58.36,0,.68-.15.96-.45.14-.14.23-.22.28-.22.03,0,.05.03.05.08v.05c-.06.32-.26.56-.61.74-.24.12-.5.18-.8.18ZM265.08,58.87c.16,0,.33-.02.51-.06.15-.04.28-.08.4-.12.08-.03.13-.04.15-.04h0c-.09-.07-.27-.11-.55-.11-.12,0-.24,0-.37.02-.33.03-.58.1-.74.2.18.07.38.11.6.11Z"/>
      <path class="cls-1" d="M272.52,64.46c-.08,0-.16-.02-.26-.06-.24-.12-.35-.47-.35-1.03,0-.52.09-1.16.28-1.9.1-.39.17-.62.22-.69h0s-.04,0-.06,0c-.03,0-.07-.02-.12-.06-.17-.15-.3-.26-.39-.33-.23-.16-.34-.3-.34-.42.01-.11.11-.23.29-.36.13-.11.33-.25.6-.42l.42-.28c.15-.1.25-.17.28-.22,0,0,.04-.09.1-.24.05-.13.12-.28.19-.46l.22-.55c-.02.06-.03.1-.03.13,0,.01,0,.02,0,.03,0,0-.02.03-.05.07-.44.51-.82.77-1.17.77-.15,0-.27-.06-.38-.17-.11-.13-.17-.32-.17-.57,0-.39.13-.86.38-1.4.25-.48.55-.84.9-1.06.26-.18.51-.26.74-.26.34,0,.56.19.68.58v-.02l.08-.16c.15-.28.28-.42.38-.42.04,0,.07.02.1.06.02.02.04.05.04.08v.05c0,.06-.09.25-.26.56-.25.47-.48.95-.71,1.44-.23.49-.4.89-.51,1.2,0,0-.01.02-.02.03s-.03.02-.04.03c.11-.06.44-.28.99-.66l.63-.44c.43-.32.78-.56,1.05-.72l.1-.06c.09-.07.16-.1.21-.1.03,0,.06.01.09.04v.02s-.06.11-.19.21l-.06.05c-.25.2-.6.47-1.05.79-.63.47-1.28.91-1.93,1.34-.22.59-.37,1-.44,1.23-.12.34-.17.56-.17.65,0,.08.02.15.06.2.31.48.46,1.08.46,1.79,0,.65-.13,1.15-.4,1.49-.12.13-.25.2-.41.2ZM272.49,60.62l.02-.16c.01-.1.04-.22.08-.36l.03-.09c.04-.12.08-.24.12-.35.04-.11.07-.2.1-.26.02-.06.04-.1.05-.13.01-.02.02-.03.02-.03,0,0-.14.1-.42.29-.22.14-.38.25-.48.33-.1.08-.15.13-.15.16,0,.02.06.07.17.15.06.04.13.08.19.13.18.13.26.23.26.29v.04ZM272.4,58.12c.24,0,.59-.31,1.06-.93.22-.29.45-.63.69-1.04l.17-.27-.05-.14c-.1-.24-.24-.37-.42-.39h-.08c-.21,0-.44.1-.69.33-.33.3-.59.75-.78,1.33-.08.26-.12.48-.12.66v.12c.01.22.08.33.2.33ZM272.47,64.09s.06-.02.1-.06c.25-.25.38-.69.38-1.32,0-.46-.09-.9-.26-1.3-.04-.11-.06-.19-.06-.24v-.02s0,.05-.01.12c0,.08-.03.2-.07.38-.17.7-.26,1.27-.26,1.71,0,.27.03.48.08.62.03.07.06.11.1.11Z"/>
      <path class="cls-1" d="M154.66,78.27c-.14,0-.28-.01-.42-.04-.48-.11-.83-.35-1.05-.74-.26-.47-.4-1.19-.4-2.17,0-.1,0-.17,0-.21,0-.04,0-.08,0-.09,0-.01-.01-.02-.02-.02h-.04s-.13.05-.26.05c-.19,0-.36-.02-.49-.04-.13-.03-.27-.08-.4-.16l-.16-.08s0,0,0,0c0,.03-.05.14-.15.32h0c-.36.7-.7,1.28-1.03,1.73-.63.87-1.23,1.31-1.81,1.31-.21,0-.41-.05-.61-.16-.5-.28-.74-.69-.74-1.22,0-.31.1-.63.3-.97.21-.34.36-.51.44-.51.03,0,.04.02.04.06,0,.07-.04.21-.13.42-.19.42-.29.72-.29.9,0,.16.05.32.14.49.19.38.46.57.8.57.39,0,.8-.25,1.24-.74.18-.21.38-.51.62-.89.24-.39.46-.76.65-1.13.19-.37.29-.6.29-.69,0-.14.06-.27.19-.38.04-.02.12-.15.24-.38.5-.99,1-1.85,1.5-2.6.4-.58.77-1.05,1.11-1.39.34-.35.62-.52.83-.52.09,0,.13.02.13.06,0,.05-.07.12-.2.22-.46.38-.94.93-1.44,1.66-.41.6-.84,1.35-1.3,2.23-.19.37-.29.56-.29.58,0,0,0,0,.01,0l.08.02c.18.04.35.12.52.24.17.12.3.27.39.44.02.04.04.07.05.1.01.03.02.05.03.06,0,0,.01.01.02.01.02,0,.06-.03.13-.08.6-.22,1.13-.53,1.58-.94.49-.44.87-.95,1.15-1.52.36-.72.53-1.43.53-2.13,0-.88-.28-1.56-.85-2.03-.38-.31-.89-.46-1.53-.46-.41,0-.8.06-1.17.19-.77.28-1.41.77-1.9,1.47-.32.44-.55.94-.7,1.49-.1.38-.15.76-.15,1.17,0,.56.11,1.12.33,1.68.03.07.04.12.04.17,0,.05-.02.07-.05.07-.04,0-.09-.04-.17-.11-.3-.34-.48-.85-.53-1.55,0-.12-.01-.25-.01-.38,0-.31.03-.63.1-.94.22-1.01.71-1.85,1.47-2.51.88-.75,1.84-1.12,2.85-1.12.42,0,.81.09,1.17.25.37.16.68.4.94.73.25.31.44.69.56,1.15.06.25.08.5.08.76,0,.4-.07.81-.2,1.24-.25.78-.67,1.51-1.25,2.17-.66.76-1.44,1.28-2.34,1.57,0,.04.02.08.02.11,0,.04.01.12.02.26,0,.13.01.28.02.43.04.63.15,1.12.33,1.47.21.41.49.64.84.69.08.01.16.02.24.02.56,0,1.12-.31,1.69-.92.22-.24.46-.53.7-.88.34-.49.56-.73.65-.73.03,0,.05.02.05.06,0,.06-.05.2-.16.41-.33.66-.71,1.19-1.14,1.6-.58.54-1.18.81-1.79.81ZM152.65,74.66c0-.12-.07-.24-.2-.33-.17-.12-.34-.18-.51-.18-.1,0-.18.04-.22.12l-.07.13.08.07c.16.12.43.19.81.19.07,0,.11,0,.11,0Z"/>
      <path class="cls-1" d="M157.86,77.86s-.09-.03-.13-.08c-.02-.02-.03-.06-.03-.1,0-.08.03-.22.09-.4.1-.31.24-.73.43-1.26.44-1.28.72-2.03.82-2.26.09-.2.16-.3.23-.3.05,0,.07.05.07.14,0,.17-.08.49-.23.97-.09.31-.28.87-.55,1.67-.03.1-.05.15-.06.15,0,0,0,0,0-.01,0-.14.2-.53.59-1.17.24-.39.51-.83.83-1.33.1-.16.17-.25.21-.29.06-.06.12-.1.17-.1.03,0,.05,0,.08.02.06.03.09.1.09.19v.06c-.04.31-.06.57-.06.79,0,.11,0,.21.01.3.02.37.13.55.33.55.14,0,.33-.1.58-.29.13-.1.23-.15.28-.15.03,0,.04.02.04.05,0,.05-.04.14-.12.26-.26.33-.52.5-.78.5-.2,0-.36-.1-.49-.29-.14-.22-.22-.54-.22-.97v-.2l-.24.37c-.39.62-.81,1.35-1.27,2.22-.23.45-.4.74-.51.87-.06.07-.12.1-.17.1Z"/>
      <path class="cls-1" d="M167.79,78.4c-.56,0-1.06-.13-1.49-.38-.31-.18-.56-.39-.76-.65-.42-.56-.62-1.17-.62-1.83,0-.38.07-.75.22-1.09s.36-.63.64-.87c.38-.32.88-.49,1.53-.51.36,0,.66.07.89.21.45.27.67.68.67,1.21,0,.5-.2.95-.59,1.35-.26.26-.61.45-1.05.57-.19.05-.35.07-.46.08-.11,0-.16-.02-.16-.07,0-.06.18-.18.53-.33.49-.22.85-.51,1.07-.85.17-.26.26-.53.26-.79,0-.33-.13-.59-.4-.77-.19-.13-.45-.2-.79-.2-.48,0-.88.12-1.18.38-.27.21-.47.47-.6.78-.12.3-.18.61-.18.95,0,.58.17,1.1.52,1.56.29.38.69.65,1.21.81.28.07.54.11.79.11.48,0,.91-.13,1.31-.39.43-.27.78-.67,1.06-1.19.26-.49.44-1.06.53-1.72.04-.29.06-.59.06-.9,0-.25-.01-.51-.04-.78.01.1.02.16.03.19,0,.03,0,.05.01.05v-.03s0-.03,0-.06c0-.03-.01-.07-.02-.12s-.02-.1-.03-.16c-.02-.05-.04-.09-.06-.11-.02-.03-.05-.04-.07-.04h-.02c-.27.06-.52.1-.76.1-.31,0-.61-.05-.88-.16-.45-.18-.79-.44-1.01-.8-.17-.26-.25-.56-.25-.88,0-.15.02-.31.06-.48.11-.4.32-.74.64-1,.31-.26.66-.39,1.03-.39.17,0,.25.03.25.08,0,0,0,.03-.02.07s-.11.08-.29.14c-.41.14-.72.35-.94.63-.22.28-.33.58-.33.92,0,.41.17.76.5,1.06.18.16.41.28.69.36.17.04.36.06.59.06.42,0,.68-.03.8-.1,0,0-.02-.06-.03-.19-.09-.55-.15-.99-.17-1.33,0-.14-.01-.28-.02-.41-.01-.13-.02-.25-.02-.36,0-.53.11-.98.33-1.34.17-.28.39-.48.66-.6.14-.06.3-.09.46-.09.14,0,.28.02.44.07.49.19.78.53.86,1.03.02.12.03.25.03.38,0,.6-.22,1.22-.65,1.85-.31.45-.73.83-1.26,1.12l-.15.08.02.14c.04.45.06.79.06,1.02,0,1.3-.27,2.36-.81,3.18-.37.56-.83.96-1.4,1.22-.37.16-.77.24-1.2.24ZM171.06,72.22l.08-.04c.15-.09.26-.16.33-.21.49-.36.85-.81,1.07-1.35.17-.39.25-.75.25-1.08,0-.19-.03-.36-.08-.53s-.15-.3-.27-.4-.28-.15-.48-.15c-.29,0-.52.09-.69.28-.29.3-.43.82-.43,1.57,0,.55.07,1.18.22,1.9h0Z"/>
      <path class="cls-1" d="M171.94,79.01c-.08,0-.16-.01-.24-.03-.26-.09-.43-.25-.51-.5-.03-.09-.04-.19-.04-.29,0-.07,0-.15.02-.23.12-.52.46-.94,1.02-1.26.11-.05.18-.08.19-.1h.01s0,0,0,0c-.03-.1-.05-.22-.07-.35-.03-.2-.04-.41-.04-.6,0-.44.08-.84.22-1.19.15-.38.37-.66.66-.87.25-.15.46-.23.65-.23.12,0,.24.03.35.1.24.17.35.45.35.85,0,.28-.09.58-.26.9-.1.19-.18.28-.24.28-.03,0-.05-.03-.05-.09,0-.08.02-.19.06-.32.1-.31.15-.58.15-.78,0-.38-.13-.58-.39-.58-.17,0-.34.07-.49.22-.4.38-.6.93-.6,1.64,0,.33.02.63.06.9.09-.04.23-.09.44-.15.63-.18,1.13-.36,1.5-.53.23-.11.48-.25.74-.4.13-.07.23-.11.3-.11.04,0,.06.02.07.06,0,.05-.06.13-.19.24-.2.17-.43.32-.67.44-.27.14-.72.32-1.35.53-.24.08-.41.14-.51.17-.13.04-.22.07-.27.1.04.21.06.44.06.7v.22c-.02.31-.09.59-.22.83-.17.31-.41.47-.72.47ZM171.93,78.68c.06,0,.12-.01.19-.03.17-.11.28-.37.33-.78,0-.11.01-.23.01-.35,0-.17,0-.35-.03-.56h-.01c-.16.07-.33.2-.53.38-.26.26-.39.54-.39.83,0,.06,0,.13.03.19.05.22.18.33.4.33Z"/>
      <path class="cls-1" d="M179.77,78.65c-.05,0-.1-.03-.14-.08-.03-.03-.05-.06-.05-.1,0-.08.07-.23.22-.44.26-.45.62-1.13,1.08-2.03,1.1-2.18,1.77-3.6,2.01-4.27.17-.53.26-1,.26-1.42,0-.5-.1-.88-.31-1.17-.21-.28-.51-.42-.91-.42h-.16c-.59.08-1.15.31-1.69.69-.43.31-.78.67-1.07,1.09-.29.42-.47.86-.53,1.31,0,.1-.01.19-.01.27,0,.38.11.66.33.83.19.14.4.21.64.21.27,0,.57-.09.91-.26.44-.23.81-.62,1.14-1.17.09-.16.16-.24.22-.24.02,0,.03.01.04.04s.02.06.02.1c0,.09-.03.21-.08.36-.16.37-.38.67-.67.92-.48.39-1,.59-1.55.59-.32,0-.62-.08-.88-.25-.34-.23-.51-.62-.51-1.17s.16-1.06.49-1.57c.47-.71,1.09-1.26,1.85-1.67.54-.28,1.07-.42,1.58-.42.61,0,1.07.28,1.37.83.19.35.28.74.28,1.15,0,.32-.07.72-.21,1.19-.3,1.01-1.07,2.64-2.32,4.9v.03s.91-.93.91-.93c.39-.38.7-.69.92-.92s.41-.46.57-.66c.22-.31.52-.78.9-1.42.53-.9,1.03-1.62,1.5-2.15.47-.53,1.02-1.01,1.64-1.41.14-.09.26-.14.36-.14s.15.04.15.12c0,.11-.08.25-.25.44-.24.26-.64.85-1.19,1.76-.3.49-.54.9-.73,1.24-.29.51-.79,1.49-1.5,2.92-.51,1.06-.94,1.78-1.26,2.17l.78-.44c.51-.28.97-.56,1.38-.85.55-.39,1.05-.83,1.49-1.33.69-.78,1.36-1.83,2.01-3.16.45-.94.77-1.56.94-1.84.46-.75,1.03-1.33,1.7-1.73.58-.34,1.17-.51,1.76-.51h.05c.26,0,.39.04.39.08,0,0-.02.03-.07.08-.04.04-.27.11-.69.21-.63.14-1.17.39-1.63.76-.61.48-1.18,1.28-1.72,2.38-.38.8-.68,1.38-.89,1.76-.66,1.19-1.37,2.14-2.15,2.88-.59.55-1.31,1.05-2.17,1.52-.49.27-.87.49-1.14.65-.27.17-.52.34-.75.51-.15.12-.28.19-.37.19-.05,0-.09-.02-.12-.05-.03-.03-.05-.07-.05-.1,0-.02,0-.06.03-.1.02-.05.09-.14.22-.28.41-.46.77-.95,1.08-1.46.31-.51.69-1.24,1.14-2.2.73-1.52,1.56-3,2.5-4.45.02-.04.04-.06.04-.08-.06.09-.11.17-.17.24-.07.08-.19.21-.35.37-.27.27-.51.55-.73.85-.22.3-.49.73-.82,1.3-.45.76-.82,1.33-1.12,1.7-.26.33-.61.7-1.04,1.12-1.33,1.28-2.17,2.21-2.52,2.81-.13.24-.25.35-.36.35Z"/>
      <path class="cls-1" d="M191.85,77.47c-.09,0-.17-.01-.25-.04-.24-.1-.38-.25-.43-.44-.03-.12-.05-.24-.05-.37,0-.02,0-.04,0-.04v.04c-.37.55-.72.82-1.06.82h-.11c-.31-.09-.46-.38-.46-.89,0-.16.02-.33.05-.52.11-.6.36-1.23.74-1.89.16-.26.28-.39.35-.39.05,0,.07.04.07.11,0,.11-.05.28-.16.51-.33.66-.54,1.24-.64,1.75-.04.19-.06.36-.06.5,0,.12.01.23.04.31.04.12.1.17.19.17.11,0,.26-.1.45-.31.38-.44.74-1.05,1.09-1.83.13-.3.27-.57.42-.82s.26-.39.34-.42h.06c.08,0,.12.03.12.11,0,.1-.06.26-.18.48-.16.3-.3.57-.42.83-.15.34-.25.65-.32.92-.06.22-.09.4-.09.56,0,.33.11.49.32.49.14,0,.32-.07.54-.22.14-.1.26-.21.38-.33l.12-.13-.06-.12c-.07-.18-.11-.38-.11-.61,0-.02,0-.11,0-.25,0-.15.05-.35.13-.61.11-.34.25-.62.42-.83.14-.18.31-.29.49-.31h.02c.14,0,.24.05.31.15.07.1.1.23.1.39,0,.23-.06.51-.17.85-.14.39-.34.79-.59,1.22l-.06.08c.08.03.15.04.2.04.2,0,.47-.11.79-.33.21-.14.43-.34.67-.58.19-.17.31-.25.37-.25.03,0,.04.02.04.05,0,0,0,.04-.01.1s-.13.23-.37.51c-.24.24-.48.44-.74.59-.3.17-.57.25-.8.25-.11,0-.22-.02-.31-.06h-.02s-.1.06-.24.19c-.19.19-.39.34-.58.44-.19.09-.36.13-.52.13ZM193.15,76.09v-.03s.06-.1.06-.1c.14-.22.28-.51.42-.89.14-.4.22-.7.22-.91,0-.1-.01-.15-.03-.15-.08,0-.16.06-.26.19-.12.15-.22.35-.3.6-.11.32-.17.62-.17.9,0,.15.02.28.06.38Z"/>
      <path class="cls-1" d="M206.8,78.83s-.06,0-.11-.03c-.25-.1-.47-.27-.65-.51-.18-.25-.35-.6-.49-1.06-.14-.44-.28-1.02-.42-1.72l-.21-1.01c-.06-.27-.12-.55-.19-.84l-.27-1.05-.12.23-.08.13-.69,1.19c-.21.36-.41.7-.62,1.02-.61,1-1.18,1.76-1.69,2.3-.39.4-.77.65-1.14.76-.17.05-.34.07-.5.07-.34,0-.66-.1-.94-.31-.35-.25-.53-.65-.55-1.19,0-.48.2-.97.6-1.47.31-.37.73-.73,1.26-1.09.12-.07.21-.11.25-.11.02,0,.04,0,.04.03s-.01.05-.04.08c-.05.07-.26.3-.65.68-.44.43-.7.72-.81.88-.17.25-.25.53-.25.82,0,.02,0,.08,0,.19,0,.11.04.25.1.41.18.45.47.67.88.67.58,0,1.27-.5,2.05-1.49.5-.64,1.18-1.7,2.03-3.16l.68-1.16c-.39-1.11-.9-1.95-1.51-2.53-.59-.56-1.2-.84-1.85-.84-.86,0-1.6.49-2.22,1.47-.26.46-.39.87-.39,1.22,0,.04,0,.07,0,.1.02.48.19.81.5,1,.13.08.27.12.43.12.5,0,1.02-.36,1.56-1.08.14-.19.25-.28.33-.28.05,0,.08.04.08.11,0,.11-.08.28-.24.53-.35.48-.75.8-1.21.95-.18.06-.35.09-.53.09-.33,0-.62-.11-.87-.34-.29-.31-.43-.67-.43-1.07,0-.66.22-1.29.67-1.89.22-.29.49-.54.79-.76.49-.34,1.02-.51,1.58-.51.2,0,.4.02.6.07.5.13.97.39,1.4.79.57.53,1.05,1.25,1.45,2.14.09.19.14.3.14.33,0,0,0,.01-.01.01,0,0,0,0,0-.01,0-.02,0-.05.02-.09.02-.04.04-.09.07-.14.56-.84,1.19-1.56,1.86-2.17.76-.69,1.42-1.11,1.99-1.26.1-.02.19-.03.28-.03.22,0,.39.08.51.25.02.05.03.1.03.13,0,.03,0,.06-.03.09-.02.03-.04.04-.07.04-.04,0-.08-.02-.13-.06-.07-.07-.17-.11-.3-.11-.09,0-.19.02-.31.06-.47.16-1.03.54-1.67,1.14-.63.58-1.22,1.29-1.78,2.12-.12.17-.22.3-.3.38-.02.02-.03.03-.03.05v.02s0,.02.02.04c.1.15.25.66.46,1.51.09.39.21.93.34,1.63.23,1.14.43,1.91.6,2.28.14.31.34.6.61.88.09.11.14.2.14.26,0,.04-.03.06-.07.06Z"/>
      <path class="cls-1" d="M206.87,78.61s-.03-.02-.03-.06.46-.68,1.38-1.92l.6-.83c-.06-.17-.12-.39-.17-.67-.08-.46-.12-.83-.12-1.11,0-.11,0-.2.02-.27.02-.12.04-.17.08-.17.06,0,.13.13.19.4l.13.72c.08.37.12.61.12.73,0,.03,0,.05,0,.06l.52-.7c.53-.7.84-1.06.93-1.06.02,0,.03.02.03.06,0,.08-.12.3-.35.65-.32.49-.64.93-.96,1.33l.06.15c.27.73.59,1.1.94,1.1.09,0,.18-.03.27-.08.31-.16.63-.58.97-1.26.13-.27.24-.4.31-.4.03,0,.05.03.05.08,0,.07-.04.21-.11.42-.07.2-.19.44-.36.69-.15.23-.29.41-.42.55-.22.21-.45.32-.69.32-.27,0-.5-.1-.69-.29-.3-.29-.51-.61-.63-.97.01.01.02.03.02.04,0,.04-.05.11-.14.22l-.24.32c-.66.85-1.12,1.42-1.39,1.72-.14.16-.24.24-.29.24Z"/>
      <path class="cls-1" d="M217.37,79.64c-.13,0-.26-.02-.39-.06-.62-.19-.93-.6-.93-1.26,0-.3.07-.65.21-1.04.13-.35.23-.53.31-.53h0s.05.07.05.16c0,.12-.03.32-.09.59-.06.27-.09.51-.09.71,0,.6.26.94.78,1,.06,0,.11.01.16.01.27,0,.54-.12.81-.35.32-.27.68-.76,1.07-1.47.3-.54.64-1.23,1.02-2.08.23-.53.51-1.12.84-1.79l-.17.19c-.61.72-1.05,1.2-1.34,1.44-.4.32-.74.49-1.02.49-.24,0-.44-.09-.6-.28-.19-.2-.28-.51-.28-.94,0-.48.11-1.19.33-2.12.23-1.02.35-1.78.35-2.27,0-.55-.12-.93-.38-1.14-.2-.19-.43-.28-.68-.28-.24,0-.49.06-.75.18-.5.24-.92.6-1.28,1.1-.31.44-.48.88-.5,1.34v.03c0,.23.06.45.17.65.22.37.5.56.83.56.25,0,.52-.08.79-.24.27-.16.54-.42.81-.77.14-.18.25-.26.33-.26.06,0,.09.03.09.1s-.04.17-.12.31c-.19.29-.4.53-.63.73-.39.31-.79.48-1.21.5h-.03c-.26,0-.5-.07-.73-.21s-.41-.35-.54-.63c-.11-.25-.17-.5-.17-.75,0-.39.1-.77.31-1.15.49-.85,1.16-1.43,2.02-1.74.21-.07.42-.11.62-.11.49,0,.88.2,1.16.6.21.31.32.71.32,1.19,0,.51-.12,1.31-.37,2.4-.19.83-.28,1.48-.29,1.96,0,.62.13.92.4.92.44,0,1.21-.71,2.32-2.13.36-.46.74-.96,1.15-1.51s.7-.96.89-1.25c.6-.9,1.07-1.54,1.42-1.92.21-.21.37-.32.49-.32.08,0,.12.07.12.22v.06c-.03.05-.09.15-.19.29l-.7.92-1.08,1.43c-.21.32-.5.81-.86,1.46-.36.65-.65,1.19-.86,1.62l-.69,1.48c-.79,1.78-1.5,2.95-2.13,3.49-.35.3-.71.45-1.08.45Z"/>
      <path class="cls-1" d="M221.99,82.5c-.09,0-.17-.02-.24-.07-.15-.13-.23-.32-.23-.58,0-.19.04-.41.12-.66.15-.43.4-.87.74-1.32.2-.27.43-.54.69-.8s.61-.58,1.06-.96l.45-.38.21-.63c.11-.3.19-.48.24-.55l-.08.1c-.35.4-.68.6-.99.6-.06,0-.12,0-.17-.03-.27-.12-.41-.38-.41-.77,0-.22.04-.5.11-.84.1-.42.26-.86.48-1.33.15-.31.25-.46.31-.46.05,0,.08.03.08.1,0,.02,0,.06-.01.13,0,.07-.04.21-.11.42-.29.91-.44,1.56-.44,1.95,0,.33.07.49.2.49.1,0,.27-.12.51-.35.28-.27.54-.62.76-1.05.15-.27.3-.59.45-.97.09-.2.16-.35.21-.45.05-.1.09-.16.12-.19.03-.03.07-.04.12-.04.12,0,.17.06.17.17,0,.13-.12.45-.36.94-.24.49-.43,1-.58,1.52-.12.39-.2.63-.23.71.33-.27.64-.53.94-.76l.43-.35c.51-.39.85-.66,1.01-.81.14-.12.25-.17.32-.17.02,0,.04,0,.04.03,0,.01,0,.04-.03.08-.12.23-.99,1.01-2.58,2.36l-.4.35c-.26.7-.49,1.28-.69,1.72-.27.59-.54,1.11-.81,1.56-.32.5-.62.85-.9,1.06-.18.14-.35.21-.49.21ZM221.98,82.14s.08-.02.13-.05c.2-.13.44-.38.71-.74.18-.24.35-.52.54-.84.17-.3.33-.61.49-.94.04-.1.09-.22.15-.36.06-.14.12-.28.17-.41s.1-.25.14-.33.06-.13.06-.14c0,0-.08.09-.24.24-.36.34-.69.68-.99,1-.23.25-.41.46-.52.62-.26.37-.46.73-.6,1.09-.08.26-.12.47-.12.62,0,.06,0,.12.02.17.02.05.04.08.07.08Z"/>
      <path class="cls-1" d="M230.66,78.27c-.14,0-.27-.03-.38-.08-.26-.12-.39-.33-.39-.64,0-.19.05-.37.16-.53s.25-.31.43-.43c.33-.22.73-.34,1.19-.38h.15c.25,0,.51.03.78.11l.19.06c.54-.56,1.47-1.66,2.79-3.28,1.63-1.99,2.85-3.35,3.68-4.08.15-.14.24-.22.26-.22,0,0,0,0,0,0h0s-.09.01-.19.03c-.24.05-.5.07-.8.07-.56,0-1.3-.1-2.19-.29s-1.63-.3-2.21-.3c-.64,0-1.19.12-1.64.36-.43.22-.73.47-.92.76-.19.29-.28.58-.28.88,0,.47.18.86.54,1.17.29.25.64.38,1.07.38.15,0,.3-.01.47-.04.2-.04.41-.12.62-.22.14-.06.24-.1.3-.1.04,0,.06.02.06.05,0,.02-.01.05-.03.09-.19.3-.51.49-.95.58-.13.02-.27.03-.4.03-.34,0-.67-.08-.99-.24-.36-.19-.63-.43-.81-.71s-.27-.59-.27-.91c0-.45.16-.88.48-1.29.32-.41.79-.73,1.41-.95.44-.16.93-.24,1.44-.24s1.27.11,2.25.32c.83.19,1.52.28,2.08.28.59,0,1.13-.1,1.61-.31.08-.03.15-.05.21-.05.1,0,.16.04.19.13v.03s0,.05-.02.09c-.02.03-.18.18-.48.43-.93.76-2.24,2.18-3.95,4.26-1.62,1.98-2.58,3.1-2.85,3.37-.04.03-.07.05-.11.05.03.01.09.05.18.1.09.05.18.11.29.18.11.07.21.14.31.2.52.36.99.59,1.39.72.25.07.5.11.76.11.33,0,.72-.06,1.17-.17.23-.05.39-.08.5-.08s.15.02.15.06c0,.06-.14.15-.43.26-.55.2-1.03.3-1.45.3-.31,0-.62-.05-.93-.15-.43-.14-.9-.39-1.43-.74-.15-.1-.29-.19-.41-.27-.12-.08-.2-.13-.23-.14s-.06-.03-.09-.04l-.21.2c-.18.18-.35.33-.52.47-.6.5-1.11.75-1.54.75ZM230.63,77.88c.16,0,.35-.05.55-.15.31-.14.71-.44,1.21-.9.12-.11.17-.16.17-.17-.1-.08-.3-.14-.6-.17h-.13c-.22,0-.45.04-.69.13s-.44.22-.6.4c-.18.21-.26.39-.26.54v.07c.04.17.16.25.36.25Z"/>
      <path class="cls-1" d="M238.13,82.18s-.09,0-.2,0c-.11,0-.22-.06-.34-.17-.12-.11-.18-.27-.18-.48,0-.07,0-.15.02-.23.16-.69.76-1.52,1.8-2.49.53-.49,1.14-.97,1.83-1.44l.31-.22v-.14c-.05-.37-.19-.61-.44-.74-.14-.07-.32-.11-.53-.11-.19,0-.41.03-.65.08-.13.03-.24.04-.33.04-.13,0-.22-.03-.26-.1,0-.02-.01-.04-.01-.06,0-.12.14-.33.42-.62.33-.33.85-.81,1.57-1.42.13-.12.22-.17.26-.17.01,0,.03,0,.03.02l-.23.05c-.19.05-.4.1-.63.15-.24.04-.47.08-.68.11-.21.03-.36.05-.46.05-.06,0-.11,0-.17-.03s-.09-.04-.09-.07c0-.01.02-.03.06-.06.15-.04.4-.1.75-.17.16-.04.35-.08.57-.14l.47-.11c.33-.08.57-.12.74-.12.14,0,.22.02.22.06,0,.06-.09.16-.27.33-.08.07-.16.15-.23.22-.38.33-.87.79-1.46,1.36-.02.03-.05.05-.07.07-.19.2-.31.3-.35.3h0s.07-.01.17-.03c.23-.05.44-.07.63-.07.33,0,.61.07.82.22.23.17.39.42.48.76l.03.11c.11-.07.22-.15.33-.22.11-.07.25-.17.42-.3s.33-.24.48-.35c.67-.51,1.06-.77,1.17-.77.04,0,.06.02.06.06,0,.06-.02.1-.07.13-.05.03-.23.19-.54.46l-.56.45c-.54.44-.94.73-1.2.9-.01,0-.02,0-.02.01s-.01.01-.02.02c-.01.06-.03.14-.04.26-.07.58-.27,1.18-.6,1.8-.22.43-.48.83-.77,1.19-.56.73-1.13,1.23-1.7,1.5-.18.07-.36.11-.53.11ZM238.16,81.84c.1,0,.21-.04.32-.09.51-.23,1.02-.66,1.51-1.31.27-.34.52-.71.73-1.1.32-.59.54-1.17.65-1.75l-.15.1c-.69.48-1.23.89-1.63,1.25-.32.3-.6.58-.84.85-.61.75-.92,1.33-.92,1.74,0,.1.03.18.09.23.06.05.14.08.24.08Z"/>
    </g>
  </g>
</svg>