<?xml version="1.0" encoding="UTF-8"?>
<svg id="Layer_1" data-name="Layer 1" xmlns="http://www.w3.org/2000/svg" version="1.1" xmlns:xlink="http://www.w3.org/1999/xlink" viewBox="0 0 619.39 369.59">
  <defs>
    <style>
      .cls-1 {
        fill: url(#linear-gradient);
      }

      .cls-1, .cls-2, .cls-3, .cls-4, .cls-5 {
        stroke-width: 0px;
      }

      .cls-2 {
        fill: #f27416;
      }

      .cls-3 {
        fill: #3b8371;
      }

      .cls-4 {
        fill: #662455;
      }

      .cls-5 {
        fill: #fff;
      }
    </style>
    <linearGradient id="linear-gradient" x1="-81.03" y1="40.27" x2="660.46" y2="314.54" gradientUnits="userSpaceOnUse">
      <stop offset=".1" stop-color="#000"/>
      <stop offset=".39" stop-color="#262226"/>
      <stop offset=".67" stop-color="#140f11"/>
      <stop offset=".88" stop-color="#1a1518"/>
    </linearGradient>
  </defs>
  <rect class="cls-1" width="619.39" height="369.59"/>
  <g>
    <g>
      <g>
        <path class="cls-5" d="M534.34,208.19c-.16-2.42-.85-4.74-1.98-6.82.54-2.37.57-4.9-.02-7.43l-1.61-6.94c-2.28-9.82-6.12-18.33-11.41-25.31-5.92-7.78-13.55-13.28-22.7-16.33-4.76-1.59-9.91-2.39-15.29-2.39-4.62,0-9.52.59-14.57,1.77-10.18,2.36-18.88,6.83-25.86,13.29-2.67,2.47-5.03,5.19-7.07,8.14-4.8-3.98-11.5-7.55-20.81-9.38-3.1-.61-6.27-.92-9.4-.92-3.35,0-6.74.35-10.09,1.05-1.9-1.35-4.08-2.31-6.41-2.76l-18.29-3.61c-1.06-.21-2.13-.31-3.2-.31-3.25,0-6.46.96-9.2,2.8-3.37,2.26-5.71,5.69-6.73,9.6l-6.92-28.28c-.46-1.86-1.23-3.62-2.27-5.19,1.49-3.79,2.31-7.92,2.31-12.23,0-18.5-15.06-33.54-33.57-33.54s-33.58,15.05-33.58,33.54c0,9.65,4.14,18.33,10.68,24.46-2.93-.95-6.17-1.72-9.8-2.18-2.06-.26-4.15-.39-6.2-.39-.92,0-1.85.03-2.77.08l1.43-11.19c1.16-9.05-5.24-17.33-14.29-18.49l-18.94-2.42c-.7-.09-1.4-.13-2.1-.13-3.64,0-7.2,1.2-10.11,3.45-3.47,2.68-5.73,6.63-6.28,10.98l-3.95,30.94-18.48.71c-6.12.24-11.46,3.81-14.12,9.07-3-4.62-8.18-7.52-13.85-7.52-.21,0-.43,0-.64.01l-16.81.65c-6.08.24-11.42,3.78-14.09,9.02-2.89-5.09-8.34-8.36-14.36-8.36-.21,0-.43,0-.64.01l-19.54.75c-5.18.2-9.96,2.82-12.92,7.07-2.96,4.25-3.76,9.65-2.15,14.57l25.46,77.89c2.23,6.81,8.58,11.39,15.7,11.39.21,0,.43,0,.64-.01l18.78-.73c6.85-.27,12.76-4.72,14.97-11.08,2.61,5.98,8.54,9.91,15.13,9.91.21,0,.43,0,.64-.01l18.63-.72c7.37-.29,13.65-5.41,15.41-12.58l1.66-6.76c1.6.78,3.31,1.37,5.11,1.6l18.94,2.42c.71.09,1.42.13,2.11.13,7.45,0,14-5.04,15.93-12.22.06,8.13,6.13,15.17,14.43,16.24l18.94,2.42c.71.09,1.42.13,2.11.13,8.19,0,15.3-6.09,16.37-14.43l2.97-23.23,1.2,4.91c1.85,7.54,8.6,12.6,16.04,12.6,1.3,0,2.62-.16,3.94-.48l4.62-1.13-1.3,6.59c-.85,4.3.05,8.76,2.49,12.4,2.44,3.64,6.23,6.16,10.53,7.01l18.74,3.69c1.08.21,2.15.31,3.21.31,7,0,13.32-4.47,15.61-11.15-.21,3.58.75,7.15,2.77,10.17,2.44,3.64,6.23,6.16,10.53,7.01l18.74,3.69c1.06.21,2.13.31,3.2.31,3.25,0,6.46-.96,9.2-2.8,3.64-2.44,6.16-6.23,7.01-10.53l3.65-18.51c3.01,3.59,6.39,6.75,10.22,9.35,8.17,5.56,17.62,8.38,28.08,8.38,4.83,0,9.93-.62,15.16-1.83,13.89-3.22,24.46-9.26,31.4-17.94,7.22-9.03,10.46-19.89,9.63-32.27Z"/>
        <g>
          <path class="cls-5" d="M526.63,220.22c-.19.96-.39,1.93-.65,2.87.15-.24.41-1.01.65-2.87Z"/>
          <path class="cls-5" d="M528.39,217.77c.02-.07.03-.19.05-.25-.06.03-.07.11-.05.25Z"/>
          <path class="cls-5" d="M360.06,140.97c.41,1.23.8,2.27,1.16,2.81-.53-1.78-.9-2.57-1.16-2.81Z"/>
          <path class="cls-5" d="M256.32,122.31c.13-.08.23-.14.32-.22-.14-.01-.24.05-.32.22Z"/>
          <path class="cls-5" d="M506.41,246.99c.45-.18.87-.4,1.29-.57.09-.43-1.06.25-1.29.57Z"/>
          <path class="cls-5" d="M381,138.97c.19-.07.37-.15.49-.27-.27.09-.39.18-.49.27Z"/>
          <path class="cls-5" d="M413.96,260.48c-.48-.03-.98-.09-1.48-.15.52.11,1.04.18,1.48.15Z"/>
          <path class="cls-5" d="M217.71,94.86c-1.18.84-1.75,1.41-1.99,1.75,1.27-.96,2.23-1.63,1.99-1.75Z"/>
          <path class="cls-5" d="M218.57,98.69c1.88-1.31,3.36-2.1,4.39-2.65,1.03-.55,1.62-.87,1.84-1.08.45-.41-.6-.41-2.14-.11-1.54.29-3.54.97-4.99,1.53-1.45.55-2.4.91-1.95.24-1.08.82-2.44,1.91-3.7,3.14-1.27,1.22-2.43,2.56-3.29,3.71-.85,1.16-1.4,2.11-1.52,2.49-.13.39.16.21,1.08-.76-1.96,1.78-3.82,4.64-4.97,8.16-.58,1.75-.99,3.66-1.18,5.62l-.02.18v.1s-.02.19-.02.19l-.02.39-.04.78c-.02.52-.04,1.05-.07,1.58-.16,4.23-.27,8.52-1.55,11.35.19.28,1.37-3.04,1.41,1.12-.07.77-.15,1.43-.23,2l-.03.2v.03s-.03.06-.03.06c-.02.04-.04.07-.06.09-.09.11-.22.16-.38.17-.3.02-.68-.08-.91-.11.37.25.61.87.68,1.34-.15.09-.32.09-.36-.03-.05.28.39.83,1.03,1.42.6.59,1.44,1.23.85,1.74-.14.78-1.07.87-1.94.82l-.66-.05-.33-.03h-.08s-.21,0-.21,0h-.45c-1.19,0-2.38.05-3.51.2-.37-.05-.58-.11-.89-.15-.36-.03-.63-.07-.81-.1-.37-.07-.4-.14-.16-.23.12-.04.3-.08.54-.13.2-.03.45-.07.74-.11.41-.06.93-.11,1.52-.16.58-.05,1.23-.1,1.88-.15.6-.05,1.52-.11,1.5-.14.37-.07.68-.16.81-.3l-.53.11-.28.05c-.13.02-.07.03-.49.06l-3.87.33-1.11.1c-.54.05-1.07.1-1.61.17-1.07.16-2.13.36-3.17.63-2.08.54-4.1,1.33-5.99,2.34-.45.17-.82.31-1.14.43-.1.04-.11.03-.13.03h-.05s-.07-.03-.09-.04c-.11-.04-.18-.11-.21-.19-.03-.08-.03-.18,0-.29,0-.02.02-.05.02-.08l.02-.04s.1-.07.15-.11c.24-.17.51-.35.81-.54,1.2-.76,2.94-1.61,4.92-2.23,1.97-.63,4.17-1.02,6.14-1.07-2.68-.09-5.61.37-8.33,1.35-1.37.48-2.67,1.1-3.9,1.8-.06.03-.2.11-.18.1l-.03.02-.06.05-.11.1c-.06.07-.12.15-.18.23-.44.64-.73,1.79-.81,2.84-.08.08-.15.2-.2.23-.54-.96-1.07-1.24-1.76-2.14.54-.08.82-.63,1.05-1.21.22-.58.36-1.2.45-1.38,0-.04.02-.09.03-.15.2-.22.33.25.31.86.02.61-.14,1.38.45.94-.08-.49-.18-.96-.29-1.42.13.12.26.12.36.06.05-.03.11-.07.15-.13l.02-.02.21-.12.46-.27.93-.54c2.52-1.4,5.31-2.6,8.7-3.15,3.82-.11-.8.42-3.16,1.31,1.46-.4,2.92-.65,4.35-.81.71-.06,1.42-.11,2.12-.14.39,0,.77-.02,1.14-.02.75-.02,1.49-.03,2.21-.05.36-.01.72-.02,1.07-.03.2,0,.4-.02.6-.02.4-.04.82-.26.63-1-.37-.29-.54-.41-.7-.44h-.06s-.9.02-.9.02c-.65.03-1.3.05-1.94.08-.65.03-1.29.06-1.92.1-.55.04-1.11.08-1.65.12-.6.04-1.19.13-1.77.22-2.34.36-4.58.95-6.6,1.72-1.01.38-1.98.8-2.89,1.24-.45.23-.9.45-1.33.67-.16.08-.07.04-.1.05h-.02s-.03,0-.03,0c-.16,0-.27-.11-.37-.49.01.2,0,.44-.03.71-.05.2-.17.33-.39.44-.05.03-.12.06-.18.08l-.11.04-.06.02h-.03s.01.03-.14-.03c-1.9-.67-3.88-1.18-5.87-1.46-.03.15.63.47,1.46.86.83.42,1.82.93,2.51,1.42.69.47,1.08.89.8,1.01-.14.06-.46.06-1-.02-.53-.09-1.29-.22-2.35-.4-.74-.6-1.86-1.22-3.36-1.72-.75-.25-1.59-.47-2.52-.64-.46-.08-.95-.15-1.46-.22-.25-.02-.51-.05-.77-.07l-.4-.03-.24-.03c-2.44-.31-5.47-.44-8.9-.44,2.59,1.58-10.88,1.92-7.39,3.14,3.16-.97,4.81.38,5.27.49-6.61.35-.84,1.58-4.47,1.81-.4,0-.78,0-1.13.01-.51.02-.98.05-1.42.07-.88.09-1.63.15-2.26.26-1.28.19-2.1.39-2.65.48-1.09.21-1.04.07-.98-.11.05-.18.12-.37-.96-.15-.53.13-1.36.36-2.57.89-.15.07-.31.14-.47.21-.08.04-.17.08-.25.11,0,0,.11-.07.14-.08-.08.03-.17.06-.27.09-.19.07-.4.16-.61.29.11-.33.27-.73.43-1.14,0-.02.03-.06.02-.07l-.13.04s-.05.02-.06.02l.07-.05c.19-.14.38-.28.58-.42.39-.29.81-.57,1.26-.84.89-.56,1.88-1.09,2.97-1.59,1.08-.49,2.26-.93,3.52-1.29.63-.17,1.27-.34,1.93-.48.63-.11,1.27-.22,1.91-.34,1.55-.33,3.18-.63,4.82-.87-.24-.36-1.89-.27-3.82-.19-.57.03-1.15.05-1.74.08-.92.05-1.84.12-2.73.24-1.78.2-3.42.52-4.72.7,1.81-.31,2.42-.2,2.42,0,0,.2-.6.52-1.21.87-.62.34-1.26.7-1.39.9-.14.2.2.15,1.58-.13-1.77.57-3.51,1.35-5.16,2.3l-.62.36c-.09.05,0,0,.04,0,.04-.02.11-.05.13-.05l-.04.04-.15.18c-.1.13-.2.27-.31.43-.41.61-.83,1.44-1.17,2.45-.45-.4-1.26-.86-2.39-1.17-.06-.02-.16-.05-.19-.05l.02.02s.05.03-.06-.01l-.44-.18c-.58-.24-1.18-.44-1.78-.64-1.2-.39-2.44-.68-3.68-.91-1.25-.22-2.51-.34-3.78-.4-.63,0-1.27-.02-1.9,0l-.91.04-.6.04c.09-.6,2.65-1.27,5.73-1.13,1.56.06,3.28.32,5.03.76.86.25,1.75.5,2.6.84l.32.12.15.06-.03-.03s-.05-.04-.04-.04h.06s.23.02.23.02c.58.04.98.08,1.18-.19.21-.26.23-.88.21-1.84-.21,0-.46.28-.75.48-.07.05-.15.1-.22.13-.02.03-.12.02-.08.06l.05.04.03.02h.01s-.06,0-.06,0c-.15-.05-.3-.11-.45-.17-1.22-.47-2.65-.98-4.6-1.58-1.57-.8-3.92-1.49-6.76-1.66-.69-.05-1.5-.06-2.16-.04-.42.01-.85.03-1.29.04-.89.04-1.82.1-2.78.17-3.84.3-8.16.8-12.05.97l3.47.62c-1.47.36-3.57.48-5.74.5h-.81s-.2,0-.2,0h-.35s-.7.04-.7.04c-.93.04-1.86.14-2.75.26-1.79.24-3.47.67-4.89,1.15.45-.29.92-.54,1.39-.81-1.86.72-3.63,1.63-5.27,2.7-.83.39-1.05.44-1.09.35-1.3,1-3.1,2.34-4.98,4.2-1.89,1.85-3.8,4.23-5.36,7.06-1.55,2.83-2.69,6.1-3.17,9.44-.48,3.34-.3,6.73.41,9.71.62-.14-.07-3.04-.03-6.76,0-1.85.2-3.9.62-5.8.41-1.9,1.04-3.66,1.68-4.97.24-.32.73-1.2,1.43-2.17.67-.98,1.55-2.04,2.35-2.86.81-.81,1.54-1.4,1.88-1.5.34-.1.23.23-.44,1.35-2.3,2.73-3.78,5.76-4.66,8.79-.86,3.05-1.11,6.12-.83,9.17.14,1.53.42,3.04.83,4.55.2.75.45,1.5.72,2.25l.1.27.07.18.15.36c.1.24.2.49.29.74.79,1.98,1.57,4.11,2.34,6.5l-.64-3.15c1.79,2.77,2.74,7.02,4.28,11.55,1.9,8.52-3.59-5.54-2.62-.32-2.08-2.91-2.77-8.93-4.52-9.31l.1,5.72c2.4,4.03,2.5,9.29,3.72,12.26l-.36-3.5c1.46.24,1.51,3.57,1.84,5.16l1.1-2.79c-1.24-4.86-3.91-7.59-3.98-11.4,3.34,8.25,4.17,5.83,7.54,15.99-.56.69-.9-1.87-1.78-2.76.65,3.63,3.31,6.82,4.58,12.64-1.5-3.08-3.92-8.07-3.54-3.62l2.36,2.57c.63,2.67-.25,1.78.05,2.86.95,3.79,1.14-1.32,2.7,4.65.02.96.34,3-.25,2.25,2.15,6.73,1.5,3.09,4.22,9.15-1.84-5.62.17-6.52,2.31-.75,2.47,8.31,5.47,13.56,5.59,19.78l1.05,1.7.52.85.69,1.21c-.63-.71-.8-.61-.68.03.11.64.58,1.81,1.3,3.11.71,1.31,1.75,2.7,2.8,3.91.53.6,1.07,1.15,1.56,1.64.5.48.96.91,1.32,1.25.02.5-.91,0-2.24-1.18-1.33-1.17-2.91-3.14-4.18-5.36-.63-1.11-1.2-2.27-1.65-3.39-.19-.46-.38-.9-.56-1.32-.15-.34-.3-.65-.46-.94-.61-1.16-1.22-1.87-1.8-1.68,1.55,5.49.07,3.36-1.12,1.82.27.72.5,1.29.72,1.74.12.24.23.45.32.63.14.28.28.52.4.72.5.8.83.97,1.11.98.58,0,.96-.63,2.3,1.06-.14.07.25,1.02.96,2.29.73,1.25,1.81,2.81,2.97,4.06,1.12,1.29,2.26,2.32,2.76,2.9.5.58.35.75-1.02.09,3.34,2.71,5.9,3.37,8.03,3.81,2.17.39,4.03.61,7.02,1.01-.94.51-2.16,1.12-1.65,1.96.21-.11.88-.06,1.79-.01.46.02.97.05,1.53.07.28.02.56.02.85.03.25,0,.5,0,.75.01,1.42.07,2.9.13,3.38.16-.92-.25,1.76-1.34-2.77-.74,1.09-1.21,10.72-.46,10.43-1.43.26.67,2.72.64,5.71.5.37-.02.76-.04,1.14-.06l.58-.03.91-.07c1.28-.09,2.57-.3,3.8-.56,2.48-.53,4.76-1.37,6.56-2.15-1.08-1.23-3.97.61-7.62,1.61-.91.25-1.84.48-2.76.61-.4.05-.78.11-1.16.16-.28.03-.54.05-.8.06-1.02.03-1.86-.15-2.28-.79.59-.12,1.26-.23,1.99-.33.89-.1,1.87-.21,2.9-.33,2.58-.34,5.45-1.08,8.24-2.46.35-.18.7-.35,1.05-.53.32-.19.64-.37.96-.56.16-.1.39-.27.59-.42.39-.32.79-.66,1.13-1.07.7-.79,1.23-1.8,1.59-2.91.58,1.16,1.53,2.04,2.72,2.5.23.21.42.39.6.54.17.15.3.28.52.42.18.14.33.26.44.36.2.13.43.28.56.37.55.41.18.44-.51.34-.09-.01-.18-.03-.27-.04-.1-.02-.11,0-.17,0-.1,0-.21,0-.31,0-.2.01-.46,0-.56.07-.25.12-.4.32-.36.69-.83-.32-1.31-.76-1.69-1.25-.37-.49-.63-1.03-.85-1.59-.25.57-.63,1.32-1.31,2.35.56-.39,1.03-1.01,1.33-1.79.49,1.18,1.4,2.09,2.55,2.53.27.11.53.22.8.33.62.24,1.24.48,1.85.69.62.19,1.22.37,1.82.52.6.13,1.19.25,1.76.36,2.3.38,4.37.34,6.01.17.63-.01,1.23-.03,1.79-.04.47,0,.92,0,1.35.03.86.04,1.63.13,2.35.24,1.45.22,2.69.55,3.99.86,1.3.31,2.65.59,4.32.72.83.07,1.75.09,2.77.07.51-.01,1.05-.04,1.62-.08.29-.02.58-.05.88-.07.42-.04.84-.09,1.28-.14-.3-.11-.55-.2-.78-.29-.2-.09-.27-.19-.4-.27-.23-.16-.43-.29-.7-.4-.52-.21-1.27-.34-2.88-.47.68-.12,1.39-.19,2.12-.24.37-.02.74-.03,1.11-.05h.56s.87-.06.87-.06c2.42-.11,4.9-.53,7.15-1.36,1.26-.79-.54-.34-1.87-.13-.68.08-1.24.12-1.25.02-.02-.12.54-.3,1.99-.93,1.2-.27,3.03-.94,4.41-1.55,1.39-.59,2.39-1.06,2.14-.46l-.87.66c3.22-2.24,5.07-4.14,6.51-5.54.71-.72,1.32-1.31,1.83-1.87.27-.28.52-.54.76-.79.21-.22.4-.43.6-.64l.57-.63.14-.16s.04-.02.06-.03l.1-.06c.13-.08.25-.17.32-.32.16-.3.12-.78-.07-1.92-.46-.19-.07.97-.59,1.42-.44.03-.68-.51-.82-1.5-.15-.97-.16-2.37-.04-3.5.14.36.24.31.33.06.02-.06.04-.14.07-.23.03-.07.01-.24.13-.14.18.08.38.15.6.23.46.15.95.31,1.38.44.65.69-.11.69-.94.39-.21-.07-.42-.16-.62-.25-.05.23-.09.47-.13.7-.06.46-.07.88.04,1.19l.3-.97.07-.24.04-.12s.08.04.12.05c.17.09.33.17.5.24.29.13.59.24.89.33-.23-.11-.47-.24-.7-.38.42-.02.92-.11,1.47-.25.55-.12,1.14-.23,1.78-.34-1.32.02-1.72-.39-1.66-.82.06-.42.74-.83,1.47-.81.41.08.81.16,1.21.24l.29.06.15.03.25.05c.34.06.67.12,1,.18,1.31.24,2.51.49,3.52.74,2.01.51,3.21,1.05,2.78,1.66.21-.3.81-.47,1.66-.55.43-.04.92-.05,1.46-.05.71,0,1.49.01,2.32.02,1.78.06,3.78-.18,5.71-.59.48-.12.97-.23,1.44-.36.47-.15.93-.31,1.39-.46.48-.15.82-.33,1.23-.5.19-.09.39-.17.58-.25.12-.05.15-.07.19-.09l.11-.07c-.32.1-.61.19-.86.26-.33.1-.61.17-.86.23-.51.11-.9.15-1.11.15-.44,0-.29-.2.14-.47.46-.26,1.07-.65,1.7-1.04.39-.22.46-.33.61-.47.14-.14.27-.27.37-.37,1.73-.44,3.03-1.16,3.88-1.91-.71,1.16-1.14,1.65-1.22,1.92-.1.26.1.28.33.24.5-.08.99-.39.7.6-.36,1.34-.82,2.1-1.52,2.6-.36.24-.76.44-1.22.57-.63.21-1.26.43-1.89.64-.88.23-1.76.5-2.64.66.79-.02,1.52-.16,2.25-.27.75-.12,1.27-.28,1.89-.44l.4-.11h.12s.23-.05.23-.05c.15-.03.28-.08.41-.14.5-.24.87-.69,1.22-1.28.67-1.15,1.36-2.96,1.74-4.2l.02-.06v.07s0,.16,0,.16c0,.12,0,.24,0,.36,0,.25.03.52.04.83-.06.37-.12.71-.19.88-.03.09-.07.14-.09.12-.01,0-.02-.03-.03-.07v-.07s-.02-.08-.04.01c-.05.16-.09.33-.16.48.03.04.07-.13.15-.44.02-.11.02-.04.03-.02l.02.09c.02.06.03.13.07.2.05.15.15.33.27.57.24.48.68,1.21,1.06,2.11-.07-.41-.16-1.21-.08-1.78.11-.57.3-.79,1.27.03l.42.97.21.43.1.21s.07.09.14.16l.2.2c.54.54,1,1.07,1.75,1.64l1.05.83,1.11.76c2.8,1.39,4.64,1.71,5.76,1.82,1.14.06,1.63-.1,2.04-.29.62-.45,1-1.06,4.33-.99l-4.24-1.59c.35-.27.91-.37,1.81-.34.87.03,1.96.16,3.04.29,2.15.26,4.25.49,4.45-.22-2.03-.28-3.65-.22-5.29-.2-.82,0-1.64,0-2.53-.06-.22-.02-.45-.04-.67-.06-.22-.02-.45-.05-.79-.12-.62-.12-1.28-.23-1.94-.46-.43-.48-.19-.64.42-.64.31,0,.72,0,1.19.04.24.02.49.05.76.07.22.01.45.03.69.05,1.88.13,4.25.41,5.53.2,4.38.87,6.12,1.25,7.56,1.67.72.21,1.37.42,2.24.71.44.14.93.3,1.51.49.63.18,1.12.41,2.31.62.02.28-.2.51-.6.71-.47.2-.87.36-1.39.49-1.04.27-2.4.46-3.74.67-2.67.43-5.2.95-4.68,2.46,2.16.18,4.56.38,7.04.58.65.05,1.3.11,1.96.16,1.02.06,2.04.1,3.06.12,2.05-.06,4.1-.29,6.05-.79,3.91-.95,7.42-2.7,10.16-4.73,2.76-2.03,4.84-4.25,6.33-6.07.82-1.37,1.43-2.62,1.82-3.74.2-.56.39-1.06.5-1.55.16-.62.06-.54.04-.7-.13-.46-.36-.86-.62-1.17-.55-.63-1.22-.85-1.87-.84.1-.94.15-1.64.28-2.19.13-.55.3-.95.5-1.36.11.87.23,1.68.36,2.45,0-2.62-.03-5.05.03-7.57.03-1.26.09-2.54.19-3.88.05-.67.11-1.35.18-2.04l.03-.26s0-.13.02-.08l.03.12c.04.16.08.32.12.49.08.34.17.69.26,1.05.26,1.26.2,1.08-.09.23-.31-.84-.82-2.42-1.28-3.83.31,1.37.93,2.71,1.8,3.89-.19-.32-.36-.66-.53-1.01-.03-.2.05-.21.24-.08.17.15.47.42.83.78.74.71,1.84,1.69,3.05,2.48.8.54,1.66.97,2.47,1.29,0,.31-.5.33-.92.29-.43-.05-.81-.1-.71.14.64.46,1.35.88,2.12,1.17.38.14.76.28,1.29.38.26.05.45.11.78.16l1.02.12c2.72.28,5.34-.24,6.97-.97.08.28-.52.98-1.95,1.54-.71.28-1.63.51-2.73.59-.55.02-1.14.02-1.77-.01-.61-.06-1.33-.18-1.93-.33-.38-.22-.14-.41-.52-.64-.2-.02-.44-.03-.6-.06l-.49-.07c-.33-.03-.63-.11-.94-.18-.61-.14-1.18-.32-1.7-.55-.34-.12-.64-.31-.95-.45.33.17.64.38.96.52,1.06.55,2.16.99,3.09,1.34.97.35,2.87.82,4.13,1.06,2.64.56,4.19.89,4.15,1.6.75-.16,1.35-.33,1.83-.49.12-.04.23-.08.34-.12.07-.03.15-.06.21-.09.13-.06.24-.11.33-.15.38-.19.48-.31.42-.39-.07-.08-.31-.11-.63-.13-.16,0-.33-.01-.54,0-.26.01-.53.03-.79.04-1.06.04-2.03-.02-1.91-.19.06-.09.4-.2,1.12-.41.36-.1.81-.24,1.37-.4.42-.13.93-.29,1.53-.48,1.09-.03,2.17-.1,3.21-.2l-7.25-6.93c-.5,1.43-.93,2.84-1.31,4.24-.19.7-.36,1.4-.53,2.09-.08.37-.2.93-.27,1.39-.07.49-.14.97-.18,1.45-.35,3.88.44,7.63,1.81,10.81,1.38,3.2,3.3,5.87,5.3,8.12,2.02,2.26,4.11,4.14,6.1,6,1.12.35,2.28.65,3.49.83.3.05.6.09.91.13.28.03.67.09.83.08.42.02.84.04,1.27.06,1.71.08,3.52.17,5.42.31,1.9.14,3.91.32,6.03.57,1.06.13,2.15.28,3.26.45.56.09,1.12.18,1.7.27.64.11,1.28.22,1.94.34.11-.6,2.25-.35,4.22-.59,1.98-.18,3.7-.76,2.97-1.37-1.46.03-2.86.02-4.23-.08-.68-.05-1.36-.12-2.03-.2-.62-.09-1.23-.18-1.83-.28-2.13-.31-4.22-.44-6.26-.59-4.07-.29-7.9-.61-11.28-2.42-.26-.01-.5-.02-.72-.03-.28-.02-.53-.03-.76-.05-.47-.02-.85-.05-1.17-.04-.64,0-1.04.07-1.36.18-.63.19-.94.56-2.25.33-2.35-1.01-4.39-2.48-5.74-3.85-1.36-1.37-2.03-2.58-1.94-3.06,1.98,2.08,3.47,2.82,4.46,3.19,1.01.35,1.58.29,2.2.29.63,0,1.29.05,2.54.38.61.16,1.39.36,2.4.62.5.11,1.06.25,1.7.36.55.1,1.16.21,1.83.33-.14-.16-.4-.32-.75-.48-.34-.16-.79-.31-1.39-.51-1.16-.39-2.58-.92-3.99-1.67-1.42-.74-2.8-1.7-3.95-2.75-1.16-1.04-2.06-2.16-2.64-3.07,1.25.65.79-.73,0-3.18,1.06,1.03,2.66,2.6,4.54,3.69,1.86,1.13,3.93,1.75,5.36,1.82-1.13.17.47,1.13-.42,1.14.86.17,1.72.27,2.57.29l2.82.12,5.65.23c3.22,1.39,3.96,2.45,2.03,2.73,1.5.39,3.28.71,5.11.99.92.14,1.84.28,2.75.41.88.14,1.72.19,2.53.2,3.23.01,5.56-.88,5.88,0,1.86-.72,2.55-1.41,2.64-1.65.08-.26-.47-.1-1.32.2-1.75.8-4.29.81-4.64.57.2-.06.4-.1.59-.17-1.24.21-2.5.31-3.77.21-.65-.05-1.22-.13-1.92-.26l-2.08-.37c-.13-.56.39-.69,1.27-.61.42.04.99.15,1.52.27.49.11,1.04.21,1.61.29,1.14.16,2.37.11,3.35-.11.98-.25,1.65-.67,1.77-1.27.03-1.11.59-1.87,1.75-3.67,1.14-1.7,2.8-3.89,4.69-6.52,1.88-2.61,3.94-5.55,5.42-7.67.34-.49.67-.97,1-1.45.28-.41.52-.78.77-1.18.21-.35.37-.62.55-.99.12-.32.11-.04.14.06l.04.17s.05.06.08.08c-.05,1.1-.03,2.12.05,2.88-.27.04-.54.26-.78.73-.17.49-.31.91-.43,1.31l-.2.64-.3,1.15c-.41,1.53-.75,2.97-1.17,4.43-.41,1.44-.76,2.81-1.15,4.09l-.55,1.85c-.13.33-.27.61-.41.91.5-.84.94-1.7,1.34-2.66.25-.63.43-1.3.65-1.96l.16-.51c.03-.07.03.05.04.06.02.08.04.15.08.2.03.11.06.22.1.35-.13.2-.24.49-.36.96l-.06.18s-.01-.02-.02-.03l-.03-.07s-.03-.07-.05-.09c-.15.5-.28.96-.41,1.41-.25.94-.54,1.82-.83,2.72-.6,1.78-1.25,3.68-2.56,5.66.64-.66,1.25-1.42,1.74-2.25.27-.41.47-.85.67-1.29l.27-.68c.03-.11.02.03.02.09v.21c-.02.14-.02.28-.02.42-.06,2.7.72,5.33,1.92,7.22.6.95,1.28,1.73,1.99,2.35.28.23.53.45.82.67.3.22.59.44.88.63.58.39,1.14.7,1.66.96.86,1.06,1.56,1.85,1.83,2.47.27.61.12,1.05-.65,1.22,1.42.38,2.75.65,4.02.85.31.05.61.09.91.14.22.03.45.06.67.09.44.06.86.14,1.28.22,1.66.33,3.16.8,4.62,1.31,2.91,1.03,5.64,2.24,9.11,2.95,7.57.44-7.13-2.83-1.5-3.1,1.05.56,2.61.91,4.16,1.12l.61.08c.25.03.51.06.75.08.5.04.99.06,1.45.06.93,0,1.77-.07,2.43-.16-.73.15-1.96.18-3.44-.05-.37-.06-.76-.13-1.16-.22-.31-.08-.64-.16-.97-.24-.65-.18-1.35-.36-2.07-.55-2.87-.8-6.11-1.79-8.75-2.55,4.03.84,3.84-.57,5.07-.9l-6.68-1.61c.76-1.56,8.3,1.5,11.59,1.28-2.28,1.08-1.19,1.34-3.47,2.41,1.48.14,3.14.35,4.87.62l.66.11.8.12c.53.07,1.07.12,1.62.15,1.09.07,2.19.05,3.27-.04,4.37-.32,8.36-2.06,11.08-3.69,1.62-.97,1.19-.31.06.78-1.11,1.1-3.07,2.36-3.97,2.96,1.04.11,2.79-.96,4.27-2.24,1.5-1.27,2.72-2.69,3.7-2.87-.05.78-.91,1.74-2.07,2.65-1.16.91-2.59,1.75-3.78,2.55,3.55-1.87,6.6-4.73,8.75-8.16.52-.87,1.02-1.75,1.43-2.68l.35-.78c.07-.2.16-.39.21-.58.26-.79.41-1.58.62-2.36.25.23.3.96.23,1.76-.03.4-.11.82-.24,1.22-.07.2-.14.39-.24.58-.08.17-.17.34-.25.51-.12.24-.24.46-.35.69.21-.38.42-.75.62-1.11.09-.15.19-.3.26-.44.15-.28.27-.57.35-.86.16-.58.23-1.19.25-1.9.04-1.44-.19-3.25-.56-6.46.29-.74.6-1.45.89-2.04.15-.29.29-.55.43-.77.07-.11.14-.21.2-.3.02,0,.02-.09.06-.02l.11.16c.07.11.14.21.21.32,1.08,1.65,1.7,2.74,1.58,3.08.11.06.19.08.18,0,.35-.02-.34-1.24-.61-2.07,1.7,1.91,2.58,2.05,3.47,2.16.88.07,1.75.03,3.22.87l-2.17-2.64c1.24,1.16,1.92,1.57,2.36,1.72.45.12.64-.04.82-.23.18-.18.35-.38.78-.31.22.03.51.13.89.32.18.09.43.24.62.35.31.17.65.37,1.04.61-1.55.58-1.72,1.99-1.02,3.69.82-.29,2.25.26,3.91.96,1.67.67,3.57,1.51,5.21,1.86-.87-.81.93-.63,2.3-.66.69,0,1.27-.04,1.37-.2.1-.17-.28-.42-1.5-.96,3.71.25,6.35.62,8.78.82,2.42.18,4.65.18,7.23-.77-1.68-.08-.14-.46,1.4-.98,1.55-.52,3.09-1.16,1.65-1.4,3.34-.46,6.17-.73,8.02-.67,1.84.05,2.72.52,1.96,1.36-2.34.55-6.2.73-5.77,1.64,4.17-.84,8.22-1.96,12.21-3.42,1.59-.23,3.37-.68,4.87-.97,1.5-.32,2.75-.42,3.27.05,1.59-1.6,4.45-2.83,7.13-4.34,2.67-1.49,5.15-3.24,5.76-5.05-1.31,2-3.06,3.16-4.58,3.92-1.54.74-2.88,1.08-3.67,1.42.54-.41,1.07-.85,1.59-1.31-.25.16-.53.33-.92.53,1.17-1.69,2.25-3.37,3.18-5.13-2.35,1.23-2.32,1.63-2.46,2.34-.15.66-.42,1.71-3.72,3.57-3.4.56-.45-1.82,2.05-4.35,1.27-1.26,2.44-2.58,2.92-3.39.48-.81.3-1.08-1.12-.37-2.24,1.27-2.93,2.08-3.44,3.07-.54.94-.86,2.05-2.63,3.44l1.04-.51c-2.76,1.9-5.71,3.56-8.76,5-.35-.27.14-.8.71-1.28.56-.49,1.2-.91,1.2-.91-2.78,1.14-5.06,1.78-7.06,2.25-2,.47-3.74.73-5.51.96-1.77.21-3.56.38-5.7.52-2.14.13-4.63.27-7.78.24.46.14,1.33.76,1.38,1.41.05.64-.73,1.4-3.7,1.52-2.14.21-3.32-.11-4.38-.49-1.06-.41-2-.9-3.71-1.27,2.13.08,4.07-.93,6.75.06l-.13-1.6c2.37-.35,3.8-.84,4.82-1.29,1.02-.46,1.64-.88,2.35-1.28.71-.4,1.52-.77,2.88-1.19,1.37-.43,3.3-.89,6.23-1.67.14-.64,2.34-1.55,5.18-2.66,2.85-1.1,6.29-2.48,9.18-3.72-1.05.15-2.14.22-3.19.31,1.27-1.11,1.97-1.59,2.46-1.81.49-.2.77-.1,1.11-.02.33.08.72.13,1.42-.17.35-.15.78-.39,1.3-.78.53-.38,1.14-.91,1.84-1.64,1.95-.04,4.56-.58,6.35-.77.92-.06,1.63-.01,1.97.36.35.38.32,1.08-.36,2.24,2.59-1.94,3.93-3.69,5.07-5.42,1.1-1.77,2.04-3.52,3.46-5.99,1.61-1.11,1.82-.54,1.83.41.03.95-.21,2.24.71,2.38,1.08-1.99,2.01-4.38,2.28-5.94.29-1.56.05-2.22-.97-.91,1.25-2.44,2.28-5.02,3.06-7.7.21-.07.15.62,0,1.48-.15.86-.46,1.86-.63,2.42.63-1.52,1.1-3.88,1.18-6.09.08-2.21-.14-4.24-.43-5.15.06.67.19,2.76-.23,3.61,0-1.72-.18-4.11-.51-6.08-.31-1.98-.78-3.56-1-3.76.57,2.39.31,3.75.03,5.07-.15.67-.26,1.34-.35,2.15-.04.41-.06.85-.04,1.36,0,.5.02,1.06.08,1.71-.42-.5-1.18-1.43-.79-3.97-1.23,3.98-1.92,7.85-3.53,9.09.86-1.44,1.06-2.8,1.01-3.84-.04-1.04-.3-1.77-.36-2.12-.34,1.41-.72,3.51-1.18,5.48-.44,1.97-.93,3.82-1.09,4.8-.98-.17-1.99,2.35-3.1,4.3-.28.48-.55.94-.78,1.33-.25.37-.48.67-.65.83-.35.34-.52.17-.41-.87.13.43-.38,1.52-1.2,2.63-.4.56-.9,1.08-1.37,1.59-.51.47-1.01.9-1.46,1.2-.11-.18,0-.59.25-1.11.26-.51.62-1.18,1-1.92.77-1.47,1.57-3.22,1.71-4.41,1.16-2.28,1.61-3.43,1.93-3.83.3-.4.41-.07.42.51.08,1.16-.31,3.36.56,2.42,1.28-2.42,2.28-4.97,2.97-7.62-.24.36-.36-.53-.58-.84-.11-.16-.24-.18-.43.15-.09.17-.2.42-.32.79-.14.36-.3.84-.48,1.46-.19-1.34-.17-3.2-.03-5.2.15-2.01.39-4.19.91-6.24-.27-.48-.4.03-.48.77-.07.73-.17,1.69-.21,2.14-.25-.49-.77-1.97-1.4-2.52-.64-.57-1.14-.17-1.6,2.74.16-.82.29-.1.53.49.24.58.55,1.04,1.07-.48,0,1.24-.55,3.45-1.26,4.89-.69,1.46-1.5,2.14-1.62.84-.23,1.36-.67,3.3-1.31,5.16-.63,1.86-1.48,3.62-2.08,4.66-1.11.04.85-1.87,1.06-3.09-.62,1.19-1.27,2.38-2.06,3.52-.76,1.16-1.56,2.17-2.45,3.21.77-.32,1.56-.66,2.3-1.06-2.22,2.07-3.86,3.96-5.53,5.91-1.68,1.92-3.42,3.83-5.82,5.38.02-.87,1.04-1.83,2.32-2.92,1.26-1.11,2.77-2.35,3.85-3.67-1.83.19-2.1.65-2.53,1.46-.43.79-1,1.95-3.57,3.11-.81.08-1.13-.17-1.01-.75-1.11,1.05-2.33,2.05-3.6,3.04-1.34.29-.73-.28-.22-.57-1.7,1.08-2.55,1.72-2.98,2.15-.42.44-.41.7-.49.95-.08.25-.26.49-1.08.9-.81.41-2.32,1.01-5.04,1.77,3.41-.33,4.78-1.04,5.92-1.72,1.14-.72,2.13-1.45,4.73-2.37,1.68-.09.45,1.02-1.54,2.17-1.98,1.16-4.71,2.33-5.47,2.83-2.82.53-4.49.14-6.26-.04-1.78-.21-3.63-.18-6.98.61,2.38-.49,2.39-.9,2.66-1.19.27-.32.79-.48,4.13-1.02,1.8-.72,1.27-.8.19-.8-1.08,0-2.7.02-3.13-.39-.84.24-.51.61-.57.96-.06.34-.53.72-2.96.74l.18-.24c-2.59.69-5.26,1.2-7.96,1.45-3.63-.8-7.68-1.33-11.39-2.51-.47-.13-.91-.3-1.36-.46l-.34-.12c-.23-.1-.47-.2-.63-.29-.36-.18-.71-.35-1.06-.53-.35-.18-.7-.35-1.04-.52-.34-.2-.67-.42-.99-.62-.65-.44-1.29-.78-1.9-1.33-.61-.51-1.21-1-1.79-1.54-.59-.6-1.16-1.21-1.71-1.82-1.11-1.22-2.19-2.55-3.21-3.94l1.9,4.25c-3.39-3.19-7.68-7.62-11.17-11.44-.45.35-.86.55-1.24.69-.18.05-.37.12-.54.13l-.25.04s-.02,0-.03,0l-.02.09-.03.18-.06.35c-.31,1.86-.58,3.53-.77,4.9-.2-1.24-.1-3.05.15-5.26.03-.27.07-.56.1-.85.02-.14.04-.29.06-.44l.03-.22c.01-.07.02-.17.04-.16.17-.12.33-.2.53-.37.37-.28.82-.74,1.3-1.43.26.26.54.54.82.83-.3-.35-.6-.7-.87-1.01-.73.64-1.35,1.01-1.9,1.2l-.1.04-.05.02s-.02.1-.03.14l-.12.62c-.08.42-.15.83-.23,1.24-.15.83-.29,1.66-.44,2.47-.57,3.29-1.06,6.51-1.47,9.58-.41,3.07-.75,5.99-1.01,8.69-.28,2.7-.4,5.19-.62,7.42.66-1.4,1.05-2.46,1.41-3.36.35-.9.62-1.64.88-2.37.51-1.45.98-2.9,1.82-5.14.09,2.51-.02,4.08-.28,5.35-.26,1.27-.66,2.22-1.12,3.27-.46,1.05-.96,2.21-1.57,3.75-.08.19-.15.39-.23.59-.08.17-.16.47-.23.56-.13.27-.27.54-.42.84-.29.6-.62,1.25-.98,1.99-.68-.41-.68-1-.8-1.41-.13-.44-.35-.66-1.36-.56-.16,1.2-1.08,2.51-2.32,3.53-1.24,1.05-2.76,1.79-4.08,2.48-.88-.66-.59-1.38.3-2.13.89-.77,2.42-1.64,4.05-3.32.87-.38,1.56-1.1,2-1.95.1-.21.21-.43.29-.65l.06-.17c.02-.07.03-.07.07-.26l.2-.87c.25-1.18.46-2.4.64-3.6.67-4.77,1.37-9.69,2.64-12.74-.56,1.15-1.14,2.36-1.72,3.65.75-5.02,1.49-8.99,2.16-12.82.34-1.92.66-3.82.97-5.85.08-.51.15-1.03.23-1.55.04-.25.07-.57.12-.76l.18-.28c.24-.38.5-.91.77-1.61l.06.65.16-3.5c.37.08.78.2,1.21.35l-1.7-1.96c-.17.4-.32.72-.47,1.05-.16.35-.29.61-.44.88.06-.76.2-1.82.45-3.41,1.65,1.27,4.17,3.5,6.66,5.85,2.49,2.34,4.87,4.71,6.08,6.05-3.44-3.83-6.24-6.8-8.36-8.86-2.13-2.08-3.6-3.29-4.68-3.99-.26,2.66-.3,4.52-.35,6.05-.01.35-.03.7-.04,1.06v.25c-.02.08-.03.16-.02.33,0,.29,0,.58,0,.88,0,1.18-.01,2.37-.06,3.61-1.26,6.16-2.68,9.59-3.92,13.1-1.23,3.45-2.29,6.95-2.56,11.83-.41.13-1.19,2.02-1.83,3.14-.32.55-.59.88-.73.67-.14-.2-.15-.96.04-2.69.64-4.2,1.42-7.54,1.97-10.02.55-2.47.84-4.1.48-5.06-.83,4.34-1.22,5.54-1.72,7.36-.25.91-.52,1.97-.89,3.65-.33,1.61-.78,3.77-1.44,6.92.59.39,1.06,1.09,1.12,2.06.07.95-.3,2.13-1.09,3.11-.91.85-2.39,1.33-3.78,1.2-.38,0-2.2-.42-3.45-.71-1.33-.31-2.54-.64-3.59-.95,1.35.23,2.72.39,3.99.47.63.04,1.25.07,1.82.07.14,0,.28,0,.42,0,.11,0,.33,0,.35-.02.12-.04.23-.08.33-.12.83-.38,1.09-1.02.89-1.53-.23.36-.61.44-.98.36-1.03-.21-2.23-.58-3.21-.89-2-.62-3.42-1.06-2.82.09-3.12-.68-7.31-1.53-10.77-2.44-.43-.12-.85-.23-1.26-.34-.2-.06-.4-.12-.6-.17-.13-.05-.14-.07-.21-.11-.22-.13-.39-.3-.52-.47-.25-.35-.29-.74-.12-1.14.39.02.71.08,1.03.15.64.14,1.28.28,1.91.42.71.17,1.41.34,2.11.51,2.78.69,5.43,1.38,7.98,1.7-1.37-.31-2.65-1.01-1.75-1.25l7.36,1.64c-5.43-1.93-4.21-2.26-11.42-3.49.42.23,1.27.68.58.63-1.79-.3-4.02-.83-5.83-1.14l.09-1.6c-.14,0-.29-.02-.44-.03l-.04.03s-.05.02-.08.04c-.05,0-.1-.02-.15-.06-.04-.05-.07-.11-.09-.18-.01-.04-.01-.08-.02-.11l-.15-.41s0-.25,0-.45l.03-.64c.02-.43.04-.86.06-1.29.51-11.6,1.05-23.95,1.6-36.67.39-9.91.78-19.97,1.18-30.1.18-5,.36-10.03.54-15.06.12-3.97.25-7.94.37-11.92-1.78,4.85-3.57,9.7-5.34,14.53l1.19-3.53.98-2.99c-1.07,2.75-2.08,5.34-3.03,7.79-1.21,3.17-2.34,6.17-3.43,9.02-1.19,3.18-2.31,6.19-3.38,9.06-1.08,2.96-2.12,5.78-3.11,8.49-2.02,5.55-3.66,10.19-5.27,14.76-1.39,4.02-2.72,7.89-4.07,11.78-1.09,3.17-2.19,6.38-3.35,9.78-.48,1.39-.98,2.81-1.5,4.29-.46,1.28-.93,2.6-1.43,3.99-.22.6-.45,1.21-.68,1.83-.12.31-.23.62-.35.93l-.18.47c-.06.17-.09.21-.14.33-.18.39-.36.78-.55,1.19-.09.2-.19.4-.29.61l-.15.31-.07.15s-.01.01-.02.02c-.14.15-.32.31-.55.38.4-.82-.07-1.41-.21-2.15-.12.43-.39.31-.5.01.27-.08-.9-.5-1.67-.82-.84-.34-1.75-.68-2.8-.99,4.76,1.89-3.66.99-.18,2.2-.07,1.61-8.82-.11-13.26-1.18-2.28-2.54,14.1,1.63,7.77-1.75-4.44-1.06-5.78-.14-2.71.85-1.39-.33-2.96-.71-4.59-1.1-.41-.1-.82-.2-1.24-.3-.08-.02-.25-.06-.27-.07l-.04-.03s-.05-.03-.07-.05c-.09-.06-.17-.16-.23-.25-.26-.38-.23-.91.24-1.35-.72.33-1.02.08-1.28-.08-.13-.1-.27-.2-.5-.33-.13-.08-.27-.16-.41-.25-.08-.05-.18-.11-.27-.17l-.15-.1-.08-.06s-.04-.14-.05-.2l-.03.17s0,.03,0,.05v.07s.03.08.05.12c.04.08.09.14.16.21.12.12.29.21.43.29.29.18.44.26.16.7-.56-.1-1.11-.36-1.62-.77-.01-.23.02-.45.09-.66l.03-.08s0-.02.04-.16l.16-.62c.11-.41.22-.82.33-1.22.46-1.6.95-3.09,1.42-4.51l5.99-17.87-22.01,2.55c-1.17.14-2.29.27-3.37.39-.27.04-.53.07-.8.11l-.39.06-.19.03h-.04c-.11-.03-.21-.04-.29-.05l.18-.2.04-.05s-.03-.02.1-.07l.56-.22,2.25-.89-.17.29c.39-.26,1.03-.52,1.78-.78l20.19-6.99-2.42,23.97c-.25,2.47-.93,5.84.01,5.49-.23-1.95.01-3.65.37-5.41l4.69-22.87-22.93,5.43c-1.14.27-2.33.51-3.61.84-.32.09-.64.18-.98.27-.09.04-.09.06-.14.1-.07.07-.14.18-.21.32v-.24c-.06.11-.16.16-.25.19-.02,0-.05,0-.07.02-.02,0-.02.03-.04,0l-.31-.87c-.2-.58-.41-1.16-.61-1.73l-.3-.86-.08-.22-.12-.48-.26-1.04c-.74-2.9-1.46-5.76-2.18-8.59-1.08-4.33-2.14-8.6-3.19-12.83-4.73-19.31-9.35-38.17-13.87-56.61-.66,4.62-1.32,9.2-1.96,13.73-.52,3.56-1.04,7.08-1.55,10.56-.35,2.28-.7,4.54-1.05,6.78-.15.95-.3,1.9-.45,2.84-.12.72-.23,1.43-.35,2.14-.37,2.27-.74,4.5-1.1,6.69-.12.7-.23,1.39-.34,2.08-.09.58-.18,1.16-.26,1.73-.24,1.64-.33,2.84-.2,3.32l.1.48c.06.07.12.14.19.24.07.09.14.23.23.34.09.1.18.22.28.37-.01.1,0,.25,0,.45.02.19.06.37.1.62l.08.37c.03.13.06.28.1.34.09.2.18.39.26.57.17.51.43.65.62,1.08.2.38.36.84.43,1.31-.12-.12-.26-.1-.33-.34-.04-.07-.08-.15-.13-.24-.04-.07-.08-.11-.1-.29-.05-.3-.09-.55-.12-.87-.03-.33-.05-.66-.08-.97-.1-1.26-.2-2.37-.51-3.24-.08.14-.17.28-.25.4,0-.42,0-.81-.01-1.19v-.14s0-.03,0-.03c0-.02,0-.02,0,.03l-.03.22c-.04.29-.09.58-.13.86-.08.57-.17,1.12-.24,1.66-.31,2.18-.59,4.12-.83,5.84-.48,3.5-.79,6.24-.93,8.46.22,2.34.59,3.02.84,4.21.25,1.18.38,2.84.15,6.88-1.42,8.5-1.72,6.21-1.92,2.78-.2-3.36-.28-7.93-1.53-1.67l-1.39,19.27-1.43,3.68-.11.64c-.04.08-.05.05-.05.07,0,.02-.03.03-.05.03-.05.01-.06.05-.09.07-.04.01-.07.04-.08.07-.03.02-.06.03-.07.07-.09.1-.15.22-.22.38-.16.27-.31.72-.71,1.04-.09.12-.22.13-.36.23-.05.02-.03.06-.15.07h-.6s-1.2-.04-1.2-.04c-1.6-.04-3.23-.09-4.88-.16-3.31-.15-6.76-.39-10.43-.86-.03-1.61,10.67-.9,14.3-.54-2.18-.98-4.96-1.21-7.95-1.41-1.49-.1-3.04-.19-4.58-.37-.77-.09-1.55-.2-2.31-.34l-.57-.11-.29-.06c-.1-.02-.21-.04-.18-.06l-.05-.17c-.06-.09-.13-.03-.22.03l-.09.08s-.06.04-.1.07c-.04,0-.07.12-.14.05-.08-.08-.15-.15-.23-.21-.08-.06-.15-.11-.23-.16-.04.09-.08-.32-.11-.55-.04-.25-.08-.49-.11-.73-.15-.91-.29-1.6-.41-2.07-.25-.9-.46-1.02-.54.01-.15-1.61-.29-3.1-.42-4.46-.13-1.58-.25-3.02-.35-4.34-.1-1.43-.2-2.73-.28-3.91-.08-1.37-.15-2.6-.22-3.7-.05-1.13-.1-2.14-.15-3.03-.03-1.02-.07-1.9-.09-2.68-.04-1.63-.05-2.88-.03-3.85.04-1.95.17-2.82.28-3.59.11-.78.21-1.41.18-3.15-.29-1.49-.6-3.81-.91-6.75-.32-2.95-.65-6.77-.98-10.92-.28-3.84-.59-8.08-.92-12.6-.21-3.26-.44-6.71-.67-10.28-1.13,3.64-2.28,7.38-3.45,11.15-1.62,5.15-3.26,10.33-4.87,15.44-3.15,9.91-6.21,19.52-8.91,27.98-.2-.31-.41-.59-.63-.84-2.53,8.38-4.3,14.19-5.72,18.66l-.54,1.69c-.08.16-.12.18-.18.27-.1.13-.28.37-.3.38-.05.06-.1.14-.16.21-.06.05-.12.12-.18.19.48,0,.28.93.35,1.54-.11.03-.23,0-.34,0-.11,0-.22.01-.34-.02.12.13.25.21.38.28.13.08.28.15.42.17.14.03.29.09.43.07h.22c.07,0,.15,0,.26-.07l.31-.16c.12-.11.16.09.42-.61l.64-1.5.32-.76.34-.84c.48-1.26.97-2.52,1.45-3.79.55-1.52,1.1-3.05,1.65-4.59.62-1.82,1.24-3.64,1.87-5.46.7-2.12,1.4-4.24,2.1-6.36,1.59-4.98,3.18-9.97,4.76-14.96,2.76-8.93,5.53-17.85,8.25-26.64.05.46.07,1.13.11,1.73l.09,1.85c.07,1.45.13,2.89.2,4.32.17,3.84.34,7.64.5,11.41.16,4.29.32,8.54.48,12.74.12,4.05.24,8.04.36,11.99-.09-.75-.17-1.4-.23-1.95-.07-.57-.13-1.03-.18-1.42-.11-.73-.18-1.04-.24-1.09-.12-.1-.15.85-.19,1.77-.08,1.88-.16,3.52-.85-2.44-.19-2.96-.34-5.32-.46-7.23-.11-1.95-.16-3.41-.2-4.66-.07-2.49-.03-3.94.07-5.41-.24-.61-.51-1.65-.75-2.64l-.09-.36-.04-.17-.04-.08c-.05-.1-.09-.2-.14-.28-.09-.16-.17-.25-.23-.24-.13.03-.22.49-.22,1.77,0,.64.02,1.47.06,2.57.04.68.08,1.46.13,2.35.06.9.12,1.92.2,3.06-.27,1.51-.54,1.7-.82.99-.07-.18-.14-.41-.21-.7-.06-.22-.11-.37-.17-.62-.05-.24-.11-.52-.16-.83-.03-.16-.05-.33-.08-.5l-.04-.27-.06-.1c-.18.66-.36,1.36-.56,2.08-.09.34-.19.69-.29,1.05-.11.38-.22.77-.33,1.16-.26.87-.53,1.76-.81,2.68-.29.93-.59,1.89-.89,2.86-1.29,4.04-2.86,8.72-4.44,13.11-3.21,8.98-6.09,15.63-8.11,19.43-.34.41-.63.74-.86.99-.12.12-.22.23-.3.32-.09.09-.17.17-.21.12-.19-.07-.24-.2-.19-.37.05-.14.12-.35.22-.61.13-.31.28-.69.45-1.13.19-.45.4-.95.63-1.5.25-.63.52-1.31.81-2.03,1.19-3.04,2.81-7.37,4.66-13.01.23-.68.45-1.36.67-2.02.23-.73.46-1.46.69-2.16.46-1.46.9-2.86,1.31-4.17.86-2.82,1.61-5.38,2.18-7.45-1,3.1-1.95,6.07-2.91,9.06-.45,1.42-.91,2.84-1.37,4.29-.43,1.28-.86,2.57-1.3,3.9-1.73,5.05-3.45,9.46-5.39,13.01l.4-4.12c-.3.79-.59,1.54-.86,2.25-.24.6-.47,1.16-.68,1.69-.11.26-.21.52-.31.77-.05.12-.1.25-.15.37-.02.05-.05.15-.07.15l-.04.03c-.09.09-.18.17-.26.24-.35.36-.49.44-.61.58-.23.28-.24.45-.13.65.2.39.93.67.6,1.57-.42,1.12-1.79,1.37-3.02.98-.86-.25-1.71-.49-2.48-.71-.9-.26-1.71-.46-2.34-.51l2.76-.02c-3.46-.77-5.64-.8-7.74-.76-.53.01-1.04.02-1.58.04h-.4c-.19,0-.38,0-.57-.01-.39-.02-.79-.03-1.2-.05-.82-.04-1.68-.1-2.62-.19-.48-.07-.93-.02-1.49-.26-.55-.19-1.13-.39-1.74-.61l-5.17-3.17c1.81.9,3.21,1.52,4.56,2.06.66.27,1.29.5,1.88.71.29.1.6.21.86.29.26.03.51.05.76.06.99.07,1.9.08,2.76.06.43-.02.85-.03,1.25-.05.37-.03.88-.04,1.08-.09,2.08-.37,3.75-.89,5.96-.21-5.68-1.46-4.96-2.16-2.35-2.61,1.31-.22,3.08-.38,4.77-.54.84-.08,1.67-.17,2.39-.24.18-.02.36-.04.53-.06.15-.02.39-.03.37-.09.07-.09.13-.18.18-.26-.06.02-.12.04-.18.06-.31-.03-.61-.05-.91-.08-.61-.06-1.2-.13-1.79-.19-1.17-.14-2.28-.3-3.32-.5-2.1-.39-3.79-.86-5.21-1.46-1.79.03-3.55,0-5.3-.11l-1.32-.08c-.22-.03-.43.01-.67-.15l-.75-.31c-.99-.43-1.99-.86-2.99-1.29-1-.45-2-.9-3.01-1.35l-3.2-1.48c-2.21-1.04-4.43-2.12-6.49-3.14l-.78,2.2c-.12.26-.22.76-.33,1.17l-.33,1.29c-.43,1.72-.84,3.46-1.21,5.22-.75,3.51-1.32,7.08-1.65,10.68-1.06,3.49-.89,1.8-.69.1.19-1.71.41-3.41-.63.54l-.36,1.34-.18.67c-.04.13-.05.13-.07.2-.08.18-.19.52-.23.5-.05.05-.07.12-.13.17-.04.06-.08.12-.14.17-.19.22-.41.44-.65.66-.25.21-.53.4-.88.58-.04.02-.09.05-.13.08h-.02s-.09.02-.09.02l-.19.02-.37.05-1.49.19-2.98.42c-4.12.11-3.45-.61-4.62-1.22-3.03-.02-5.77.05-8.32.19l-.48.03h-.12s-.01,0-.01,0c-.02-.39.13,3.52.07,1.79v-.14s-.03-.55-.03-.55l-.05-1.1s-.02,0-.03,0c-.04.02-.08,0-.12.02-.08.04-.15.02-.24.06-.15.01-.32.05-.49.07-.05,0-.08,0-.13,0h-.07c-.1-.12-.26-.39-.39-.58-.27-.43-.55-.86-.82-1.28-.34-.63-.69-1.25-1.03-1.87-1.51-2.77-3-5.51-4.48-8.25-2.85-5.33-5.69-10.66-8.65-16.2-2.32,6.68-6.41,17.45-9.88,25.58-.42.97-.85,1.95-1.28,2.94-.21.46-.41.98-.64,1.4l-.35.64-.09.16c-.03.05-.02.02-.03.04l-.03.02c-.18.13-.4.22-.61.31-.11.04-.23.06-.34.1-.12,0-.24.05-.36.05-.13,0-.25.03-.38,0-.06,0-.13,0-.19,0-.26,0-.52,0-.78,0l.78-.24.17-.23c.11-.13.19-.32.27-.45-.12-.02-.22,0-.33-.04h-.08s-.14,0-.14,0c-.27,0-.53,0-.79,0-1.04,0-2.02.03-2.93.08-1.82.12-3.35.39-4.46.99-1.46-.61-3.39-.77-5.59-.7-1.1.03-2.27.13-3.47.24-.3.03-.61.06-.91.09l-.46.05h-.06s-.01,0-.01,0h0c.08,2.13.02.51.03.95l-.03-.55v-.28s-.02-.12-.02-.12h0s0,0,0,0h-.01s-.04.02-.04.02c-.12.03-.25.09-.37.12-.51.15-1.13.13-1.58-.18-.42-.33-.64-.9-.22-1.56-.04-.2-.13-.33-.18-.47-.05-.06-.08-.12-.12-.18-.02-.03-.05-.05-.08-.08-.08-.18-.15-.36-.23-.53-.61-1.39-1.22-2.44-1.84-3.42-1.23-1.97-2.5-3.65-3.87-7.17.58-.19,2.36,1.63,1.41-2.16-4.27-11.56-8.18-22.58-12.12-33.92-1.96-5.67-3.95-11.42-6-17.36-1.02-2.97-2.06-5.98-3.12-9.06-.46-1.32-.92-2.65-1.38-4-.12-.42-.22-.86-.22-1.32.22.08.42.41.52.56-.03-1.04.15-2.08.71-3.05.53-.97,1.5-1.8,2.71-2.19.08-.02.15-.04.23-.06l.06-.02.19-.02.39-.04,1.55-.15c1.03-.1,2.05-.19,3.07-.29,2.03-.18,4.04-.35,6.01-.49s3.91-.24,5.82-.3c.48-.01.95-.03,1.42-.04h.71s.35-.02.35-.02h.13c.32.04.62.09.91.19.23-.05.59-.11.99-.09.2.01.42,0,.63.04h.08s.04.01.04.01c.03.02,0-.04.08.05.24.25.48.5.63.69.34.4.67.79,1,1.17,1.31,1.55,2.48,2.91,3.11,3.45.64.56.74.28.05-1.16-2.07-3.01-3-4.69-3.38-5.82-.13-.3-.23-.57-.28-.79.02-.13.04-.25.08-.37.07-.24.18-.46.3-.63,1.18.96,2.21,2.17,3.13,3.19.92,1.05,1.7,2.04,2.37,2.93,1.34,1.8,2.19,3.23,2.82,4.42.63,1.19,1,2.14,1.34,3.04.31.88.58,1.71.94,2.64.16-.08.35-.25.58-.5.22-.25.5-.61.88-1.15.71-1.03,1.8-2.82,3.41-5.49.76-.37.98-.13.8.61-.17.74-.74,1.96-1.45,3.44-.71,1.47-1.57,3.18-2.31,4.78-.76,1.63-1.35,3.08-1.77,4.33-.38-.27-.59-.19-.59.36l.61.89c1.9-3.9,4.37-8.66,6.73-12.91,1.18-2.14,2.32-4.12,3.39-5.91l.79-1.31c.04-.08.21-.3.33-.47.09-.12.08-.11.09-.11l.03-.02.11-.1c.13-.15.3-.24.44-.38.68-.08,1.31-.17,1.96-.21,1.69-.1,3.37-.2,5.02-.3,3.42-.22,6.72-.4,9.82-.03-2.75-.12-.83,1.57-5.44.96.69-.12.22-.24.91-.36-5.25.11-6.67.42-7.94.79-.62.19-1.28.4-2.22.61-.27.2-.62.37-1.1.67.21-.14.44-.28.71-.37.13-.07.27-.08.43-.14.57-.05,1.14-.1,1.72-.16,2.31-.2,4.7-.4,7.07-.56,2.36-.16,4.7-.29,6.9-.38,1.44-.06,1.34-.03,1.7.02.29.04.54.15.77.25-.02-.37.07-.57.27-.65.1-.04.22-.07.35-.05.07,0,.14.01.21.02l.12.03c.16.05.31.28.46.44,2.41,2.77,5.87,7.28,7.3,8.46l.6,1.05c.04-.61,2.61,2.3,4.33,4.43.82-1.7,1.66-3.45,2.15-4.43.75-.08,1.56-.28,2.46-.63,1.86-3.39,1.5-3.2,1.16-3.07-.34.16-.67.21,1.1-2.85.62-1.08,1.45-2.46,2.38-3.92.24-.38.47-.69.72-1.05.12-.18.25-.35.38-.53l.18-.25.06-.04c.17-.11.35-.22.55-.31.4-.19.84-.37,1.32-.45.24-.04.48-.08.73-.09l.45-.02h.9c1.19-.03,2.36-.02,3.45.01h.4c.21.01.41.02.61.02.43,0,.84.01,1.25.02.82.02,1.6.05,2.32.07,2.91.13,5.09.38,5.77.82,5.92-.32,8.85-.88,12.56-1.28.16-2.39.4-4.94.91-8.27.34,1.03.21,3.46.38,4.01.74-5.03,1.46-10.44,2.18-15.98.45-3.5.92-7.09,1.38-10.65.22-1.65.45-3.29.67-4.91.12-.81.24-1.62.35-2.42l.18-1.2c.04-.26.05-.26.06-.33.02-.06.02-.12.05-.18.27-.92.88-1.68,1.6-2.06.67-1.1,1.82-1.81,3.02-2.15.3-.11.6-.07.91-.2.9.02,1.78.03,2.62.05,1.74.02,3.37-.02,4.87-.14-2.5-.18-9.7-1.52-5.04-1.96,2.58-.43,6.39.35,10.27.51-1.02.81,9.63,2.12,1.86,1.78.42.57,1.67.96,3.3,1.26.39.07.8.13,1.22.2.17.05.34.08.52.1.34.09.71.15,1.04.28,1.38.45,2.48,1.5,1.63,2.15.46-.02,1.19.88,1.64,2.03.04.15.09.29.16.44.03.15.06.31.11.46.03.08.05.15.05.23,0,.04,0,.08.02.13.01,0,0,.1,0,.19l-.02.27c-.05.71-.09,1.42-.13,2.1-.18,2.73-.32,5.06-.24,6.63-.57.93-.42-1.45-.2-4.09.1-1.32.22-2.71.26-3.77.01-.53.02-.97,0-1.28-.07-.1-.13-.12-.2-.12,0,.05.03.04.03.16l-.04.53-.07,1.07-.18,2.13-.39,4.19-.64.21c-.67,4.22-1.03,7.55-1.2,10.2-.08,1.32-.12,2.48-.12,3.51,0,.51.01.99.02,1.46.1.37.26.65.4.95,4.73-.74,8.7-1.52,13.61-1.69l-.54.23c2.3-.08,4.58-.24,6.65-.13-1.3.12-2.7.36-4.17.63l-4.6.81c2.23-.06,4.25-.15,6.09-.25,1.84-.07,3.44,0,4.99.1l1.11.09.52.05h.3c.39.02.79.03,1.19.04.81.04,1.64.11,2.53.26l40.46,6.46-31.6-21.44c-.75-.51-1.57-1.12-2.36-1.97l.07-.72c-.78-.67-1.53-1.39-2.23-2.17.34.4.65.4.58.06-1.44-.77-2.8-2.85-3.77-5.08-.97-2.24-1.51-4.6-2.26-6,.02-1.1.54-2.12.97-3.16.21-.52.33-1.06.38-1.64.1-.58.07-1.21-.15-1.96.6.29,1.21.57,1.81.83-.26,1.61-.24,2.59-.41,3.23-.16.64-.29.97-.42,1.3-.13.34-.26.69-.23,1.4,0,.71.16,1.78.71,3.46.31-1.4.45-3.26.75-5.4.38-2.14.81-4.53,1.65-6.92.87-2.38,2.13-4.74,3.69-6.8,1.56-2.07,3.39-3.84,5.21-5.16,1.36-1.21,3.16-2.47,5.29-3.14,2.1-.72,4.37-1.19,6.56-1.21,4.41-.26,8.06.77,10.13.09-.41.27-.8.54-1.18.81,3.89,1.68,7.13,4.54,9.52,7.83,1.38,1.61,2.57,3.41,3.44,5.35.22.48.37.99.56,1.48l.28.74.19.76c.13.51.26,1.01.39,1.52.07.52.14,1.03.23,1.54.11.51.13,1.02.14,1.54.03.51.06,1.02.09,1.53,0,1.02-.05,2.02-.16,3-.05.49-.12.97-.2,1.45l-.06.36-.03.18-.08.39c-.14.57-.31,1.12-.48,1.68-.37,1.11-.74,2.2-1.1,3.28-.18.53-.36,1.07-.54,1.59-.17.52-.39,1.05-.41,1.54,1.18,1.7,2.33,3.41,3.38,5.01l.39.59.15.25.17.29.04.07.07.18.14.38c.1.25.19.5.29.75l-.19,3.34c2.87,5.18,5.51,14.35,8.1,23.27l10.12,34.82,6.12-34.71c.23-1.32.75-2.55,1.45-3.58.7-1.03,1.57-1.87,2.56-2.57,1.97-1.39,4.09-2.01,5.65-2.78.35.13.64.24.9.34.29.11.53.21.72.3.38.18.57.32.61.42.08.21-.44.29-1.19.33-.19,0-.39.01-.6.02-.21,0-.45,0-.55.03-.27.04-.54.09-.78.15-.49.12-.87.29-.96.46.34.04.7.06,1.1.07.2,0,.4.01.61.02.37.04.74.07,1.12.11,1.58.12,3.26.24,4.94.37,3.35.27,6.63.72,8.81,2.05-.12.59-7.05-.81-3.99.17,1.68.9,3.02.88,4.41.89.7,0,1.41.01,2.18.15.95.17,1.18.31,1.63.78-.15-.4.09-.71.69-.85.17-.02.25-.11.64.02.32.08.8.28,1.24.45.91.37,1.92.83,2.95,1.37.2-.02.38.05.6-.03.22-.07.43-.14.65-.2.44-.13.88-.26,1.34-.4.9-.26,1.82-.51,2.74-.72.47-.11.9-.2,1.4-.29.3-.06.6-.12.9-.17.6-.1,1.19-.18,1.76-.24-1.01.01-1.01.02-1.45-.09-.44-.4.37-.67,1.58-.81,1.21-.15,2.82-.14,3.96-.15,0,0-.22.22-.83.3,2.26-.07,4.57.05,6.88.36,2.33.33,4.71.79,7,1.47,1.15.34,2.3.71,3.42,1.14.31.11.51.19.9.36.36.15.75.31,1.12.5.74.37,1.48.72,2.2,1.17,2.89,1.7,5.74,3.67,8.34,5.68h.12s.06-.08.1-.13l.19-.29.39-.57.79-1.14c.53-.76,1.08-1.51,1.63-2.25,1.11-1.48,2.25-2.94,3.43-4.3.59-.68,1.2-1.32,1.84-1.94.7-.67,1.14-1.08,1.66-1.54,1.03-.9,2.09-1.78,3.2-2.58,4.42-3.27,9.48-5.77,14.81-7.46,5.33-1.67,10.97-2.69,16.46-2.84,5.49-.15,10.92.63,15.84,2.4-1.87-.3-3.76-.46-5.63-.51,2.2.04,5.13.73,7.72,1.81,2.59,1.05,4.76,2.39,5.77,3.1-.19-.08-.39-.16-.59-.22,3.02,2.74,4.94,3.73,6.78,4.73,1.79.99,3.46,2.02,4.69,5.06-.31-.27-.62-.53-.95-.79,3.23,3.56,4.95,7.18,6.43,10.71,1.46,3.58,2.71,7.14,4.58,11.62.37,1.87.5,3.25.56,4.34.07,1.18.05,2.04.02,2.83s-.09,1.5-.11,2.37c0,.44,0,.91,0,1.46,0,.14.01.28.02.42v.22s0,.13,0,.13c-.02.16-.04.33-.06.52.07.38.14.72.2,1.04.03.16.07.31.1.46l.02.12-.02.32c-.01.21-.03.41-.04.61-.09,1.57-.1,2.72-.06,3.48.64.76,1.05,1.15,1.19,1.25l-.64-1.32.43-1.83c.75-1.58.81-.42.51,1.7.37.59.78,1.3,1.18,2.06.2.38.4.78.6,1.18l.25.53.12.3c.3.78.51,1.61.68,2.24.65-.76,1.48-1.15,2.25-1.97.38-.41.73-.95.96-1.74.18-.87.19-2.09-.05-3.42.53-1,1.01-2.17,1.28-3.63-.14-1.8-.29-3.13-.33-4.27-.03-1.12.11-2.06.25-3.04.26-1.94.64-3.98-.59-7.97-1.72-1.96-2.2-4.83-3.05-8.08-.83-3.22-2.08-6.86-4.94-9.58,1.7,1.34.74-.73-.17-2.51-.93-1.74-1.71-3.28.96-.93-.39-1.67-3.14-5.03-6.65-8.12-1.74-1.55-3.65-3.05-5.43-4.4-1.77-1.36-3.43-2.55-4.6-3.69,1.06.25,1.04-.18,2.44.48-2.02-1.04-3.35-1.75-4.3-2.31-.94-.58-1.51-1.02-1.99-1.46-.98-.87-1.66-1.78-4.86-2.95l-.29,1.58c-2.55-.36-3-1.64-5.31-1.94,1.76.58,5.13,2.48,3.03,2.49-2.99-.54-5.49-.57-8.62-1.02.04-.61,2.29-.57,3.83-.43,0,0-1.71-.4-3.49-.77-1.78-.38-3.64-.74-3.86-1.12,2.57-.36,5.84.11,8.28-.25-2.33-.62-3.57-.86-4.14-1.04-.58-.17-.51-.25-.29-.33.44-.16,1.56-.36-.74-1.28.55,1.02-1.57.91-4.46.8-2.89-.12-6.59-.13-9.09.36-.61-.72,3.54-.56,4.82-1.11-5.05-1.47-8.85-.76-12.67.47-3.82,1.29-7.84,3.06-13.82,5.2.15-.31,1.52-1.1,2.23-1.45-2.72,1.32-5.16,2.13-7.33,3-2.17.87-4.05,1.83-5.41,3.37-2.52,1.51-3.03,1.29-3.87,1.31-.41.02-.91.11-1.75.56-.42.24-.92.57-1.54,1.03-.32.23-.64.51-1.01.82-.1.09-.21.18-.32.27-.05.04-.11.09-.16.15.9.47.21.96-.48,1.6-.69.63-1.29,1.37-1.09,2.69l-.18.06-.09.03h-.04s-.04-.04-.05-.06l-1.5-2.17c-.82.12-.94,1.06-1.17,1.77-.13.35-.32.63-.83.66-.25.02-.59-.03-1.03-.14-.11-.03-.22-.05-.39-.11l-.12-.04-.19-.07c-.13-.05-.27-.1-.41-.15-.55-.21-1.17-.43-1.86-.69-2.42-1.13-3.56-1.74-3.93-2.25-.38-.5,0-.84.52-1.14,1.03-.6,2.73-1.06-.29-2.52-.99.11-1.96.23-2.92.39-.84-.35-1.69-.65-2.54-.97-.87-.31-1.77-.61-2.67-.88l.85.04c-1.69-.1-4.02-.38-5.97-.61-1.94-.24-3.49-.47-3.5-.77.56-.5,4.28-.33,4.85-.71-1.8.16-4.66-.15-7.99-.26-.83-.03-1.69-.05-2.56-.05-.44,0-.88,0-1.32.01h-.33s-.08.01-.06,0c.06,0,0,0,.02,0h-.03s-.1-.05-.1-.05c-.27-.13-.51-.16-.7-.27-.1-.12-.21-.2-.33-.24-.13-.04-.25-.08-.37-.11-.56-.2-1.23-.41-1.82-.56-1.22-.31-2.38-.48-3.43-.51-.32-.02-.37.02-.54.04-.15.02-.29.05-.43.08-.28.06-.54.14-.79.24-2.54-1.06-7.98-2.12-7.09-2.94-1.33.43-4.29-.26-7.38-1.04l-1.16-.29-.58-.15-.29-.07-.42-.1c-1.39-.3-2.78-.48-4.1-.56-2.65-.15-4.99.16-6.56.66.39-.29-1-.43-3.09-.05-2.09.35-4.84,1.35-6.95,2.79,1.54-.73,2.52-1,3.01-1.08.49-.07.5.07.21.36-.6.56-2.4,1.76-4,3.29-1.06.47-2.42,1.31-3.81,2.48-1.4,1.17-2.81,2.67-4.04,4.32-2.52,3.3-4.1,7.21-5.08,9.75l26,.18c-.04-.84.05-1.44.29-1.78-2.06-4.66-2.75-2.6-4.16-3.4.19-3.36-2.44-13.29-.19-11.97.43,2.73,1.54,8.81,2.48,7.38-.57-5.26-1.04-2.09-2.25-6.24.41.23.42-3.13,1.14-2.45-.8-2.43-1.64-5.91-2.2-9.52.27,2.86-.27,2.06-.86.97-.3-.57-.59-1.1-.85-1.46-.15-.25-.26-.34-.3-.17-.03.07-.02.27-.03.42-.01.13-.02.3-.01.52l2.62,4.99c1.66,6.41-.67,1.59-.53,4.14-1.26-4.5-2.22-6.77-3.16-8.55-.12-.22-.23-.44-.35-.65-.05-.07-.13-.26-.21-.45l-.24-.54c-.16-.34-.35-.75-.51-1.02l-.12-.22c-.04-.07-.05-.04-.07-.06l-.13-.07c-.35-.19-.74-.44-1.25-.82-.16-.08-.15-.19-.17-.3-.02-.12-.02-.25-.03-.39-.01-.29-.01-.64,0-1.05l.05-.07s.01,0,.03-.04l.05-.13c.06-.17.12-.35.19-.54.12-.37.25-.76.37-1.17.25-.82.47-1.69.67-2.53.38-1.69.6-3.27.64-4.02-.04,2.4.26,3.42.75,3.51.48.08,1.1-.81,1.34-2.24-.51-4.25-.67-7.91-.86-11.57-.16-1.8-.33-3.6-.6-5.37-.18-.87-.37-1.74-.59-2.61-.22-.87-.46-1.73-.83-2.55.3.72.47,1.32.57,1.82.11.49.16.87.18,1.15.02.55-.12.71-.36.63-.48-.17-1.27-1.3-1.9-2.21-.89-1.57-1.57-2.82-2.16-3.79-.63-.95-1.08-1.67-1.41-2.23-.65-1.11-.78-1.56-.75-1.82.08-.54.99-.39-.63-3.19-7.18-8.81-15.36-14.08-23.8-16.97-1.06-.33-2.13-.66-3.19-.96-1.07-.29-2.15-.46-3.23-.67-2.16-.47-4.34-.53-6.53-.67-1.09-.03-2.19.05-3.3.11-1.1.06-2.21.13-3.32.35-1.11.19-2.22.4-3.34.63-1.11.29-2.21.65-3.32,1.01,2.98-.3,5.95-.25,8.82,0,.9-.55,1.83-1.1,2.79-1.64,1.72.19,2.47.67,2.6,1.04.13.39-.37.78-1.16,1.16-.79.41-1.88.88-2.97,1.3-.54.2-1.09.41-1.61.6-.51.22-1,.44-1.43.62-.48-.19-3.32.12-5.48.67-2.18.42-3.71.92-1.84-.2-1.6.67-3.2,1.33-4.72,2.12-1.49.86-3.03,1.61-4.4,2.64.41-.04,1.04-.34,1.75-.61.7-.27,1.46-.57,2.04-.8,1.16-.44,1.59-.53-.36.79-.79.25-1.98.69-3.15,1.31-1.19.6-2.47,1.2-3.39,1.79-1.9,1.1-2.9,1.47-.5-.88-2.25,1.55-4.51,3.72-5.92,5.49-1.37,1.83-2.03,3.11-1.3,2.95-1.34,1.65-1.98,2.44-2.3,2.53-.3.1-.22-.45.09-1.34.16-.45.38-.98.63-1.55.27-.56.62-1.14.96-1.73.7-1.17,1.44-2.37,2.1-3.13-.68.58-1.23,1.12-1.7,1.58-.48.45-.89.81-1.24,1.1-.7.57-1.17.82-1.45.84-.56.06-.39-.82.21-1.79-2.26,2.6-4.15,5.5-5.81,8.51.8-2.13.26-2.47,1.16-4.63-1.08,1.38-1.91,2.79-2.65,4.15-.65,1.41-1.18,2.79-1.7,4.12-.48,1.35-.86,2.7-1.37,4.02-.27.65-.5,1.33-.75,2-.26.68-.55,1.36-.89,2.05l.3,1.43c.12.48.27.95.4,1.42-.24,1.16-.46,2.24-.67,3.25-.17,1.02-.25,1.97-.35,2.87-.09.9-.19,1.73-.24,2.52-.03.79-.05,1.53-.07,2.22,0,2.79.16,4.92.48,6.99.31,2.07.75,4.09,1.58,6.62.83,2.53,2.04,5.6,4.36,9.48-.27-1.01-.48-2.04-.67-3.06,2.69,3.76,4.28,5.72,5.43,7.55,1.19,1.79,2.03,3.37,3.91,5.59l15.19-25.7c-1.03-.48-2.31-.99-3.96-1.46-.41-.12-.85-.24-1.32-.35-.22-.05-.44-.1-.67-.16-.05-.01-.1-.02-.14-.03-.02,0-.06.03-.11.08-.32.34-.89.61-1.74,1.21-.39.27-.84.59-1.28,1.01-.21.01-.18-.17-.17-.3.03-.15.13-.31.26-.47.26-.32.65-.64.96-.9-.43.01-.94-.21-1.3-.8l-.04-.05-.02-.03s-.01,0-.02-.09c0-.27-.05-.59-.08-.89-.08-.6-.2-1.21-.3-1.81-.18-1.21-.52-2.4-.82-3.58-.67-2.34-1.48-4.57-2.36-6.6,1.64,2.51,2.81,5.03,3.54,7.65.42,1.3.63,2.64.86,4,.04.34.07.69.1,1.03v.24s.02.02.02.03l.03.05c.04.06.07.12.09.18.19-.04.34-.1.45-.15.06-.03.1-.06.14-.09l.03-.02s.02-.19.03-.28c.01-.24.02-.5.02-.77-.07-2.14-.45-4.98-1.49-7.87-1.01-2.89-2.54-5.86-4.44-8.38-1.89-2.52-3.99-4.68-5.86-6.29-1.46-.92-3.84-2.21-6.89-3.22-.77-.23-1.56-.48-2.39-.68-.84-.18-1.71-.34-2.59-.49-.89-.13-1.8-.19-2.72-.26l-.35-.02h-.17s-.1,0-.1,0h-.4c-.27.02-.53.04-.8.05-4.3.16-8.98.35-12.34.59,2.8,1.58,1.46,3.2-4.58,3.66.26-.2-.11-.43-.85-.67-.19-.05-.4-.12-.63-.18-.34-.05-.7-.11-1.09-.17-.79-.09-1.67-.25-2.63-.25-1.9-.05-4.05.18-6.05.65-2,.47-3.84,1.16-5.25,1.77.55-.56.03-.56-.93-.3-.96.27-2.31.88-3.36,1.41-1.05.52-1.81.96-1.7.59.06-.17.33-.56.96-1.16.62-.6,1.59-1.43,3.09-2.39,1.9-.85,3.45-1.06,5.09-1.33,1.65-.25,3.39-.56,6.03-1.11-1.64-.29-4.78-.32-8.54.85-3.74,1.13-8.02,3.6-11.39,7.3.05-.44.75-1.81,2.1-3.42,1.33-1.62,3.35-3.44,5.67-4.77-2.26,1.87-.65,1.22-.13,1.33Z"/>
          <path class="cls-5" d="M506.41,246.99c-.26.1-.51.2-.77.31l1.07-.14c-.36.04-.4-.04-.3-.17Z"/>
          <path class="cls-5" d="M88.46,146.58c-.7.4-1.86,1.31-1.77,1.49.78-.61,1.48-1.12,1.77-1.49Z"/>
          <path class="cls-5" d="M123.57,278.91c-.21-.16-.23-.3-.31-.43-.18.07-.16.19.31.43Z"/>
          <path class="cls-5" d="M518.62,251.87c-.58.57-1.19,1.1-1.81,1.62.73-.48.99-.84,1.81-1.62Z"/>
        </g>
      </g>
      <path class="cls-4" d="M101.44,172.9l19.54-.75,15.84,56.42,13.26-57.09,16.81-.65,17.6,54.99,11.01-56.55,19.08-.74-19.52,79.63-18.63.72-17.62-55.59-13.12,56.78-18.78.73-25.46-77.89Z"/>
      <path class="cls-2" d="M233.68,123.19l18.94,2.42-5.01,39.24c4.5-4.11,8.97-6.82,13.42-8.14,4.45-1.32,8.92-1.69,13.44-1.11,8.62,1.1,14.82,4.37,18.61,9.79,3.79,5.43,5.1,12.7,3.94,21.82l-6.69,52.32-18.94-2.42,6.22-48.71c.75-5.81.19-10.08-1.65-12.82-1.84-2.73-4.97-4.38-9.38-4.94-2.51-.32-4.99-.18-7.47.42s-4.78,1.73-6.93,3.39c-2.12,1.46-3.78,3.11-4.99,4.94-1.2,1.83-2.01,4.35-2.42,7.56l-5.88,46.01-18.94-2.42,13.72-107.35Z"/>
      <path class="cls-3" d="M308.2,142.83l18.55-4.54,18.74,76.56-18.55,4.54-18.74-76.56ZM309.26,99.91c-9.42,0-17.05,7.63-17.05,17.02s7.63,17.05,17.05,17.05,17.05-7.63,17.05-17.05-7.63-17.02-17.05-17.02ZM309.26,126.36c-5.21,0-9.42-4.22-9.42-9.42s4.22-9.42,9.42-9.42,9.42,4.22,9.42,9.42-4.22,9.42-9.42,9.42Z"/>
      <path class="cls-4" d="M365.65,166.76l18.29,3.61-2.11,10.71c4.82-4.09,9.56-6.69,14.2-7.78,4.64-1.09,9.25-1.19,13.81-.29,8.53,1.68,14.5,5.36,17.91,11.03,3.41,5.67,4.23,13.01,2.45,22.04l-10.2,51.75-18.74-3.69,9.5-48.18c1.13-5.75.87-10.05-.78-12.9-1.65-2.85-4.66-4.7-9.02-5.56-2.48-.49-4.97-.52-7.48-.08s-4.89,1.41-7.14,2.92c-2.22,1.32-3.99,2.84-5.31,4.59-1.32,1.75-2.3,4.21-2.92,7.38l-8.97,45.51-18.74-3.7,15.25-77.33Z"/>
      <path class="cls-2" d="M489.58,242.31c-12.01,2.79-22.08,1.42-30.21-4.11-8.13-5.53-13.67-14.64-16.62-27.34-2.06-8.86-2.23-16.73-.5-23.61,1.72-6.88,5.02-12.57,9.88-17.08,4.87-4.5,10.99-7.61,18.38-9.32,7.97-1.85,14.94-1.78,20.9.2,5.96,1.99,10.88,5.54,14.77,10.65,3.89,5.12,6.71,11.46,8.47,19.04l1.61,6.94-54.33,12.62c2.11,7.29,5.18,12.49,9.22,15.6,4.04,3.11,9.06,3.97,15.07,2.57,5.22-1.21,8.88-3.1,10.98-5.66,2.1-2.56,3.18-5.72,3.25-9.47l17.42-4.05c.55,8.17-1.47,15.12-6.05,20.86-4.58,5.73-11.99,9.79-22.23,12.16ZM488.11,176.36c-3.26-2.87-8.09-3.57-14.49-2.08-6.4,1.49-10.55,4.39-12.45,8.73-1.9,4.33-2.5,9.58-1.79,15.74l36.32-8.43c-1.8-6.43-4.34-11.08-7.6-13.95Z"/>
    </g>
    <path class="cls-2" d="M282.69,66.44c7.49,0,13.58,6.09,13.58,13.58s-6.09,13.58-13.58,13.58-13.58-6.09-13.58-13.58,6.09-13.58,13.58-13.58M282.69,60.12c-10.99,0-19.9,8.91-19.9,19.9s8.91,19.9,19.9,19.9,19.9-8.91,19.9-19.9-8.91-19.9-19.9-19.9h0Z"/>
    <path class="cls-4" d="M318.01,47.31c5.02,0,9.11,4.09,9.11,9.11s-4.09,9.11-9.11,9.11-9.11-4.09-9.11-9.11,4.09-9.11,9.11-9.11M318.01,41c-8.52,0-15.43,6.91-15.43,15.43s6.91,15.43,15.43,15.43,15.43-6.91,15.43-15.43-6.91-15.43-15.43-15.43h0Z"/>
  </g>
</svg>