<svg width="448" height="289" viewBox="0 0 448 289" fill="none" xmlns="http://www.w3.org/2000/svg">
<path d="M13.575 79.825L19.975 81.325V139.725C12.975 143.925 7.975 151.225 7.975 160.025C7.975 168.425 12.575 175.425 19.075 179.725L3.475 242.025C1.775 248.925 5.575 256.025 11.075 256.025H52.875C58.375 256.025 62.175 248.925 60.475 242.025L44.875 179.725C51.375 175.425 55.975 168.425 55.975 160.025C55.975 151.225 50.975 143.925 43.975 139.725V87.125L109.975 103.025C101.375 120.225 95.975 139.425 95.975 160.025C95.975 230.725 153.275 288.025 223.975 288.025C294.675 288.025 351.975 230.725 351.975 160.025C351.975 139.425 346.675 120.225 337.975 103.025L434.275 79.825C452.475 75.425 452.475 52.725 434.275 48.325L243.875 2.325C230.875 -0.775 217.175 -0.775 204.175 2.325L13.575 48.225C-4.525 52.625 -4.525 75.425 13.575 79.825Z" fill="black"/>
</svg>
