<svg width="18" height="17" viewBox="0 0 18 17" fill="none" xmlns="http://www.w3.org/2000/svg">
<path d="M16 11.5C16 11.5 14 13.67 14 15C14 15.5304 14.2107 16.0391 14.5858 16.4142C14.9609 16.7893 15.4696 17 16 17C16.5304 17 17.0391 16.7893 17.4142 16.4142C17.7893 16.0391 18 15.5304 18 15C18 13.67 16 11.5 16 11.5ZM2.21 10L7 5.21L11.79 10M13.56 8.94L4.62 0L3.21 1.41L5.59 3.79L0.439998 8.94C-0.150002 9.5 -0.150002 10.47 0.439998 11.06L5.94 16.56C6.23 16.85 6.62 17 7 17C7.38 17 7.77 16.85 8.06 16.56L13.56 11.06C14.15 10.47 14.15 9.5 13.56 8.94Z" fill="#CD6C29"/>
</svg>
