<svg width="576" height="512" viewBox="0 0 576 512" fill="none" xmlns="http://www.w3.org/2000/svg">
<path d="M571.31 193.94L548.68 171.31C542.43 165.06 532.3 165.06 526.05 171.31L514.74 182.62L485.84 153.72C491.47 132.41 486.2 108.82 469.49 92.11L424.24 46.86C361.76 -15.62 260.45 -15.62 197.96 46.86L288.47 92.11V110.86C288.47 127.83 295.21 144.11 307.22 156.11L356.36 205.25C373.07 221.96 396.66 227.23 417.97 221.6L446.87 250.5L435.56 261.81C429.31 268.06 429.31 278.19 435.56 284.44L458.19 307.07C464.44 313.32 474.57 313.32 480.82 307.07L571.33 216.56C577.56 210.32 577.56 200.19 571.31 193.94ZM284.59 178.74C280.89 175.04 277.75 170.95 274.74 166.79L19.64 404.96C-5.92999 428.84 -6.61999 469.15 18.11 493.89C42.84 518.63 83.16 517.94 107.04 492.36L345.17 237.29C341.21 234.38 337.27 231.42 333.73 227.88L284.59 178.74Z" fill="#CD6C29"/>
</svg>
