<svg width="627" height="99" viewBox="0 0 627 99" fill="none" xmlns="http://www.w3.org/2000/svg">
<path d="M20 40.5V26L32.5 18L45 26V40.5L32.5 49L20 40.5Z" stroke="white" stroke-width="6" stroke-linejoin="round"/>
<path d="M3 70.5V56L15.5 48L28 56V70.5L15.5 79L3 70.5Z" stroke="white" stroke-width="6" stroke-linejoin="round"/>
<path d="M37 70.5V56L49.5 48L62 56V70.5L49.5 79L37 70.5Z" stroke="white" stroke-width="6" stroke-linejoin="round"/>
<path d="M83.832 79V35.422H96.468V79H83.832ZM90.15 29.347C87.828 29.347 85.938 28.672 84.48 27.322C83.022 25.972 82.293 24.298 82.293 22.3C82.293 20.302 83.022 18.628 84.48 17.278C85.938 15.928 87.828 15.253 90.15 15.253C92.472 15.253 94.362 15.901 95.82 17.197C97.278 18.439 98.007 20.059 98.007 22.057C98.007 24.163 97.278 25.918 95.82 27.322C94.416 28.672 92.526 29.347 90.15 29.347ZM123.666 79.648C119.562 79.648 115.863 78.73 112.569 76.894C109.275 75.004 106.656 72.385 104.712 69.037C102.822 65.689 101.877 61.747 101.877 57.211C101.877 52.621 102.822 48.652 104.712 45.304C106.656 41.956 109.275 39.364 112.569 37.528C115.863 35.692 119.562 34.774 123.666 34.774C127.338 34.774 130.551 35.584 133.305 37.204C136.059 38.824 138.192 41.281 139.704 44.575C141.216 47.869 141.972 52.081 141.972 57.211C141.972 62.287 141.243 66.499 139.785 69.847C138.327 73.141 136.221 75.598 133.467 77.218C130.767 78.838 127.5 79.648 123.666 79.648ZM125.853 69.28C127.905 69.28 129.768 68.794 131.442 67.822C133.116 66.85 134.439 65.473 135.411 63.691C136.437 61.855 136.95 59.695 136.95 57.211C136.95 54.673 136.437 52.513 135.411 50.731C134.439 48.949 133.116 47.572 131.442 46.6C129.768 45.628 127.905 45.142 125.853 45.142C123.747 45.142 121.857 45.628 120.183 46.6C118.509 47.572 117.159 48.949 116.133 50.731C115.161 52.513 114.675 54.673 114.675 57.211C114.675 59.695 115.161 61.855 116.133 63.691C117.159 65.473 118.509 66.85 120.183 67.822C121.857 68.794 123.747 69.28 125.853 69.28ZM137.274 79V70.09L137.517 57.13L136.707 44.251V18.898H149.343V79H137.274ZM179.425 79.648C174.457 79.648 170.083 78.676 166.303 76.732C162.577 74.788 159.688 72.142 157.636 68.794C155.584 65.392 154.558 61.531 154.558 57.211C154.558 52.837 155.557 48.976 157.555 45.628C159.607 42.226 162.388 39.58 165.898 37.69C169.408 35.746 173.377 34.774 177.805 34.774C182.071 34.774 185.905 35.692 189.307 37.528C192.763 39.31 195.49 41.902 197.488 45.304C199.486 48.652 200.485 52.675 200.485 57.373C200.485 57.859 200.458 58.426 200.404 59.074C200.35 59.668 200.296 60.235 200.242 60.775H164.845V53.404H193.6L188.74 55.591C188.74 53.323 188.281 51.352 187.363 49.678C186.445 48.004 185.176 46.708 183.556 45.79C181.936 44.818 180.046 44.332 177.886 44.332C175.726 44.332 173.809 44.818 172.135 45.79C170.515 46.708 169.246 48.031 168.328 49.759C167.41 51.433 166.951 53.431 166.951 55.753V57.697C166.951 60.073 167.464 62.179 168.49 64.015C169.57 65.797 171.055 67.174 172.945 68.146C174.889 69.064 177.157 69.523 179.749 69.523C182.071 69.523 184.096 69.172 185.824 68.47C187.606 67.768 189.226 66.715 190.684 65.311L197.407 72.601C195.409 74.869 192.898 76.624 189.874 77.866C186.85 79.054 183.367 79.648 179.425 79.648ZM231.201 79V70.495L230.391 68.632V53.404C230.391 50.704 229.554 48.598 227.88 47.086C226.26 45.574 223.749 44.818 220.347 44.818C218.025 44.818 215.73 45.196 213.462 45.952C211.248 46.654 209.358 47.626 207.792 48.868L203.256 40.039C205.632 38.365 208.494 37.069 211.842 36.151C215.19 35.233 218.592 34.774 222.048 34.774C228.69 34.774 233.847 36.34 237.519 39.472C241.191 42.604 243.027 47.491 243.027 54.133V79H231.201ZM217.917 79.648C214.515 79.648 211.599 79.081 209.169 77.947C206.739 76.759 204.876 75.166 203.58 73.168C202.284 71.17 201.636 68.929 201.636 66.445C201.636 63.853 202.257 61.585 203.499 59.641C204.795 57.697 206.82 56.185 209.574 55.105C212.328 53.971 215.919 53.404 220.347 53.404H231.93V60.775H221.724C218.754 60.775 216.702 61.261 215.568 62.233C214.488 63.205 213.948 64.42 213.948 65.878C213.948 67.498 214.569 68.794 215.811 69.766C217.107 70.684 218.862 71.143 221.076 71.143C223.182 71.143 225.072 70.657 226.746 69.685C228.42 68.659 229.635 67.174 230.391 65.23L232.335 71.062C231.417 73.87 229.743 76.003 227.313 77.461C224.883 78.919 221.751 79.648 217.917 79.648ZM288.743 79.648C283.613 79.648 279.617 78.352 276.755 75.76C273.893 73.114 272.462 69.199 272.462 64.015V25.783H285.098V63.853C285.098 65.689 285.584 67.12 286.556 68.146C287.528 69.118 288.851 69.604 290.525 69.604C292.523 69.604 294.224 69.064 295.628 67.984L299.03 76.894C297.734 77.812 296.168 78.514 294.332 79C292.55 79.432 290.687 79.648 288.743 79.648ZM265.739 46.114V36.394H295.952V46.114H265.739ZM329.37 34.774C332.826 34.774 335.904 35.476 338.604 36.88C341.358 38.23 343.518 40.336 345.084 43.198C346.65 46.006 347.433 49.624 347.433 54.052V79H334.797V55.996C334.797 52.486 334.014 49.894 332.448 48.22C330.936 46.546 328.776 45.709 325.968 45.709C323.97 45.709 322.161 46.141 320.541 47.005C318.975 47.815 317.733 49.084 316.815 50.812C315.951 52.54 315.519 54.754 315.519 57.454V79H302.883V18.898H315.519V47.491L312.684 43.846C314.25 40.93 316.491 38.689 319.407 37.123C322.323 35.557 325.644 34.774 329.37 34.774ZM377.591 79.648C372.623 79.648 368.249 78.676 364.469 76.732C360.743 74.788 357.854 72.142 355.802 68.794C353.75 65.392 352.724 61.531 352.724 57.211C352.724 52.837 353.723 48.976 355.721 45.628C357.773 42.226 360.554 39.58 364.064 37.69C367.574 35.746 371.543 34.774 375.971 34.774C380.237 34.774 384.071 35.692 387.473 37.528C390.929 39.31 393.656 41.902 395.654 45.304C397.652 48.652 398.651 52.675 398.651 57.373C398.651 57.859 398.624 58.426 398.57 59.074C398.516 59.668 398.462 60.235 398.408 60.775H363.011V53.404H391.766L386.906 55.591C386.906 53.323 386.447 51.352 385.529 49.678C384.611 48.004 383.342 46.708 381.722 45.79C380.102 44.818 378.212 44.332 376.052 44.332C373.892 44.332 371.975 44.818 370.301 45.79C368.681 46.708 367.412 48.031 366.494 49.759C365.576 51.433 365.117 53.431 365.117 55.753V57.697C365.117 60.073 365.63 62.179 366.656 64.015C367.736 65.797 369.221 67.174 371.111 68.146C373.055 69.064 375.323 69.523 377.915 69.523C380.237 69.523 382.262 69.172 383.99 68.47C385.772 67.768 387.392 66.715 388.85 65.311L395.573 72.601C393.575 74.869 391.064 76.624 388.04 77.866C385.016 79.054 381.533 79.648 377.591 79.648ZM424.559 79.648C419.915 79.648 415.784 78.676 412.166 76.732C408.602 74.788 405.767 72.142 403.661 68.794C401.609 65.392 400.583 61.531 400.583 57.211C400.583 52.837 401.609 48.976 403.661 45.628C405.767 42.226 408.602 39.58 412.166 37.69C415.784 35.746 419.915 34.774 424.559 34.774C429.149 34.774 433.253 35.746 436.871 37.69C440.489 39.58 443.324 42.199 445.376 45.547C447.428 48.895 448.454 52.783 448.454 57.211C448.454 61.531 447.428 65.392 445.376 68.794C443.324 72.142 440.489 74.788 436.871 76.732C433.253 78.676 429.149 79.648 424.559 79.648ZM424.559 69.28C426.665 69.28 428.555 68.794 430.229 67.822C431.903 66.85 433.226 65.473 434.198 63.691C435.17 61.855 435.656 59.695 435.656 57.211C435.656 54.673 435.17 52.513 434.198 50.731C433.226 48.949 431.903 47.572 430.229 46.6C428.555 45.628 426.665 45.142 424.559 45.142C422.453 45.142 420.563 45.628 418.889 46.6C417.215 47.572 415.865 48.949 414.839 50.731C413.867 52.513 413.381 54.673 413.381 57.211C413.381 59.695 413.867 61.855 414.839 63.691C415.865 65.473 417.215 66.85 418.889 67.822C420.563 68.794 422.453 69.28 424.559 69.28ZM453.66 79V35.422H465.729V47.734L464.028 44.17C465.324 41.092 467.403 38.77 470.265 37.204C473.127 35.584 476.61 34.774 480.714 34.774V46.438C480.174 46.384 479.688 46.357 479.256 46.357C478.824 46.303 478.365 46.276 477.879 46.276C474.423 46.276 471.615 47.275 469.455 49.273C467.349 51.217 466.296 54.268 466.296 58.426V79H453.66ZM506.298 79.648C501.33 79.648 496.956 78.676 493.176 76.732C489.45 74.788 486.561 72.142 484.509 68.794C482.457 65.392 481.431 61.531 481.431 57.211C481.431 52.837 482.43 48.976 484.428 45.628C486.48 42.226 489.261 39.58 492.771 37.69C496.281 35.746 500.25 34.774 504.678 34.774C508.944 34.774 512.778 35.692 516.18 37.528C519.636 39.31 522.363 41.902 524.361 45.304C526.359 48.652 527.358 52.675 527.358 57.373C527.358 57.859 527.331 58.426 527.277 59.074C527.223 59.668 527.169 60.235 527.115 60.775H491.718V53.404H520.473L515.613 55.591C515.613 53.323 515.154 51.352 514.236 49.678C513.318 48.004 512.049 46.708 510.429 45.79C508.809 44.818 506.919 44.332 504.759 44.332C502.599 44.332 500.682 44.818 499.008 45.79C497.388 46.708 496.119 48.031 495.201 49.759C494.283 51.433 493.824 53.431 493.824 55.753V57.697C493.824 60.073 494.337 62.179 495.363 64.015C496.443 65.797 497.928 67.174 499.818 68.146C501.762 69.064 504.03 69.523 506.622 69.523C508.944 69.523 510.969 69.172 512.697 68.47C514.479 67.768 516.099 66.715 517.557 65.311L524.28 72.601C522.282 74.869 519.771 76.624 516.747 77.866C513.723 79.054 510.24 79.648 506.298 79.648ZM588.34 34.774C591.796 34.774 594.847 35.476 597.493 36.88C600.193 38.23 602.299 40.336 603.811 43.198C605.377 46.006 606.16 49.624 606.16 54.052V79H593.524V55.996C593.524 52.486 592.795 49.894 591.337 48.22C589.879 46.546 587.827 45.709 585.181 45.709C583.345 45.709 581.698 46.141 580.24 47.005C578.782 47.815 577.648 49.057 576.838 50.731C576.028 52.405 575.623 54.538 575.623 57.13V79H562.987V55.996C562.987 52.486 562.258 49.894 560.8 48.22C559.396 46.546 557.371 45.709 554.725 45.709C552.889 45.709 551.242 46.141 549.784 47.005C548.326 47.815 547.192 49.057 546.382 50.731C545.572 52.405 545.167 54.538 545.167 57.13V79H532.531V35.422H544.6V47.329L542.332 43.846C543.844 40.876 545.977 38.635 548.731 37.123C551.539 35.557 554.725 34.774 558.289 34.774C562.285 34.774 565.768 35.8 568.738 37.852C571.762 39.85 573.76 42.928 574.732 47.086L570.277 45.871C571.735 42.469 574.057 39.769 577.243 37.771C580.483 35.773 584.182 34.774 588.34 34.774Z" fill="white"/>
<path d="M609.192 31V23.048H606.056V21.2H614.596V23.048H611.46V31H609.192ZM614.766 31V21.2H616.642L620.814 28.116H619.82L623.922 21.2H625.784L625.812 31H623.684L623.67 24.462H624.062L620.786 29.964H619.764L616.418 24.462H616.894V31H614.766Z" fill="white"/>
</svg>
