<svg width="197" height="75" viewBox="0 0 197 75" fill="none" xmlns="http://www.w3.org/2000/svg">
<path d="M93.1402 34H87.3322V32.104H88.4122V19.096H87.3322V17.2H92.3722C92.9162 17.2 93.5162 17.288 94.1722 17.464C94.8442 17.624 95.4682 17.888 96.0442 18.256C96.6202 18.624 97.1002 19.096 97.4842 19.672C97.8682 20.248 98.0602 20.944 98.0602 21.76C98.0602 23.216 97.6282 24.376 96.7642 25.24C95.9002 26.088 94.6522 26.512 93.0202 26.512H90.4042V32.104H93.1402V34ZM90.4042 19.096V24.592H92.4922C93.1962 24.592 93.7722 24.504 94.2202 24.328C94.6842 24.136 95.0522 23.904 95.3242 23.632C95.5962 23.36 95.7882 23.056 95.9002 22.72C96.0122 22.384 96.0682 22.064 96.0682 21.76C96.0682 21.408 95.9722 21.072 95.7802 20.752C95.6042 20.432 95.3642 20.144 95.0602 19.888C94.7402 19.648 94.3562 19.456 93.9082 19.312C93.4762 19.168 93.0122 19.096 92.5162 19.096H90.4042ZM111.179 34H107.603V33.52C107.603 33.408 107.603 33.328 107.603 33.28C107.603 33.232 107.603 33.152 107.603 33.04C107.587 33.088 107.507 33.176 107.363 33.304C107.219 33.432 107.019 33.56 106.763 33.688C106.491 33.832 106.171 33.952 105.803 34.048C105.435 34.16 105.019 34.216 104.555 34.216C103.883 34.216 103.251 34.096 102.659 33.856C102.067 33.6 101.555 33.256 101.123 32.824C100.691 32.392 100.347 31.896 100.091 31.336C99.8506 30.76 99.7306 30.152 99.7306 29.512C99.7306 28.888 99.8506 28.288 100.091 27.712C100.347 27.136 100.691 26.632 101.123 26.2C101.555 25.768 102.067 25.424 102.659 25.168C103.251 24.912 103.883 24.784 104.555 24.784C105.435 24.784 106.131 24.944 106.643 25.264C107.155 25.568 107.475 25.856 107.603 26.128C107.619 25.968 107.635 25.792 107.651 25.6C107.683 25.392 107.699 25.192 107.699 25H109.355V32.104H111.179V34ZM104.555 26.728C104.123 26.728 103.723 26.808 103.355 26.968C102.987 27.112 102.683 27.32 102.443 27.592C102.219 27.832 102.043 28.112 101.915 28.432C101.803 28.752 101.747 29.104 101.747 29.488C101.747 29.936 101.835 30.352 102.011 30.736C102.203 31.12 102.459 31.44 102.779 31.696C103.003 31.872 103.267 32.016 103.571 32.128C103.875 32.224 104.203 32.272 104.555 32.272C104.955 32.272 105.315 32.208 105.635 32.08C105.971 31.952 106.259 31.776 106.499 31.552C106.771 31.296 106.979 30.992 107.123 30.64C107.283 30.288 107.363 29.904 107.363 29.488C107.363 29.072 107.283 28.688 107.123 28.336C106.979 27.984 106.779 27.688 106.523 27.448C106.267 27.224 105.971 27.048 105.635 26.92C105.315 26.792 104.955 26.728 104.555 26.728ZM118.184 34H112.856V32.104H114.68V26.896H113.096V25H116.432V25.216C116.464 25.6 116.488 25.952 116.504 26.272C116.536 26.576 116.568 26.92 116.6 27.304C116.92 26.536 117.432 25.928 118.136 25.48C118.856 25.016 119.648 24.784 120.512 24.784C121.456 24.784 122.2 25.032 122.744 25.528C123.288 26.024 123.576 26.672 123.608 27.472V32.104H125.096V34H119.768V32.104H121.616V28.384C121.584 27.952 121.424 27.584 121.136 27.28C120.864 26.96 120.424 26.784 119.816 26.752C119.4 26.752 119 26.824 118.616 26.968C118.248 27.112 117.92 27.312 117.632 27.568C117.344 27.824 117.112 28.128 116.936 28.48C116.76 28.832 116.672 29.216 116.672 29.632V32.104H118.184V34ZM131.578 26.728C131.13 26.728 130.722 26.808 130.354 26.968C130.002 27.112 129.698 27.32 129.442 27.592C129.25 27.816 129.09 28.072 128.962 28.36C128.85 28.648 128.786 28.96 128.77 29.296C129.522 29.024 130.266 28.752 131.002 28.48C131.754 28.192 132.506 27.912 133.258 27.64C133.034 27.368 132.778 27.152 132.49 26.992C132.218 26.816 131.914 26.728 131.578 26.728ZM134.626 32.944C134.226 33.344 133.77 33.656 133.258 33.88C132.746 34.104 132.186 34.216 131.578 34.216C130.906 34.216 130.274 34.096 129.682 33.856C129.106 33.6 128.602 33.256 128.17 32.824C127.738 32.392 127.394 31.896 127.138 31.336C126.898 30.76 126.778 30.144 126.778 29.488C126.778 28.848 126.898 28.24 127.138 27.664C127.394 27.088 127.738 26.584 128.17 26.152C128.602 25.736 129.106 25.408 129.682 25.168C130.274 24.912 130.906 24.784 131.578 24.784C132.074 24.784 132.546 24.888 132.993 25.096C133.458 25.288 133.874 25.56 134.242 25.912C134.594 26.264 134.906 26.688 135.178 27.184C135.45 27.664 135.658 28.192 135.802 28.768C134.714 29.168 133.626 29.568 132.538 29.968C131.466 30.368 130.386 30.768 129.298 31.168C129.538 31.504 129.85 31.776 130.234 31.984C130.634 32.176 131.082 32.272 131.578 32.272C131.946 32.272 132.282 32.208 132.586 32.08C132.89 31.952 133.162 31.76 133.402 31.504L134.626 32.944ZM142.91 34H137.582V32.104H139.406V17.896H137.822V16H141.398V32.104H142.91V34ZM157.526 32.992C156.886 33.36 156.198 33.656 155.462 33.88C154.742 34.088 153.974 34.192 153.158 34.192C151.974 34.192 150.862 33.968 149.822 33.52C148.782 33.072 147.878 32.456 147.11 31.672C146.326 30.904 145.71 30 145.262 28.96C144.814 27.92 144.59 26.808 144.59 25.624C144.59 24.44 144.814 23.328 145.262 22.288C145.71 21.232 146.326 20.312 147.11 19.528C147.878 18.76 148.782 18.152 149.822 17.704C150.862 17.24 151.974 17.008 153.158 17.008C153.974 17.008 154.742 17.112 155.462 17.32C156.198 17.528 156.894 17.824 157.55 18.208V20.896H155.654V19.432C155.254 19.256 154.846 19.128 154.43 19.048C154.014 18.952 153.59 18.904 153.158 18.904C152.246 18.904 151.39 19.08 150.59 19.432C149.806 19.784 149.118 20.264 148.526 20.872C147.918 21.496 147.438 22.216 147.086 23.032C146.75 23.848 146.582 24.712 146.582 25.624C146.582 26.536 146.75 27.4 147.086 28.216C147.438 29.032 147.918 29.736 148.526 30.328C149.118 30.936 149.806 31.416 150.59 31.768C151.39 32.12 152.246 32.296 153.158 32.296C153.75 32.296 154.318 32.224 154.862 32.08C155.422 31.92 155.95 31.696 156.446 31.408L157.526 32.992ZM164.566 34H159.238V32.104H161.062V26.896H159.478V25H162.814L162.91 26.248C162.942 26.632 162.95 26.808 162.934 26.776C162.934 26.744 162.95 26.92 162.982 27.304C163.174 26.904 163.414 26.552 163.702 26.248C164.006 25.928 164.318 25.664 164.638 25.456C164.974 25.232 165.294 25.064 165.598 24.952C165.918 24.84 166.198 24.784 166.438 24.784L166.294 26.752C165.894 26.752 165.518 26.8 165.166 26.896C164.83 26.992 164.534 27.128 164.278 27.304C163.894 27.56 163.59 27.888 163.366 28.288C163.158 28.688 163.054 29.136 163.054 29.632V32.104H164.566V34ZM179.569 34H175.993V33.52C175.993 33.408 175.993 33.328 175.993 33.28C175.993 33.232 175.993 33.152 175.993 33.04C175.977 33.088 175.897 33.176 175.753 33.304C175.609 33.432 175.409 33.56 175.153 33.688C174.881 33.832 174.561 33.952 174.193 34.048C173.825 34.16 173.409 34.216 172.945 34.216C172.273 34.216 171.641 34.096 171.049 33.856C170.457 33.6 169.945 33.256 169.513 32.824C169.081 32.392 168.737 31.896 168.481 31.336C168.241 30.76 168.121 30.152 168.121 29.512C168.121 28.888 168.241 28.288 168.481 27.712C168.737 27.136 169.081 26.632 169.513 26.2C169.945 25.768 170.457 25.424 171.049 25.168C171.641 24.912 172.273 24.784 172.945 24.784C173.825 24.784 174.521 24.944 175.033 25.264C175.545 25.568 175.865 25.856 175.993 26.128C176.009 25.968 176.025 25.792 176.041 25.6C176.073 25.392 176.089 25.192 176.089 25H177.745V32.104H179.569V34ZM172.945 26.728C172.513 26.728 172.113 26.808 171.745 26.968C171.377 27.112 171.073 27.32 170.833 27.592C170.609 27.832 170.433 28.112 170.305 28.432C170.193 28.752 170.137 29.104 170.137 29.488C170.137 29.936 170.225 30.352 170.401 30.736C170.593 31.12 170.849 31.44 171.169 31.696C171.393 31.872 171.657 32.016 171.961 32.128C172.265 32.224 172.593 32.272 172.945 32.272C173.345 32.272 173.705 32.208 174.025 32.08C174.361 31.952 174.649 31.776 174.889 31.552C175.161 31.296 175.369 30.992 175.513 30.64C175.673 30.288 175.753 29.904 175.753 29.488C175.753 29.072 175.673 28.688 175.513 28.336C175.369 27.984 175.169 27.688 174.913 27.448C174.657 27.224 174.361 27.048 174.025 26.92C173.705 26.792 173.345 26.728 172.945 26.728ZM186.574 34H181.246V32.104H182.71V26.944H181.246V25H182.686V21.592C182.686 20.696 182.83 19.904 183.118 19.216C183.422 18.528 183.83 17.952 184.342 17.488C184.854 17.008 185.462 16.648 186.166 16.408C186.886 16.152 187.654 16.008 188.47 15.976V17.872C187.926 17.904 187.422 18.008 186.958 18.184C186.51 18.344 186.118 18.576 185.782 18.88C185.43 19.2 185.158 19.592 184.966 20.056C184.774 20.52 184.678 21.056 184.678 21.664V25H187.51V26.944H184.678V32.104H186.574V34ZM195.117 34H191.325V26.944H189.309V25H191.325V19.144H193.317V25H195.669V26.944H193.317V32.104H195.117V34ZM106.007 58H100.199V56.104H102.095V43.096H100.199V41.2H106.007V43.096H104.087V56.104H106.007V58ZM113.004 58H107.676V56.104H109.5V50.896H107.916V49H111.252V49.216C111.284 49.6 111.308 49.952 111.324 50.272C111.356 50.576 111.388 50.92 111.42 51.304C111.74 50.536 112.252 49.928 112.956 49.48C113.676 49.016 114.468 48.784 115.332 48.784C116.276 48.784 117.02 49.032 117.564 49.528C118.108 50.024 118.396 50.672 118.428 51.472V56.104H119.916V58H114.588V56.104H116.436V52.384C116.404 51.952 116.244 51.584 115.956 51.28C115.684 50.96 115.244 50.784 114.636 50.752C114.22 50.752 113.82 50.824 113.436 50.968C113.068 51.112 112.74 51.312 112.452 51.568C112.164 51.824 111.932 52.128 111.756 52.48C111.58 52.832 111.492 53.216 111.492 53.632V56.104H113.004V58ZM127.406 58H123.614V50.944H121.598V49H123.614V43.144H125.606V49H127.958V50.944H125.606V56.104H127.406V58ZM134.437 50.728C133.989 50.728 133.581 50.808 133.213 50.968C132.861 51.112 132.557 51.32 132.301 51.592C132.109 51.816 131.949 52.072 131.821 52.36C131.709 52.648 131.645 52.96 131.629 53.296C132.381 53.024 133.125 52.752 133.861 52.48C134.613 52.192 135.365 51.912 136.117 51.64C135.893 51.368 135.637 51.152 135.349 50.992C135.077 50.816 134.773 50.728 134.437 50.728ZM137.485 56.944C137.085 57.344 136.629 57.656 136.117 57.88C135.605 58.104 135.045 58.216 134.437 58.216C133.765 58.216 133.133 58.096 132.541 57.856C131.965 57.6 131.461 57.256 131.029 56.824C130.597 56.392 130.253 55.896 129.997 55.336C129.757 54.76 129.637 54.144 129.637 53.488C129.637 52.848 129.757 52.24 129.997 51.664C130.253 51.088 130.597 50.584 131.029 50.152C131.461 49.736 131.965 49.408 132.541 49.168C133.133 48.912 133.765 48.784 134.437 48.784C134.933 48.784 135.405 48.888 135.853 49.096C136.317 49.288 136.733 49.56 137.101 49.912C137.453 50.264 137.765 50.688 138.037 51.184C138.309 51.664 138.517 52.192 138.661 52.768C137.573 53.168 136.485 53.568 135.397 53.968C134.325 54.368 133.245 54.768 132.157 55.168C132.397 55.504 132.709 55.776 133.093 55.984C133.493 56.176 133.941 56.272 134.437 56.272C134.805 56.272 135.141 56.208 135.445 56.08C135.749 55.952 136.021 55.76 136.261 55.504L137.485 56.944ZM145.77 58H140.442V56.104H142.266V50.896H140.682V49H144.018L144.114 50.248C144.146 50.632 144.154 50.808 144.138 50.776C144.138 50.744 144.154 50.92 144.186 51.304C144.378 50.904 144.618 50.552 144.906 50.248C145.21 49.928 145.522 49.664 145.842 49.456C146.178 49.232 146.498 49.064 146.802 48.952C147.122 48.84 147.402 48.784 147.642 48.784L147.498 50.752C147.098 50.752 146.722 50.8 146.37 50.896C146.034 50.992 145.738 51.128 145.482 51.304C145.098 51.56 144.794 51.888 144.57 52.288C144.362 52.688 144.258 53.136 144.258 53.632V56.104H145.77V58ZM154.652 58H149.324V56.104H151.004V50.896H149.324V49H152.996V56.104H154.652V58ZM153.26 45.52C153.26 45.888 153.132 46.192 152.876 46.432C152.62 46.656 152.34 46.768 152.036 46.768C151.716 46.768 151.428 46.656 151.172 46.432C150.916 46.192 150.788 45.888 150.788 45.52C150.788 45.152 150.916 44.848 151.172 44.608C151.428 44.368 151.716 44.248 152.036 44.248C152.34 44.248 152.62 44.368 152.876 44.608C153.132 44.848 153.26 45.152 153.26 45.52ZM164.564 56.824C164.132 57.256 163.62 57.6 163.028 57.856C162.436 58.096 161.804 58.216 161.132 58.216C160.46 58.216 159.828 58.096 159.236 57.856C158.66 57.6 158.156 57.256 157.724 56.824C157.292 56.392 156.948 55.896 156.692 55.336C156.452 54.776 156.332 54.16 156.332 53.488C156.332 52.848 156.452 52.24 156.692 51.664C156.948 51.088 157.292 50.584 157.724 50.152C158.156 49.736 158.66 49.408 159.236 49.168C159.828 48.912 160.46 48.784 161.132 48.784C161.804 48.784 162.436 48.912 163.028 49.168C163.62 49.408 164.132 49.736 164.564 50.152C164.996 50.584 165.332 51.088 165.572 51.664C165.828 52.24 165.956 52.848 165.956 53.488C165.956 54.144 165.828 54.76 165.572 55.336C165.332 55.896 164.996 56.392 164.564 56.824ZM159.14 55.456C159.38 55.712 159.668 55.912 160.004 56.056C160.34 56.2 160.7 56.272 161.084 56.272C161.468 56.272 161.828 56.2 162.164 56.056C162.5 55.912 162.796 55.712 163.052 55.456C163.308 55.216 163.508 54.928 163.652 54.592C163.796 54.256 163.868 53.896 163.868 53.512C163.868 53.128 163.796 52.768 163.652 52.432C163.508 52.096 163.308 51.8 163.052 51.544C162.796 51.288 162.5 51.088 162.164 50.944C161.828 50.8 161.468 50.728 161.084 50.728C160.7 50.728 160.34 50.8 160.004 50.944C159.668 51.088 159.38 51.288 159.14 51.544C158.884 51.8 158.684 52.096 158.54 52.432C158.396 52.768 158.324 53.128 158.324 53.512C158.324 53.896 158.396 54.256 158.54 54.592C158.684 54.928 158.884 55.216 159.14 55.456ZM172.957 58H167.629V56.104H169.453V50.896H167.869V49H171.205L171.301 50.248C171.333 50.632 171.341 50.808 171.325 50.776C171.325 50.744 171.341 50.92 171.373 51.304C171.565 50.904 171.805 50.552 172.093 50.248C172.397 49.928 172.709 49.664 173.029 49.456C173.365 49.232 173.685 49.064 173.989 48.952C174.309 48.84 174.589 48.784 174.829 48.784L174.685 50.752C174.285 50.752 173.909 50.8 173.557 50.896C173.221 50.992 172.925 51.128 172.669 51.304C172.285 51.56 171.981 51.888 171.757 52.288C171.549 52.688 171.445 53.136 171.445 53.632V56.104H172.957V58ZM182.296 57.112C182.072 57.416 181.76 57.672 181.36 57.88C180.96 58.088 180.44 58.192 179.8 58.192C179.208 58.192 178.64 58.12 178.096 57.976C177.552 57.816 177.12 57.56 176.8 57.208V55.12H178.576V56.056C178.768 56.136 178.952 56.192 179.128 56.224C179.32 56.24 179.552 56.248 179.824 56.248C179.952 56.248 180.08 56.232 180.208 56.2C180.352 56.168 180.48 56.112 180.592 56.032C180.672 55.968 180.736 55.888 180.784 55.792C180.848 55.68 180.88 55.544 180.88 55.384C180.88 55.096 180.792 54.88 180.616 54.736C180.456 54.576 180.232 54.448 179.944 54.352C179.672 54.24 179.368 54.136 179.032 54.04C178.696 53.928 178.376 53.776 178.072 53.584C177.784 53.408 177.544 53.152 177.352 52.816C177.16 52.48 177.064 52.032 177.064 51.472C177.064 50.976 177.16 50.56 177.352 50.224C177.544 49.888 177.784 49.616 178.072 49.408C178.36 49.184 178.672 49.024 179.008 48.928C179.344 48.832 179.648 48.784 179.92 48.784C180.08 48.784 180.272 48.8 180.496 48.832C180.736 48.864 180.976 48.92 181.216 49C181.456 49.08 181.688 49.184 181.912 49.312C182.152 49.44 182.36 49.6 182.536 49.792V51.88H180.76V50.848C180.632 50.816 180.512 50.792 180.4 50.776C180.288 50.744 180.168 50.728 180.04 50.728C179.864 50.728 179.712 50.752 179.584 50.8C179.456 50.832 179.352 50.88 179.272 50.944C179.192 51.024 179.136 51.12 179.104 51.232C179.072 51.328 179.064 51.44 179.08 51.568C179.112 51.76 179.232 51.92 179.44 52.048C179.648 52.16 179.896 52.272 180.184 52.384C180.456 52.496 180.752 52.624 181.072 52.768C181.392 52.912 181.688 53.088 181.96 53.296C182.232 53.52 182.456 53.8 182.632 54.136C182.808 54.456 182.896 54.864 182.896 55.36C182.896 55.584 182.848 55.856 182.752 56.176C182.672 56.496 182.52 56.808 182.296 57.112Z" fill="white"/>
<path d="M19.7157 50.3979V73.1969M42.5147 61.7974V73.1969M31.1152 27.5989V28.3588C33.6072 29.3172 35.6838 31.1198 36.9828 33.4524C38.2819 35.7851 38.7209 38.4996 38.2234 41.1228C37.7259 43.746 36.3234 46.1113 34.2605 47.8064C32.1976 49.5014 29.6052 50.4185 26.9354 50.3979H12.116C9.47803 50.3323 6.94454 49.3535 4.94763 47.6285C2.95073 45.9035 1.61412 43.5392 1.16577 40.9388C0.717421 38.3383 1.18511 35.6629 2.48907 33.3688C3.79303 31.0747 5.85248 29.3041 8.31617 28.3588V27.5989C8.31617 24.5755 9.51718 21.676 11.655 19.5382C13.7928 17.4004 16.6923 16.1993 19.7157 16.1993C22.739 16.1993 25.6385 17.4004 27.7764 19.5382C29.9142 21.676 31.1152 24.5755 31.1152 27.5989Z" stroke="white" stroke-width="2" stroke-linecap="round" stroke-linejoin="round"/>
<path d="M38.7149 61.7974H70.2535C70.9973 61.787 71.7216 61.5585 72.3367 61.1403C72.9518 60.7221 73.4306 60.1325 73.7138 59.4447C73.997 58.757 74.0721 58.0012 73.9298 57.2711C73.7876 56.5411 73.4342 55.8688 72.9134 55.3377L61.5139 42.7982H62.6539C63.3976 42.7878 64.1219 42.5593 64.737 42.1411C65.3521 41.7229 65.8309 41.1333 66.1141 40.4456C66.3973 39.7578 66.4724 39.002 66.3302 38.2719C66.1879 37.5419 65.8345 36.8696 65.3138 36.3385L53.9142 23.799H54.6742C55.4503 23.869 56.2292 23.6987 56.9053 23.3112C57.5814 22.9237 58.1219 22.3376 58.4538 21.6325C58.7856 20.9274 58.8926 20.1373 58.7603 19.3694C58.6279 18.6014 58.2627 17.8927 57.7141 17.3393L42.5147 1L37.1949 6.69976" stroke="white" stroke-width="2" stroke-linecap="round" stroke-linejoin="round"/>
<circle cx="37.5" cy="37.5" r="32.5" fill="white" fill-opacity="0.1"/>
</svg>
