<svg width="22" height="21" viewBox="0 0 22 21" fill="none" xmlns="http://www.w3.org/2000/svg">
<path d="M5.92539 14V20M11.9254 17V20M8.92539 8V8.2C9.58121 8.4522 10.1277 8.92661 10.4696 9.54048C10.8114 10.1544 10.927 10.8687 10.796 11.5591C10.6651 12.2494 10.296 12.8719 9.75314 13.318C9.21026 13.7641 8.52801 14.0054 7.82539 14H3.92539C3.23116 13.9827 2.56442 13.7251 2.0389 13.2712C1.51337 12.8172 1.16162 12.195 1.04363 11.5106C0.925634 10.8263 1.04872 10.1222 1.39188 9.51848C1.73504 8.91474 2.27702 8.44875 2.92539 8.2V8C2.92539 7.20435 3.24146 6.44129 3.80407 5.87868C4.36668 5.31607 5.12974 5 5.92539 5C6.72104 5 7.4841 5.31607 8.04671 5.87868C8.60932 6.44129 8.92539 7.20435 8.92539 8Z" stroke="black" stroke-width="2" stroke-linecap="round" stroke-linejoin="round"/>
<path d="M10.9254 17H19.2254C19.4211 16.9973 19.6117 16.9371 19.7736 16.8271C19.9355 16.717 20.0615 16.5618 20.136 16.3808C20.2106 16.1998 20.2303 16.001 20.1929 15.8088C20.1554 15.6167 20.0624 15.4398 19.9254 15.3L16.9254 12H17.2254C17.4211 11.9973 17.6117 11.9371 17.7736 11.8271C17.9355 11.717 18.0615 11.5619 18.136 11.3808C18.2106 11.1998 18.2303 11.001 18.1929 10.8088C18.1554 10.6167 18.0624 10.4398 17.9254 10.3L14.9254 7H15.1254C15.3296 7.01843 15.5346 6.97361 15.7125 6.87162C15.8905 6.76963 16.0327 6.6154 16.1201 6.42984C16.2074 6.24428 16.2355 6.03636 16.2007 5.83425C16.1659 5.63215 16.0698 5.44564 15.9254 5.3L11.9254 1L10.5254 2.5" stroke="black" stroke-width="2" stroke-linecap="round" stroke-linejoin="round"/>
</svg>
