<svg width="18" height="19" viewBox="0 0 18 19" fill="none" xmlns="http://www.w3.org/2000/svg">
<g clip-path="url(#clip0_9_3)">
<path d="M16.4991 13.0064V15.2564C16.4999 15.4652 16.4572 15.672 16.3735 15.8634C16.2898 16.0548 16.1671 16.2265 16.0132 16.3678C15.8592 16.509 15.6775 16.6165 15.4797 16.6834C15.2818 16.7503 15.0721 16.7752 14.8641 16.7564C12.5562 16.5056 10.3393 15.717 8.3916 14.4539C6.57947 13.3024 5.0431 11.766 3.8916 9.95386C2.62408 7.99726 1.83528 5.7696 1.5891 3.45136C1.57035 3.24396 1.595 3.03493 1.66147 2.83758C1.72794 2.64022 1.83477 2.45887 1.97517 2.30507C2.11557 2.15127 2.28645 2.02839 2.47694 1.94425C2.66743 1.86011 2.87335 1.81655 3.0816 1.81636H5.3316C5.69558 1.81277 6.04844 1.94167 6.32442 2.17901C6.6004 2.41635 6.78065 2.74594 6.8316 3.10636C6.92656 3.82641 7.10268 4.5334 7.3566 5.21386C7.4575 5.4823 7.47934 5.77404 7.41953 6.05452C7.35971 6.33499 7.22074 6.59244 7.0191 6.79636L6.0666 7.74886C7.13426 9.62652 8.68894 11.1812 10.5666 12.2489L11.5191 11.2964C11.723 11.0947 11.9805 10.9557 12.2609 10.8959C12.5414 10.8361 12.8332 10.8579 13.1016 10.9589C13.7821 11.2128 14.489 11.3889 15.2091 11.4839C15.5734 11.5353 15.9062 11.7188 16.144 11.9995C16.3818 12.2802 16.5082 12.6385 16.4991 13.0064Z" stroke="white" stroke-width="2" stroke-linecap="round" stroke-linejoin="round"/>
</g>
<defs>
<clipPath id="clip0_9_3">
<rect width="18" height="18" fill="white" transform="translate(0 0.316406)"/>
</clipPath>
</defs>
</svg>
