<svg width="20" height="20" viewBox="0 0 20 20" fill="none" xmlns="http://www.w3.org/2000/svg">
<path d="M14.249 0.438054L0.438011 14.2511C0.157375 14.5334 2.25604e-05 14.9154 0.000397397 15.3135C0.000772233 15.7115 0.158844 16.0933 0.440011 16.3751L3.62501 19.5621C3.90694 19.843 4.2886 20.0009 4.6866 20.0013C5.08459 20.0016 5.46656 19.8444 5.74901 19.5641L19.562 5.75105C19.842 5.46831 19.9991 5.08647 19.9991 4.68855C19.9991 4.29063 19.842 3.9088 19.562 3.62605L16.376 0.438054C16.0932 0.157454 15.7109 0 15.3125 0C14.9141 0 14.5318 0.157454 14.249 0.438054ZM3.92901 15.3121L3.17001 16.0711L1.27401 14.1741L2.03301 13.4151L3.92901 15.3121ZM6.96501 15.3121L6.20601 16.0711L2.79101 12.6561L3.55001 11.8961L6.96501 15.3121ZM6.96501 12.2761L6.20601 13.0351L4.30801 11.1391L5.06801 10.3791L6.96501 12.2761ZM8.48301 10.7581L7.72401 11.5171L5.82801 9.62105L6.58701 8.86105L8.48301 10.7581ZM11.518 10.7581L10.759 11.5171L7.34501 8.10305L8.10401 7.34405L11.518 10.7581ZM11.518 7.72305L10.759 8.48205L8.86301 6.58605L9.62201 5.82705L11.518 7.72305ZM13.036 6.20605L12.277 6.96505L10.38 5.06805L11.139 4.30905L13.036 6.20605ZM16.072 6.20605L15.312 6.96505L11.898 3.55005L12.657 2.79005L16.072 6.20605ZM16.071 3.17105L15.312 3.93005L13.416 2.03205L14.175 1.27405L16.071 3.17105Z" fill="#CD6C29"/>
</svg>
