<svg width="82" height="27" viewBox="0 0 82 27" fill="none" xmlns="http://www.w3.org/2000/svg">
<path d="M75.9252 26.6103L75.1564 22.696H66.5669L65.2002 26.5825L58.3157 26.5964C61.5932 18.57 64.8777 10.5465 68.1693 2.52603C68.7297 1.16559 69.7239 0.473198 71.1897 0.480156C72.3103 0.490594 74.1383 0.490593 76.6768 0.483634L82 26.5999L75.9252 26.6103ZM68.5007 17.3343H74.0358L71.9687 7.52242L68.5007 17.3343ZM24.1217 0.476676L31.0438 0.483634L20.3428 26.6138L13.3353 26.6068C11.5731 19.7048 9.83287 12.7971 8.11458 5.88363C7.77292 4.5058 7.09642 3.54201 5.79467 3.08621C3.87185 2.43008 1.94011 1.80142 0 1.20039L0 0.487115H11.0598C12.9731 0.487115 14.0903 1.43003 14.4491 3.36456C14.8113 5.30258 15.7201 10.2363 17.1824 18.1658L24.1217 0.476676ZM40.5558 0.483634L35.0823 26.6068L28.495 26.5999L33.9617 0.476676L40.5558 0.483634ZM53.915 0C55.8864 0 58.3703 0.62629 59.7985 1.20039L58.6437 6.61778C57.3522 6.08892 55.227 5.37564 53.4401 5.4C50.8434 5.44523 49.2376 6.55516 49.2376 7.61985C49.2376 9.35258 52.0256 10.2259 54.8956 12.1187C58.1722 14.2759 58.6027 16.2139 58.5617 18.3189C58.5173 22.689 54.8956 27 47.2559 27C43.7709 26.9478 42.5136 26.6486 39.6709 25.6222L40.8736 19.9682C43.7675 21.2034 44.9941 21.5965 47.4678 21.5965C49.733 21.5965 51.6771 20.664 51.6942 19.0392C51.7078 17.884 51.0108 17.3099 48.4688 15.8834C45.9268 14.4534 42.3598 12.4736 42.4077 8.50013C42.4658 3.41327 47.1978 0 53.9184 0H53.915Z" fill="#172B85"/>
</svg>
